<?xml version="1.0" encoding="utf-8"?>
<!-- Generator: Adobe Illustrator 19.2.0, SVG Export Plug-In . SVG Version: 6.00 Build 0)  -->
<svg version="1.1" id="Layer_1" xmlns="http://www.w3.org/2000/svg" xmlns:xlink="http://www.w3.org/1999/xlink" x="0px" y="0px"
	 viewBox="0 0 95.4 90.7" style="enable-background:new 0 0 95.4 90.7;fill: white;" xml:space="preserve">
<g>
	<path d="M95.4,34.6l-32.9-4.8L61,27c1.9-1.5,3.1-3.8,3.1-6.1l0.1-5.2l-8.1,1.3L47.7,0l-9.6,19.4l-7.1,0.8l0.4,4.6l0,0.2
		c0.3,1.5,1,2.8,2,3.8l-0.5,1L0,34.6l23.8,23.2l-5.6,32.8l29.5-15.5l29.5,15.5l-5.6-32.8L95.4,34.6z M58,32.7
		c-2.6,2.2-4.9,6.2-10,6.2c-5.1,0-5.7-4.3-8.5-6.2c-0.9-0.6,4.1,2.7,9.2,2.7C53.8,35.4,58.7,32.1,58,32.7z M56.5,27.5
		c-3.3,0.4-5.8-1.8-6.5-4.9l-4.4,0.5c0,3.2-2.9,6.1-6.2,6.5c-3.3,0.4-5.8-1.8-6.5-4.9l-0.3-3.1l17.4-2l12.6-2l0,3.4
		C62.6,24.2,59.8,27,56.5,27.5z"/>
</g>
</svg>
