<svg xmlns="http://www.w3.org/2000/svg" width="1325" height="237" viewBox="0 0 1325 237">
  <g fill="none" fill-rule="evenodd">
    <path fill="#352CEB" d="M1322.34585,165.587532 C1322.93543,165.393322 1323.58423,165.547499 1324.02327,165.98654 C1324.46231,166.42558 1324.61649,167.074381 1324.42228,167.66396 L1322.7882,172.617807 C1322.74684,172.742538 1322.726,172.873225 1322.726,173.004904 C1322.726,173.136583 1322.74684,173.26727 1322.7882,173.392001 L1324.42228,178.345848 C1324.61649,178.935427 1324.46231,179.584227 1324.02327,180.023268 C1323.58423,180.462309 1322.93543,180.616486 1322.34585,180.422276 L1317.392,178.788197 C1317.26727,178.746841 1317.13658,178.725997 1317.0049,178.725997 C1316.87322,178.725997 1316.74254,178.746841 1316.61781,178.788197 L1311.66396,180.422276 C1311.07438,180.616486 1310.42558,180.462309 1309.98654,180.023268 C1309.5475,179.584227 1309.39332,178.935427 1309.58753,178.345848 L1311.22161,173.392001 C1311.26297,173.26727 1311.28381,173.136583 1311.28381,173.004904 C1311.28381,172.873225 1311.26297,172.742538 1311.22161,172.617807 L1309.58753,167.66396 C1309.39332,167.074381 1309.5475,166.42558 1309.98654,165.98654 C1310.42558,165.547499 1311.07438,165.393322 1311.66396,165.587532 L1316.61781,167.22161 C1316.74254,167.262967 1316.87322,167.283811 1317.0049,167.283811 C1317.13658,167.283811 1317.26727,167.262967 1317.392,167.22161 L1322.34585,165.587532 Z" opacity=".82" transform="rotate(4 1317.005 173.005)"/>
    <path fill="#2B42EA" d="M21.3458482,34.5875323 C21.9354266,34.3933221 22.5842274,34.5474992 23.023268,34.9865398 C23.4623087,35.4255805 23.6164857,36.0743813 23.4222756,36.6639596 L21.7881974,41.6178071 C21.7468409,41.7425383 21.7259972,41.8732248 21.7259972,42.0049039 C21.7259972,42.136583 21.7468409,42.2672696 21.7881974,42.3920008 L23.4222756,47.3458482 C23.6164857,47.9354266 23.4623087,48.5842274 23.023268,49.023268 C22.5842274,49.4623087 21.9354266,49.6164857 21.3458482,49.4222756 L16.3920008,47.7881974 C16.2672696,47.7468409 16.136583,47.7259972 16.0049039,47.7259972 C15.8732248,47.7259972 15.7425383,47.7468409 15.6178071,47.7881974 L10.6639596,49.4222756 C10.0743813,49.6164857 9.42558047,49.4623087 8.98653983,49.023268 C8.54749919,48.5842274 8.39332214,47.9354266 8.58753228,47.3458482 L10.2216105,42.3920008 C10.262967,42.2672696 10.2838106,42.136583 10.2838106,42.0049039 C10.2838106,41.8732248 10.262967,41.7425383 10.2216105,41.6178071 L8.58753228,36.6639596 C8.39332214,36.0743813 8.54749919,35.4255805 8.98653983,34.9865398 C9.42558047,34.5474992 10.0743813,34.3933221 10.6639596,34.5875323 L15.6178071,36.2216105 C15.7425383,36.262967 15.8732248,36.2838106 16.0049039,36.2838106 C16.136583,36.2838106 16.2672696,36.262967 16.3920008,36.2216105 L21.3458482,34.5875323 Z" transform="rotate(176 16.005 42.005)"/>
    <path fill="#352CEB" d="M301.735753,21.1394146 C302.168111,20.9969938 302.643898,21.110057 302.965861,21.4320201 C303.287824,21.7539833 303.400888,22.2297706 303.258467,22.662128 L302.060143,26.2949494 C302.029815,26.386419 302.014529,26.4822558 302.014529,26.5788205 C302.014529,26.6753852 302.029815,26.771222 302.060143,26.8626915 L303.258467,30.495513 C303.400888,30.9278704 303.287824,31.4036577 302.965861,31.7256208 C302.643898,32.047584 302.168111,32.1606471 301.735753,32.0182264 L298.102932,30.8199024 C298.011462,30.7895743 297.915626,30.7742889 297.819061,30.7742889 C297.722496,30.7742889 297.626659,30.7895743 297.53519,30.8199024 L293.902368,32.0182264 C293.470011,32.1606471 292.994224,32.047584 292.672261,31.7256208 C292.350297,31.4036577 292.237234,30.9278704 292.379655,30.495513 L293.577979,26.8626915 C293.608307,26.771222 293.623593,26.6753852 293.623593,26.5788205 C293.623593,26.4822558 293.608307,26.386419 293.577979,26.2949494 L292.379655,22.662128 C292.237234,22.2297706 292.350297,21.7539833 292.672261,21.4320201 C292.994224,21.110057 293.470011,20.9969938 293.902368,21.1394146 L297.53519,22.3377386 C297.626659,22.3680667 297.722496,22.3833521 297.819061,22.3833521 C297.915626,22.3833521 298.011462,22.3680667 298.102932,22.3377386 L301.735753,21.1394146 Z" transform="rotate(-32 297.82 26.579)"/>
    <path stroke="#2B42EA" stroke-width="2" d="M382.032619,192.313298 L378.401533,193.511049 C378.20846,193.575065 378.006371,193.607476 377.802945,193.607476 C377.599519,193.607476 377.39743,193.575065 377.205816,193.511531 L373.573384,192.313336 C373.499455,192.288983 373.418196,192.308307 373.363251,192.363251 C373.308307,192.418196 373.288983,192.499455 373.313207,192.572994 L374.511049,196.204357 C374.575065,196.39743 374.607476,196.599519 374.607476,196.802945 C374.607476,197.006371 374.575065,197.20846 374.511531,197.400074 L373.313336,201.032505 C373.288983,201.106435 373.308307,201.187694 373.363251,201.242638 C373.418196,201.297583 373.499455,201.316907 373.572994,201.292683 L377.204357,200.094841 C377.39743,200.030825 377.599519,199.998413 377.802945,199.998413 C378.006371,199.998413 378.20846,200.030825 378.400074,200.094359 L382.032505,201.292554 C382.106435,201.316907 382.187694,201.297583 382.242638,201.242638 C382.297583,201.187694 382.316907,201.106435 382.292683,201.032895 L381.094841,197.401533 C381.030825,197.20846 380.998413,197.006371 380.998413,196.802945 C380.998413,196.599519 381.030825,196.39743 381.094359,196.205816 L382.292554,192.573384 C382.316907,192.499455 382.297583,192.418196 382.242638,192.363251 C382.187722,192.308335 382.106518,192.289003 382.032619,192.313298 Z M382.032619,192.313298 C382.032581,192.31331 382.032543,192.313323 382.032505,192.313336 L382.032895,192.313207 L382.032619,192.313298 Z" opacity=".83" transform="rotate(74 377.803 196.803)"/>
    <path stroke="#2B42EA" stroke-width="2" d="M641.445664,1.57693028 L638.144859,2.66573413 C637.960079,2.72700065 637.766701,2.75801528 637.572077,2.75801528 C637.377454,2.75801528 637.184076,2.72700065 637.000755,2.66621658 L633.69858,1.57695969 C633.663962,1.56555645 633.625955,1.57459476 633.600275,1.60027486 C633.574595,1.62595495 633.565556,1.66396235 633.576831,1.69819002 L634.665734,4.99929617 C634.727001,5.18407597 634.758015,5.37745406 634.758015,5.57207748 C634.758015,5.76670089 634.727001,5.96007898 634.666217,6.14339997 L633.57696,9.44557493 C633.565556,9.4801926 633.574595,9.5182 633.600275,9.54388009 C633.625955,9.56956019 633.663962,9.5785985 633.69819,9.56732382 L636.999296,8.47842082 C637.184076,8.4171543 637.377454,8.38613967 637.572077,8.38613967 C637.766701,8.38613967 637.960079,8.4171543 638.1434,8.47793837 L641.445575,9.56719526 C641.480193,9.5785985 641.5182,9.56956019 641.54388,9.54388009 C641.56956,9.5182 641.578599,9.4801926 641.567324,9.44596493 L640.478421,6.14485878 C640.417154,5.96007898 640.38614,5.76670089 640.38614,5.57207748 C640.38614,5.37745406 640.417154,5.18407597 640.477938,5.00075498 L641.567195,1.69858002 C641.578599,1.66396235 641.56956,1.62595495 641.54388,1.60027486 C641.518222,1.57461687 641.480258,1.56557203 641.445664,1.57693028 Z M641.445664,1.57693028 C641.445635,1.57694007 641.445605,1.57694987 641.445575,1.57695969 L641.445965,1.57683113 L641.445664,1.57693028 Z" opacity=".71" transform="rotate(83 637.572 5.572)"/>
    <path stroke="#2B42EA" stroke-width="2" d="M987.396494,193.8266 L983.435137,195.133294 C983.233772,195.200059 983.022972,195.233868 982.810743,195.233868 C982.598514,195.233868 982.387714,195.200059 982.187807,195.133776 L978.225119,193.826642 C978.111878,193.78934 977.987367,193.818949 977.903158,193.903158 C977.818949,193.987367 977.78934,194.111878 977.826513,194.224729 L979.133294,198.186348 C979.200059,198.387714 979.233868,198.598514 979.233868,198.810743 C979.233868,199.022972 979.200059,199.233772 979.133776,199.433678 L977.826642,203.396366 C977.78934,203.509607 977.818949,203.634118 977.903158,203.718327 C977.987367,203.802536 978.111878,203.832146 978.224729,203.794972 L982.186348,202.488192 C982.387714,202.421426 982.598514,202.387617 982.810743,202.387617 C983.022972,202.387617 983.233772,202.421426 983.433678,202.487709 L987.396366,203.794843 C987.509607,203.832146 987.634118,203.802536 987.718327,203.718327 C987.802536,203.634118 987.832146,203.509607 987.794972,203.396756 L986.488192,199.435137 C986.421426,199.233772 986.387617,199.022972 986.387617,198.810743 C986.387617,198.598514 986.421426,198.387714 986.487709,198.187807 L987.794843,194.225119 C987.832146,194.111878 987.802536,193.987367 987.718327,193.903158 C987.63415,193.818981 987.509701,193.789362 987.396494,193.8266 Z M987.396494,193.8266 C987.396452,193.826614 987.396409,193.826628 987.396366,193.826642 L987.396756,193.826513 L987.396494,193.8266 Z" opacity=".81" transform="rotate(-68 982.81 198.81)"/>
    <path fill="#9C9FA6" d="M1050.49093,41.985382 C1050.88398,41.8559086 1051.31651,41.9586933 1051.60921,42.2513871 C1051.9019,42.5440808 1052.00468,42.9766147 1051.87521,43.3696669 L1050.78583,46.6722319 C1050.75825,46.755386 1050.74436,46.8425104 1050.74436,46.9302965 C1050.74436,47.0180825 1050.75825,47.1052069 1050.78583,47.188361 L1051.87521,50.490926 C1052.00468,50.8839782 1051.9019,51.3165121 1051.60921,51.6092059 C1051.31651,51.9018996 1050.88398,52.0046843 1050.49093,51.8752109 L1047.18836,50.7858254 C1047.10521,50.7582544 1047.01808,50.7443587 1046.9303,50.7443587 C1046.84251,50.7443587 1046.75539,50.7582544 1046.67223,50.7858254 L1043.36967,51.8752109 C1042.97661,52.0046843 1042.54408,51.9018996 1042.25139,51.6092059 C1041.95869,51.3165121 1041.85591,50.8839782 1041.98538,50.490926 L1043.07477,47.188361 C1043.10234,47.1052069 1043.11623,47.0180825 1043.11623,46.9302965 C1043.11623,46.8425104 1043.10234,46.755386 1043.07477,46.6722319 L1041.98538,43.3696669 C1041.85591,42.9766147 1041.95869,42.5440808 1042.25139,42.2513871 C1042.54408,41.9586933 1042.97661,41.8559086 1043.36967,41.985382 L1046.67223,43.0747675 C1046.75539,43.1023385 1046.84251,43.1162343 1046.9303,43.1162343 C1047.01808,43.1162343 1047.10521,43.1023385 1047.18836,43.0747675 L1050.49093,41.985382 Z" opacity=".2" transform="rotate(-12 1046.93 46.93)"/>
    <path fill="#9C9FA6" d="M122.490926,107.985382 C122.883978,107.855909 123.316512,107.958693 123.609206,108.251387 C123.9019,108.544081 124.004684,108.976615 123.875211,109.369667 L122.785825,112.672232 C122.758254,112.755386 122.744359,112.84251 122.744359,112.930296 C122.744359,113.018083 122.758254,113.105207 122.785825,113.188361 L123.875211,116.490926 C124.004684,116.883978 123.9019,117.316512 123.609206,117.609206 C123.316512,117.9019 122.883978,118.004684 122.490926,117.875211 L119.188361,116.785825 C119.105207,116.758254 119.018083,116.744359 118.930296,116.744359 C118.84251,116.744359 118.755386,116.758254 118.672232,116.785825 L115.369667,117.875211 C114.976615,118.004684 114.544081,117.9019 114.251387,117.609206 C113.958693,117.316512 113.855909,116.883978 113.985382,116.490926 L115.074767,113.188361 C115.102338,113.105207 115.116234,113.018083 115.116234,112.930296 C115.116234,112.84251 115.102338,112.755386 115.074767,112.672232 L113.985382,109.369667 C113.855909,108.976615 113.958693,108.544081 114.251387,108.251387 C114.544081,107.958693 114.976615,107.855909 115.369667,107.985382 L118.672232,109.074767 C118.755386,109.102338 118.84251,109.116234 118.930296,109.116234 C119.018083,109.116234 119.105207,109.102338 119.188361,109.074767 L122.490926,107.985382 Z" opacity=".2" transform="rotate(-12 118.93 112.93)"/>
    <path fill="#9C9FA6" d="M741.941244,147.987363 C742.216381,147.896732 742.519155,147.968681 742.72404,148.173567 C742.928926,148.378453 743.000875,148.681226 742.910244,148.956363 L742.147674,151.268158 C742.128374,151.326366 742.118647,151.387353 742.118647,151.448804 C742.118647,151.510254 742.128374,151.571241 742.147674,151.629449 L742.910244,153.941244 C743.000875,154.216381 742.928926,154.519155 742.72404,154.72404 C742.519155,154.928926 742.216381,155.000875 741.941244,154.910244 L739.629449,154.147674 C739.571241,154.128374 739.510254,154.118647 739.448804,154.118647 C739.387353,154.118647 739.326366,154.128374 739.268158,154.147674 L736.956363,154.910244 C736.681226,155.000875 736.378453,154.928926 736.173567,154.72404 C735.968681,154.519155 735.896732,154.216381 735.987363,153.941244 L736.749933,151.629449 C736.769233,151.571241 736.77896,151.510254 736.77896,151.448804 C736.77896,151.387353 736.769233,151.326366 736.749933,151.268158 L735.987363,148.956363 C735.896732,148.681226 735.968681,148.378453 736.173567,148.173567 C736.378453,147.968681 736.681226,147.896732 736.956363,147.987363 L739.268158,148.749933 C739.326366,148.769233 739.387353,148.77896 739.448804,148.77896 C739.510254,148.77896 739.571241,148.769233 739.629449,148.749933 L741.941244,147.987363 Z" opacity=".83" transform="rotate(-19 739.449 151.449)"/>
    <path fill="#9C9FA6" d="M1280.36699,29.4131096 C1280.64213,29.3224782 1280.9449,29.3944275 1281.14979,29.5993131 C1281.35467,29.8041987 1281.42662,30.1069725 1281.33599,30.382109 L1280.57342,32.6939045 C1280.55412,32.7521124 1280.54439,32.8130994 1280.54439,32.8745497 C1280.54439,32.9359999 1280.55412,32.996987 1280.57342,33.0551949 L1281.33599,35.3669904 C1281.42662,35.6421269 1281.35467,35.9449006 1281.14979,36.1497863 C1280.9449,36.3546719 1280.64213,36.4266212 1280.36699,36.3359898 L1278.05519,35.57342 C1277.99699,35.5541203 1277.936,35.5443932 1277.87455,35.5443932 C1277.8131,35.5443932 1277.75211,35.5541203 1277.6939,35.57342 L1275.38211,36.3359898 C1275.10697,36.4266212 1274.8042,36.3546719 1274.59931,36.1497863 C1274.39443,35.9449006 1274.32248,35.6421269 1274.41311,35.3669904 L1275.17568,33.0551949 C1275.19498,32.996987 1275.20471,32.9359999 1275.20471,32.8745497 C1275.20471,32.8130994 1275.19498,32.7521124 1275.17568,32.6939045 L1274.41311,30.382109 C1274.32248,30.1069725 1274.39443,29.8041987 1274.59931,29.5993131 C1274.8042,29.3944275 1275.10697,29.3224782 1275.38211,29.4131096 L1277.6939,30.1756794 C1277.75211,30.1949791 1277.8131,30.2047061 1277.87455,30.2047061 C1277.936,30.2047061 1277.99699,30.1949791 1278.05519,30.1756794 L1280.36699,29.4131096 Z" transform="rotate(-35 1277.875 32.875)"/>
    <path fill="#9C9FA6" d="M764.42671,48.1138284 C764.859068,47.9714076 765.334855,48.0844708 765.656818,48.4064339 C765.978781,48.7283971 766.091844,49.2041843 765.949424,49.6365418 L764.7511,53.2693632 C764.720771,53.3608328 764.705486,53.4566696 764.705486,53.5532343 C764.705486,53.6497989 764.720771,53.7456357 764.7511,53.8371053 L765.949424,57.4699268 C766.091844,57.9022842 765.978781,58.3780715 765.656818,58.7000346 C765.334855,59.0219977 764.859068,59.1350609 764.42671,58.9926401 L760.793889,57.7943161 C760.702419,57.763988 760.606582,57.7487027 760.510018,57.7487027 C760.413453,57.7487027 760.317616,57.763988 760.226147,57.7943161 L756.593325,58.9926401 C756.160968,59.1350609 755.685181,59.0219977 755.363217,58.7000346 C755.041254,58.3780715 754.928191,57.9022842 755.070612,57.4699268 L756.268936,53.8371053 C756.299264,53.7456357 756.314549,53.6497989 756.314549,53.5532343 C756.314549,53.4566696 756.299264,53.3608328 756.268936,53.2693632 L755.070612,49.6365418 C754.928191,49.2041843 755.041254,48.7283971 755.363217,48.4064339 C755.685181,48.0844708 756.160968,47.9714076 756.593325,48.1138284 L760.226147,49.3121524 C760.317616,49.3424805 760.413453,49.3577659 760.510018,49.3577659 C760.606582,49.3577659 760.702419,49.3424805 760.793889,49.3121524 L764.42671,48.1138284 Z" opacity=".2" transform="rotate(119 760.51 53.553)"/>
    <path fill="#9C9FA6" d="M1111.59296,186.087417 C1111.98601,185.957944 1112.41855,186.060729 1112.71124,186.353422 C1113.00393,186.646116 1113.10672,187.07865 1112.97725,187.471702 L1111.88786,190.774267 C1111.86029,190.857421 1111.84639,190.944546 1111.84639,191.032332 C1111.84639,191.120118 1111.86029,191.207242 1111.88786,191.290396 L1112.97725,194.592961 C1113.10672,194.986014 1113.00393,195.418547 1112.71124,195.711241 C1112.41855,196.003935 1111.98601,196.10672 1111.59296,195.977246 L1108.2904,194.887861 C1108.20724,194.86029 1108.12012,194.846394 1108.03233,194.846394 C1107.94455,194.846394 1107.85742,194.86029 1107.77427,194.887861 L1104.4717,195.977246 C1104.07865,196.10672 1103.64612,196.003935 1103.35342,195.711241 C1103.06073,195.418547 1102.95794,194.986014 1103.08742,194.592961 L1104.1768,191.290396 C1104.20437,191.207242 1104.21827,191.120118 1104.21827,191.032332 C1104.21827,190.944546 1104.20437,190.857421 1104.1768,190.774267 L1103.08742,187.471702 C1102.95794,187.07865 1103.06073,186.646116 1103.35342,186.353422 C1103.64612,186.060729 1104.07865,185.957944 1104.4717,186.087417 L1107.77427,187.176803 C1107.85742,187.204374 1107.94455,187.21827 1108.03233,187.21827 C1108.12012,187.21827 1108.20724,187.204374 1108.2904,187.176803 L1111.59296,186.087417 Z" opacity=".77" transform="rotate(129 1108.032 191.032)"/>
    <path fill="#2B42EA" d="M1206.59296,126.087417 C1206.98601,125.957944 1207.41855,126.060729 1207.71124,126.353422 C1208.00393,126.646116 1208.10672,127.07865 1207.97725,127.471702 L1206.88786,130.774267 C1206.86029,130.857421 1206.84639,130.944546 1206.84639,131.032332 C1206.84639,131.120118 1206.86029,131.207242 1206.88786,131.290396 L1207.97725,134.592961 C1208.10672,134.986014 1208.00393,135.418547 1207.71124,135.711241 C1207.41855,136.003935 1206.98601,136.10672 1206.59296,135.977246 L1203.2904,134.887861 C1203.20724,134.86029 1203.12012,134.846394 1203.03233,134.846394 C1202.94455,134.846394 1202.85742,134.86029 1202.77427,134.887861 L1199.4717,135.977246 C1199.07865,136.10672 1198.64612,136.003935 1198.35342,135.711241 C1198.06073,135.418547 1197.95794,134.986014 1198.08742,134.592961 L1199.1768,131.290396 C1199.20437,131.207242 1199.21827,131.120118 1199.21827,131.032332 C1199.21827,130.944546 1199.20437,130.857421 1199.1768,130.774267 L1198.08742,127.471702 C1197.95794,127.07865 1198.06073,126.646116 1198.35342,126.353422 C1198.64612,126.060729 1199.07865,125.957944 1199.4717,126.087417 L1202.77427,127.176803 C1202.85742,127.204374 1202.94455,127.21827 1203.03233,127.21827 C1203.12012,127.21827 1203.20724,127.204374 1203.2904,127.176803 L1206.59296,126.087417 Z" opacity=".77" transform="rotate(129 1203.032 131.032)"/>
    <path fill="#9C9FA6" d="M214.062624,173.407634 C214.416371,173.291108 214.805651,173.383614 215.069075,173.647039 C215.3325,173.910463 215.425006,174.299743 215.30848,174.65349 L214.328033,177.625799 C214.303219,177.700638 214.290713,177.77905 214.290713,177.858057 C214.290713,177.937064 214.303219,178.015476 214.328033,178.090315 L215.30848,181.062624 C215.425006,181.416371 215.3325,181.805651 215.069075,182.069075 C214.805651,182.3325 214.416371,182.425006 214.062624,182.30848 L211.090315,181.328033 C211.015476,181.303219 210.937064,181.290713 210.858057,181.290713 C210.77905,181.290713 210.700638,181.303219 210.625799,181.328033 L207.65349,182.30848 C207.299743,182.425006 206.910463,182.3325 206.647039,182.069075 C206.383614,181.805651 206.291108,181.416371 206.407634,181.062624 L207.388081,178.090315 C207.412895,178.015476 207.425401,177.937064 207.425401,177.858057 C207.425401,177.77905 207.412895,177.700638 207.388081,177.625799 L206.407634,174.65349 C206.291108,174.299743 206.383614,173.910463 206.647039,173.647039 C206.910463,173.383614 207.299743,173.291108 207.65349,173.407634 L210.625799,174.388081 C210.700638,174.412895 210.77905,174.425401 210.858057,174.425401 C210.937064,174.425401 211.015476,174.412895 211.090315,174.388081 L214.062624,173.407634 Z" opacity=".78" transform="rotate(-112 210.858 177.858)"/>
    <path fill="#9C9FA6" d="M8.16420783,188.359773 C8.4786496,188.256194 8.82467671,188.338422 9.05883171,188.572577 C9.29298672,188.806732 9.37521448,189.152759 9.27163574,189.467201 L8.40012738,192.109253 C8.37807058,192.175776 8.36695395,192.245475 8.36695395,192.315704 C8.36695395,192.385933 8.37807058,192.455633 8.40012738,192.522156 L9.27163574,195.164208 C9.37521448,195.47865 9.29298672,195.824677 9.05883171,196.058832 C8.82467671,196.292987 8.4786496,196.375214 8.16420783,196.271636 L5.52215586,195.400127 C5.45563255,195.378071 5.38593305,195.366954 5.3157042,195.366954 C5.24547534,195.366954 5.17577584,195.378071 5.10925253,195.400127 L2.46720056,196.271636 C2.15275879,196.375214 1.80673168,196.292987 1.57257668,196.058832 C1.33842167,195.824677 1.25619391,195.47865 1.35977265,195.164208 L2.23128101,192.522156 C2.25333781,192.455633 2.26445444,192.385933 2.26445444,192.315704 C2.26445444,192.245475 2.25333781,192.175776 2.23128101,192.109253 L1.35977265,189.467201 C1.25619391,189.152759 1.33842167,188.806732 1.57257668,188.572577 C1.80673168,188.338422 2.15275879,188.256194 2.46720056,188.359773 L5.10925253,189.231281 C5.17577584,189.253338 5.24547534,189.264454 5.3157042,189.264454 C5.38593305,189.264454 5.45563255,189.253338 5.52215586,189.231281 L8.16420783,188.359773 Z" opacity=".3" transform="rotate(65 5.316 192.316)"/>
    <path fill="#9C9FA6" d="M610.164208,227.359773 C610.47865,227.256194 610.824677,227.338422 611.058832,227.572577 C611.292987,227.806732 611.375214,228.152759 611.271636,228.467201 L610.400127,231.109253 C610.378071,231.175776 610.366954,231.245475 610.366954,231.315704 C610.366954,231.385933 610.378071,231.455633 610.400127,231.522156 L611.271636,234.164208 C611.375214,234.47865 611.292987,234.824677 611.058832,235.058832 C610.824677,235.292987 610.47865,235.375214 610.164208,235.271636 L607.522156,234.400127 C607.455633,234.378071 607.385933,234.366954 607.315704,234.366954 C607.245475,234.366954 607.175776,234.378071 607.109253,234.400127 L604.467201,235.271636 C604.152759,235.375214 603.806732,235.292987 603.572577,235.058832 C603.338422,234.824677 603.256194,234.47865 603.359773,234.164208 L604.231281,231.522156 C604.253338,231.455633 604.264454,231.385933 604.264454,231.315704 C604.264454,231.245475 604.253338,231.175776 604.231281,231.109253 L603.359773,228.467201 C603.256194,228.152759 603.338422,227.806732 603.572577,227.572577 C603.806732,227.338422 604.152759,227.256194 604.467201,227.359773 L607.109253,228.231281 C607.175776,228.253338 607.245475,228.264454 607.315704,228.264454 C607.385933,228.264454 607.455633,228.253338 607.522156,228.231281 L610.164208,227.359773 Z" opacity=".3" transform="rotate(65 607.316 231.316)"/>
  </g>
</svg>
