<?xml version="1.0" encoding="utf-8"?>
<!-- Generator: Adobe Illustrator 16.0.0, SVG Export Plug-In . SVG Version: 6.00 Build 0)  -->
<!DOCTYPE svg PUBLIC "-//W3C//DTD SVG 1.1//EN" "http://www.w3.org/Graphics/SVG/1.1/DTD/svg11.dtd">
<svg version="1.1" id="Layer_1" xmlns="http://www.w3.org/2000/svg" xmlns:xlink="http://www.w3.org/1999/xlink" x="0px" y="0px"
	 width="100px" height="100px" viewBox="0 0 100 100" enable-background="new 0 0 100 100" xml:space="preserve">
<path fill="#010101" d="M11.049,47.376c0-3.209-2.222-5.741-5.494-5.741C2.345,41.636,0,44.167,0,47.315
	c0,3.086,2.284,5.617,5.432,5.617c0.494,0,1.049-0.123,1.481-0.371h0.062l-3.704,5.434h1.852l4.013-5.927
	C10.062,50.648,11.049,49.228,11.049,47.376z M9.445,47.253c0,2.222-1.544,4.197-3.889,4.197c-2.284,0-3.889-1.913-3.889-4.135
	c0-2.223,1.543-4.136,3.889-4.136C7.778,43.118,9.445,45.031,9.445,47.253z M20.679,43.364v-1.42h-9.012v1.481h3.703v14.63h1.605
	V43.364H20.679z M38.827,49.969c0-4.63-3.889-8.333-8.519-8.333c-4.691,0-8.519,3.704-8.519,8.395c0,4.568,4.012,8.272,8.519,8.272
	C34.876,58.303,38.827,54.599,38.827,49.969z M37.222,49.969c0,3.764-3.148,6.852-6.914,6.852c-3.704,0-6.914-3.088-6.914-6.791
	c0-3.827,3.086-6.975,6.914-6.975C34.074,43.118,37.222,46.204,37.222,49.969z M51.358,52.685c0-3.024-2.285-5.617-5.371-5.617
	c-0.988,0-1.852,0.309-2.716,0.741l0.803-4.444H50v-1.42h-7.284l-1.482,7.963l1.234,0.432c0.803-1.049,1.976-1.852,3.333-1.852
	c2.284,0,3.827,2.038,3.827,4.197c0,2.161-1.605,4.137-3.827,4.137s-3.704-1.79-3.889-3.89h-1.604c0.309,2.284,1.419,4.198,3.642,5
	c0.617,0.247,1.235,0.371,1.852,0.371C48.951,58.303,51.358,55.709,51.358,52.685L51.358,52.685z M70.247,57.994v-16.05h-2.47
	l-5.864,13.703l-5.925-13.703h-2.47v16.111h1.604V43.673h0.063l5.986,14.321h1.359l6.05-14.321h0.061v14.321H70.247z M85.433,57.994
	V46.142h-1.544v2.099h-0.063c-1.049-1.605-2.776-2.407-4.629-2.407c-3.519,0-6.42,2.654-6.42,6.234c0,3.58,2.84,6.297,6.42,6.297
	c1.853,0,3.58-0.803,4.629-2.347h0.063v2.099h1.544V57.994z M83.95,52.067c0,2.655-2.099,4.878-4.753,4.878
	c-2.777,0-4.876-2.038-4.876-4.815c0-2.778,2.037-4.938,4.876-4.938C81.913,47.191,83.95,49.414,83.95,52.067z M30.185,50.895H26.42
	c-0.433,0-0.741-0.309-0.741-0.74s0.308-0.741,0.741-0.741h3.024v-4.691c0-0.432,0.309-0.741,0.741-0.741
	c0.433,0,0.741,0.309,0.741,0.741v5.432C30.926,50.586,30.556,50.895,30.185,50.895z M100,54.537
	c-1.234,2.408-3.148,3.766-5.926,3.766c-3.519,0-6.42-2.655-6.42-6.235c0-3.518,2.901-6.296,6.42-6.296
	c2.593,0,4.938,1.482,5.926,3.889h-1.666c-0.804-1.543-2.408-2.531-4.198-2.531c-2.716,0-4.938,2.098-4.938,4.877
	c0,2.776,2.16,4.875,4.938,4.875c1.79,0,3.395-0.802,4.198-2.407H100V54.537z"/>
</svg>
