<?xml version="1.0" encoding="utf-8"?>
<!-- Generator: Adobe Illustrator 16.0.0, SVG Export Plug-In . SVG Version: 6.00 Build 0)  -->
<!DOCTYPE svg PUBLIC "-//W3C//DTD SVG 1.1//EN" "http://www.w3.org/Graphics/SVG/1.1/DTD/svg11.dtd">
<svg version="1.1" id="Layer_1" xmlns="http://www.w3.org/2000/svg" xmlns:xlink="http://www.w3.org/1999/xlink" x="0px" y="0px"
	 width="100px" height="100px" viewBox="0 0 100 100" enable-background="new 0 0 100 100" xml:space="preserve">
<path fill-rule="evenodd" clip-rule="evenodd" d="M57.764,49.173c-0.005,4.162-3.382,7.538-7.531,7.53
	c-4.17-0.008-7.509-3.354-7.518-7.537c-0.009-4.177,3.388-7.556,7.578-7.539C54.403,41.644,57.77,45.044,57.764,49.173z
	 M18.308,41.627c-4.128,0.007-7.477,3.357-7.503,7.509c-0.026,4.147,3.371,7.582,7.49,7.573c4.185-0.008,7.557-3.361,7.546-7.508
	C25.831,44.974,22.496,41.621,18.308,41.627z M100,50c0,27.57-22.43,50-50,50C22.43,100,0,77.57,0,50C0,22.43,22.43,0,50,0
	C77.57,0,100,22.43,100,50z M33.476,49.448c0.021-4.618-1.778-8.394-5.238-11.391c-4.65-4.027-11.431-4.867-16.709-2.105
	C5.892,38.901,2.777,44.9,3.621,51.18c0.826,6.145,5.443,11.114,11.598,12.455c3.722,0.812,7.1,0.237,9.901-2.549
	c0.286-0.284,0.559-0.582,0.932-0.973c0.02,0.327,0.037,0.499,0.038,0.671c0.003,0.95,0.016,1.901-0.007,2.852
	c-0.01,0.402,0.125,0.521,0.525,0.517c2.135-0.029,4.269-0.031,6.404-0.045c0.138-0.001,0.275-0.03,0.46-0.053
	c0-0.242,0-0.454,0-0.667C33.472,58.74,33.455,54.094,33.476,49.448z M55.933,35.845c-2.2-0.879-4.478-1.276-6.846-1.006
	c-2.155,0.246-3.942,1.245-5.476,2.741c-0.311,0.303-0.62,0.606-1.042,1.02c0-0.358,0-0.551,0-0.742
	c0-4.181-0.009-8.361,0.011-12.541c0.003-0.499-0.142-0.637-0.634-0.632c-2.063,0.025-4.126,0.01-6.189,0.011
	c-0.174,0-0.347,0.018-0.549,0.028c-0.01,0.218-0.024,0.394-0.024,0.568c-0.001,8.127-0.001,16.253,0.002,24.38
	c0,0.394,0.021,0.79,0.059,1.181c0.805,8.006,8.172,14.138,16.203,13.489c7.568-0.612,13.377-6.599,13.733-14.151
	C65.471,44.003,61.699,38.148,55.933,35.845z M96.629,52.337c-0.183-0.013-0.322-0.031-0.464-0.03
	c-1.848,0.005-3.696,0.051-5.543,0.002c-0.853-0.021-1.366,0.154-1.857,0.981c-1.896,3.193-5.967,4.432-9.356,2.981
	c-3.452-1.477-5.277-5.192-4.355-8.865c0.735-2.923,3.32-5.223,6.251-5.56c3.329-0.383,6.263,1.129,7.748,4.003
	c0.13,0.25,0.227,0.451,0.575,0.451c2.207-0.004,4.413,0.017,6.619,0.024c0.115,0.001,0.231-0.044,0.345-0.067
	c-1.074-5.97-7.004-12.301-15.29-11.821c-7.821,0.452-13.973,7.052-13.879,15.103c0.089,7.593,6.343,14.133,14.036,14.475
	C89.761,64.383,95.595,58.292,96.629,52.337z"/>
</svg>
