<?xml version="1.0" encoding="utf-8"?>
<!-- Generator: Adobe Illustrator 16.0.0, SVG Export Plug-In . SVG Version: 6.00 Build 0)  -->
<!DOCTYPE svg PUBLIC "-//W3C//DTD SVG 1.1//EN" "http://www.w3.org/Graphics/SVG/1.1/DTD/svg11.dtd">
<svg version="1.1" id="Layer_1" xmlns="http://www.w3.org/2000/svg" xmlns:xlink="http://www.w3.org/1999/xlink" x="0px" y="0px"
	 width="100px" height="100px" viewBox="0 0 100 100" enable-background="new 0 0 100 100" xml:space="preserve">
<path fill="#010101" d="M89.282,0h-78.57C4.797,0,0,4.797,0,10.712v78.57C0,95.202,4.797,100,10.712,100h78.57
	C95.202,100,100,95.202,100,89.282v-78.57C100,4.797,95.202,0,89.282,0z M28.351,78.687c-1.232,2.144-3.977,2.854-6.095,1.621
	c-2.144-1.221-2.86-3.965-1.633-6.089l3.196-5.508c3.59-1.104,6.541-0.251,8.839,2.544L28.351,78.687z M59.355,66.657H18.75
	c-2.454,0-4.462-2.014-4.462-4.468c0-2.453,2.008-4.467,4.462-4.467h11.383l14.598-25.266l-4.578-7.903
	c-1.227-2.144-0.491-4.868,1.633-6.095c2.144-1.227,4.862-0.491,6.095,1.627l1.983,3.441l1.988-3.441
	c1.233-2.138,3.978-2.854,6.09-1.627c2.144,1.227,2.865,3.971,1.633,6.095l-19.15,33.168h13.862
	C58.794,57.723,61.318,63.011,59.355,66.657z M81.25,66.657h-6.47l4.377,7.562c1.222,2.144,0.491,4.868-1.633,6.089
	c-2.144,1.232-4.868,0.491-6.101-1.621c-7.342-12.7-12.83-22.256-16.517-28.596c-3.726-6.476-1.071-12.946,1.594-15.134
	c2.913,5.068,7.291,12.655,13.141,22.767H81.25c2.454,0,4.468,2.014,4.468,4.467C85.718,64.663,83.704,66.657,81.25,66.657z"/>
</svg>
