<svg xmlns="http://www.w3.org/2000/svg" width="100" height="100"><g fill="#010101"><path d="M0 50v14.249h30.2954V35.751H0V50zm18.126-9.4477c3.3115 1.7715 4.1079 5.6479 1.6431 7.8818l-1.0015.8984 1.1812.5903c3.7227 1.874 4.1846 6.4961.8472 8.9092-1.5918 1.1553-3.877 1.5664-8.7036 1.5664H7.959V39.8076l4.5698.1025c4.0825.0772 4.647.1285 5.5972.6422z"/><path d="M11.7329 43.1196c-.1025.0767-.1797 1.3091-.1797 2.6958v2.5156h1.3608c2.8755 0 4.2876-.7959 4.4414-2.5674.1543-1.4634-.4106-2.2593-1.8228-2.5674-1.2064-.2821-3.5687-.3334-3.7997-.0766zM11.7588 51.5664c-.1284.1025-.2056 1.3857-.2056 2.8496v2.6445h2.3877c1.2837 0 2.7983-.1289 3.312-.2568 2.4648-.6934 2.6958-3.5947.3853-4.8008-.8731-.4365-5.5459-.7959-5.8794-.4365zM34.9165 50v14.249h30.2954l-.0518-14.1978-.0771-14.1719-15.0703-.0771-15.0962-.0513V50zm17.9722-9.5249c2.1563 1.1294 3.0801 2.5415 3.0801 4.647 0 1.6431-.4102 2.6187-1.54 3.543l-.7959.6675L54.917 50c3.3633 1.6943 4.0303 5.623 1.4121 8.2666-1.6436 1.6436-2.9014 1.9258-8.627 2.0801l-4.8267.1025V39.8076l4.5698.1025c3.8253.0772 4.673.1539 5.4435.565z"/><path d="M46.4697 45.6353v2.7729l1.874-.1284c2.1826-.1538 3.1582-.5649 3.6719-1.5146.5391-1.0781.4365-1.9258-.3594-2.8242-.668-.7446-.8477-.7959-2.9526-.9243l-2.2339-.1538v2.7724zM46.4697 54.2109v2.8496h2.5161c3.646-.0254 5.186-.8223 5.186-2.7471 0-1.8486-1.4893-2.6963-5.0576-2.8496l-2.6445-.1289v2.876zM69.833 50v14.249l15.0967-.0518L100 64.1211V35.8794l-15.0703-.0771-15.0967-.0513V50zm21.7715-9.5249l2.1055.6929v3.8257l-1.207-.6162c-2.6953-1.3608-6.4951-1.8745-8.9346-1.2065-4.7236 1.2578-6.8799 6.4438-4.416 10.6035 2.2598 3.748 7.8564 4.5947 13.1201 1.9766.8467-.4111 1.5654-.7441 1.6172-.7441.0254 0 .0771.8467.0771 1.8994v1.9256l-1.3613.4873c-2.541.9502-3.6455 1.1553-6.3408 1.1816-2.8242 0-4.3389-.334-6.4189-1.3867-3.6973-1.874-6.1104-6.4697-5.417-10.3467.7705-4.3389 3.9541-7.7021 8.3701-8.832 2.1044-.539 6.2646-.2822 8.8056.5396z"/></g></svg>