<?xml version="1.0" encoding="utf-8"?>
<!-- Generator: Adobe Illustrator 16.0.0, SVG Export Plug-In . SVG Version: 6.00 Build 0)  -->
<!DOCTYPE svg PUBLIC "-//W3C//DTD SVG 1.1//EN" "http://www.w3.org/Graphics/SVG/1.1/DTD/svg11.dtd">
<svg version="1.1" id="Layer_1" xmlns="http://www.w3.org/2000/svg" xmlns:xlink="http://www.w3.org/1999/xlink" x="0px" y="0px"
	 width="100px" height="100px" viewBox="0 0 100 100" enable-background="new 0 0 100 100" xml:space="preserve">
<path fill="#010101" d="M34.653,37.618c-0.309,0.069-0.88,0.293-1.273,0.486c-1.512,0.749-2.584,2.122-2.986,3.812
	c-0.239,0.987-0.185,2.492,0.116,3.379c0.332,0.972,0.694,1.551,1.427,2.276c0.756,0.749,1.266,1.072,2.223,1.42l0.679,0.239
	l2.569-0.007c1.759,0,2.585-0.023,2.647-0.085c0.062-0.062-0.039-0.456-0.363-1.443l-0.455-1.358h-1.698
	c-1.891,0-2.245-0.062-2.801-0.463c-0.795-0.571-1.219-1.559-1.158-2.685c0.054-0.934,0.278-1.474,0.826-2.029
	c0.702-0.702,0.957-0.764,3.079-0.764h1.752l0.455-1.358c0.247-0.741,0.432-1.366,0.417-1.381c-0.077-0.085-2.014-0.193-3.341-0.185
	C35.556,37.472,35.1,37.502,34.653,37.618L34.653,37.618z M0,38.915c0,1.289,0,1.312,0.177,1.358
	c0.093,0.023,0.247,0.046,0.348,0.046h0.169l-0.015,3.024l-0.023,3.033l-0.309,0.039l-0.309,0.039l-0.023,1.289L0,49.038h3.626
	c3.981,0,4.36-0.031,5.286-0.463c1.227-0.563,1.798-1.535,1.721-2.924c-0.069-1.126-0.556-1.836-1.574-2.33l-0.501-0.239
	l0.332-0.208c0.479-0.301,0.957-0.879,1.119-1.342c0.085-0.255,0.131-0.625,0.131-1.019c-0.008-1.366-0.833-2.315-2.361-2.716
	c-0.409-0.1-1.08-0.131-4.128-0.154L0,37.603V38.915L0,38.915z M6.458,40.419c0.347,0.185,0.486,0.417,0.486,0.81
	c0,0.263-0.046,0.378-0.216,0.556c-0.316,0.309-0.679,0.386-1.883,0.386H3.781v-1.944L5,40.257
	C5.949,40.28,6.266,40.311,6.458,40.419z M6.821,44.593c0.803,0.332,0.787,1.374-0.023,1.729c-0.208,0.093-0.633,0.131-1.644,0.154
	l-1.374,0.031v-2.021H5.17C6.181,44.485,6.636,44.516,6.821,44.593L6.821,44.593z M11.343,43.328v5.709l3.333-0.015l3.326-0.023
	l0.448-1.273c0.247-0.702,0.447-1.319,0.447-1.374c0.008-0.069-0.471-0.092-2.153-0.092h-2.16v-8.642h-3.241V43.328z M20.617,43.266
	c-1.034,3.11-1.875,5.679-1.867,5.71c0,0.039,0.725,0.062,1.605,0.062h1.605l0.301-1.003l0.293-1.003h4.66l0.301,1.003l0.301,1.003
	h3.264l-1.111-3.341c-0.61-1.829-1.466-4.398-1.891-5.71l-0.771-2.369h-4.823L20.617,43.266L20.617,43.266z M25.687,42.07
	c0.348,1.142,0.648,2.129,0.671,2.199c0.039,0.131-0.069,0.139-1.474,0.139c-1.188,0-1.512-0.023-1.489-0.1
	c0.023-0.046,0.324-1.042,0.679-2.199C24.931,39.323,24.846,39.331,25.687,42.07z M40.741,43.328v5.709h3.241l0.016-2.539
	l0.023-2.539l1.852,2.539l1.844,2.539h3.665l-2.052-2.762c-1.126-1.512-2.083-2.793-2.114-2.839
	c-0.046-0.054,0.718-1.126,2.053-2.909c1.165-1.559,2.122-2.847,2.122-2.87c0-0.023-0.825-0.031-1.829-0.023l-1.829,0.023
	l-1.852,2.554l-1.859,2.554l-0.023-2.569l-0.016-2.577h-3.241V43.328z M82.963,50.967c-1.559,0.409-2.585,1.489-2.801,2.947
	c-0.224,1.497,0.348,2.632,1.667,3.311c0.633,0.332,1.18,0.509,2.507,0.841c1.605,0.401,1.96,0.609,1.914,1.127
	c-0.016,0.231-0.077,0.332-0.277,0.471c-0.363,0.239-0.803,0.27-3.103,0.192c-1.126-0.038-2.06-0.054-2.083-0.038
	c-0.023,0.022-0.216,0.594-0.433,1.28l-0.394,1.25l0.316,0.055c0.17,0.03,1.497,0.077,2.94,0.107
	c2.963,0.055,3.333,0.016,4.321-0.463c1.211-0.578,1.859-1.505,2.006-2.832c0.107-1.011-0.209-1.937-0.888-2.569
	c-0.641-0.594-1.381-0.91-3.287-1.396c-0.74-0.185-1.466-0.409-1.604-0.501c-0.486-0.302-0.494-0.757-0.023-1.111
	c0.216-0.154,0.285-0.162,1.968-0.124c0.965,0.016,1.976,0.031,2.245,0.039h0.494l0.424-1.258c0.231-0.694,0.401-1.272,0.386-1.288
	c-0.069-0.07-2.823-0.193-4.205-0.186C83.804,50.82,83.426,50.851,82.963,50.967L82.963,50.967z M0,52.271v1.313l0.347,0.054
	l0.347,0.046v2.994c0,3.287,0.031,3.086-0.471,3.086H0v2.624h9.568v-2.701h-5.71v-1.774h4.63v-2.546h-4.63v-1.621h5.208l0.447-1.334
	c0.239-0.733,0.44-1.358,0.44-1.389c0-0.032-2.238-0.055-4.977-0.055H0V52.271z M10.648,56.677v5.71h3.164l0.016-3.024l0.023-3.025
	l2.354,3.025l2.354,3.024h2.816v-11.42H18.21l-0.016,2.925l-0.023,2.932l-2.276-2.925l-2.276-2.932h-2.971V56.677z M22.068,52.395
	v1.427h3.395v8.565h3.241v-8.565h3.395v-2.854H22.068V52.395z M32.793,52.278v1.312l0.309,0.047l0.309,0.054l-0.016,3.018
	l-0.023,3.017l-0.286,0.023l-0.293,0.022v2.616h9.568v-2.701h-5.787v-1.774h4.629v-2.546h-4.629v-1.621h5.231l0.432-1.296
	c0.239-0.71,0.432-1.335,0.432-1.389c0-0.07-1.042-0.093-4.938-0.093h-4.938V52.278L32.793,52.278z M43.364,56.669v5.718h3.241
	v-3.396h1.312l1.134,1.698l1.126,1.697h1.844c1.011,0,1.837-0.023,1.837-0.047c0-0.03-0.587-0.91-1.313-1.967
	c-0.717-1.058-1.312-1.938-1.312-1.96c0-0.023,0.039-0.039,0.085-0.039c0.178,0,1.119-0.694,1.366-0.995
	c0.586-0.726,0.802-1.42,0.802-2.516c-0.008-1.952-0.948-3.141-2.932-3.681c-0.556-0.154-0.833-0.169-3.889-0.2l-3.302-0.031V56.669
	z M49.499,53.969c0.409,0.185,0.656,0.463,0.733,0.825c0.139,0.609-0.124,1.157-0.679,1.436c-0.324,0.162-0.486,0.177-1.651,0.2
	l-1.296,0.031v-2.64h1.296C48.989,53.821,49.236,53.845,49.499,53.969z M54.476,56.669v5.718h3.24v-3.226l1.412-0.038
	c1.559-0.039,1.983-0.124,2.878-0.556c1.613-0.787,2.415-2.593,2.007-4.521c-0.301-1.42-1.335-2.416-2.971-2.863
	c-0.54-0.154-0.842-0.169-3.573-0.2l-2.993-0.031V56.669z M60.062,53.892c0.486,0.208,0.764,0.617,0.803,1.149
	c0.038,0.625-0.2,1.057-0.749,1.343c-0.386,0.2-0.47,0.216-1.403,0.216h-0.996v-2.955l1.003,0.046
	C59.46,53.729,59.814,53.775,60.062,53.892z M64.892,56.669v5.718h3.241v-3.396h1.312l1.135,1.698l1.126,1.697h3.773l-0.579-0.833
	c-1.543-2.238-2.06-3.018-2.06-3.079c0-0.039,0.131-0.131,0.285-0.216c1.428-0.765,2.146-2.315,1.883-4.051
	c-0.239-1.566-1.281-2.624-2.979-3.048c-0.463-0.116-1.034-0.146-3.835-0.17l-3.303-0.039V56.669L64.892,56.669z M71.204,54.015
	c0.833,0.502,0.794,1.721-0.063,2.199c-0.323,0.178-0.432,0.192-1.674,0.216l-1.335,0.031v-2.654l1.412,0.03
	C70.787,53.86,70.979,53.876,71.204,54.015L71.204,54.015z M76.003,56.677v5.71h3.241v-11.42h-3.241V56.677z M90.046,52.271v1.313
	l0.348,0.054l0.348,0.046v2.994c0,3.287,0.03,3.086-0.471,3.086h-0.225v2.624h9.568v-2.701h-5.71v-1.774h4.63v-2.546h-4.63v-1.621
	h5.208l0.448-1.334C99.8,51.677,100,51.052,100,51.021c0-0.032-2.237-0.055-4.977-0.055h-4.978V52.271z"/>
</svg>
