<?xml version="1.0" encoding="utf-8"?>
<!-- Generator: Adobe Illustrator 16.0.0, SVG Export Plug-In . SVG Version: 6.00 Build 0)  -->
<!DOCTYPE svg PUBLIC "-//W3C//DTD SVG 1.1//EN" "http://www.w3.org/Graphics/SVG/1.1/DTD/svg11.dtd">
<svg version="1.1" id="Layer_1" xmlns="http://www.w3.org/2000/svg" xmlns:xlink="http://www.w3.org/1999/xlink" x="0px" y="0px"
	 width="100px" height="100px" viewBox="0 0 100 100" enable-background="new 0 0 100 100" xml:space="preserve">
<g id="BuzzFeed_on_White">
	<path fill="#010101" d="M0,58.467V41.205h7.7c3.281,0,4.969,2.098,4.969,4.395c0,2.145-1.348,3.621-2.977,3.961
		c1.863,0.281,3.316,2.074,3.316,4.219c0,2.613-1.711,4.688-5.016,4.688H0z M8.918,46.256c0-1.066-0.773-1.816-2.016-1.816H3.68
		v3.621h3.223C8.145,48.061,8.918,47.369,8.918,46.256z M9.258,53.264c0-1.09-0.773-1.969-2.203-1.969H3.68v3.938h3.387
		C8.426,55.232,9.258,54.506,9.258,53.264z M14.016,53.463v-7.5h3.305v7.395c0,1.488,0.902,2.566,2.661,2.566
		c1.734,0,2.648-1.078,2.648-2.566v-7.395h3.293v7.488c0,3.141-1.887,5.344-5.93,5.344C15.95,58.795,14.016,56.568,14.016,53.463z
		 M27.013,58.467v-2.461l5.637-7.172h-5.637v-2.871h10.114v2.355l-5.743,7.277h5.848v2.871H27.013z M38.31,58.467v-2.461
		l5.637-7.172H38.31v-2.871h10.114v2.355l-5.743,7.277h5.848v2.871H38.31z M49.76,58.467V41.205h11.977v3.234h-8.297v3.621h6.246
		v3.234h-6.246v7.172H49.76z M60.611,52.209c0-3.621,2.695-6.551,6.469-6.551c3.751,0,6.259,2.801,6.259,6.855v0.773h-9.294
		c0.234,1.523,1.477,2.801,3.598,2.801c1.067,0,2.509-0.445,3.317-1.219l1.477,2.18c-1.242,1.137-3.211,1.734-5.146,1.734
		C63.482,58.783,60.611,56.217,60.611,52.209z M67.08,48.354c-2.039,0-2.93,1.418-3.059,2.66h6.165
		C70.081,49.818,69.249,48.354,67.08,48.354z M74.229,52.209c0-3.621,2.695-6.551,6.469-6.551c3.751,0,6.259,2.801,6.259,6.855
		v0.773h-9.294c0.234,1.523,1.477,2.801,3.599,2.801c1.066,0,2.508-0.445,3.316-1.219l1.477,2.18
		c-1.242,1.137-3.211,1.734-5.146,1.734C77.101,58.783,74.229,56.217,74.229,52.209z M80.698,48.354c-2.039,0-2.93,1.418-3.059,2.66
		h6.165C83.699,49.818,82.867,48.354,80.698,48.354z M88.164,58.49V45.939h5.039c3.949,0,6.797,2.367,6.797,6.27
		c0,3.891-2.836,6.281-6.773,6.281H88.164z M96.801,52.209c0-1.945-1.172-3.563-3.469-3.563h-2.039v7.137h2.039
		C95.523,55.783,96.801,54.072,96.801,52.209z"/>
</g>
</svg>
