<?xml version="1.0" encoding="utf-8"?>
<!DOCTYPE svg PUBLIC "-//W3C//DTD SVG 1.1//EN" "http://www.w3.org/Graphics/SVG/1.1/DTD/svg11.dtd">
<svg version="1.1" id="Layer_1" xmlns="http://www.w3.org/2000/svg" xmlns:xlink="http://www.w3.org/1999/xlink" x="0px" y="0px"
	 width="100px" height="100px" viewBox="0 0 100 100" enable-background="new 0 0 100 100" xml:space="preserve">
<g>
	<path fill-rule="evenodd" clip-rule="evenodd" d="M14.473,36.739c0.557,0.122,1.12,0.218,1.668,0.369
		c5.268,1.453,8.561,4.873,9.682,10.184c0.985,4.668-0.296,8.821-3.651,12.231c-2.236,2.273-5.018,3.474-8.213,3.705
		c-5.891,0.428-11.181-3.061-13.132-8.42c-1.891-5.19-0.969-9.948,2.817-14.055c2.012-2.182,4.54-3.41,7.452-3.887
		c0.137-0.022,0.306,0.031,0.402-0.127C12.489,36.739,13.481,36.739,14.473,36.739z M13.032,42.397c-0.38,0-0.763-0.034-1.138,0.005
		c-4.908,0.506-8.491,3.006-10.907,7.262c-0.135,0.238-0.099,0.427,0.025,0.643c2.896,5.04,7.19,7.657,13.055,7.261
		c4.956-0.335,8.538-2.937,10.963-7.214c0.157-0.277,0.15-0.499-0.002-0.777c-0.746-1.356-1.679-2.56-2.822-3.608
		C19.607,43.59,16.559,42.374,13.032,42.397z"/>
	<path fill-rule="evenodd" clip-rule="evenodd" d="M69.961,62.261c-5.008,0.001-10.016,0.001-15.023,0
		c-0.099,0-0.197-0.016-0.296-0.023c-0.213-0.16-0.204-0.389-0.204-0.623c0.003-7.834,0.007-15.667-0.009-23.5
		c-0.001-0.491,0.152-0.595,0.615-0.593c4.693,0.017,9.387,0.011,14.08,0.006c0.202,0,0.768-0.024,0.768-0.024
		c2.609,0.063,4.612,0.883,5.996,3.202c1.368,2.293,1.041,5.302-0.763,7.266c-0.637,0.693-1.445,1.144-2.354,1.388
		c-0.012,0.127,0.077,0.141,0.149,0.161c2.48,0.728,3.83,2.469,4.184,4.941c0.371,2.603-0.399,4.841-2.564,6.471
		c-0.565,0.426-1.187,0.776-1.901,0.908C71.859,62.125,70.075,62.261,69.961,62.261z M67.818,43.655
		c-0.044-0.022-0.087-0.063-0.131-0.063c-1.9-0.005-3.801-0.004-5.701-0.012c-0.29-0.001-0.31,0.167-0.309,0.387
		c0.005,0.71-0.002,1.421,0.005,2.132c0.002,0.153-0.072,0.339,0.121,0.445c0.028-0.006,0.055,0,0.077,0.02
		c0.099,0.119,0.236,0.093,0.365,0.093c1.771,0.001,3.542,0.001,5.313,0c0.129,0,0.266,0.026,0.366-0.091
		c0.432-0.184,0.814-0.421,1.003-0.882C69.3,44.776,68.896,44.039,67.818,43.655z M68.117,52.829
		c-0.062-0.129-0.181-0.123-0.297-0.123c-1.927,0-3.854,0.004-5.782-0.004c-0.288-0.002-0.365,0.117-0.362,0.384
		c0.011,0.856,0.004,1.713,0.004,2.569c0,0.114-0.016,0.234,0.098,0.313c0.821,0.128,1.648,0.054,2.472,0.05
		c1.305-0.005,2.613,0.095,3.913-0.059c1.145-0.135,1.738-1.316,1.186-2.296C69.075,53.181,68.617,52.976,68.117,52.829z"/>
	<path fill-rule="evenodd" clip-rule="evenodd" d="M88.729,62.722c-3.783-0.065-7.327-0.895-10.374-3.287
		c-0.805-0.633-0.804-0.641-0.228-1.471c1.017-1.465,2.047-2.92,3.051-4.395c0.238-0.35,0.382-0.344,0.698-0.072
		c2.505,2.143,5.391,3.127,8.695,2.781c0.348-0.036,0.679-0.145,0.992-0.297c0.379-0.184,0.656-0.459,0.664-0.907
		c0.008-0.466-0.342-0.647-0.705-0.788c-0.978-0.381-2.017-0.499-3.039-0.686c-1.918-0.348-3.836-0.703-5.624-1.52
		c-2.698-1.231-4.318-3.236-4.449-6.295c-0.143-3.326,1.344-5.73,4.172-7.355c1.668-0.958,3.505-1.328,5.412-1.406
		c2.727-0.111,5.36,0.295,7.874,1.386c1.096,0.476,2.115,1.081,3.067,1.803c0.227,0.172,0.322,0.292,0.104,0.575
		c-1.209,1.57-2.398,3.155-3.58,4.746c-0.193,0.26-0.332,0.22-0.561,0.057c-1.705-1.213-3.62-1.887-5.684-2.152
		c-0.736-0.095-1.48-0.146-2.218,0.015c-0.625,0.137-0.934,0.426-0.958,0.909c-0.029,0.566,0.4,0.758,0.824,0.911
		c1.202,0.433,2.468,0.599,3.712,0.849c1.541,0.31,3.062,0.68,4.519,1.283c4.063,1.682,5.462,4.884,4.479,8.964
		c-0.79,3.273-3.129,5.003-6.232,5.852C91.835,62.632,90.291,62.772,88.729,62.722z"/>
	<path fill-rule="evenodd" clip-rule="evenodd" d="M41.647,63.125c-3.58-0.008-6.854-0.944-9.611-3.315
		c-2.39-2.054-3.783-4.666-4.213-7.79c-0.439-3.198,0.045-6.227,1.753-8.997c1.732-2.81,4.257-4.621,7.407-5.524
		c3.462-0.993,6.917-1.03,10.274,0.44c2.52,1.104,4.324,2.984,5.576,5.41c0.456,0.883,0.438,0.875-0.457,1.29
		c-1.754,0.81-3.504,1.628-5.246,2.461c-0.364,0.174-0.529,0.177-0.731-0.251c-0.953-2.023-2.553-3.242-4.813-3.221
		c-3.186,0.03-5.4,2.092-5.943,5.018c-0.408,2.202,0.046,4.229,1.608,5.883c2.441,2.584,7.308,2.713,9.176-1.459
		c0.155-0.346,0.296-0.391,0.623-0.236c1.928,0.905,3.858,1.803,5.8,2.676c0.355,0.16,0.384,0.31,0.226,0.627
		c-1.941,3.896-5.003,6.27-9.356,6.887c-0.343,0.049-0.688,0.082-1.034,0.1C42.341,63.138,41.993,63.125,41.647,63.125z"/>
	<path fill-rule="evenodd" clip-rule="evenodd" d="M68.117,52.829c-1.929,0.001-3.857,0.019-5.786-0.012
		c-0.474-0.007-0.574,0.145-0.559,0.58c0.031,0.856,0.007,1.715,0.005,2.572c-0.113-0.08-0.098-0.2-0.098-0.314
		c0-0.856,0.007-1.713-0.004-2.569c-0.003-0.267,0.074-0.386,0.362-0.384c1.928,0.008,3.855,0.004,5.782,0.004
		C67.937,52.706,68.056,52.7,68.117,52.829z"/>
	<path fill-rule="evenodd" clip-rule="evenodd" d="M67.818,43.655c-1.843,0.005-3.685,0.023-5.526,0.005
		c-0.408-0.004-0.54,0.1-0.519,0.516c0.039,0.788,0.023,1.578,0.03,2.367c-0.193-0.106-0.119-0.292-0.121-0.445
		c-0.007-0.71,0-1.421-0.005-2.132c-0.001-0.22,0.019-0.388,0.309-0.387c1.9,0.008,3.801,0.006,5.701,0.012
		C67.731,43.591,67.774,43.633,67.818,43.655z"/>
	<path fill-rule="evenodd" clip-rule="evenodd" d="M61.881,46.563c2.015,0,4.029,0.001,6.044,0.002
		c-0.101,0.117-0.237,0.091-0.366,0.091c-1.771,0.001-3.542,0.001-5.313,0C62.117,46.655,61.979,46.682,61.881,46.563z"/>
	<path fill-rule="evenodd" clip-rule="evenodd" d="M13.09,42.961c3.72,0.015,6.9,3.153,6.977,6.729
		c0.09,4.175-3.206,7.342-7.033,7.33c-3.666-0.013-7.062-2.814-7.053-7.063C5.991,45.621,9.589,42.876,13.09,42.961z"/>
</g>
</svg>
