<svg xmlns="http://www.w3.org/2000/svg" width="100" height="100"><g fill="#010101"><path d="M60.5293 10.923c-1.3438.0957-2.6006.4418-3.8711 1.0658-3.1025 1.5166-5.0381 4.2857-5.5068 7.8795-.0361.3008-.082.9199-.1006 1.3754l-.0273.8336h1.499c1.9541 0 2.3496.0639 2.7461.4463l.21.2006-.1328.1045c-.0723.0592-.4688.2779-.8789.4873-1.2432.6285-1.7666 1.0934-2.1816 1.9268-.332.6695-.4326 1.1617-.46 2.1861l-.0186.8656L54.1075 43.73c1.2656 8.4898 2.3135 15.4449 2.3271 15.4586.0088.0137.041-.0273.0635-.0869.0234-.0586 3.252-7.7559 7.1787-17.0977 3.9258-9.3463 7.21-17.2031 7.2959-17.4674.5879-1.7764.7061-3.5801.3516-5.3291-.6787-3.3838-3.2021-6.3852-6.4404-7.6699-.9609-.3779-1.7588-.5512-2.8838-.6195-.7648-.0454-.756-.0454-1.4708.0049zM37.9429 10.9914c-1.084.082-1.9722.2777-2.8467.6328-3.0928 1.2436-5.4888 3.9125-6.2813 7.0053-.4917 1.9082-.3916 3.9854.2915 6.067.1187.3594 14.4565 34.2461 14.5933 34.4922.0273.0459.0454.0186.064-.0869.1045-.5781 5.0967-35.9814 5.1377-36.4322.0684-.7289.0273-2.4141-.0732-3.0518-.2959-1.9223-1.0474-3.6664-2.1543-5.0238-.3687-.4463-1.1797-1.2252-1.6396-1.5758-1.2661-.9564-2.7827-1.6123-4.4727-1.9223-.4644-.0865-2.0269-.1504-2.6187-.1045zM19.3823 23.8854c-2.1089.1598-4.2539 1.0387-6.0669 2.4918-1.7808 1.4301-3.106 3.9307-3.4795 6.5629-.105.7334-.105 2.0996 0 2.7783.4326 2.8105 1.8901 5.1881 4.2812 6.9869.6333.4736 29.4595 20.2363 29.4824 20.209.0137-.0088-2.9653-6.8633-6.6182-15.2262-3.6479-8.3623-6.8682-15.7455-7.1553-16.4105-.7832-1.817-1.2617-2.6734-2.0449-3.6436-2.0995-2.6006-5.2103-3.9899-8.3988-3.7486zM79.0254 23.9719c-1.3252.1416-2.3271.4193-3.3838.9385-2.0449 1.0063-3.7344 2.7875-4.9277 5.2061-.3516.7061-14.0879 32.6797-14.0557 32.7119.0313.0313 28.917-19.9 29.4043-20.2916 2.2822-1.8262 3.6709-4.1445 4.0811-6.8184.1045-.683.1045-2.0492.0049-2.7602-.2783-1.899-1.043-3.6803-2.2188-5.1646-.4004-.5059-1.3115-1.4076-1.7627-1.7445-1.3525-1.0156-3.0879-1.7311-4.8408-1.9902-.501-.0734-1.918-.128-2.3008-.087zM10.5464 45.5979c-2.396.3275-4.4727 1.4252-6.0713 3.2061-1.0566 1.1752-2.0225 2.874-2.332 4.0996-.5649 2.2539-.4922 4.4629.2139 6.5225.9385 2.7275 3.0747 5.0049 5.7437 6.1211.8198.3457 1.4575.5332 2.4688.7246l.501.0957 17.0298.0137c9.3687.0088 17.0254.0088 17.0117-.0049-.0093-.0088-1.5122-1.0615-3.3433-2.3369-1.8262-1.2754-7.916-5.5244-13.5273-9.4414-5.6113-3.9219-10.4531-7.274-10.7583-7.4518-1.2661-.7377-2.5776-1.2207-4.0532-1.4805-.6838-.1225-2.2321-.1593-2.8835-.0678zM87.2471 45.652c-.9297.1094-1.708.2828-2.46.542-.5693.1963-1.5439.6607-2.0898.9889-.2148.1273-2.9658 2.0313-6.1084 4.2266s-9.25 6.459-13.5732 9.4785l-7.8516 5.4834 16.8701.0137c11.9971.0088 17.0205 0 17.376-.0361 4.0176-.4014 7.3564-3.4023 8.4268-7.584.2588-1.0156.3184-1.5029.3184-2.7324 0-1.3984-.123-2.2178-.5059-3.3477-.7559-2.232-2.418-4.2998-4.4814-5.5797-1.0977-.6787-2.3506-1.1479-3.6436-1.3662-.4151-.0685-1.9317-.1275-2.2774-.087zM11.1841 71.1584c-2.2456.1914-3.7988.5508-5.3745 1.2344-2.9878 1.3027-5.124 3.7529-5.7251 6.5723-.123.583-.1094 1.8174.0273 2.4551.5874 2.7373 2.4092 4.9463 5.1738 6.2715 1.6216.7744 3.3525 1.2031 5.6479 1.3896.8472.0684 3.5615.0273 4.4409-.0684 3.6753-.4014 6.5449-1.5811 8.1938-3.3799.7241-.7881 1.1929-1.6895 1.2661-2.4229l.0273-.2822h-7.2011l-.1001.291c-.1729.5244-.624 1.0977-1.1294 1.4482-.5605.3877-1.4214.6699-2.3184.7705-.5649.0586-1.5078.0273-2.0044-.0732-1.9399-.3828-3.293-1.7764-3.7754-3.8848-.2324-1.0205-.1826-2.0957.1411-3.0791.1821-.5605.314-.8379.6377-1.3252 1.061-1.6035 3.0742-2.2959 5.5337-1.9092 1.4531.2275 2.4917.8789 2.9014 1.8271l.123.2861h7.1783v-.1953c-.0049-.834-.5967-2.0225-1.4165-2.8516-1.6353-1.6436-4.1812-2.6055-7.957-2.9922-.6332-.0681-3.7802-.1277-4.2904-.0818zM86.0859 71.177c-3.5078.3096-6.0723 1.3027-8.1172 3.1328-1.3252 1.1934-2.3633 2.9424-2.7275 4.6094-.1279.5791-.1191 1.9043.0176 2.5195.8291 3.7617 3.876 6.4033 8.4355 7.3193 1.4844.2998 2.582.3818 4.6143.3506 1.6348-.0234 2.3408-.082 3.5703-.2871 2.9697-.4922 5.4297-1.6396 6.8506-3.2021.3369-.3691.8154-1.0752.9785-1.4395.1416-.3232.292-.8877.292-1.1016v-.1504h-7.1875l-.0957.2822c-.2461.7236-.8564 1.3662-1.667 1.749-1.375.6514-3.375.6924-4.7959.0996-1.8076-.751-3.0107-2.8604-2.9102-5.1143.0635-1.3936.5371-2.5645 1.4121-3.4707.6738-.6973 1.4658-1.1064 2.5596-1.3213.5459-.1045 1.8174-.1045 2.459.0049 1.499.251 2.5098.8877 2.9248 1.8359l.123.2861H100v-.1953c0-.3281-.1777-.9473-.4053-1.4209-.583-1.2119-1.7217-2.25-3.3291-3.0244-1.5039-.7197-3.2393-1.1523-5.6387-1.3984-.788-.0819-3.8496-.1229-4.541-.0633zM26.6699 80.0578v8.6543h6.4678l.0088-5.4795.0137-5.4795 4.0767 5.4795 4.0762 5.4795h9.5424V71.4045h-6.4678l-.0093 5.3975-.0137 5.3965-4.1265-5.3828-4.1265-5.3887-4.7188-.0137-4.7231-.0088v8.6533zM52.9961 80.0627v8.6543l7.2549-.0186c7.333-.0186 7.4521-.0225 8.6631-.1914 1.5576-.2227 2.8701-.6738 3.7939-1.3115.6514-.4512 1.248-1.1885 1.5264-1.8994.2188-.5645.2822-.9609.2822-1.7764-.0049-.7012-.0088-.7744-.1279-1.1162-.1543-.4365-.2861-.6787-.5918-1.0605-.5645-.7158-1.6211-1.3398-2.8916-1.708l-.3789-.1094.2598-.0547c1.1211-.251 2.25-1.1709 2.7695-2.25.3779-.7832.4785-1.8398.2412-2.5645-.1914-.583-.5557-1.0566-1.1748-1.5166-1.2119-.9111-3.3066-1.5029-5.9619-1.6895-.4014-.0273-3.2344-.0459-7.1602-.0459h-6.5039v8.6583zm12.6162-5.0781c.7109.3418.9932.9473.7109 1.5439-.1914.4189-.6475.71-1.2344.7969-.1826.0225-1.3945.0459-2.833.0459h-2.5195v-2.5557l2.792.0137 2.7881.0137.2959.1416zm.0635 6.5449c.8291.2412 1.3936.8379 1.3936 1.4668 0 .6279-.5645 1.2246-1.3936 1.4658-.2363.0684-.5918.0781-3.124.0957l-2.8604.0137V81.4201l2.8604.0137c2.5322.0185 2.8876.0273 3.124.0957z"/></g></svg>
