<?xml version="1.0" encoding="utf-8"?>
<!-- Generator: Adobe Illustrator 16.0.0, SVG Export Plug-In . SVG Version: 6.00 Build 0)  -->
<!DOCTYPE svg PUBLIC "-//W3C//DTD SVG 1.1//EN" "http://www.w3.org/Graphics/SVG/1.1/DTD/svg11.dtd">
<svg version="1.1" id="Layer_1" xmlns="http://www.w3.org/2000/svg" xmlns:xlink="http://www.w3.org/1999/xlink" x="0px" y="0px"
	 width="100px" height="100px" viewBox="0 0 100 100" enable-background="new 0 0 100 100" xml:space="preserve">
<path fill="#010101" d="M96.173,64.449h3.826v4.592h-5.944c-1.941,0-3.825-0.942-3.295-0.707c-2.767-1.236-3.826-4.237-4.062-7.592
	V22.308h6.239v9.652h5.943v4.473h-5.943v24.78C93.055,63.685,94.525,64.449,96.173,64.449z M61.271,60.918V39.847
	c-0.177-11.889,20.777-11.948,20.424,0.294v10.124c0,0.647-0.529,1.118-1.119,1.118H67.51v9.83c0.06,4.649,8.064,4.59,8.064,0
	v-4.709h6.18v4.414C82.049,73.102,61.095,72.808,61.271,60.918z M75.456,46.733v-6.886c0-4.591-7.946-4.591-8.063,0v6.886H75.456z
	 M49.206,39.258c0-4.296-7.298-4.179-7.417,0.177v29.606h-9.005v-4.592h2.884V36.551h-3.414v-4.532h8.711v3.354
	c0,0,1.06-1.589,3.826-3.119c3.532-1.942,7.004,0,6.475-0.235c2.766,1.236,3.826,4.238,4.061,7.592v24.897h3.943v4.532H49.264
	L49.206,39.258z M24.544,13.479h4.473v73.042h-4.473V13.479z M0,60.918V39.847c-0.177-11.889,20.777-11.948,20.424,0.294v3.649
	h-6.121l-0.059-3.943c0-4.532-7.887-4.415-8.063,0.176v21.189c0.059,4.649,8.063,4.59,8.063,0v-4.709h6.18v4.414
	C20.777,73.102-0.176,72.808,0,60.918z"/>
</svg>
