<?xml version="1.0" encoding="utf-8"?>
<!DOCTYPE svg PUBLIC "-//W3C//DTD SVG 1.1//EN" "http://www.w3.org/Graphics/SVG/1.1/DTD/svg11.dtd">
<svg version="1.1" id="Layer_1" xmlns="http://www.w3.org/2000/svg" xmlns:xlink="http://www.w3.org/1999/xlink" x="0px" y="0px"
	 width="100px" height="100px" viewBox="0 0 100 100" enable-background="new 0 0 100 100" xml:space="preserve">
<path fill-rule="evenodd" clip-rule="evenodd" d="M73.449,51.932c0,0.107,0,0.214,0,0.32c0,4.162-0.002,8.324,0,12.486
	c0,1.291-0.131,2.563-0.602,3.772c-1.123,2.899-3.238,4.604-6.318,4.962c-3.348,0.389-6.084-0.902-8.326-3.344
	c-0.707-0.77-1.227-1.67-1.764-2.559c-3.127-5.17-6.256-10.338-9.385-15.508c-0.034-0.056-0.07-0.111-0.12-0.191
	c-0.068,0.112-0.042,0.211-0.042,0.301c-0.004,3.986,0.01,7.973-0.014,11.959c-0.011,1.705-0.364,3.345-1.211,4.845
	c-1.152,2.042-2.941,3.22-5.191,3.749c-0.893,0.211-1.801,0.285-2.716,0.285c-4.337,0.002-8.674,0.008-13.011-0.002
	c-3.212-0.007-6.362-0.447-9.394-1.536C8.504,69.01,3.834,64.338,1.371,57.488c-1.025-2.851-1.459-5.809-1.355-8.833
	c0.175-5.115,1.712-9.764,4.879-13.821c2.532-3.242,5.773-5.527,9.614-6.97c3.13-1.176,6.385-1.667,9.717-1.689
	c2.437-0.016,4.873-0.011,7.31-0.025c0.222-0.001,0.259,0.078,0.258,0.274c-0.006,1.8-0.007,3.601,0.001,5.401
	c0.001,0.211-0.061,0.265-0.268,0.265c-2.831-0.004-5.661-0.029-8.491,0.01c-3.131,0.042-6.106,0.735-8.838,2.314
	c-3.391,1.96-5.707,4.832-7.105,8.463c-0.943,2.447-1.343,4.992-1.202,7.607c0.24,4.465,1.805,8.38,4.987,11.577
	c2.004,2.012,4.418,3.341,7.136,4.131c2,0.582,4.046,0.816,6.125,0.813c4.522-0.007,9.045-0.002,13.566-0.002
	c1.804,0,3.201-1.372,3.234-3.178c0.007-0.41,0.001-0.821,0.001-1.231c0-9.02,0-18.038,0.001-27.058c0-0.292-0.01-0.586,0.067-0.874
	c0.245-0.915,1.243-1.196,1.932-0.543c0.122,0.116,0.224,0.248,0.313,0.392c5.566,9.035,11.194,18.031,16.807,27.038
	c0.846,1.356,1.691,2.713,2.539,4.067c0.453,0.724,1.063,1.253,1.918,1.43c1.221,0.252,2.326-0.466,2.77-1.772
	c0.154-0.458,0.197-0.93,0.197-1.41c0-7.512,0-15.024,0-22.536c0-1.985,0-3.969,0-5.954c-0.002-0.252,0.014-0.501,0.092-0.744
	c0.271-0.836,1.213-1.101,1.877-0.523c0.158,0.138,0.285,0.304,0.396,0.483c6.383,10.351,12.842,20.654,19.275,30.973
	c0.248,0.396,0.535,0.747,0.918,1.014c1.369,0.955,3.105,0.461,3.77-1.069c0.232-0.534,0.283-1.097,0.283-1.67
	c0-6.75,0-13.499,0-20.25c0-5.686,0-11.373,0-17.059c0-0.37,0-0.37,0.359-0.37c1.76,0,3.518,0.003,5.277-0.004
	c0.199-0.001,0.27,0.042,0.27,0.259c-0.006,12.93,0,25.86-0.014,38.791c-0.002,1.89-0.473,3.667-1.602,5.219
	c-1.305,1.792-3.09,2.825-5.275,3.047c-3.906,0.396-6.922-1.232-9.16-4.349c-1.117-1.556-2.014-3.26-3.006-4.898
	c-2.443-4.039-4.879-8.082-7.316-12.123c-0.039-0.063-0.08-0.123-0.121-0.184C73.486,51.922,73.467,51.927,73.449,51.932z
	 M59.857,47.938c-2.42-4.178-4.834-8.36-7.264-12.532c-0.885-1.519-1.705-3.075-2.693-4.531c-1.181-1.741-2.642-3.197-4.588-4.058
	c-3.194-1.414-6.205-1.066-8.885,1.212c-1.931,1.642-2.81,3.834-2.899,6.34c-0.044,1.196-0.012,2.395-0.012,3.592
	c0,6.674,0.001,13.349,0,20.022c0,1.043-0.635,1.676-1.674,1.676c-2.387,0.001-4.773,0.005-7.16-0.001
	c-1.84-0.004-3.638-0.255-5.354-0.951c-1.948-0.79-3.537-2.026-4.647-3.829c-1.311-2.13-1.711-4.448-1.306-6.899
	c0.417-2.523,1.588-4.64,3.585-6.261c1.916-1.556,4.151-2.234,6.593-2.253c2.654-0.021,5.309-0.01,7.963-0.002
	c0.233,0,0.292-0.065,0.291-0.293c-0.009-1.767-0.01-3.534,0.001-5.301c0.001-0.235-0.068-0.288-0.294-0.287
	c-2.646,0.007-5.292,0.009-7.938,0.003c-1.386-0.003-2.76,0.109-4.114,0.406c-4.166,0.911-7.475,3.102-9.656,6.783
	c-2.769,4.671-3.17,9.643-1.372,14.74c1.422,4.033,4.176,6.896,8.113,8.596c2.271,0.981,4.661,1.389,7.117,1.414
	c2.671,0.027,5.343,0.009,8.015,0.01c2.01,0,4.02,0.002,6.029-0.001c0.791-0.001,1.424-0.456,1.664-1.177
	c0.081-0.243,0.081-0.492,0.081-0.744c-0.001-9.354,0-18.708-0.002-28.063c0-0.42,0.03-0.836,0.147-1.242
	c0.375-1.298,1.445-2.116,2.681-2.016c1.051,0.085,1.797,0.652,2.339,1.533c6.377,10.353,12.821,20.666,19.245,30.992
	c0.084,0.134,0.176,0.265,0.283,0.381c0.289,0.318,0.645,0.492,1.078,0.374c0.42-0.114,0.602-0.45,0.703-0.843
	c0.08-0.313,0.07-0.631,0.07-0.949c0.002-9.396,0.002-18.792,0-28.187c0-0.42,0.02-0.836,0.133-1.245
	c0.357-1.3,1.412-2.132,2.65-2.059c1.059,0.063,1.818,0.645,2.355,1.508c2.094,3.359,4.166,6.733,6.254,10.095
	c4.334,6.973,8.672,13.943,13.008,20.915c0.125,0.2,0.258,0.391,0.443,0.541c0.592,0.479,1.342,0.275,1.609-0.437
	c0.115-0.304,0.121-0.622,0.121-0.94c0-12.504-0.002-25.006,0.006-37.509c0-0.253-0.084-0.3-0.314-0.298
	c-1.75,0.009-3.502,0.004-5.252,0.005c-0.385,0-0.336-0.027-0.336,0.336c0,7.135,0,14.27,0,21.405c0,0.095,0,0.189,0,0.307
	c-0.121-0.074-0.146-0.167-0.191-0.244c-3.104-5.319-6.207-10.639-9.309-15.959c-0.814-1.398-1.781-2.675-3.021-3.727
	c-1.586-1.344-3.391-2.197-5.486-2.269c-2.803-0.095-5.084,1.002-6.807,3.21c-1.281,1.641-1.799,3.545-1.799,5.606
	c0,4.338,0,8.676-0.002,13.013c0,0.105,0.027,0.215-0.043,0.355C59.951,48.094,59.902,48.016,59.857,47.938z"/>
</svg>
