<?xml version="1.0" encoding="utf-8"?>
<!-- Generator: Adobe Illustrator 16.0.0, SVG Export Plug-In . SVG Version: 6.00 Build 0)  -->
<!DOCTYPE svg PUBLIC "-//W3C//DTD SVG 1.1//EN" "http://www.w3.org/Graphics/SVG/1.1/DTD/svg11.dtd">
<svg version="1.1" id="Layer_1" xmlns="http://www.w3.org/2000/svg" xmlns:xlink="http://www.w3.org/1999/xlink" x="0px" y="0px"
	 width="100px" height="100px" viewBox="0 0 100 100" enable-background="new 0 0 100 100" xml:space="preserve">
<path fill="#010101" d="M19.559,9.24C8.856,11.519,3.021,19.184,0.673,33.995c-0.897,5.696-0.897,26.618,0,32.315
	c2.659,16.848,10.185,24.927,23.201,24.927c4.074,0,6.387-0.449,8.976-1.727c3.522-1.691,6.249-4.868,8.183-9.494
	c0.414-1.001,0.587-1.174,0.587-0.621c0.034,0.414,0.379,1.657,0.794,2.762c1.347,3.659,5.904,7.215,10.979,8.562
	c2.796,0.76,7.388,0.656,10.115-0.172c3.625-1.14,7.699-4.627,9.563-8.286l0.449-0.863l0.414,1.243
	c1.312,3.693,3.314,6.076,6.387,7.491c1.52,0.726,2.59,0.933,5.213,1.036c6.871,0.311,10.841-1.588,12.878-6.111
	c1.243-2.83,1.588-5.593,1.588-13.603v-7.146h-5.523v7.319c0,7.733-0.242,9.494-1.45,10.634c-0.828,0.76-2.348,0.897-3.452,0.311
	c-1.657-0.897-1.657-0.828-1.657-30.105c0-30.347,0.069-29.276-2.278-33.765c-2.59-4.902-7.838-8.735-13.292-9.632
	c-3.487-0.587-12.947-0.276-15.502,0.518c-5.662,1.761-10.703,6.422-12.602,11.669l-0.725,2.002l-0.449-1.484
	c-1.657-5.49-6.421-10.357-11.738-12.049C28.396,8.792,22.666,8.55,19.559,9.24z M32.505,17.457
	c3.418,1.727,5.593,4.972,5.904,8.804l0.173,1.968l-0.587-1.036c-0.898-1.623-1.588-2.279-3.073-2.969
	c-3.038-1.416-6.698-0.38-8.631,2.382c-0.966,1.416-1.036,1.692-1.036,4.661c0.035,2.555,0.173,3.452,0.76,4.557
	c1.553,2.935,4.246,4.661,7.284,4.661c4.419,0,7.043-2.313,9.046-7.975l0.966-2.762l0.242,1.277c0.587,3.211,3.418,6.87,6.318,8.286
	c1.658,0.794,4.833,1.036,6.491,0.483c1.623-0.552,4.108-2.831,5.041-4.626c1.381-2.728,1.174-6.698-0.519-9.218
	c-2.278-3.453-8.424-3.625-11.047-0.276c-1.105,1.45-1.45,1.173-0.932-0.76c1.347-5.144,6.146-8.355,12.429-8.32
	c4.833,0,8.942,2.451,10.944,6.56c0.897,1.795,0.967,2.278,0.967,5.938c0,3.625-0.069,4.143-0.967,6.042
	c-1.312,2.796-3.452,5.455-5.731,7.215c-1.07,0.794-4.557,3.073-7.803,5.041c-8.803,5.351-10.875,6.974-13.775,10.806l-1.243,1.691
	v-3.866H36.13v2.658c0,4.108-0.656,11.669-1.243,14.534c-1.346,6.595-4.419,10.047-8.977,10.081c-5.006,0-8.493-3.349-10.185-9.908
	c-1.07-4.177-1.45-12.256-1.243-25.651c0.345-20.715,1.588-26.239,6.663-29.38C24.703,16.18,29.294,15.8,32.505,17.457
	L32.505,17.457z M73.278,59.301c-0.173,9.253-0.69,12.74-2.521,16.779c-2.105,4.592-4.867,6.663-8.941,6.697
	c-2.071,0-2.624-0.138-3.867-0.967c-0.897-0.587-1.795-1.588-2.382-2.762c-0.933-1.691-0.967-2.002-0.967-6.456
	c0.034-4.005,0.139-4.937,0.794-6.594c1.484-3.764,3.452-6.215,10.53-13.327l6.974-6.939l0.276,2.624
	C73.313,49.807,73.382,54.743,73.278,59.301L73.278,59.301z"/>
</svg>
