<?xml version="1.0" encoding="utf-8"?>
<!DOCTYPE svg PUBLIC "-//W3C//DTD SVG 1.1//EN" "http://www.w3.org/Graphics/SVG/1.1/DTD/svg11.dtd">
<svg version="1.1" id="Layer_1" xmlns="http://www.w3.org/2000/svg" xmlns:xlink="http://www.w3.org/1999/xlink" x="0px" y="0px"
	 width="100px" height="100px" viewBox="0 0 100 100" enable-background="new 0 0 100 100" xml:space="preserve">
<path fill-rule="evenodd" clip-rule="evenodd" d="M46.641,48.938c0-2.564,0-5.127,0-7.701c0.073-0.007,0.123-0.017,0.173-0.017
	c1.09,0.001,2.179-0.007,3.268,0.007c0.799,0.01,1.59,0.099,2.355,0.348c1.402,0.454,2.283,1.4,2.668,2.817
	c0.137,0.502,0.203,1.016,0.232,1.534c0.004,0.063,0.01,0.127,0.049,0.196c0.029-0.149,0.061-0.297,0.088-0.446
	c0.146-0.805,0.352-1.593,0.693-2.341c0.238-0.522,0.539-1.004,0.945-1.415c0.607-0.61,1.348-0.931,2.195-1.015
	c0.525-0.052,1.049-0.033,1.564,0.09c0.879,0.209,1.563,0.703,2.082,1.433c0.447,0.626,0.729,1.327,0.939,2.06
	c0.217,0.755,0.357,1.526,0.434,2.308c0.066,0.67,0.109,1.343,0.164,2.015c0.002,0.042,0.006,0.084,0.035,0.125
	c0-2.56,0-5.119,0-7.66c0.021-0.023,0.027-0.028,0.031-0.032c0.004-0.004,0.01-0.011,0.016-0.012
	c0.045-0.005,0.09-0.012,0.135-0.012c0.973,0,1.943,0.001,2.916,0.003c0.018,0,0.037,0.012,0.08,0.026c0,4.93,0,9.865,0,14.818
	c0.1,0.006,0.174,0.014,0.25,0.014c1.199,0,2.398,0,3.598,0.001c0.076,0,0.152,0.007,0.234,0.011c0,0.896,0,1.775,0,2.668
	c-2.418,0-4.826,0-7.256,0c0-2.578,0-5.143,0-7.707c-0.01,0-0.02,0-0.029-0.001c-0.018,0.259-0.039,0.517-0.055,0.774
	c-0.078,1.328-0.229,2.646-0.627,3.924c-0.221,0.709-0.518,1.383-0.98,1.973c-0.646,0.826-1.496,1.272-2.539,1.373
	c-0.582,0.056-1.152,0.018-1.713-0.144c-0.885-0.253-1.537-0.808-2.029-1.571c-0.422-0.654-0.688-1.377-0.881-2.127
	c-0.238-0.924-0.363-1.867-0.441-2.818c-0.1-1.203-0.094-2.408-0.072-3.614c0-0.058-0.002-0.117-0.004-0.175
	c-0.002-0.009-0.014-0.017-0.033-0.037c-0.021,0.066-0.043,0.125-0.061,0.185c-0.111,0.387-0.256,0.761-0.457,1.111
	c-0.57,0.995-1.434,1.565-2.553,1.749c-0.338,0.056-0.684,0.067-1.025,0.081c-0.324,0.013-0.648,0.002-0.973,0.003
	c-0.07,0-0.139,0.006-0.236,0.012c0,0.479-0.001,0.943-0.001,1.408c0,0.467,0,0.934,0,1.4c0,0.459,0,0.92,0,1.381
	c0,0.467,0,0.933,0,1.399c0,0.466,0,0.933,0,1.395c-0.147,0.047-2.904,0.06-3.176,0.015c0-2.56,0-5.123,0-7.688
	c-0.011,0-0.021,0-0.032,0c-0.02,0.305-0.04,0.61-0.058,0.916c-0.061,1.049-0.185,2.09-0.433,3.113
	c-0.17,0.701-0.399,1.382-0.754,2.014c-0.368,0.657-0.849,1.209-1.521,1.572c-0.469,0.254-0.973,0.378-1.502,0.426
	c-0.557,0.05-1.102,0.004-1.637-0.148c-0.861-0.245-1.508-0.78-1.998-1.52c-0.401-0.605-0.662-1.273-0.857-1.969
	c-0.217-0.77-0.355-1.553-0.432-2.348c-0.057-0.594-0.1-1.188-0.161-1.785c-0.008,0.108-0.022,0.217-0.022,0.324
	c0,2.295,0.002,4.59,0.002,6.885c0,0.07-0.008,0.139-0.013,0.219c-0.941,0-1.866,0-2.803,0c-0.009-0.041-0.023-0.083-0.026-0.125
	c-0.004-0.071-0.001-0.143-0.001-0.215c0-4.077,0-8.155-0.001-12.232c0-0.086-0.004-0.173-0.032-0.261
	c-0.124,0.34-0.155,0.697-0.221,1.047c-0.066,0.356-0.122,0.715-0.183,1.073c-0.06,0.357-0.118,0.716-0.178,1.073
	c-0.061,0.357-0.123,0.715-0.184,1.073c-0.061,0.357-0.121,0.715-0.181,1.073c-0.06,0.357-0.118,0.715-0.179,1.072
	c-0.059,0.352-0.121,0.703-0.18,1.054c-0.061,0.358-0.119,0.716-0.18,1.073c-0.06,0.357-0.119,0.715-0.18,1.073
	c-0.062,0.357-0.124,0.715-0.184,1.072c-0.061,0.358-0.118,0.716-0.178,1.073c-0.061,0.357-0.123,0.713-0.187,1.078
	c-0.583,0-1.151,0-1.745,0c-0.141-0.705-0.241-1.421-0.365-2.133c-0.124-0.715-0.238-1.43-0.357-2.146s-0.237-1.431-0.355-2.146
	c-0.119-0.716-0.237-1.431-0.357-2.146c-0.119-0.715-0.238-1.431-0.359-2.146c-0.121-0.707-0.227-1.417-0.393-2.119
	c-0.051,0.537-0.037,1.071-0.039,1.605c-0.004,0.532-0.002,1.063-0.002,1.595c0,0.538,0,1.076,0,1.615c0,0.531,0,1.063,0,1.594
	c0,0.539,0,1.076,0,1.615c0,0.531,0,1.063,0,1.594c0,0.539,0,1.076,0,1.615c0,0.529,0,1.059,0,1.602c-0.789,0-1.551,0-2.34,0
	c-0.007-0.248-0.002-0.492-0.003-0.736c-0.001-0.24-0.001-0.479-0.001-0.719c0-0.246,0-0.49,0-0.754
	c-0.101,0.038-0.107,0.116-0.135,0.176c-0.247,0.529-0.576,0.997-1.018,1.385c-0.532,0.469-1.153,0.76-1.846,0.902
	c-0.715,0.148-1.431,0.15-2.141-0.014c-1.018-0.235-1.772-0.825-2.272-1.74c-0.353-0.646-0.544-1.344-0.637-2.068
	c-0.052-0.404-0.067-0.813-0.097-1.219c-0.005-0.076,0-0.154,0-0.224c0.167-0.052,2.624-0.057,2.833-0.005c0,0.062,0,0.131,0,0.199
	c0.002,0.441,0.016,0.883,0.126,1.313c0.04,0.156,0.09,0.313,0.158,0.458c0.37,0.784,1.396,0.97,2.027,0.368
	c0.321-0.305,0.464-0.695,0.512-1.126c0.066-0.599-0.094-1.142-0.416-1.644c-0.244-0.379-0.542-0.713-0.881-1.006
	c-0.563-0.488-1.139-0.962-1.708-1.443c-0.56-0.474-1.094-0.974-1.547-1.555c-0.41-0.525-0.736-1.096-0.951-1.729
	c-0.018-0.051-0.044-0.1-0.097-0.141c0.01,0.185,0.018,0.37,0.03,0.554c0.068,1.042,0.091,2.085,0.04,3.129
	c-0.032,0.653-0.063,1.308-0.13,1.958c-0.125,1.222-0.351,2.425-0.857,3.556c-0.3,0.67-0.699,1.271-1.284,1.731
	c-0.545,0.429-1.172,0.649-1.857,0.726c-0.541,0.061-1.075,0.03-1.602-0.098c-0.856-0.206-1.525-0.69-2.038-1.399
	c-0.419-0.579-0.693-1.228-0.903-1.905c-0.17-0.553-0.288-1.116-0.384-1.686c-0.006-0.035-0.016-0.071-0.023-0.107
	c-0.013,0-0.026-0.001-0.04-0.002c-0.009,0.072-0.021,0.145-0.027,0.217c-0.054,0.7-0.161,1.391-0.361,2.064
	c-0.148,0.499-0.349,0.975-0.641,1.41c-0.483,0.719-1.141,1.192-1.985,1.4C4.96,59.166,4.233,59.176,3.508,59
	c-0.835-0.201-1.49-0.675-1.991-1.368c-0.439-0.607-0.715-1.29-0.919-2.004c-0.224-0.78-0.353-1.579-0.44-2.385
	c-0.155-1.421-0.183-2.846-0.139-4.272c0.042-1.375,0.178-2.741,0.534-4.076c0.188-0.704,0.436-1.383,0.802-2.016
	c0.262-0.453,0.578-0.861,0.979-1.2c0.557-0.47,1.199-0.736,1.928-0.784C4.796,40.86,5.323,40.9,5.84,41.046
	c0.846,0.238,1.485,0.744,1.935,1.494c0.369,0.615,0.579,1.289,0.692,1.989c0.085,0.53,0.128,1.067,0.19,1.601
	c0.006,0.057,0.011,0.115,0.049,0.178c0.017-0.094,0.035-0.188,0.051-0.283c0.131-0.814,0.313-1.615,0.622-2.382
	c0.253-0.631,0.582-1.215,1.062-1.705c0.602-0.615,1.34-0.941,2.188-1.029c0.584-0.061,1.166-0.035,1.735,0.126
	c0.913,0.258,1.586,0.826,2.085,1.618c0.434,0.688,0.698,1.444,0.892,2.228c0.054,0.219,0.102,0.439,0.17,0.659
	c0.045-0.079,0.034-0.166,0.038-0.249c0.037-0.745,0.185-1.465,0.505-2.142c0.557-1.178,1.455-1.936,2.748-2.186
	c0.696-0.135,1.395-0.116,2.081,0.071c1.031,0.281,1.737,0.946,2.192,1.895c0.293,0.613,0.459,1.266,0.545,1.937
	c0.049,0.372,0.068,0.748,0.1,1.122c0.006,0.064,0.001,0.128,0.001,0.189c-0.14,0.043-2.532,0.056-2.816,0.015
	c-0.004-0.071-0.014-0.146-0.014-0.221c-0.001-0.448-0.009-0.896-0.13-1.331c-0.054-0.191-0.128-0.382-0.226-0.555
	c-0.382-0.681-1.399-0.676-1.831-0.079c-0.217,0.3-0.299,0.643-0.325,1.003c-0.036,0.522,0.101,1,0.371,1.445
	c0.279,0.459,0.642,0.847,1.041,1.201c0.528,0.469,1.069,0.924,1.602,1.388c0.5,0.435,0.975,0.893,1.396,1.406
	c0.375,0.458,0.693,0.954,0.934,1.497c0.021,0.049,0.051,0.096,0.111,0.136c0-3.607,0-7.213,0-10.835
	c0.064-0.01,0.113-0.024,0.162-0.024c1.309-0.001,2.619-0.001,3.928,0c0.154,0,0.158,0.003,0.184,0.159
	c0.141,0.87,0.279,1.739,0.418,2.609c0.162,1.023,0.324,2.047,0.486,3.071c0.15,0.947,0.301,1.893,0.451,2.84
	c0.018,0.105,0.037,0.209,0.057,0.313c0.019,0.001,0.037,0.002,0.055,0.003c0.018-0.063,0.041-0.125,0.051-0.188
	c0.277-1.661,0.553-3.322,0.83-4.982c0.203-1.22,0.409-2.44,0.613-3.66c0.027-0.162,0.028-0.165,0.198-0.165
	c1.271,0,2.541,0,3.812,0c0.045,0,0.089,0.008,0.154,0.014c0.027,0.352,0.01,0.7,0.012,1.047c0.004,0.35,0.001,0.7,0.001,1.05
	s0,0.7,0,1.05c0,0.356,0.001,0.713,0,1.069c-0.001,0.35-0.003,0.7-0.003,1.05s0.002,0.7,0.003,1.05
	c0.001,0.348,0.001,0.696,0.001,1.044c0.016,0.001,0.032,0.002,0.049,0.002c0.004-0.078,0.008-0.155,0.012-0.233
	c0.055-1.134,0.171-2.261,0.432-3.368c0.189-0.812,0.455-1.595,0.896-2.309c0.427-0.69,0.989-1.229,1.754-1.535
	c0.563-0.226,1.152-0.29,1.754-0.27c0.53,0.018,1.042,0.119,1.525,0.344c0.688,0.32,1.196,0.833,1.589,1.471
	c0.422,0.687,0.683,1.438,0.871,2.215c0.205,0.846,0.326,1.705,0.392,2.571c0.036,0.484,0.066,0.968,0.1,1.452
	C46.625,48.938,46.633,48.938,46.641,48.938z M5.861,47.563c-0.006-0.073-0.011-0.117-0.013-0.162
	c-0.016-0.479-0.023-0.958-0.049-1.437c-0.023-0.453-0.082-0.903-0.195-1.344c-0.066-0.258-0.152-0.51-0.314-0.727
	c-0.341-0.456-0.97-0.442-1.272,0.04c-0.108,0.173-0.187,0.37-0.25,0.565c-0.154,0.477-0.23,0.972-0.27,1.469
	c-0.06,0.755-0.12,1.512-0.14,2.269c-0.047,1.821-0.05,3.642,0.062,5.46c0.029,0.479,0.091,0.955,0.159,1.428
	c0.044,0.314,0.127,0.623,0.294,0.9c0.124,0.205,0.299,0.336,0.535,0.385c0.44,0.092,0.795-0.048,1.042-0.426
	c0.081-0.123,0.156-0.258,0.197-0.398c0.09-0.303,0.178-0.609,0.23-0.921c0.12-0.717,0.154-1.442,0.165-2.168
	c0.001-0.075,0.011-0.149,0.018-0.235c0.842,0.039,1.661,0.075,2.509,0.113c-0.113-1.643-0.107-3.258,0.01-4.9
	C7.66,47.505,6.77,47.534,5.861,47.563z M58.625,49.997c-0.006,0-0.012,0-0.018,0c0.012,0.972,0.02,1.944,0.033,2.916
	c0.01,0.759,0.055,1.516,0.201,2.262c0.055,0.28,0.129,0.556,0.27,0.809c0.15,0.273,0.367,0.443,0.697,0.448
	c0.336,0.005,0.568-0.159,0.717-0.444c0.08-0.154,0.145-0.318,0.193-0.485c0.148-0.507,0.213-1.028,0.234-1.553
	c0.037-0.86,0.063-1.722,0.064-2.583c0.004-1.543-0.006-3.085-0.025-4.627c-0.008-0.635-0.063-1.268-0.188-1.893
	c-0.064-0.318-0.143-0.634-0.324-0.91c-0.326-0.494-0.988-0.5-1.313-0.004c-0.092,0.139-0.156,0.299-0.211,0.457
	c-0.133,0.381-0.195,0.78-0.225,1.18c-0.049,0.652-0.09,1.306-0.104,1.959C58.611,48.35,58.625,49.173,58.625,49.997z M14.356,50.01
	c0.008,0,0.016,0,0.024,0c-0.02-1.205-0.034-2.41-0.063-3.615c-0.013-0.551-0.066-1.1-0.193-1.638
	c-0.058-0.244-0.144-0.483-0.242-0.715c-0.082-0.194-0.228-0.346-0.433-0.425c-0.339-0.129-0.699-0.022-0.916,0.274
	c-0.184,0.252-0.266,0.546-0.331,0.844c-0.174,0.802-0.215,1.618-0.226,2.434c-0.017,1.354-0.014,2.709-0.008,4.064
	c0.003,0.829,0.02,1.658,0.046,2.487c0.017,0.524,0.076,1.046,0.191,1.56c0.067,0.299,0.15,0.592,0.338,0.842
	c0.315,0.418,0.924,0.42,1.235,0c0.076-0.104,0.145-0.22,0.185-0.34c0.079-0.239,0.152-0.482,0.199-0.729
	c0.148-0.779,0.178-1.57,0.19-2.36C14.367,51.799,14.356,50.904,14.356,50.01z M43.13,49.997c0.01,0,0.019,0,0.027,0
	c-0.02-1.192-0.029-2.385-0.061-3.577c-0.014-0.55-0.07-1.099-0.188-1.639c-0.059-0.279-0.133-0.554-0.282-0.802
	c-0.103-0.171-0.235-0.308-0.433-0.372c-0.361-0.118-0.717,0.012-0.925,0.344c-0.143,0.228-0.222,0.481-0.28,0.741
	c-0.16,0.711-0.217,1.437-0.226,2.161c-0.019,1.691-0.013,3.383-0.018,5.074c-0.003,0.798,0.005,1.596,0.093,2.389
	c0.043,0.385,0.115,0.768,0.193,1.147c0.051,0.247,0.146,0.484,0.31,0.685c0.315,0.387,0.892,0.387,1.198-0.007
	c0.086-0.11,0.162-0.239,0.205-0.372c0.082-0.244,0.154-0.495,0.201-0.748c0.137-0.734,0.17-1.48,0.182-2.225
	C43.142,51.863,43.13,50.93,43.13,49.997z M49.862,49.175c0.345,0.052,0.845,0.007,1.152-0.095c0.361-0.12,0.633-0.346,0.816-0.68
	c0.135-0.248,0.213-0.514,0.26-0.79c0.109-0.65,0.105-1.304,0.031-1.956c-0.033-0.296-0.1-0.587-0.221-0.863
	c-0.191-0.441-0.514-0.721-0.988-0.82c-0.07-0.014-0.141-0.026-0.211-0.034c-0.275-0.031-0.553-0.022-0.839-0.019
	C49.862,45.685,49.862,47.424,49.862,49.175z M91.34,58.477c0-5.741,0-11.482,0-17.236c0.064-0.008,0.113-0.019,0.164-0.019
	c0.926-0.001,1.854-0.001,2.779,0c0.166,0,0.168,0.002,0.223,0.178c0.469,1.482,0.938,2.964,1.406,4.446
	c0.471,1.488,0.941,2.977,1.412,4.464c0.018,0.058,0.043,0.114,0.064,0.171c0.014-0.001,0.027-0.003,0.041-0.004
	c0.008-0.04,0.021-0.079,0.023-0.118c0.002-0.168,0-0.337,0-0.505c0-2.787,0-5.575,0.002-8.362c0-0.082,0.008-0.165,0.012-0.257
	c0.846,0,1.672,0,2.496,0c0.039,0.143,0.053,17.25,0.014,17.527c-0.805,0-1.611,0-2.439,0c-0.027-0.066-0.059-0.143-0.084-0.221
	c-0.586-1.818-1.172-3.637-1.758-5.455c-0.51-1.584-1.02-3.167-1.531-4.751c-0.021-0.063-0.051-0.123-0.1-0.179
	c-0.061,0.396-0.035,0.788-0.041,1.179c-0.004,0.389,0,0.778,0,1.167c0,0.395,0,0.792,0,1.186c0,0.389,0,0.778,0,1.167
	c0,0.396,0,0.791,0,1.187c0,0.389,0,0.777,0,1.166c0,0.396,0,0.791,0,1.188c0,0.389,0,0.777,0,1.166c0,0.395,0,0.789,0,1.176
	c-0.16,0.049-5.391,0.064-5.758,0.021c-0.156-1.279-0.311-2.568-0.469-3.863c-0.881,0-1.738,0-2.617,0
	c-0.146,1.291-0.293,2.57-0.439,3.844c-0.146,0.047-2.438,0.057-2.662,0.01c0.82-5.832,1.639-11.665,2.457-17.491
	c0.154-0.042,4.381-0.051,4.621-0.01c0.709,5.741,1.42,11.491,2.131,17.24C91.305,58.482,91.322,58.479,91.34,58.477z M87.5,52.305
	c0.016-0.165-0.869-8.234-0.965-8.395c-0.018,0.079-0.035,0.129-0.041,0.181c-0.082,0.668-0.16,1.337-0.242,2.006
	c-0.098,0.81-0.197,1.62-0.297,2.43c-0.086,0.713-0.172,1.427-0.258,2.141c-0.057,0.471-0.113,0.939-0.168,1.409
	c-0.008,0.079,0,0.161,0,0.24C85.814,52.354,87.359,52.342,87.5,52.305z M81.281,57.406c0-0.453,0-0.907,0-1.361
	c0-0.447,0-0.895,0-1.342s0-0.895,0-1.342s0-0.895,0-1.342c0-0.453,0-0.907,0-1.361c0-0.447,0-0.895,0-1.342s0-0.895,0-1.342
	s0-0.895,0-1.342c0-0.454-0.002-0.908,0.002-1.361c0.002-0.445-0.012-0.89,0.008-1.355c0.475,0,0.928,0.001,1.379,0
	s0.902,0.006,1.35-0.005c0.045-0.272,0.031-2.543-0.014-2.676c-2.879,0-5.762,0-8.641,0c-0.045,0.232-0.033,2.525,0.018,2.684
	c0.893,0,1.791,0,2.709,0c0.004,0.121,0.014,0.222,0.014,0.324c0,4.732,0,9.465,0,14.197c0,0.064-0.004,0.129,0,0.193
	c0.004,0.043,0.016,0.086,0.025,0.133c1.047,0,2.082,0,3.15,0C81.281,58.299,81.281,57.853,81.281,57.406z M75.145,58.668
	c0-5.775,0-11.55,0-17.325c0-0.025-0.006-0.051-0.01-0.076c-0.002-0.006-0.006-0.012-0.01-0.017c-0.004-0.005-0.01-0.008-0.02-0.017
	c-1.035,0-2.076,0-3.125,0c0,5.848,0,11.684,0,17.53c1.053,0,2.094,0,3.148,0C75.137,58.719,75.145,58.693,75.145,58.668z"/>
</svg>
