<?xml version="1.0" encoding="utf-8"?>
<!DOCTYPE svg PUBLIC "-//W3C//DTD SVG 1.1//EN" "http://www.w3.org/Graphics/SVG/1.1/DTD/svg11.dtd">
<svg version="1.1" id="Layer_1" xmlns="http://www.w3.org/2000/svg" xmlns:xlink="http://www.w3.org/1999/xlink" x="0px" y="0px"
	 width="100px" height="100px" viewBox="0 0 100 100" enable-background="new 0 0 100 100" xml:space="preserve">
<path fill-rule="evenodd" clip-rule="evenodd" d="M8.862,39.725c-0.031,0.522-0.063,1.044-0.094,1.567
	c-0.021,0.348-0.04,0.697-0.06,1.046c-0.017,0.298-0.036,0.596-0.055,0.915c-0.583-0.016-1.163-0.031-1.755-0.047
	c-0.036-0.737-0.072-1.465-0.109-2.202c-0.906,0-1.804,0-2.714,0c0,1.736,0,3.472,0,5.216c0.032,0.004,0.063,0.011,0.095,0.011
	c0.325,0.001,0.65-0.002,0.975,0.002c0.083,0.001,0.115-0.026,0.132-0.106c0.078-0.361,0.163-0.721,0.244-1.079
	c0.411,0,0.816,0,1.229,0c0,1.216,0,2.414,0,3.619c-0.403,0-0.801,0-1.21,0c-0.076-0.322-0.154-0.645-0.229-0.968
	c-0.058-0.25-0.056-0.251-0.315-0.251c-0.304,0-0.607,0-0.931,0c0,0.058,0,0.107,0,0.155c0,1.747,0.001,3.493-0.002,5.239
	c0,0.127,0.032,0.162,0.16,0.162C5.034,53,5.847,53.001,6.659,53.004c0.108,0.001,0.149-0.024,0.16-0.142
	c0.074-0.735,0.158-1.47,0.24-2.204c0.002-0.02,0.007-0.04,0.011-0.066c0.612,0.021,1.221,0.041,1.843,0.061
	c0.045,1.229,0.091,2.445,0.137,3.672c-2.992,0-5.973,0-8.969,0c0.02-0.436,0.04-0.865,0.06-1.305
	c0.333-0.054,0.664-0.104,0.995-0.16c0.33-0.057,0.268,0.015,0.269-0.299c0.002-3.743,0-7.487,0.004-11.23
	c0-0.127-0.024-0.177-0.165-0.191c-0.422-0.042-0.84-0.107-1.26-0.164c0-0.042,0-0.083,0-0.125c0.025-0.375,0.05-0.75,0.075-1.126
	C2.993,39.725,5.927,39.725,8.862,39.725z M44.06,54.205c0.616,0.26,1.259,0.32,1.919,0.258c1.319-0.125,2.237-0.794,2.753-2.014
	c0.347-0.821,0.468-1.688,0.49-2.568c0.019-0.71-0.002-1.422-0.043-2.132c-0.039-0.683-0.181-1.349-0.447-1.985
	c-0.249-0.593-0.606-1.098-1.166-1.438c-0.489-0.297-1.026-0.388-1.591-0.379c-0.911,0.013-1.674,0.343-2.279,1.03
	c-0.05,0.055-0.102,0.11-0.173,0.187c0.036-0.442-0.175-0.794-0.251-1.189c-1.005,0.139-1.995,0.275-2.99,0.414
	c0,0.355,0,0.703,0,1.056c0.388,0.052,0.767,0.104,1.151,0.156c0,0.066,0,0.111,0,0.157c0,4.047,0,8.094,0,12.141
	c0,0.021-0.002,0.041,0,0.062c0.01,0.074-0.024,0.102-0.095,0.114c-0.265,0.051-0.528,0.111-0.794,0.16
	c-0.069,0.013-0.09,0.04-0.091,0.104c-0.002,0.095-0.013,0.19-0.014,0.286c-0.002,0.218,0,0.436,0,0.655c1.449,0,2.914,0,4.385,0
	c0.021-0.303,0.031-0.598,0.065-0.89c0.014-0.12-0.018-0.148-0.125-0.165c-0.254-0.039-0.506-0.096-0.76-0.14
	c-0.106-0.018-0.149-0.057-0.148-0.175c0.005-1.213,0.003-2.425,0.003-3.639c0-0.044,0.004-0.089,0.006-0.149
	C43.941,54.154,44.001,54.18,44.06,54.205z M43.864,46.417c0-0.081,0.03-0.173,0.075-0.239c0.096-0.141,0.205-0.273,0.32-0.398
	c0.053-0.057,0.129-0.105,0.203-0.128c0.341-0.106,0.69-0.151,1.046-0.098c0.493,0.074,0.8,0.377,0.988,0.821
	c0.178,0.418,0.258,0.861,0.285,1.31c0.039,0.664,0.073,1.329,0.066,1.993c-0.007,0.843-0.045,1.688-0.264,2.509
	c-0.045,0.168-0.107,0.332-0.168,0.496c-0.014,0.037-0.053,0.075-0.09,0.091c-0.749,0.321-1.51,0.325-2.273,0.06
	c-0.194-0.068-0.191-0.076-0.191-0.276c0-1.017,0-2.034,0-3.05C43.86,48.476,43.858,47.447,43.864,46.417z M14.351,53.246
	c-0.299-0.057-0.58-0.117-0.863-0.16c-0.132-0.021-0.173-0.068-0.172-0.207c0.005-2.07,0.009-4.144-0.003-6.214
	c-0.001-0.261,0.084-0.447,0.257-0.614c0.065-0.063,0.129-0.143,0.209-0.171c0.276-0.097,0.561-0.146,0.857-0.124
	c0.535,0.038,0.899,0.314,1.033,0.837c0.063,0.246,0.097,0.508,0.098,0.763c0.007,2.271,0.004,4.544,0.004,6.816
	c0,0.052,0,0.104,0,0.156c1.148,0,2.276,0,3.411,0c0.021-0.365,0.041-0.723,0.06-1.08c-0.317-0.061-0.614-0.123-0.913-0.17
	c-0.114-0.02-0.143-0.063-0.143-0.177c0.004-2.047,0.002-4.094,0.004-6.141c0-0.331-0.038-0.656-0.127-0.974
	c-0.194-0.696-0.598-1.228-1.257-1.546c-0.523-0.251-1.078-0.315-1.654-0.271c-0.744,0.057-1.392,0.337-1.956,0.817
	c-0.111,0.093-0.217,0.191-0.332,0.294c-0.008-0.024-0.019-0.04-0.018-0.054c0.038-0.306-0.087-0.578-0.181-0.856
	c-0.024-0.071-0.049-0.094-0.131-0.082c-0.502,0.077-1.004,0.146-1.506,0.216c-0.427,0.061-0.853,0.121-1.283,0.183
	c0,0.372,0,0.736,0,1.103c0.387,0.036,0.765,0.073,1.149,0.109c0,0.066,0,0.116,0,0.166c0,2.335,0,4.668,0,7.003
	c0,0.029-0.002,0.059,0,0.087c0.006,0.064-0.015,0.096-0.086,0.107c-0.273,0.051-0.544,0.113-0.818,0.164
	c-0.072,0.014-0.097,0.042-0.099,0.113c-0.004,0.2-0.017,0.398-0.023,0.599c-0.003,0.128,0,0.255,0,0.387c1.477,0,2.941,0,4.414,0
	C14.305,53.955,14.329,53.6,14.351,53.246z M68.682,53.08c-0.11-0.019-0.145-0.062-0.145-0.178c0.004-2.084,0.008-4.168-0.002-6.251
	c-0.002-0.229,0.077-0.393,0.213-0.557c0.126-0.152,0.274-0.25,0.469-0.277c0.153-0.021,0.304-0.06,0.456-0.063
	c0.537-0.011,0.979,0.157,1.175,0.697c0.086,0.237,0.138,0.501,0.138,0.753c0.011,2.318,0.005,4.636,0.005,6.953
	c0,0.057,0,0.113,0,0.18c0.072,0,0.122,0,0.17,0c1.026,0,2.052,0,3.077,0c0.03,0,0.064,0.01,0.088-0.003
	c0.034-0.021,0.087-0.055,0.089-0.086c0.022-0.302,0.036-0.605,0.055-0.907c0.006-0.075-0.022-0.099-0.095-0.111
	c-0.264-0.045-0.523-0.104-0.784-0.145c-0.127-0.02-0.177-0.056-0.177-0.2c0.007-2.038,0.007-4.076,0.001-6.115
	c-0.001-0.255-0.026-0.516-0.076-0.767c-0.147-0.737-0.515-1.332-1.188-1.702c-0.549-0.301-1.145-0.375-1.764-0.331
	c-0.74,0.054-1.383,0.331-1.949,0.803c-0.117,0.097-0.228,0.202-0.34,0.302c-0.012,0-0.023-0.001-0.035-0.001
	c0.071-0.367-0.104-0.671-0.209-0.996c-0.969,0.138-1.926,0.274-2.88,0.41c0,0.376,0,0.741,0,1.104
	c0.383,0.036,0.756,0.071,1.134,0.107c0.002,0.049,0.008,0.085,0.008,0.122c0,2.368-0.002,4.735,0.002,7.102
	c0,0.102-0.036,0.138-0.13,0.155c-0.258,0.047-0.512,0.105-0.771,0.149c-0.084,0.014-0.095,0.049-0.097,0.123
	c-0.002,0.157-0.018,0.314-0.021,0.473c-0.004,0.168-0.002,0.336-0.002,0.512c0.229,0,0.441,0,0.655,0
	c1.201,0,2.399-0.002,3.6,0.002c0.123,0.001,0.177-0.025,0.168-0.158c-0.008-0.086,0.013-0.173,0.017-0.26
	c0.016-0.223,0.027-0.445,0.04-0.674C69.261,53.187,68.973,53.128,68.682,53.08z M83.956,45.597c0,1.967,0,3.934,0,5.901
	c0,0.355,0.035,0.705,0.127,1.049c0.181,0.676,0.56,1.203,1.172,1.548c0.468,0.262,0.978,0.363,1.509,0.388
	c0.721,0.033,1.388-0.127,1.979-0.555c0.187-0.137,0.361-0.288,0.557-0.443c0.073,0.25,0.149,0.49,0.215,0.732
	c0.024,0.096,0.068,0.121,0.163,0.121c0.866-0.004,1.735-0.002,2.603-0.002c0.04,0,0.08-0.005,0.126-0.008
	c0.039-0.365,0.079-0.718,0.119-1.082c-0.291-0.055-0.575-0.109-0.861-0.162c-0.178-0.032-0.178-0.029-0.178-0.211
	c0-2.584-0.002-5.168,0.002-7.753c0-0.193-0.021-0.379-0.081-0.563c-0.065-0.191-0.121-0.385-0.18-0.577
	c-0.039,0.008-0.057,0.015-0.078,0.017c-1.058,0.12-2.113,0.241-3.171,0.357c-0.084,0.009-0.106,0.036-0.104,0.113
	c0.004,0.167,0.002,0.333,0.002,0.5c0,0.119,0,0.238,0,0.362c0.405,0.038,0.789,0.074,1.185,0.11c0,0.063,0,0.116,0,0.169
	c0,2.059-0.008,4.119,0.008,6.177c0.002,0.314-0.066,0.566-0.288,0.783c-0.026,0.025-0.045,0.06-0.075,0.08
	c-0.079,0.057-0.157,0.141-0.245,0.156c-0.277,0.049-0.56,0.104-0.838,0.1c-0.565-0.008-0.967-0.325-1.12-0.875
	c-0.067-0.242-0.113-0.498-0.113-0.748c-0.01-2.059-0.01-4.119-0.002-6.177c0.002-0.4-0.177-0.746-0.255-1.121
	c-1.12,0.128-2.219,0.255-3.316,0.381c0,0.327,0,0.642,0,0.965c0.382,0.037,0.755,0.072,1.142,0.108
	C83.956,45.498,83.956,45.548,83.956,45.597z M81.66,52.527c-0.645,0.279-1.31,0.447-2.02,0.437
	c-0.767-0.013-1.338-0.345-1.74-0.983c-0.317-0.505-0.447-1.07-0.496-1.655c-0.015-0.155-0.017-0.311-0.026-0.491
	c0.438,0,0.854,0.002,1.271,0c1.133-0.008,2.266-0.018,3.397-0.024c0.342-0.003,0.34-0.001,0.468-0.319
	c0.085-0.205,0.158-0.408,0.134-0.637c-0.045-0.425-0.066-0.854-0.128-1.276c-0.107-0.725-0.322-1.417-0.702-2.051
	c-0.354-0.594-0.831-1.058-1.474-1.332c-0.543-0.231-1.112-0.29-1.697-0.25c-1.335,0.092-2.343,0.713-3.02,1.861
	c-0.587,0.994-0.794,2.09-0.821,3.225c-0.01,0.413,0.023,0.831,0.072,1.242c0.098,0.848,0.352,1.65,0.811,2.377
	c0.531,0.841,1.263,1.432,2.233,1.692c0.779,0.21,1.565,0.171,2.346,0.001c0.679-0.148,1.3-0.428,1.858-0.844
	c0.052-0.038,0.098-0.068,0.062-0.149c-0.13-0.288-0.252-0.579-0.382-0.885C81.749,52.489,81.704,52.508,81.66,52.527z
	 M77.378,48.016c0.064-0.625,0.187-1.239,0.397-1.833c0.023-0.063,0.056-0.121,0.073-0.185c0.132-0.482,0.518-0.587,0.939-0.623
	c0.551-0.046,0.883,0.269,1.118,0.72c0.214,0.41,0.322,0.854,0.389,1.308c0.048,0.328,0.071,0.659,0.111,0.988
	c0.014,0.121-0.031,0.157-0.149,0.161c-0.698,0.023-1.396,0.052-2.094,0.083c-0.227,0.009-0.455,0.027-0.683,0.039
	c-0.04,0.002-0.081-0.003-0.145-0.006C77.35,48.444,77.354,48.229,77.378,48.016z M36.173,49.834
	c1.092-0.008,2.183-0.016,3.274-0.025c0.153-0.002,0.34,0.043,0.45-0.029c0.103-0.067,0.129-0.258,0.179-0.398
	c0.041-0.115,0.095-0.237,0.092-0.355c-0.006-0.328-0.031-0.656-0.063-0.981c-0.072-0.737-0.237-1.451-0.554-2.125
	c-0.366-0.773-0.895-1.39-1.7-1.73c-0.572-0.242-1.171-0.293-1.785-0.238c-0.516,0.047-1.007,0.177-1.464,0.422
	c-0.723,0.387-1.234,0.977-1.6,1.699c-0.454,0.895-0.643,1.858-0.669,2.853c-0.011,0.452,0.018,0.907,0.069,1.356
	c0.098,0.855,0.357,1.664,0.826,2.395c0.51,0.795,1.201,1.359,2.113,1.637c0.708,0.217,1.427,0.207,2.148,0.09
	c0.788-0.129,1.511-0.42,2.156-0.896c0.082-0.061,0.089-0.111,0.049-0.196c-0.077-0.165-0.145-0.337-0.219-0.504
	c-0.049-0.112-0.1-0.225-0.152-0.339c-0.037,0.015-0.06,0.022-0.083,0.032c-0.679,0.31-1.385,0.487-2.138,0.464
	c-0.596-0.02-1.089-0.246-1.475-0.698c-0.348-0.405-0.534-0.89-0.627-1.407c-0.059-0.324-0.081-0.656-0.124-1.023
	C35.342,49.834,35.758,49.836,36.173,49.834z M37.817,48.549c-0.303,0.013-0.606,0.021-0.91,0.035
	c-0.626,0.029-1.252,0.059-1.878,0.091c-0.157,0.009-0.189-0.007-0.172-0.14c0.061-0.489,0.112-0.98,0.197-1.466
	c0.085-0.479,0.232-0.944,0.466-1.376c0.016-0.028,0.03-0.065,0.056-0.08c0.407-0.252,1.022-0.374,1.441-0.038
	c0.236,0.19,0.392,0.439,0.506,0.715c0.208,0.503,0.3,1.034,0.358,1.574c0.023,0.213,0.038,0.429,0.057,0.66
	C37.888,48.534,37.853,48.547,37.817,48.549z M60.792,49.834c1.125-0.008,2.249-0.017,3.373-0.025
	c0.125-0.001,0.274,0.031,0.364-0.026c0.084-0.054,0.093-0.213,0.148-0.318c0.121-0.227,0.134-0.468,0.113-0.716
	c-0.025-0.302-0.04-0.605-0.077-0.906c-0.097-0.773-0.291-1.518-0.675-2.203c-0.359-0.641-0.85-1.149-1.537-1.441
	c-0.545-0.234-1.117-0.292-1.708-0.252c-1.232,0.086-2.199,0.627-2.884,1.656c-0.638,0.965-0.878,2.054-0.942,3.19
	c-0.028,0.515-0.005,1.03,0.068,1.543c0.137,0.932,0.423,1.805,0.983,2.57c0.715,0.975,1.682,1.503,2.89,1.57
	c0.71,0.04,1.408-0.057,2.086-0.293c0.461-0.162,0.893-0.387,1.283-0.682c0.035-0.025,0.081-0.094,0.069-0.12
	c-0.123-0.308-0.257-0.61-0.39-0.917c-0.7,0.322-1.418,0.519-2.188,0.5c-0.704-0.016-1.249-0.309-1.647-0.88
	c-0.315-0.45-0.466-0.963-0.537-1.501c-0.03-0.236-0.042-0.477-0.064-0.748C59.969,49.834,60.38,49.836,60.792,49.834z
	 M60.077,45.828c0.064-0.146,0.158-0.25,0.311-0.314c0.351-0.146,0.702-0.212,1.064-0.056c0.285,0.124,0.461,0.359,0.603,0.625
	c0.235,0.447,0.341,0.935,0.412,1.429c0.041,0.287,0.063,0.577,0.094,0.865c0.014,0.149-0.007,0.167-0.161,0.173
	c-0.694,0.027-1.389,0.054-2.08,0.084c-0.224,0.01-0.447,0.027-0.672,0.04c-0.155,0.009-0.155,0.008-0.155-0.241
	C59.554,47.574,59.699,46.676,60.077,45.828z M31.744,47.21c0.011-0.072,0.021-0.125,0.027-0.178
	c0.041-0.358,0.081-0.717,0.12-1.077c0.052-0.467,0.105-0.933,0.152-1.4c0.005-0.054-0.014-0.129-0.05-0.164
	c-0.348-0.33-0.349-0.328-0.832-0.311c-0.063,0.003-0.124,0.01-0.186,0.017c-0.863,0.09-1.663,0.357-2.38,0.854
	c-0.027,0.019-0.058,0.033-0.062,0.035c-0.073-0.284-0.144-0.56-0.214-0.836c-0.015-0.061-0.045-0.07-0.108-0.062
	c-0.938,0.133-1.876,0.262-2.814,0.388c-0.077,0.01-0.098,0.035-0.097,0.108c0.003,0.316,0.001,0.633,0.002,0.95
	c0,0.02,0.007,0.04,0.011,0.058c0.365,0.036,0.722,0.072,1.083,0.107c0,2.46,0,4.906,0,7.364c-0.21,0.049-0.419,0.098-0.629,0.146
	c-0.287,0.066-0.287,0.066-0.299,0.367c-0.001,0.024-0.008,0.049-0.008,0.074c0,0.223,0,0.445,0,0.676c1.443,0,2.908,0,4.383,0
	c0.021-0.32,0.037-0.635,0.068-0.948c0.009-0.087-0.012-0.108-0.087-0.122c-0.258-0.049-0.513-0.111-0.771-0.152
	c-0.137-0.021-0.179-0.076-0.178-0.219c0.005-2.221,0.003-4.443,0.003-6.664c0-0.038-0.005-0.076,0.002-0.113
	c0.006-0.03,0.019-0.068,0.041-0.083c0.304-0.199,0.641-0.302,1.01-0.354c0.057,0.496,0.112,0.978,0.169,1.476
	C30.655,47.17,31.198,47.19,31.744,47.21z M51.039,45.765c0,2.401,0,4.803,0.002,7.204c0,0.073-0.026,0.104-0.096,0.117
	c-0.247,0.055-0.493,0.116-0.741,0.168c-0.078,0.016-0.099,0.051-0.101,0.127c0,0.145-0.017,0.289-0.019,0.435
	c-0.004,0.169-0.002,0.338-0.002,0.521c0.04,0,0.086,0,0.129,0c1.368,0,2.735,0,4.103,0c0.03,0,0.063,0.008,0.088-0.003
	c0.03-0.015,0.074-0.044,0.076-0.071c0.024-0.297,0.041-0.596,0.063-0.895c0.005-0.072-0.025-0.099-0.097-0.113
	c-0.266-0.049-0.53-0.117-0.795-0.16c-0.115-0.02-0.145-0.063-0.145-0.175c0.002-2.21,0.004-4.419-0.004-6.629
	c0-0.19,0.054-0.293,0.225-0.371c0.268-0.119,0.541-0.203,0.838-0.246c0.052,0.463,0.105,0.912,0.151,1.362
	c0.008,0.082,0.032,0.118,0.117,0.121c0.483,0.016,0.963,0.033,1.446,0.052c0.077,0.003,0.105-0.023,0.113-0.103
	c0.088-0.793,0.169-1.587,0.272-2.377c0.029-0.223-0.018-0.373-0.207-0.485c-0.038-0.023-0.067-0.066-0.107-0.086
	c-0.069-0.034-0.146-0.079-0.221-0.08c-0.194-0.002-0.391,0.008-0.583,0.029c-0.763,0.083-1.479,0.312-2.131,0.722
	c-0.09,0.056-0.179,0.113-0.272,0.173c-0.01-0.094-0.01-0.174-0.028-0.25c-0.048-0.198-0.109-0.393-0.158-0.59
	c-0.019-0.075-0.054-0.081-0.126-0.071c-0.708,0.101-1.414,0.195-2.123,0.292c-0.253,0.034-0.507,0.073-0.758,0.109
	c0,0.374,0,0.738,0,1.101c0.366,0.036,0.72,0.071,1.083,0.107C51.035,45.733,51.039,45.749,51.039,45.765z M96.019,44.189
	c-0.02-0.082-0.042-0.111-0.142-0.097c-0.509,0.078-1.021,0.143-1.531,0.213c-0.441,0.061-0.887,0.122-1.333,0.183
	c0,0.372,0,0.736,0,1.104c0.366,0.037,0.723,0.073,1.092,0.11c0,0.069,0,0.123,0,0.176c0,2.334,0,4.668,0,7.002
	c0,0.029-0.002,0.06,0,0.088c0.008,0.074-0.029,0.102-0.098,0.117c-0.253,0.055-0.502,0.117-0.754,0.17
	c-0.063,0.014-0.092,0.031-0.094,0.103c-0.009,0.322-0.026,0.644-0.04,0.968c1.473,0,2.938,0,4.402,0
	c0.006-0.034,0.014-0.059,0.016-0.083c0.022-0.294,0.044-0.587,0.067-0.882c0.006-0.072-0.027-0.092-0.091-0.104
	c-0.28-0.056-0.561-0.117-0.843-0.171c-0.079-0.015-0.109-0.047-0.109-0.132c0.002-2.268,0.002-4.535,0-6.802
	c0-0.078,0.024-0.129,0.094-0.157c0.231-0.092,0.462-0.186,0.694-0.271c0.082-0.03,0.174-0.037,0.269-0.056
	c0.058,0.503,0.113,0.985,0.168,1.469c0.031,0.005,0.056,0.012,0.081,0.013c0.489,0.019,0.979,0.035,1.469,0.058
	c0.103,0.004,0.112-0.057,0.12-0.13c0.028-0.281,0.06-0.562,0.091-0.842c0.063-0.57,0.128-1.14,0.186-1.71
	c0.006-0.044-0.021-0.106-0.054-0.138c-0.098-0.096-0.206-0.184-0.312-0.269c-0.034-0.026-0.082-0.043-0.125-0.044
	c-0.665-0.014-1.312,0.092-1.927,0.341c-0.383,0.156-0.746,0.362-1.101,0.538C96.153,44.716,96.082,44.453,96.019,44.189z
	 M23.557,53.01c-0.338-0.007-0.596-0.156-0.719-0.48c-0.048-0.129-0.069-0.275-0.069-0.414c-0.004-1.867-0.003-3.735-0.003-5.602
	c0-0.242,0.002-0.483-0.001-0.726c-0.001-0.075,0.025-0.1,0.099-0.108c0.471-0.049,0.941-0.109,1.413-0.149
	c0.13-0.011,0.157-0.069,0.167-0.174c0.022-0.248,0.049-0.496,0.072-0.744c0.012-0.126,0.018-0.252,0.028-0.39
	c-0.067,0-0.116,0-0.166,0c-0.504,0-1.008-0.003-1.513,0.002c-0.109,0.001-0.143-0.029-0.142-0.14
	c0.005-0.601,0.002-1.201,0.002-1.801c0-0.048,0-0.097,0-0.149c-0.523,0.024-1.029,0.052-1.535,0.068
	c-0.102,0.003-0.142,0.03-0.169,0.127c-0.163,0.58-0.334,1.157-0.498,1.736c-0.021,0.076-0.054,0.108-0.137,0.109
	c-0.212,0.002-0.423,0.014-0.635,0.024c-0.189,0.009-0.379,0.021-0.581,0.031c0,0.107,0.002,0.202,0,0.298
	c-0.008,0.295-0.019,0.59-0.028,0.885c-0.002,0.054-0.005,0.101,0.077,0.113c0.313,0.044,0.624,0.104,0.937,0.143
	c0.119,0.015,0.147,0.056,0.147,0.169c-0.003,2.084-0.003,4.169-0.001,6.253c0,0.174,0.009,0.35,0.025,0.522
	c0.081,0.897,0.638,1.548,1.509,1.771c0.437,0.113,0.881,0.108,1.326,0.077c0.488-0.034,0.964-0.121,1.426-0.282
	c0.083-0.029,0.12-0.064,0.109-0.16c-0.039-0.329-0.067-0.66-0.101-1.009C24.239,53.011,23.898,53.016,23.557,53.01z M99.427,54.373
	c0.27-0.07,0.463-0.223,0.53-0.504c0.066-0.278,0.01-0.529-0.215-0.711c-0.282-0.229-0.61-0.242-0.943-0.133
	c-0.435,0.145-0.591,0.6-0.402,0.982c0.148,0.302,0.433,0.391,0.785,0.402C99.24,54.402,99.338,54.398,99.427,54.373z
	 M99.158,54.184c-0.331,0.003-0.567-0.203-0.569-0.494c-0.004-0.279,0.2-0.498,0.563-0.498c0.396,0.002,0.572,0.247,0.563,0.5
	C99.715,53.981,99.488,54.182,99.158,54.184z M99.184,54.004c-0.031-0.081-0.058-0.15-0.085-0.221
	c0.013-0.011,0.025-0.021,0.039-0.031c0.106,0.139,0.182,0.34,0.439,0.23c-0.071-0.079-0.139-0.152-0.206-0.229
	c0.087-0.076,0.168-0.152,0.125-0.271c-0.042-0.119-0.158-0.133-0.257-0.141c-0.148-0.012-0.3-0.004-0.484-0.004
	c0.185,0.226,0.169,0.441,0.021,0.666C98.924,54.004,99.047,54.004,99.184,54.004z M99.111,53.449
	c0.063,0.023,0.116,0.036,0.158,0.064c0.016,0.012,0.019,0.078,0.008,0.087c-0.044,0.029-0.096,0.044-0.166,0.073
	C99.111,53.582,99.111,53.529,99.111,53.449z"/>
</svg>
