<?xml version="1.0" encoding="utf-8"?>
<!-- Generator: Adobe Illustrator 16.0.0, SVG Export Plug-In . SVG Version: 6.00 Build 0)  -->
<!DOCTYPE svg PUBLIC "-//W3C//DTD SVG 1.1//EN" "http://www.w3.org/Graphics/SVG/1.1/DTD/svg11.dtd">
<svg version="1.1" id="Layer_1" xmlns="http://www.w3.org/2000/svg" xmlns:xlink="http://www.w3.org/1999/xlink" x="0px" y="0px"
	 width="100px" height="100px" viewBox="0 0 100 100" enable-background="new 0 0 100 100" xml:space="preserve">
<polyline fill="none" points="100,42.813 100,57.051 0,57.051 0,42.813 100,42.813 "/>
<g>
	<path fill="#010101" d="M87.966,44.678c0-0.983,0.306-1.322,0.814-1.322c0.508,0,0.914,0.204,1.39,1.322l2.881,6.542v4.136
		c0,0.983-0.407,1.255-1.525,1.39v0.271h5.322v-0.271c-1.152-0.135-1.525-0.44-1.525-1.39V51.22l2.779-6.305
		c0.543-1.22,1.085-1.491,1.898-1.627v-0.271h-3.898v0.271c1.322,0.136,1.797,0.508,1.424,1.39l-2.44,5.593l-2.509-5.729
		c-0.339-0.78-0.136-1.017,1.322-1.221v-0.271h-8.373v0.271c1.322,0.204,1.729,0.441,1.729,1.39v7.661l-6.136-9.322h-3.017v0.271
		c0.983,0.136,1.288,0.441,1.288,1.39V55.39c0,0.983-0.271,1.322-0.609,1.322c-0.306,0-0.476-0.136-0.916-1.322l-4.542-12.407
		h-0.271l-4.373,11.865c-0.475,1.322-1.22,1.763-1.966,1.932v0.271h4v-0.271c-1.39-0.136-1.83-0.678-1.525-1.56l0.983-2.712h4.135
		l0.949,2.543c0.407,1.152,0.17,1.491-1.017,1.694v0.271h7.594v-0.271c-1.322-0.203-1.729-0.44-1.729-1.39v-9.559l7.424,11.254h0.44
		V44.678z M34.441,50c0-4.339,2.067-6.61,4.474-6.61c1.424,0,2.339,0.305,2.881,0.881c0.407,0.407,0.712,0.983,1.051,1.898h0.271
		v-2.916c-1.39-0.271-2.644-0.44-3.898-0.44c-3.627,0-7.39,2.339-7.39,7.187s3.763,7.187,7.152,7.187
		c1.492,0,2.813-0.237,4.068-0.61l0.407-2.746l-0.237-0.067c-0.305,0.576-0.678,1.085-1.084,1.525
		c-0.881,0.882-2.068,1.355-3.254,1.355C36.576,56.61,34.441,54.407,34.441,50L34.441,50z M64.509,50.407
		c-0.306,0-0.712-0.034-1.119-0.102v-6.779h1.119c1.864,0,2.678,0.983,2.678,3.424C67.187,49.424,66.339,50.407,64.509,50.407z
		 M20.949,43.017v3.356h0.271c0.407-2.136,1.254-2.813,2.678-2.813h0.678v11.796c0,0.983-0.407,1.255-1.525,1.39v0.271h5.322v-0.271
		c-1.153-0.135-1.525-0.44-1.525-1.39v-11.83h0.678c1.424,0,2.271,0.678,2.678,2.813h0.271v-3.356h-9.525V43.017z M16.712,57.187
		c2.305,0,4.746-1.322,4.746-4.034c0-1.593-0.848-2.915-2.339-3.729l-2.644-1.458c-1.39-0.78-1.797-1.492-1.797-2.509
		c0-1.152,0.848-2.068,2.441-2.068c0.78,0,1.356,0.204,1.831,0.644c0.407,0.407,0.813,1.085,1.187,2.305h0.237v-3.085
		c-0.949-0.271-1.933-0.44-3.085-0.44c-2.271,0-3.966,1.424-3.966,3.831c0,1.525,0.848,2.915,2.237,3.729L18,51.729
		c1.39,0.779,1.831,1.525,1.831,2.645c0,1.322-1.356,2.271-2.848,2.271c-0.983,0-1.796-0.339-2.373-0.915
		c-0.373-0.373-0.78-0.949-1.051-1.694h1.594v-0.271c-0.441-0.102-0.712-0.17-1.085-1.051l-3.119-7.424h-0.271l-3.051,7.254
		c-0.407,0.983-0.678,1.152-1.152,1.221v0.271h2.712v-0.271c-0.983-0.102-1.254-0.576-1.017-1.187l0.475-1.152h2.746L12,52.848
		c0.271,0.644-0.136,0.813-1.119,0.881V54h2.169v2.678C14.136,56.983,15.525,57.187,16.712,57.187z M51.152,57.051l4.034-11.22
		l0.305,9.559c0.034,0.949-0.339,1.221-1.491,1.355v0.271h11.118v-0.271c-1.321-0.203-1.729-0.44-1.729-1.39v-4.508
		c0.44,0.067,0.882,0.102,1.221,0.102c2.678,0,4.982-0.983,4.982-3.966c0-2.983-2.305-3.966-4.982-3.966h-4.78v0.271
		c0.983,0.136,1.288,0.441,1.288,1.39v10.678c0,0.983-0.406,1.39-1.525,1.39H59.56c-1.187,0-1.695-0.44-1.729-1.355l-0.406-10.678
		c-0.034-0.983,0.305-1.288,1.356-1.424v-0.271h-3.289l-3.593,10.068l-3.593-10.068H44.78v0.271c1.051,0.136,1.39,0.475,1.356,1.424
		l-0.373,10.237c-0.034,1.017-0.576,1.627-1.56,1.796v0.271h3.729v-0.271C46.983,56.61,46.44,56,46.475,54.949l0.305-9.322
		l4.102,11.39L51.152,57.051L51.152,57.051z M40.339,54.102c1.797,0,4.102-1.594,4.102-4.102c0-2.475-2.271-4.102-4.102-4.102
		c-1.796,0-4.102,1.593-4.102,4.102C36.237,52.475,38.508,54.102,40.339,54.102z M40.339,46.475c1.153,0,1.933,0.949,1.933,3.525
		c0,2.61-0.814,3.525-1.933,3.525c-1.152,0-1.932-0.949-1.932-3.525C38.407,47.39,39.187,46.475,40.339,46.475z M74.136,51.933
		h-3.763l1.864-5.153L74.136,51.933z M11.22,50.881H8.915l1.153-2.813L11.22,50.881z M6.813,51.594h0.271V47.39H6.813
		c-0.44,1.492-0.881,1.831-1.695,1.831h-1.56v-5.695h2.475c1.424,0,2.271,0.678,2.678,2.813h0.271v-3.356H0v0.271
		c0.983,0.136,1.288,0.441,1.288,1.39v10.678c0,0.982-0.305,1.254-1.288,1.39v0.271h5.288v-0.271
		c-1.322-0.203-1.729-0.44-1.729-1.39v-5.594h1.56C5.898,49.763,6.373,50.102,6.813,51.594z"/>
</g>
</svg>
