<?xml version="1.0" encoding="utf-8"?>
<!DOCTYPE svg PUBLIC "-//W3C//DTD SVG 1.1//EN" "http://www.w3.org/Graphics/SVG/1.1/DTD/svg11.dtd">
<svg version="1.1" id="Layer_1" xmlns="http://www.w3.org/2000/svg" xmlns:xlink="http://www.w3.org/1999/xlink" x="0px" y="0px"
	 width="100px" height="100px" viewBox="0 0 100 100" enable-background="new 0 0 100 100" xml:space="preserve">
<path fill-rule="evenodd" clip-rule="evenodd" d="M56.899,36.308c-0.013,2.596-0.026,5.191-0.037,7.786
	c-0.003,0.571,0.007,0.584,0.513,0.343c1.428-0.682,2.945-0.844,4.482-0.66c1.573,0.188,2.868,0.982,3.896,2.18
	c1.148,1.338,1.795,2.9,2.002,4.647c0.129,1.095,0.168,2.196,0.039,3.29c-0.333,2.825-1.401,5.26-3.828,6.932
	c-1.249,0.86-2.643,1.346-4.144,1.538c-0.065,0.009-0.167-0.03-0.174,0.095c-0.366,0-0.733,0-1.101,0
	c-0.016-0.04-0.033-0.034-0.049,0c-0.884,0-1.768,0-2.65,0c-0.002-0.131-0.109-0.084-0.17-0.091
	c-1.32-0.166-2.629-0.396-3.932-0.665c-0.213-0.045-0.203-0.162-0.201-0.318c0.063-3.865,0.113-7.73,0.119-11.596
	c0.004-2.44-0.016-4.881-0.079-7.32c-0.021-0.828-0.005-1.662-0.28-2.47c-0.232-0.686-0.644-1.13-1.378-1.237
	c-0.115-0.018-0.227-0.051-0.34-0.078c-0.424-0.105-0.57-0.382-0.442-0.809c0.038-0.127,0.14-0.136,0.231-0.154
	c0.847-0.172,1.693-0.344,2.542-0.505c1.395-0.266,2.793-0.521,4.188-0.792c0.096-0.019,0.252,0.064,0.292-0.115
	c0.05,0,0.101,0,0.149,0c-0.011,0.022-0.006,0.042,0.02,0.039c0.012-0.001,0.021-0.025,0.031-0.039
	C56.699,36.308,56.799,36.308,56.899,36.308z M56.848,53.281c0.021,0,0.041-0.001,0.061-0.001c0,1.675-0.009,3.35,0.004,5.023
	c0.006,0.773,0.057,1.548,0.082,2.322c0.006,0.213,0.106,0.32,0.318,0.333c0.082,0.005,0.165,0.019,0.248,0.028
	c1.1,0.126,2.015-0.219,2.734-1.067c0.486-0.571,0.835-1.222,1.104-1.917c0.961-2.485,1.085-5.059,0.732-7.665
	c-0.138-1.016-0.453-1.997-1.012-2.873c-0.66-1.033-1.526-1.735-2.845-1.642c-0.392,0.027-0.772,0.1-1.15,0.207
	c-0.19,0.053-0.239,0.141-0.243,0.328C56.824,48.666,56.855,50.974,56.848,53.281z M0,38.008c0.588,0.035,1.171,0.099,1.736,0.276
	c0.865,0.274,1.233,0.966,1.46,1.762c0.253,0.888,0.312,1.805,0.347,2.719c0.146,3.839,0.116,7.68,0.047,11.521
	c-0.022,1.239-0.064,2.481-0.244,3.712c-0.066,0.452-0.158,0.9-0.343,1.322c-0.305,0.696-0.809,1.146-1.569,1.287
	c-0.327,0.061-0.65,0.143-0.979,0.191C0.288,60.821,0.167,60.95,0,60.958c0,0.066,0,0.133,0,0.199
	c0.006,0.012,0.013,0.023,0.017,0.036c0.001,0.003-0.011,0.01-0.017,0.015c0,0.217,0,0.434,0,0.65
	c0.098,0.146,0.25,0.132,0.396,0.133c1.691,0.008,3.383,0.019,5.075,0.019c2.433,0,4.866-0.009,7.299-0.011
	c0.215,0,0.366-0.033,0.385-0.298c0.043-0.585-0.02-0.792-0.309-0.851c-0.358-0.072-0.717-0.155-1.08-0.192
	c-1.042-0.105-1.654-0.698-1.947-1.669c-0.065-0.215-0.123-0.432-0.167-0.651c-0.184-0.917-0.217-1.85-0.269-2.78
	c-0.097-1.715-0.111-3.431-0.115-5.147c0-0.169,0.061-0.21,0.219-0.204c0.924,0.031,1.848,0.059,2.768,0.155
	c0.595,0.063,1.074,0.325,1.441,0.8c0.206,0.264,0.373,0.55,0.512,0.854c0.224,0.487,0.347,1.004,0.467,1.522
	c0.032,0.137,0.087,0.195,0.231,0.194c0.216-0.001,0.433,0.023,0.649,0.025c0.381,0.004,0.339,0.051,0.339-0.323
	c0.001-2.658,0.001-5.316,0.001-7.975c0-0.05-0.004-0.101,0-0.149c0.011-0.119-0.043-0.164-0.16-0.16
	c-0.225,0.008-0.451,0.021-0.675,0.008c-0.251-0.018-0.363,0.076-0.418,0.33c-0.145,0.667-0.331,1.324-0.703,1.908
	c-0.41,0.643-0.964,1.078-1.746,1.157c-0.871,0.089-1.745,0.104-2.62,0.116c-0.236,0.004-0.308-0.052-0.308-0.299
	c-0.007-2.792,0.055-5.582,0.144-8.373c0.012-0.357,0.056-0.713,0.076-1.07c0.008-0.139,0.066-0.178,0.201-0.177
	c1.3,0.009,2.6,0.009,3.9,0.017c1.347,0.009,2.503,0.481,3.442,1.457c0.507,0.525,0.888,1.141,1.221,1.787
	c0.316,0.615,0.552,1.264,0.813,1.902c0.15,0.368,0.23,0.402,0.61,0.304c0.217-0.057,0.429-0.132,0.647-0.183
	c0.139-0.033,0.185-0.1,0.18-0.242c-0.064-2.24-0.043-4.482-0.143-6.722c-0.009-0.217-0.074-0.299-0.31-0.299
	c-6.033,0-12.066-0.008-18.099-0.011c-0.649,0-1.3-0.023-1.947,0.048C0,37.208,0,37.608,0,38.008z M24.95,62.458
	c-0.013-0.14-0.127-0.085-0.198-0.097c-1.781-0.29-3.32-1.041-4.566-2.365c-1.081-1.149-1.707-2.529-2.051-4.046
	c-0.492-2.168-0.506-4.346,0.199-6.459c1.068-3.201,3.259-5.221,6.612-5.866c1.798-0.347,3.586-0.233,5.313,0.401
	c2.349,0.865,3.829,2.574,4.637,4.903c0.574,1.655,0.684,3.36,0.567,5.099c-0.109,1.629-0.572,3.139-1.435,4.517
	c-1.29,2.062-3.172,3.271-5.536,3.761c-0.13,0.027-0.263,0.039-0.393,0.066c-0.043,0.009-0.126-0.011-0.099,0.086
	c-0.3,0-0.6,0-0.9,0c-0.017-0.041-0.034-0.035-0.05,0C26.35,62.458,25.649,62.458,24.95,62.458z M29.943,53.257
	c0.019-0.602-0.02-1.201-0.052-1.799c-0.063-1.182-0.2-2.354-0.541-3.493c-0.29-0.97-0.716-1.86-1.475-2.563
	c-0.533-0.493-1.153-0.637-1.85-0.5c-0.702,0.137-1.155,0.6-1.494,1.188c-0.677,1.174-0.889,2.481-1.025,3.8
	c-0.126,1.227-0.117,2.462-0.105,3.695c0.015,1.504,0.162,2.99,0.599,4.437c0.261,0.866,0.592,1.7,1.231,2.368
	c0.891,0.93,2.14,0.944,3.062,0.053c0.683-0.661,0.981-1.512,1.2-2.399C29.883,56.471,29.912,54.862,29.943,53.257z M76.699,62.458
	c0.035-0.115-0.063-0.086-0.11-0.094c-3.866-0.582-6.604-3.441-7.208-7.354c-0.398-2.585-0.122-5.119,1.258-7.432
	c1.33-2.229,3.293-3.534,5.842-3.98c1.265-0.221,2.523-0.203,3.764,0.125c1.685,0.447,2.959,1.451,3.818,2.963
	c0.934,1.641,1.26,3.433,1.249,5.302c-0.001,0.193-0.072,0.229-0.249,0.229c-3.374,0.01-6.748,0.027-10.121,0.035
	c-0.223,0.001-0.295,0.045-0.286,0.284c0.052,1.392,0.225,2.761,0.874,4.013c0.91,1.75,2.293,2.865,4.314,3.064
	c1.081,0.106,2.144,0.053,3.166-0.357c0.443-0.178,0.838-0.443,1.244-0.686c0.193-0.115,0.359-0.182,0.543,0.039
	c0.262,0.314,0.313,0.475,0.135,0.725c-0.357,0.499-0.816,0.898-1.289,1.283c-1.193,0.968-2.572,1.503-4.076,1.748
	c-0.049,0.008-0.144-0.021-0.117,0.092c-0.65,0-1.3,0-1.949,0c-0.018-0.045-0.033-0.021-0.051,0c-0.116,0-0.232,0-0.35,0
	c-0.016-0.012-0.031-0.022-0.047-0.034c-0.002,0.012-0.002,0.022-0.004,0.034C76.934,62.458,76.816,62.458,76.699,62.458z
	 M77.275,50.67c0-0.021,0-0.042,0-0.063c0.782,0,1.564-0.01,2.347,0.005c0.241,0.005,0.302-0.079,0.274-0.3
	c-0.027-0.223-0.035-0.447-0.047-0.672c-0.045-0.94-0.15-1.873-0.404-2.781c-0.138-0.49-0.317-0.965-0.629-1.376
	c-0.518-0.685-1.277-0.82-2.007-0.362c-0.316,0.197-0.571,0.46-0.771,0.77c-0.912,1.412-1.218,3-1.341,4.641
	c-0.012,0.166,0.064,0.189,0.206,0.186C75.693,50.696,76.485,50.722,77.275,50.67z M94.1,62.458
	c0.038-0.146,0.163-0.081,0.248-0.096c1.855-0.327,3.502-1.027,4.641-2.617c0.455-0.636,0.746-1.348,0.913-2.109
	c0.013-0.057,0.009-0.117,0.063-0.155c0.002-0.002,0.012,0.005,0.018,0.01s0.012,0.012,0.018,0.018c0-0.7,0-1.399,0-2.101
	c-0.015-0.01-0.039-0.018-0.041-0.029c-0.002-0.025,0.018-0.031,0.041-0.02c0-0.051,0-0.101,0-0.15
	c-0.08-0.061-0.078-0.061-0.101-0.16c-0.159-0.729-0.474-1.382-0.97-1.942c-0.734-0.831-1.691-1.335-2.677-1.792
	c-0.972-0.45-1.981-0.82-2.917-1.351c-0.547-0.31-1.06-0.661-1.46-1.156c-0.459-0.567-0.466-1.219-0.377-1.897
	c0.137-1.048,1.117-1.939,2.174-1.951c1.235-0.014,2.219,0.498,2.978,1.457c0.57,0.721,0.928,1.553,1.252,2.402
	c0.27,0.705,0.306,0.714,1.014,0.452c0.146-0.054,0.186-0.125,0.182-0.271c-0.04-1.432-0.08-2.864-0.105-4.297
	c-0.004-0.23-0.095-0.328-0.303-0.409c-1.111-0.431-2.27-0.626-3.447-0.755c-1.352-0.148-2.691-0.115-4.016,0.221
	c-2.553,0.647-4.404,2.724-4.556,5.076c-0.132,2.05,0.565,3.685,2.333,4.804c0.764,0.483,1.613,0.784,2.445,1.121
	c0.848,0.344,1.697,0.685,2.457,1.206c0.398,0.272,0.74,0.598,0.93,1.053c0.582,1.412-0.254,3.145-1.744,3.479
	c-1.574,0.354-2.928-0.095-3.991-1.337c-0.725-0.847-1.2-1.833-1.614-2.854c-0.229-0.564-0.281-0.588-0.873-0.399
	c-0.04,0.013-0.078,0.032-0.117,0.043c-0.14,0.041-0.191,0.126-0.188,0.276c0.047,1.591,0.084,3.182,0.128,4.772
	c0.011,0.415,0.017,0.421,0.419,0.563c1.15,0.406,2.344,0.619,3.545,0.8c0.072,0.011,0.184-0.04,0.199,0.097
	C91.766,62.458,92.934,62.458,94.1,62.458z M56.549,36.308c-0.011,0.022-0.006,0.042,0.02,0.039
	c0.012-0.001,0.021-0.025,0.031-0.039C56.583,36.308,56.566,36.308,56.549,36.308z M100,55.358c-0.023-0.012-0.043-0.006-0.041,0.02
	c0.002,0.012,0.026,0.02,0.041,0.029C100,55.392,100,55.374,100,55.358z M0,61.208c0.006-0.005,0.018-0.012,0.017-0.015
	C0.013,61.181,0.005,61.169,0,61.157C0,61.175,0,61.191,0,61.208z M27.1,62.458c-0.017-0.041-0.034-0.035-0.05,0
	C27.066,62.458,27.083,62.458,27.1,62.458z M58.549,62.458c-0.016-0.04-0.033-0.034-0.049,0
	C58.516,62.458,58.533,62.458,58.549,62.458z M77.1,62.458c-0.016-0.012-0.031-0.022-0.047-0.034
	c-0.002,0.012-0.002,0.022-0.004,0.034C77.066,62.458,77.083,62.458,77.1,62.458z M77.5,62.458c-0.018-0.045-0.033-0.021-0.051,0
	C77.467,62.458,77.482,62.458,77.5,62.458z M43.218,47.143c0.042-1.114,0.083-2.229,0.125-3.343
	c0.012-0.318-0.007-0.339-0.307-0.283c-2.361,0.436-4.714,0.916-7.064,1.402c-0.522,0.107-0.543,0.145-0.521,0.68
	c0.001,0.017,0.001,0.033,0.001,0.05c0.003,0.158,0.079,0.237,0.24,0.263c0.262,0.041,0.521,0.107,0.783,0.146
	c0.676,0.103,1.052,0.52,1.23,1.15c0.177,0.623,0.211,1.265,0.233,1.903c0.073,2.165,0.08,4.331,0.032,6.497
	c-0.025,1.165-0.03,2.331-0.168,3.491c-0.107,0.897-0.575,1.458-1.421,1.643c-0.235,0.052-0.475,0.085-0.71,0.135
	c-0.083,0.017-0.182,0.021-0.182,0.157c0,0.216-0.023,0.432-0.026,0.648c-0.002,0.188,0.058,0.319,0.291,0.296
	c0.131-0.013,0.266,0.013,0.399,0.013c2.291,0.006,4.582,0.012,6.873,0.014c1,0.001,2-0.01,2.999-0.005
	c0.186,0.001,0.254-0.055,0.25-0.238c-0.005-0.216,0.011-0.433,0.018-0.649c0.004-0.158-0.057-0.237-0.231-0.25
	c-0.348-0.023-0.695-0.068-1.042-0.109c-0.48-0.055-0.94-0.154-1.237-0.596c-0.17-0.252-0.269-0.532-0.33-0.828
	c-0.185-0.893-0.202-1.803-0.237-2.707c-0.094-2.398-0.08-4.797-0.015-7.196c0.012-0.438,0.2-0.717,0.58-0.903
	c0.869-0.428,1.778-0.523,2.722-0.341c0.626,0.121,1.195,0.401,1.769,0.665c0.206,0.096,0.321,0.075,0.414-0.157
	c0.576-1.443,1.133-2.894,1.642-4.362c0.114-0.329,0.077-0.413-0.229-0.57c-0.066-0.034-0.134-0.068-0.205-0.092
	c-1.074-0.335-2.146-0.358-3.202,0.063c-1.29,0.514-2.221,1.439-2.936,2.605c-0.167,0.273-0.324,0.553-0.486,0.83
	C43.251,47.156,43.234,47.149,43.218,47.143z"/>
</svg>
