<?xml version="1.0" encoding="utf-8"?>
<!-- Generator: Adobe Illustrator 16.0.0, SVG Export Plug-In . SVG Version: 6.00 Build 0)  -->
<!DOCTYPE svg PUBLIC "-//W3C//DTD SVG 1.1//EN" "http://www.w3.org/Graphics/SVG/1.1/DTD/svg11.dtd">
<svg version="1.1" id="Layer_1" xmlns="http://www.w3.org/2000/svg" xmlns:xlink="http://www.w3.org/1999/xlink" x="0px" y="0px"
	 width="100px" height="100px" viewBox="0 0 100 100" enable-background="new 0 0 100 100" xml:space="preserve">
<path fill-rule="evenodd" clip-rule="evenodd" d="M19.383,58.742c-3.183-0.395-4.861-2.376-5.493-5.347
	c-0.578-2.718-0.564-5.444,0.384-8.099c0.886-2.479,2.646-3.88,5.282-4.154c0.93-0.097,1.856-0.082,2.773,0.104
	c2.33,0.47,3.842,1.908,4.545,4.118c0.964,3.033,0.965,6.108-0.073,9.13c-0.847,2.463-2.568,3.944-5.214,4.25
	C21.486,58.756,19.472,58.754,19.383,58.742z M24.558,49.862c0.014-1.012-0.052-2.02-0.125-3.027
	c-0.072-1.009-0.209-2.009-0.563-2.966c-0.483-1.305-1.405-2.043-2.801-2.159c-0.472-0.039-0.941-0.016-1.414,0.042
	c-0.889,0.109-1.545,0.565-2.036,1.288c-0.363,0.534-0.569,1.128-0.694,1.759c-0.405,2.06-0.444,4.141-0.383,6.229
	c0.045,1.549,0.113,3.092,0.564,4.592c0.596,1.981,1.923,2.758,4.079,2.555c1.242-0.116,2.079-0.775,2.559-1.906
	c0.133-0.313,0.246-0.639,0.328-0.969C24.517,53.514,24.504,51.685,24.558,49.862z M84.253,58.916
	c0.012-0.324,0.033-0.646,0.033-0.97c0.003-5.071,0.002-10.143,0.002-15.215c0-0.13,0.009-0.261-0.001-0.391
	c-0.017-0.244,0.085-0.347,0.334-0.366c0.602-0.045,1.2-0.125,1.801-0.169c0.231-0.016,0.318-0.11,0.317-0.328
	c-0.002-0.251-0.182-0.231-0.344-0.231c-1.663-0.001-3.327-0.002-4.99,0.001c-0.171,0-0.374-0.04-0.365,0.254
	c0.007,0.248,0.149,0.284,0.35,0.3c0.536,0.044,1.07,0.13,1.606,0.146c0.411,0.012,0.5,0.179,0.498,0.565
	c-0.015,3.311-0.007,6.621-0.012,9.931c-0.001,0.13,0.071,0.29-0.106,0.414c-0.143-0.229-0.279-0.45-0.414-0.671
	c-2.152-3.517-4.304-7.035-6.456-10.552c-0.117-0.191-0.203-0.396-0.499-0.394c-1.369,0.012-2.739,0.005-4.109,0.005
	c-0.175,0-0.326,0.012-0.321,0.254c0.003,0.2,0.074,0.295,0.282,0.309c0.325,0.022,0.649,0.059,0.972,0.106
	c0.69,0.103,0.85,0.291,0.851,0.999c0.002,1.843,0,3.686,0,5.528c0,3-0.006,6.001,0.008,9.001c0.001,0.358-0.074,0.529-0.467,0.545
	c-0.569,0.023-1.136,0.104-1.703,0.16c-0.197,0.02-0.406,0.019-0.386,0.314c0.021,0.295,0.248,0.212,0.403,0.213
	c1.663,0.014,3.326,0.02,4.99,0.02c0.152-0.001,0.393,0.091,0.39-0.216c-0.002-0.257-0.168-0.317-0.388-0.337
	c-0.503-0.043-1.005-0.123-1.509-0.141c-0.435-0.017-0.554-0.188-0.552-0.623c0.018-4.338,0.01-8.675,0.011-13.013
	c0-0.137,0.013-0.274,0.02-0.44c0.22,0.114,0.27,0.297,0.359,0.441c2.906,4.661,5.812,9.322,8.704,13.991
	c0.108,0.175,0.108,0.175,0.3,0.558C83.992,58.916,84.123,58.916,84.253,58.916z M65.237,58.723c2.48-0.349,3.542-1.553,3.553-4.063
	c0.008-1.745,0.002-3.489,0.002-5.234c0-2.315,0.008-4.631-0.009-6.946c-0.003-0.376,0.1-0.515,0.481-0.526
	c0.487-0.014,0.973-0.105,1.46-0.143c0.225-0.018,0.314-0.106,0.316-0.331c0.002-0.262-0.18-0.232-0.336-0.232
	c-1.5-0.003-3-0.003-4.5-0.001c-0.162,0-0.33-0.016-0.33,0.241c0,0.233,0.097,0.31,0.318,0.324c0.39,0.026,0.777,0.1,1.167,0.114
	c0.442,0.015,0.587,0.18,0.584,0.649c-0.022,3.783-0.012,7.566-0.013,11.349c0,0.456,0.011,0.914-0.017,1.369
	c-0.078,1.296-0.802,2.11-2.07,2.364c-0.712,0.144-1.43,0.115-2.146,0.076c-2.033-0.113-2.889-0.941-2.906-2.965
	c-0.035-4.174-0.01-8.348-0.02-12.522c-0.001-0.3,0.101-0.395,0.392-0.398c0.619-0.006,1.237-0.042,1.856-0.07
	c0.19-0.008,0.411,0.027,0.404-0.282c-0.008-0.322-0.246-0.247-0.424-0.249c-0.652-0.008-1.305-0.004-1.957-0.004
	c-1.614,0-3.229-0.005-4.842,0.007c-0.188,0.001-0.503-0.148-0.521,0.236c-0.02,0.424,0.325,0.271,0.531,0.293
	c0.355,0.038,0.716,0.035,1.074,0.052c0.687,0.033,0.688,0.034,0.688,0.708c0,3.864-0.006,7.729,0.002,11.593
	c0.007,2.787,1.123,4.111,3.814,4.555c0.192,0.031,0.39,0.037,0.583,0.066C62.456,58.766,65.113,58.74,65.237,58.723z
	 M-0.001,41.693c0.74,0.136,1.49,0.133,2.238,0.152c0.3,0.008,0.384,0.127,0.383,0.414c-0.006,5.136-0.007,10.272,0.001,15.409
	c0,0.307-0.088,0.439-0.408,0.449c-0.738,0.023-1.476,0.074-2.214,0.113c0,0.163,0,0.326,0,0.489
	c0.021-0.025,0.042-0.074,0.062-0.073c2.573,0.125,5.148,0.02,7.723,0.051c0.165,0.002,0.38,0.063,0.383-0.234
	c0.003-0.272-0.18-0.264-0.363-0.271c-0.685-0.027-1.368-0.058-2.053-0.08c-0.243-0.009-0.387-0.066-0.385-0.364
	c0.009-2.56,0.009-5.12,0-7.681c-0.001-0.3,0.138-0.347,0.39-0.343c0.636,0.01,1.273,0.029,1.907-0.006
	c0.391-0.022,0.504,0.139,0.535,0.49c0.082,0.926,0.188,1.848,0.284,2.772c0.02,0.196,0.009,0.393,0.312,0.378
	c0.32-0.017,0.257-0.24,0.257-0.42c0.004-2.268,0.005-4.534-0.003-6.801c-0.001-0.163,0.112-0.416-0.228-0.433
	c-0.324-0.016-0.314,0.213-0.338,0.42C8.383,46.982,8.277,47.84,8.197,48.7c-0.03,0.32-0.143,0.45-0.482,0.436
	c-0.635-0.026-1.272-0.026-1.908,0c-0.354,0.015-0.434-0.118-0.433-0.449c0.01-2.12,0.011-4.24-0.014-6.36
	c-0.005-0.412,0.154-0.482,0.512-0.478c1.223,0.016,2.446,0.018,3.669-0.001c0.352-0.005,0.514,0.106,0.621,0.45
	c0.482,1.539,0.994,3.068,1.499,4.601c0.063,0.193,0.09,0.425,0.401,0.383c0.353-0.048,0.228-0.315,0.226-0.492
	c-0.024-1.679-0.071-3.358-0.094-5.037c-0.006-0.391-0.134-0.52-0.542-0.518C7.95,41.25,4.248,41.245,0.546,41.237
	c-0.18,0-0.373,0.103-0.547-0.034C-0.001,41.367-0.001,41.53-0.001,41.693z M37.011,49.917c0.311,0.073,0.491,0.122,0.675,0.158
	c1.292,0.254,2.023,1.054,2.238,2.332c0.293,1.752,0.578,3.506,0.84,5.262c0.054,0.355,0.198,0.457,0.533,0.457
	c0.473,0,0.944,0.047,1.416,0.072c0.154,0.008,0.293,0.023,0.294,0.235c0.003,0.226-0.122,0.268-0.312,0.267
	c-1.386-0.002-2.772-0.007-4.158,0.003c-0.308,0.003-0.33-0.192-0.363-0.409c-0.263-1.74-0.525-3.48-0.794-5.219
	c-0.084-0.547-0.16-1.096-0.365-1.617c-0.263-0.671-0.735-1.054-1.453-1.139c-0.765-0.091-1.531-0.027-2.297-0.03
	c-0.353-0.001-0.27,0.258-0.271,0.453c-0.004,2.005-0.01,4.01,0.004,6.016c0.003,0.43-0.199,0.973,0.104,1.262
	c0.279,0.268,1.785,0.166,2.062,0.175c0.194,0.007,0.31,0.065,0.297,0.286c-0.012,0.209-0.147,0.221-0.305,0.221
	c-0.343-0.002-0.685,0-1.027,0c-1.973,0-3.945,0.002-5.918-0.004c-0.188,0-0.463,0.102-0.462-0.255c0-0.32,0.261-0.241,0.431-0.252
	c0.553-0.037,1.107-0.063,1.661-0.069c0.314-0.003,0.466-0.082,0.466-0.443c-0.01-5.136-0.01-10.271-0.001-15.407
	c0-0.321-0.107-0.425-0.421-0.426c-0.586-0.001-1.173-0.039-1.759-0.06c-0.184-0.006-0.368,0.006-0.378-0.26
	c-0.012-0.29,0.195-0.249,0.368-0.25c2.754-0.013,5.509-0.099,8.263,0.03c0.752,0.035,1.488,0.174,2.189,0.465
	c0.914,0.379,1.546,1.022,1.793,1.992c0.278,1.092,0.312,2.194,0.01,3.288c-0.342,1.239-1.154,2.051-2.345,2.502
	C37.73,49.662,37.433,49.765,37.011,49.917z M32.992,45.729c0,1.173,0.002,2.345-0.002,3.518c-0.001,0.229,0.001,0.414,0.319,0.413
	c0.748-0.002,1.496,0.068,2.244-0.036c1.148-0.16,1.852-0.743,2.12-1.863c0.303-1.267,0.318-2.555,0.043-3.827
	c-0.277-1.276-1.036-1.924-2.35-2.035c-0.647-0.055-1.302-0.018-1.952-0.049c-0.358-0.018-0.434,0.137-0.429,0.46
	C33.002,43.449,32.992,44.589,32.992,45.729z M99.04,58.699c0.244,0,0.471,0.044,0.497-0.343c0.134-1.952,0.298-3.901,0.445-5.853
	c0.011-0.129,0.079-0.318-0.162-0.33c-0.162-0.008-0.335-0.02-0.402,0.188c-0.03,0.094-0.068,0.184-0.102,0.275
	c-0.599,1.672-1.197,3.344-1.793,5.017c-0.084,0.233-0.144,0.45-0.479,0.446c-1.387-0.015-2.772-0.01-4.159-0.004
	c-0.252,0.001-0.342-0.104-0.341-0.352c0.004-2.561,0.004-5.121-0.001-7.681c0-0.252,0.095-0.345,0.347-0.339
	c0.668,0.015,1.337,0.024,2.005,0.008c0.319-0.008,0.413,0.112,0.434,0.422c0.062,0.943,0.158,1.884,0.24,2.827
	c0.017,0.197,0.011,0.395,0.312,0.375c0.289-0.019,0.236-0.22,0.236-0.387c0.003-2.283,0.003-4.566-0.001-6.849
	c0-0.178,0.07-0.406-0.257-0.412c-0.309-0.005-0.283,0.208-0.301,0.394c-0.086,0.893-0.174,1.785-0.241,2.679
	c-0.021,0.267-0.109,0.368-0.387,0.359c-0.651-0.02-1.305-0.028-1.956-0.005c-0.355,0.013-0.436-0.126-0.435-0.453
	c0.012-2.12,0.014-4.24-0.001-6.36c-0.003-0.362,0.104-0.479,0.47-0.474c1.288,0.019,2.577,0.021,3.865-0.002
	c0.384-0.007,0.527,0.135,0.632,0.491c0.442,1.5,0.925,2.988,1.381,4.485c0.073,0.242,0.202,0.372,0.449,0.346
	c0.289-0.03,0.175-0.271,0.173-0.417c-0.024-1.711-0.069-3.423-0.086-5.135c-0.003-0.324-0.143-0.375-0.411-0.375
	c-3.815,0.013-7.632,0.021-11.447,0.034c-0.162,0-0.379-0.066-0.382,0.233c-0.002,0.274,0.184,0.265,0.364,0.272
	c0.603,0.025,1.206,0.067,1.809,0.064c0.352-0.001,0.448,0.144,0.433,0.468c-0.02,0.423-0.004,0.848-0.004,1.272
	c0,4.648-0.006,9.296,0.01,13.943c0.001,0.449-0.132,0.605-0.576,0.596c-0.536-0.013-1.075,0.025-1.612,0.063
	c-0.166,0.011-0.423-0.074-0.422,0.254c0.001,0.367,0.275,0.256,0.458,0.256c1.892,0.008,3.783,0.004,5.676,0.004
	C95.225,58.699,97.132,58.699,99.04,58.699z M50.281,42.35c-0.003-0.375,0.089-0.522,0.485-0.503
	c0.635,0.03,1.272,0.022,1.907,0.002c0.306-0.009,0.463,0.076,0.559,0.388c0.381,1.246,0.79,2.483,1.19,3.724
	c0.114,0.356,0.224,0.714,0.354,1.065c0.074,0.2,0.237,0.331,0.457,0.29c0.243-0.045,0.144-0.262,0.141-0.404
	c-0.034-1.695-0.089-3.389-0.109-5.083c-0.005-0.453-0.133-0.599-0.611-0.596c-3.668,0.022-7.337,0.012-11.005,0.012
	c-1.116,0-1.123,0-1.157,1.112c-0.045,1.515-0.081,3.03-0.113,4.545c-0.003,0.13-0.073,0.319,0.133,0.367
	c0.122,0.028,0.28,0.055,0.371-0.053c0.078-0.094,0.113-0.229,0.154-0.352c0.508-1.53,1.021-3.059,1.512-4.595
	c0.103-0.321,0.258-0.433,0.59-0.42c0.636,0.024,1.272,0.024,1.907,0.001c0.357-0.013,0.48,0.1,0.479,0.469
	c-0.01,5.103-0.01,10.206,0.001,15.309c0,0.371-0.131,0.477-0.482,0.48c-0.635,0.005-1.27,0.055-1.904,0.083
	c-0.177,0.009-0.32,0.034-0.32,0.267c0,0.267,0.193,0.219,0.344,0.219c2.478,0.011,4.956,0.018,7.434,0.021
	c0.157,0.001,0.332,0.03,0.345-0.226c0.014-0.276-0.165-0.272-0.349-0.282c-0.602-0.029-1.204-0.086-1.807-0.08
	c-0.418,0.006-0.508-0.158-0.505-0.549c0.017-2.526,0.009-5.053,0.009-7.581C50.289,47.437,50.296,44.893,50.281,42.35z"/>
</svg>
