<?xml version="1.0" encoding="utf-8"?>
<!-- Generator: Adobe Illustrator 16.0.0, SVG Export Plug-In . SVG Version: 6.00 Build 0)  -->
<!DOCTYPE svg PUBLIC "-//W3C//DTD SVG 1.1//EN" "http://www.w3.org/Graphics/SVG/1.1/DTD/svg11.dtd">
<svg version="1.1" id="Layer_1" xmlns="http://www.w3.org/2000/svg" xmlns:xlink="http://www.w3.org/1999/xlink" x="0px" y="0px"
	 width="100px" height="100px" viewBox="0 0 100 100" enable-background="new 0 0 100 100" xml:space="preserve">
<g>
	<path fill-rule="evenodd" clip-rule="evenodd" d="M70.259,72.098c-0.07-0.168-0.22-0.096-0.333-0.096
		c-2.809-0.006-5.617-0.004-8.426-0.004c-0.064,0-0.128,0-0.191,0c-0.287-0.006-0.297-0.016-0.152-0.27
		c1.139-1.996,2.279-3.99,3.421-5.984c3.01-5.252,6.019-10.504,9.036-15.753c0.118-0.204,0.074-0.345-0.029-0.522
		c-3.105-5.365-6.208-10.731-9.312-16.098c-0.799-1.381-1.599-2.761-2.396-4.143c-0.163-0.283-0.157-0.294,0.169-0.294
		c4.377,0,8.754,0.001,13.131-0.005c0.227,0,0.34,0.083,0.442,0.274c1.538,2.868,3.082,5.733,4.626,8.597
		c0.064,0.119,0.107,0.252,0.219,0.346c0.117-0.061,0.148-0.183,0.203-0.283c1.574-2.858,3.15-5.716,4.715-8.58
		c0.14-0.256,0.289-0.357,0.59-0.356c4.167,0.011,8.334,0.007,12.502,0.007c0.436,0,0.437,0.001,0.218,0.384
		c-3.765,6.574-7.524,13.151-11.304,19.716c-0.236,0.411-0.228,0.692,0.009,1.099c4.171,7.17,8.325,14.352,12.482,21.531
		c0.187,0.322,0.185,0.324-0.185,0.324c-4.342,0-8.682-0.002-13.022,0.006c-0.267,0-0.415-0.092-0.538-0.318
		c-1.85-3.371-3.706-6.742-5.561-10.111c-0.031-0.057-0.058-0.115-0.094-0.168c-0.051-0.07-0.06-0.199-0.166-0.193
		c-0.082,0.006-0.105,0.117-0.144,0.186c-0.501,0.912-1.003,1.822-1.5,2.734c-1.428,2.617-2.853,5.234-4.28,7.852
		c-0.021,0.039-0.053,0.074-0.025,0.123C72.995,72.098,71.627,72.098,70.259,72.098z"/>
	<path fill-rule="evenodd" clip-rule="evenodd" d="M0,28.87c8.481,0,16.962,0,25.443,0c0.1,0,0.201,0.009,0.3-0.001
		c0.188-0.021,0.257,0.061,0.269,0.244c0.061,0.946,0.132,1.892,0.196,2.837c0.176,2.592,0.351,5.184,0.525,7.776
		c0.016,0.245,0.031,0.491,0.046,0.737c0.01,0.145-0.046,0.226-0.203,0.217c-0.091-0.005-0.183,0-0.273,0c-4.542,0-9.083,0-13.625,0
		c-0.427,0-0.428,0-0.43,0.435c-0.007,1.596-0.014,3.191-0.019,4.787c-0.001,0.396,0.001,0.396,0.395,0.397
		c3.684,0.006,7.368,0.012,11.052,0.017c0.425,0.001,0.427,0.001,0.427,0.415c0,3.647,0,7.296,0,10.943
		c0,0.415-0.001,0.415-0.422,0.415c-3.42,0-6.839,0-10.259,0c-0.328,0-0.657,0.019-0.984,0.005c-0.23-0.009-0.294,0.076-0.293,0.3
		c0.008,1.75,0.003,3.502,0.004,5.252c0.002,2.07,0.005,4.141,0.009,6.211c0.001,0.611,0.013,1.221,0.016,1.832
		c0,0.137-0.016,0.273-0.025,0.408c-4.049,0-8.099,0-12.148,0C0,57.688,0,43.279,0,28.87z"/>
	<path fill-rule="evenodd" clip-rule="evenodd" d="M67.379,50.824c-0.053,5.287-1.888,10.045-5.54,14.045
		c-3.35,3.67-7.537,5.895-12.475,6.484c-5.843,0.697-11.11-0.82-15.637-4.631c-4.077-3.432-6.461-7.837-7.248-13.1
		c-0.644-4.305-0.048-8.451,1.876-12.353c2.934-5.95,7.632-9.839,14.124-11.25c6.944-1.509,13.109,0.29,18.315,5.131
		c3.541,3.293,5.6,7.414,6.376,12.178C67.351,48.438,67.407,49.559,67.379,50.824z M43.392,50.533c-0.003,0-0.006,0-0.009,0
		c0,2.855,0.001,5.709-0.001,8.564c0,0.596,0.13,1.156,0.41,1.682c0.772,1.453,2.365,2.152,3.989,1.756
		c1.636-0.4,2.727-1.768,2.73-3.486c0.009-5.654,0.003-11.308,0.003-16.962c0-0.771-0.151-1.5-0.569-2.165
		c-1.055-1.679-3.147-2.267-4.734-1.298c-1.211,0.74-1.805,1.859-1.813,3.265C43.38,44.771,43.392,47.652,43.392,50.533z"/>
</g>
</svg>
