<?xml version="1.0" encoding="utf-8"?>
<!-- Generator: Adobe Illustrator 16.0.0, SVG Export Plug-In . SVG Version: 6.00 Build 0)  -->
<!DOCTYPE svg PUBLIC "-//W3C//DTD SVG 1.1//EN" "http://www.w3.org/Graphics/SVG/1.1/DTD/svg11.dtd">
<svg version="1.1" id="Layer_1" xmlns="http://www.w3.org/2000/svg" xmlns:xlink="http://www.w3.org/1999/xlink" x="0px" y="0px"
	 width="100px" height="100px" viewBox="0 0 100 100" enable-background="new 0 0 100 100" xml:space="preserve">
<path d="M13.656,61.21l-1.962-0.009l-0.521-2.662c-0.771,1.593-1.676,2.985-4.437,2.974c-4.988-0.022-6.765-4.586-6.736-11.172
	C0.023,45.22,1.249,38.64,7.303,38.666c5.354,0.023,6.164,5.049,6.386,7.545l-3.761,0.682c-0.355-2.463-0.613-4.26-2.609-4.269
	c-1.163-0.005-1.698,0.558-2.068,1.554c-0.506,1.462-0.553,4.654-0.561,6.417c-0.023,5.321,0.668,6.954,2.597,6.962
	c1.297,0.006,2.397-0.555,2.447-4.379l-2.76-0.012l0.016-3.691l6.718,0.029L13.656,61.21z M14.484,39.03l4.556,0.02l-0.079,18.093
	l5.621,0.024l-0.018,4.091l-10.177-0.045L14.484,39.03z M30.569,52.903l1.224-6.114c0.272-1.363,0.41-2.593,0.548-3.523
	c0.091,1.996,0.254,2.828,0.449,3.727l1.205,5.926L30.569,52.903z M30.297,39.099L25.111,61.26l4.091,0.019l0.886-4.786l4.39,0.02
	l0.877,4.793l4.59,0.021L35.02,39.119L30.297,39.099z M40.407,39.144l6.252,0.027l1.655,9.354c0.391,2.063,0.547,4.359,0.671,6.355
	c0.177-2.428,0.689-5.618,0.961-6.814l1.935-8.872l6.12,0.027l-0.098,22.183l-4.356-0.019l0.055-12.639
	c0.007-1.43,0.044-2.36,0.263-6.717c-0.206,1.429-0.755,5.352-0.993,6.515l-2.75,12.826l-2.86-0.013l-2.537-13.049
	c-0.292-1.531-0.613-4.227-0.837-6.323c0.025,1.729,0.113,4.457,0.105,6.188l-0.058,13.17l-3.625-0.016L40.407,39.144z
	 M65.543,42.879c0.864,0.004,1.362,0.338,1.723,1.438c0.428,1.332,0.414,4.459,0.408,5.822c-0.002,0.3-0.019,4.19-0.292,5.719
	c-0.204,1.163-0.573,1.96-1.805,1.955c-1.13-0.005-1.526-0.738-1.755-1.638c-0.393-1.564-0.383-3.727-0.375-5.622
	c0.013-2.794,0.09-5.188,0.493-6.284C64.311,43.272,64.845,42.876,65.543,42.879 M65.66,38.922
	c-5.222-0.023-7.003,4.359-7.033,11.144c-0.016,3.559,0.402,6.82,1.822,9.154c0.265,0.434,1.552,2.535,5.011,2.55
	c5.488,0.024,7.005-4.692,7.034-11.244C72.523,43.808,71.015,38.945,65.66,38.922 M77.889,39.308l-0.062,14.135
	c-0.013,2.76,0.214,4.324,2.242,4.333c2.162,0.01,2.203-1.952,2.215-4.547l0.061-13.901l3.858,0.017l-0.062,13.902
	c-0.017,3.924-0.271,8.612-6.389,8.586c-5.056-0.022-6.509-2.59-6.483-8.276l0.063-14.269L77.889,39.308z M91.368,42.858
	l1.264,0.006c1.464,0.006,2.458,0.775,2.447,3.07c-0.009,2.095-0.713,3.257-2.475,3.249l-1.264-0.006L91.368,42.858z M86.83,61.53
	l4.456,0.02l0.039-8.714l1.43,0.007l2.456,8.724L100,61.588l-3.317-9.626c1.034-0.628,2.901-1.784,2.92-5.975
	c0.004-0.831,0.016-3.459-2.039-5.396c-1.158-1.069-2.522-1.209-4.916-1.219l-5.721-0.025L86.83,61.53L86.83,61.53z"/>
</svg>
