<?xml version="1.0" encoding="utf-8"?>
<!DOCTYPE svg PUBLIC "-//W3C//DTD SVG 1.1//EN" "http://www.w3.org/Graphics/SVG/1.1/DTD/svg11.dtd">
<svg version="1.1" id="Layer_1" xmlns="http://www.w3.org/2000/svg" xmlns:xlink="http://www.w3.org/1999/xlink" x="0px" y="0px"
	 width="100px" height="100px" viewBox="0 0 100 100" enable-background="new 0 0 100 100" xml:space="preserve">
<path fill-rule="evenodd" clip-rule="evenodd" d="M94.102,65.306c0.184-0.258,0.334-0.453,0.466-0.66
	c0.596-0.93,1.253-1.827,1.769-2.8c2.662-5.041,3.457-10.407,2.586-16.012c-0.916-5.885-3.705-10.756-8.279-14.552
	c-6.981-5.793-16.467-7.474-25.172-4.335c-7.924,2.856-13.104,8.39-15.387,16.549c-0.218,0.777-0.358,1.576-0.553,2.449
	c-1.5,0-3.007,0-4.513,0c-1.513,0-3.024,0-4.536,0c-1.535,0-3.07,0-4.605,0c-1.512,0-3.024-0.002-4.537,0
	c-1.502,0.002-3.005-0.009-4.49,0.007c-0.159,1.06-0.106,11.034,0.061,11.538c0.705,0,1.425,0,2.146,0
	c0.722,0,1.445-0.011,2.167,0.004c0.704,0.014,1.415-0.067,2.181,0.067c-0.416,0.69-0.988,1.088-1.572,1.46
	c-2.228,1.421-4.698,1.956-7.3,1.83c-4.033-0.194-7.169-1.978-9.212-5.506c-1.264-2.185-1.637-4.574-1.318-7.059
	c0.339-2.64,1.443-4.917,3.42-6.733c2.128-1.954,4.668-2.827,7.531-2.878c3.234-0.059,5.993,0.928,8,3.585
	c0.229,0.304,0.502,0.328,0.827,0.328c4.988-0.003,9.976-0.001,14.964-0.005c0.17,0,0.34-0.036,0.572-0.063
	c-0.124-0.397-0.213-0.742-0.338-1.074c-2.067-5.479-5.618-9.73-10.653-12.712c-3.46-2.05-7.245-3.058-11.246-3.329
	c-5.176-0.352-10.062,0.637-14.603,3.157c-4.511,2.503-7.942,6.065-10.137,10.752c-2.549,5.442-2.944,11.111-1.536,16.913
	c1.186,4.883,3.674,9.009,7.566,12.21c5.758,4.736,12.441,6.36,19.756,5.563c3.421-0.373,6.64-1.495,9.629-3.207
	c6.175-3.536,10.215-8.684,11.73-15.708c0.026-0.119,0.103-0.227,0.178-0.39c0.045,0.129,0.073,0.191,0.088,0.256
	c0.047,0.198,0.086,0.397,0.131,0.595c1.226,5.35,3.875,9.831,8.165,13.289c4.08,3.288,8.79,4.975,13.987,5.378
	c4.535,0.353,8.903-0.311,13.087-2.123c0.099-0.043,0.21-0.058,0.362-0.098c0.201,0.248,0.427,0.473,0.588,0.736
	c0.279,0.46,0.652,0.58,1.184,0.561c3.697-0.139,7.396-0.242,11.094-0.362c0.508-0.017,1.016-0.062,1.65-0.101
	C97.997,70.272,96.068,67.813,94.102,65.306z M84.947,53.08c-0.016,0.065-0.033,0.131-0.061,0.192
	c-0.017,0.04-0.05,0.073-0.122,0.172c-0.313-0.289-0.536-0.642-0.805-0.953c-0.336-0.391-0.605-0.923-1.032-1.127
	c-0.402-0.193-0.971-0.055-1.466-0.039c-3.878,0.127-7.755,0.26-11.632,0.393c-0.065,0.002-0.13,0.022-0.307,0.055
	c1.164,1.546,2.354,3,3.513,4.477c1.164,1.485,2.338,2.964,3.544,4.491c-0.242,0.063-0.389,0.125-0.541,0.139
	c-3.084,0.282-5.99-0.175-8.52-2.112c-2.516-1.928-3.902-4.502-4.246-7.639c-0.314-2.867,0.272-5.532,1.961-7.893
	c1.93-2.694,4.609-4.107,7.889-4.398c2.79-0.246,5.393,0.322,7.699,1.958c2.484,1.762,3.906,4.196,4.396,7.187
	C85.498,49.698,85.374,51.398,84.947,53.08z"/>
</svg>
