<?xml version="1.0" encoding="utf-8"?>
<!DOCTYPE svg PUBLIC "-//W3C//DTD SVG 1.1//EN" "http://www.w3.org/Graphics/SVG/1.1/DTD/svg11.dtd">
<svg version="1.1" id="Layer_1" xmlns="http://www.w3.org/2000/svg" xmlns:xlink="http://www.w3.org/1999/xlink" x="0px" y="0px"
	 width="100px" height="100px" viewBox="0 0 100 100" enable-background="new 0 0 100 100" xml:space="preserve">
<path fill="#FFFFFF" d="M17.406,71.928l-0.265-0.143C17.037,71.732,0.04,62.873,0,42.224V27.805h35.814v14.419
	c-0.04,20.649-17.024,29.508-17.151,29.577l-0.754,0.395L17.406,71.928z"/>
<path fill="#070707" d="M1.085,28.886v11.713l33.656,0V28.886H1.085z M30.105,32.043c0.123,0.006,0.229,0.006,0.315,0.006
	c0.062,0.002,0.113,0.057,0.113,0.095v5.223L30.095,37c0.018-0.032,0.031-0.065,0.031-0.108v-4.778
	C30.121,32.085,30.113,32.064,30.105,32.043z M30.403,37.466h-2.657c-0.025-0.145-0.11-0.272-0.235-0.348H29.9
	c0.027,0,0.05-0.003,0.074-0.015L30.403,37.466z M24.672,32.122c0.022-0.028,0.183-0.092,0.218-0.083
	c0.024,0,0.053-0.005,0.081-0.005h0.023c0.483,0,1.056,0.035,1.5,0.202c0.442,0.171,0.744,0.442,0.745,0.955h0.16
	c0.003-0.513,0.302-0.783,0.749-0.955c0.441-0.167,1.017-0.202,1.495-0.202h0.055c0.023,0,0.044,0.005,0.063,0.005
	c0.018-0.005,0.087,0.019,0.137,0.038c0.029,0.015,0.05,0.029,0.062,0.038c0.003,0.006,0.004,0.008,0.007,0.011v4.767
	c0,0.039-0.031,0.07-0.064,0.07h-5.164c-0.035,0-0.064-0.031-0.064-0.07L24.672,32.122L24.672,32.122z M24.736,37.119h2.252
	c-0.122,0.076-0.21,0.204-0.236,0.348h-2.544c-0.011,0-0.018-0.002-0.027-0.002l0.444-0.376
	C24.659,37.108,24.697,37.119,24.736,37.119z M24.106,32.145c0-0.039,0.046-0.093,0.109-0.095c0.085,0,0.196,0,0.319-0.006
	c-0.013,0.021-0.02,0.043-0.022,0.071v4.777c0,0.026,0.004,0.051,0.012,0.073l-0.417,0.357L24.106,32.145L24.106,32.145z
	 M21.081,32.058c0.059,0,0.111,0.062,0.111,0.096v5.189l-0.426-0.357c0.01-0.025,0.019-0.051,0.019-0.083v-4.781
	c-0.006-0.028-0.013-0.045-0.021-0.064C20.887,32.058,20.996,32.058,21.081,32.058z M21.097,37.477h-2.693
	c-0.021-0.146-0.101-0.272-0.221-0.352h2.376c0.034,0,0.065-0.008,0.095-0.021L21.097,37.477z M18.054,33.038
	c0.003-0.448,0.238-0.685,0.583-0.829c0.344-0.145,0.795-0.176,1.171-0.176c0.246,0,0.46,0.009,0.599,0.009
	c0.017,0,0.089,0.015,0.145,0.043c0.027,0.012,0.051,0.028,0.064,0.039l0.006,0.004v4.774c0,0.035-0.029,0.062-0.063,0.062h-2.506
	L18.054,33.038z M15.329,32.128c0.013-0.007,0.05-0.035,0.094-0.052c0.05-0.019,0.111-0.027,0.13-0.027
	c0.141,0,0.357-0.016,0.61-0.016c0.371,0,0.819,0.033,1.162,0.176c0.34,0.151,0.57,0.381,0.571,0.829v3.926h-2.498
	c-0.039,0-0.068-0.026-0.068-0.062L15.329,32.128L15.329,32.128z M15.396,37.125h2.239c-0.123,0.081-0.201,0.206-0.224,0.352h-2.544
	c-0.011,0-0.021,0-0.034-0.005l0.45-0.377C15.315,37.116,15.353,37.125,15.396,37.125z M14.762,32.154
	c0-0.034,0.05-0.096,0.113-0.096c0.085,0,0.191,0,0.316-0.001c-0.012,0.019-0.019,0.037-0.022,0.064v4.782
	c0,0.024,0.008,0.047,0.016,0.068l-0.422,0.357V32.154z M11.421,32.057c0.124,0.001,0.231,0.001,0.316,0.001
	c0.059,0,0.113,0.062,0.113,0.096v5.2l-0.429-0.362c0.012-0.028,0.02-0.058,0.02-0.09v-4.781
	C11.439,32.094,11.432,32.076,11.421,32.057z M11.749,37.477H9.062c-0.021-0.146-0.103-0.272-0.22-0.352h2.373
	c0.033,0,0.066-0.006,0.094-0.017L11.749,37.477z M8.714,33.038c0.002-0.448,0.236-0.685,0.58-0.829
	c0.347-0.145,0.798-0.176,1.175-0.176c0.243,0,0.456,0.009,0.595,0.009c0.015,0,0.089,0.015,0.145,0.043
	c0.028,0.012,0.052,0.028,0.065,0.039l0.005,0.004v4.774c0,0.035-0.029,0.062-0.066,0.062H8.712L8.714,33.038z M5.985,32.128
	c0.013-0.007,0.052-0.035,0.096-0.052c0.049-0.019,0.113-0.027,0.129-0.027c0.143,0,0.354-0.016,0.609-0.016
	c0.373,0,0.817,0.033,1.16,0.176c0.34,0.151,0.571,0.381,0.576,0.829H8.553v3.926h-2.5c-0.038,0-0.068-0.026-0.068-0.062V32.128z
	 M6.053,37.125h2.239c-0.122,0.081-0.201,0.206-0.223,0.352H5.527c-0.021,0-0.035,0-0.045-0.007l0.446-0.381
	C5.963,37.111,6.009,37.125,6.053,37.125z M5.421,32.154c0-0.034,0.049-0.096,0.111-0.096c0.083,0,0.189,0,0.313-0.001
	c-0.01,0.019-0.015,0.034-0.02,0.065v4.782c0,0.018,0.005,0.035,0.011,0.059l-0.414,0.351L5.421,32.154z M4.86,37.861
	c-0.083,0-0.147-0.07-0.147-0.149v-0.783c-0.22-0.028-0.391-0.164-0.391-0.327c0-0.16,0.171-0.299,0.391-0.329v-2.525
	c-0.219-0.032-0.39-0.165-0.39-0.326c0-0.165,0.17-0.296,0.39-0.328v-1.001c0-0.082,0.064-0.145,0.148-0.145l0.437,0.085
	c-0.022,0.034-0.035,0.075-0.037,0.12v5.238c0.001,0.144,0.125,0.246,0.266,0.246h2.544c0.013,0.083,0.048,0.158,0.099,0.223H4.86z
	 M8.714,37.861H8.419c-0.116-0.058-0.196-0.175-0.197-0.315c0.001-0.187,0.153-0.341,0.345-0.341c0.188,0,0.344,0.154,0.344,0.341
	C8.911,37.685,8.829,37.803,8.714,37.861L8.714,37.861z M12.771,36.603c0,0.163-0.169,0.294-0.389,0.327v0.783
	c0,0.078-0.063,0.149-0.146,0.149H8.959c0.048-0.065,0.083-0.14,0.101-0.224h2.685c0.137,0,0.261-0.102,0.261-0.246v-5.238
	c0-0.06-0.022-0.111-0.055-0.152l0.285-0.053c0.083,0,0.146,0.063,0.146,0.145v1.002c0.219,0.031,0.389,0.163,0.389,0.327
	c0,0.163-0.169,0.294-0.389,0.328v2.524C12.604,36.305,12.771,36.443,12.771,36.603z M14.199,37.861c-0.08,0-0.144-0.07-0.144-0.149
	v-0.783c-0.225-0.028-0.392-0.164-0.392-0.327c0-0.16,0.167-0.299,0.392-0.329v-2.525c-0.225-0.032-0.392-0.165-0.392-0.326
	c0-0.165,0.167-0.296,0.392-0.328v-1.001c0-0.082,0.063-0.145,0.144-0.145l0.439,0.085c-0.021,0.035-0.033,0.075-0.033,0.12v5.238
	c0,0.144,0.122,0.246,0.262,0.246h2.546c0.014,0.083,0.051,0.158,0.099,0.223H14.199z M18.054,37.861h-0.297
	c-0.112-0.058-0.195-0.175-0.195-0.315c0-0.187,0.155-0.341,0.347-0.341c0.189,0,0.344,0.154,0.344,0.341
	C18.253,37.685,18.17,37.803,18.054,37.861z M22.112,36.603c0,0.163-0.165,0.294-0.386,0.327v0.783c0,0.078-0.065,0.149-0.147,0.149
	h-3.275c0.047-0.065,0.083-0.14,0.099-0.224h2.681c0.14,0,0.266-0.102,0.266-0.246v-5.238c0-0.06-0.023-0.111-0.056-0.152
	l0.285-0.053c0.083,0,0.147,0.063,0.147,0.145v1.002c0.221,0.031,0.386,0.163,0.386,0.327c0,0.163-0.165,0.294-0.386,0.328v2.524
	C21.947,36.305,22.112,36.443,22.112,36.603z M23.541,37.861c-0.077,0-0.145-0.07-0.145-0.149v-0.783
	c-0.224-0.028-0.39-0.164-0.39-0.327c0-0.16,0.167-0.299,0.39-0.329v-2.525c-0.224-0.032-0.39-0.165-0.39-0.326
	c0-0.165,0.167-0.296,0.39-0.328v-1.001c0-0.082,0.067-0.145,0.145-0.145l0.434,0.085c-0.018,0.031-0.027,0.071-0.03,0.111v5.238
	c0.003,0.142,0.124,0.243,0.264,0.243h2.544c0.016,0.088,0.053,0.165,0.104,0.235L23.541,37.861z M27.397,37.861h-0.294
	c-0.118-0.058-0.196-0.175-0.196-0.315c0-0.187,0.152-0.341,0.341-0.341c0.193,0,0.348,0.154,0.348,0.341
	C27.597,37.685,27.512,37.803,27.397,37.861z M31.457,36.603c0,0.163-0.168,0.3-0.393,0.327v0.783c0,0.078-0.062,0.149-0.143,0.149
	h-3.277c0.053-0.07,0.088-0.147,0.103-0.235h2.678c0.141,0,0.267-0.101,0.267-0.246v-5.235c0-0.055-0.019-0.103-0.047-0.144
	l0.276-0.053c0.081,0,0.143,0.063,0.143,0.145v1.001c0.225,0.031,0.393,0.163,0.393,0.328c0,0.162-0.168,0.294-0.393,0.328v2.524
	C31.289,36.305,31.457,36.443,31.457,36.603z M10.023,35.702c-0.164,0-0.211-0.041-0.211-0.194V34.67
	c0.249,0,0.377,0.102,0.41,0.538h0.062v-1.171h-0.062c-0.041,0.43-0.167,0.521-0.41,0.517v-0.805c0-0.148,0.043-0.161,0.184-0.161
	c0.339,0,0.519,0.087,0.575,0.579h0.062v-0.699H9.18v0.089c0.118,0.011,0.223,0.016,0.223,0.246v1.679
	c0,0.208-0.078,0.222-0.223,0.241v0.088h1.476l0.102-0.723h-0.073C10.527,35.613,10.273,35.702,10.023,35.702z M28.554,35.631
	c0.079,0,0.19,0.119,0.432,0.119c0.462,0,0.624-0.419,0.624-0.728c0-0.374-0.19-0.576-0.279-0.633l-0.367-0.252
	c-0.214-0.144-0.26-0.221-0.26-0.408c0-0.225,0.14-0.329,0.267-0.329c0.298,0,0.451,0.397,0.497,0.638h0.069v-0.753h-0.072
	c-0.015,0.069-0.027,0.121-0.086,0.121c-0.071,0-0.19-0.116-0.392-0.116c-0.48,0-0.557,0.472-0.557,0.686c0,0.16,0,0.457,0.432,0.74
	l0.169,0.108c0.161,0.105,0.279,0.19,0.279,0.419c0,0.05-0.008,0.394-0.312,0.394c-0.321,0-0.468-0.397-0.519-0.744h-0.073v0.857
	h0.073C28.491,35.692,28.501,35.631,28.554,35.631z M6.525,33.75l0.643,2.076h0.068l0.575-2.033c0.059-0.194,0.09-0.263,0.227-0.284
	v-0.087H7.501v0.087c0.144,0.01,0.217,0.021,0.217,0.157c0,0.071-0.028,0.161-0.049,0.241l-0.322,1.136L7.02,33.95
	c-0.024-0.084-0.078-0.233-0.078-0.298c0-0.13,0.061-0.13,0.219-0.143v-0.087H6.314v0.087C6.42,33.53,6.46,33.541,6.525,33.75z
	 M16.577,35.656c-0.163-0.031-0.22-0.041-0.22-0.317v-0.679h0.068l0.523,1.087h0.516v-0.09c-0.031,0-0.069,0-0.104-0.064
	l-0.507-0.986c0.136-0.063,0.394-0.167,0.394-0.595c0-0.583-0.531-0.608-0.708-0.608h-0.811v0.092
	c0.144,0.01,0.223,0.017,0.223,0.313v1.532c0,0.278-0.054,0.291-0.223,0.317v0.09h0.85v-0.09H16.577z M16.356,33.667
	c0.011-0.11,0.017-0.147,0.159-0.147c0.2,0,0.303,0.152,0.303,0.5c0,0.447-0.128,0.523-0.461,0.527V33.667z M25.4,33.515v1.824
	c0,0.291-0.058,0.299-0.244,0.317v0.09h0.903v-0.09c-0.189-0.017-0.249-0.024-0.249-0.317v-1.824
	c0.173,0.008,0.435,0.031,0.484,0.586h0.074l-0.003-0.699H24.85l-0.005,0.699h0.074C24.965,33.544,25.223,33.522,25.4,33.515z
	 M26.932,35.653c-0.086-0.008-0.207-0.017-0.207-0.148c0-0.06,0.042-0.201,0.114-0.454h0.566c0.034,0.112,0.111,0.371,0.111,0.464
	c0,0.115-0.042,0.121-0.198,0.137v0.082h0.815v-0.082c-0.12,0.008-0.16-0.114-0.274-0.482l-0.559-1.822h-0.07l-0.558,1.896
	c-0.079,0.262-0.113,0.38-0.249,0.409v0.082h0.511L26.932,35.653z M27.111,34.081l0.253,0.839h-0.491L27.111,34.081z M18.859,33.494
	c0.117,0.008,0.234,0.015,0.234,0.24v1.675c0,0.216-0.099,0.23-0.234,0.247v0.089h0.883v-0.089c-0.14-0.011-0.241-0.024-0.241-0.247
	v-1.674c0-0.231,0.12-0.234,0.241-0.24v-0.092h-0.883V33.494z M23.988,41.684c0.211,0.319,0.357,0.696,0.422,1.083
	c0.184,1.09-0.349,2.243-2.342,2.346c-0.033,1.633-0.434,2.301-2.506,2.338c0.18,1.739-0.728,2.303-1.707,2.303
	c-0.985,0-1.893-0.564-1.711-2.303c-2.072-0.037-2.471-0.705-2.51-2.338c-1.994-0.104-2.522-1.255-2.338-2.346
	c0.06-0.388,0.21-0.764,0.42-1.083H1.083v0.54c0.017,19.981,16.532,28.59,16.581,28.616l0.25,0.135l0.254-0.135
	c0.049-0.025,16.565-8.633,16.581-28.616v-0.54H23.988z M10.192,60.018c0.397-0.209,0.7-0.818,0.772-1.232
	c0.095-0.537,0.208-0.762,0.492-0.77c0.283-0.008,0.396,0.232,0.493,0.77c0.07,0.414,0.373,1.023,0.77,1.232
	c0.247,0.131,1.044,0.15,0.882,0.617c-0.11,0.213-0.256,0.648-0.472,0.453c-0.22-0.193-0.592-0.695-0.739-0.729
	c-0.144-0.023-0.124,0.195-0.062,0.27c0.083,0.094,0.336,0.459,0.48,0.629c0.182,0.205,0.238,0.584-0.081,0.732
	c-0.316,0.15-0.645-0.039-0.636-0.211c0.011-0.256-0.143-0.992-0.282-0.992c-0.111,0-0.115,0.191-0.104,0.398
	c-0.043,0.434,0.247,0.779,0.215,1.002c-0.039,0.217-0.085,0.447-0.465,0.443c-0.381-0.012-0.43-0.227-0.465-0.443
	c-0.036-0.225,0.256-0.57,0.21-1.002c0.013-0.207,0.009-0.398-0.102-0.398c-0.136,0-0.296,0.736-0.278,0.992
	c0.007,0.172-0.322,0.361-0.639,0.211c-0.318-0.15-0.262-0.527-0.082-0.732c0.145-0.17,0.399-0.535,0.482-0.629
	c0.059-0.076,0.083-0.293-0.062-0.27c-0.147,0.031-0.519,0.535-0.738,0.729c-0.219,0.195-0.362-0.24-0.472-0.453
	C9.148,60.168,9.945,60.148,10.192,60.018L10.192,60.018z M10.465,58.645c0.254-0.029,0.126,0.234,0.1,0.471
	c-0.028,0.229-0.091,0.256-0.335-0.074C9.983,58.715,10.19,58.674,10.465,58.645z M12.438,58.668
	c0.273,0.037,0.481,0.076,0.236,0.398c-0.246,0.33-0.308,0.303-0.337,0.076C12.309,58.91,12.182,58.645,12.438,58.668z
	 M24.186,60.789c-0.136,0-0.291,0.734-0.279,0.99c0.006,0.172-0.317,0.361-0.638,0.211c-0.315-0.148-0.261-0.527-0.08-0.732
	c0.146-0.17,0.402-0.533,0.483-0.629c0.057-0.074,0.08-0.293-0.063-0.268c-0.145,0.031-0.52,0.533-0.739,0.729
	c-0.215,0.193-0.36-0.242-0.47-0.455c-0.165-0.465,0.635-0.484,0.88-0.617c0.397-0.207,0.7-0.816,0.771-1.232
	c0.093-0.535,0.213-0.76,0.494-0.77c0.28-0.008,0.393,0.234,0.492,0.77c0.07,0.416,0.375,1.023,0.771,1.232
	c0.247,0.133,1.043,0.152,0.882,0.617c-0.112,0.213-0.255,0.648-0.474,0.455c-0.217-0.195-0.59-0.697-0.737-0.729
	c-0.143-0.025-0.123,0.193-0.063,0.268c0.085,0.094,0.338,0.459,0.484,0.629c0.182,0.205,0.235,0.584-0.084,0.732
	c-0.315,0.15-0.645-0.039-0.634-0.211c0.011-0.256-0.145-0.99-0.282-0.99c-0.111,0-0.117,0.191-0.101,0.396
	c-0.047,0.434,0.248,0.779,0.208,1.004c-0.035,0.215-0.082,0.447-0.46,0.441c-0.384-0.012-0.428-0.227-0.468-0.441
	c-0.036-0.225,0.255-0.57,0.21-1.004C24.303,60.979,24.3,60.789,24.186,60.789z M23.55,58.645c0.256-0.029,0.125,0.234,0.102,0.471
	c-0.028,0.229-0.092,0.256-0.336-0.074C23.07,58.715,23.277,58.674,23.55,58.645z M25.524,58.668
	c0.276,0.037,0.479,0.076,0.237,0.398c-0.244,0.33-0.308,0.303-0.336,0.076C25.396,58.91,25.266,58.645,25.524,58.668z
	 M25.761,45.887c-0.245,0.328-0.308,0.304-0.336,0.072c-0.029-0.228-0.158-0.497,0.099-0.471
	C25.799,45.518,26.003,45.563,25.761,45.887L25.761,45.887z M23.55,45.462c0.256-0.028,0.125,0.239,0.102,0.469
	c-0.028,0.233-0.092,0.26-0.336-0.068C23.07,45.532,23.277,45.49,23.55,45.462z M23.279,46.835c0.396-0.208,0.7-0.811,0.771-1.23
	c0.093-0.54,0.213-0.762,0.494-0.773c0.28-0.005,0.392,0.234,0.492,0.773c0.07,0.419,0.375,1.022,0.771,1.23
	c0.247,0.134,1.043,0.149,0.882,0.618c-0.112,0.219-0.256,0.648-0.475,0.455c-0.217-0.195-0.589-0.699-0.737-0.727
	c-0.143-0.028-0.122,0.199-0.063,0.265c0.084,0.1,0.338,0.462,0.484,0.629c0.182,0.206,0.235,0.59-0.084,0.739
	c-0.316,0.147-0.645-0.044-0.634-0.212c0.011-0.256-0.145-0.993-0.282-0.993c-0.111,0-0.117,0.189-0.102,0.401
	c-0.047,0.431,0.248,0.775,0.209,1c-0.035,0.221-0.083,0.448-0.461,0.443c-0.383-0.01-0.427-0.222-0.467-0.443
	c-0.037-0.224,0.255-0.568,0.21-1c0.017-0.212,0.014-0.401-0.102-0.401c-0.136,0-0.291,0.736-0.279,0.993
	c0.006,0.168-0.317,0.361-0.638,0.212c-0.315-0.148-0.261-0.533-0.08-0.735c0.146-0.17,0.402-0.533,0.483-0.633
	c0.057-0.066,0.08-0.292-0.063-0.265c-0.145,0.028-0.52,0.532-0.739,0.727c-0.215,0.196-0.36-0.236-0.47-0.455
	C22.233,46.984,23.033,46.969,23.279,46.835z M24.543,52.098c-0.182-1.843,0.98-2.372,2.361-2.267
	c-0.183-1.844,0.76-2.447,2.399-2.377c-0.219-2.157,1.237-2.406,2.364-2.334c-0.175-1.607,0.97-2.271,1.747-2.352h0.246
	c-0.109,7.384-2.579,13.109-5.539,17.369c-1.228-0.303-1.424-1.299-1.328-2.193c-1.814,0.213-2.542-1.098-2.291-2.338
	c-0.69,0.248-2.181-0.109-2.361-1.42C21.963,52.879,23.016,52.098,24.543,52.098z M18.98,52.084
	c0.274,0.027,0.481,0.068,0.238,0.393c-0.25,0.332-0.309,0.305-0.335,0.074C18.855,52.316,18.725,52.055,18.98,52.084z
	 M17.01,52.055c0.252-0.029,0.125,0.24,0.096,0.467c-0.026,0.232-0.089,0.26-0.334-0.068C16.524,52.127,16.732,52.084,17.01,52.055z
	 M16.736,53.426c0.394-0.209,0.7-0.814,0.77-1.23c0.095-0.535,0.211-0.762,0.494-0.771c0.28-0.008,0.396,0.236,0.489,0.771
	c0.073,0.416,0.377,1.023,0.772,1.23c0.249,0.131,1.046,0.148,0.883,0.621c-0.113,0.217-0.258,0.648-0.474,0.455
	c-0.218-0.197-0.592-0.699-0.734-0.73c-0.148-0.025-0.125,0.193-0.063,0.268c0.082,0.096,0.335,0.463,0.481,0.631
	c0.181,0.205,0.233,0.582-0.083,0.734c-0.317,0.148-0.645-0.045-0.638-0.215c0.016-0.258-0.145-0.99-0.282-0.99
	c-0.109,0-0.113,0.188-0.097,0.393c-0.044,0.441,0.246,0.785,0.209,1.01c-0.037,0.217-0.083,0.445-0.462,0.439
	c-0.384-0.008-0.43-0.223-0.462-0.439c-0.039-0.225,0.25-0.568,0.207-1.01c0.012-0.205,0.007-0.393-0.1-0.393
	c-0.138,0-0.293,0.732-0.283,0.99c0.012,0.17-0.316,0.363-0.635,0.215c-0.319-0.152-0.263-0.529-0.08-0.734
	c0.144-0.168,0.398-0.535,0.479-0.631c0.06-0.074,0.083-0.293-0.065-0.268c-0.145,0.031-0.518,0.533-0.733,0.73
	c-0.217,0.193-0.365-0.238-0.474-0.455C15.691,53.574,16.486,53.557,16.736,53.426z M16.144,60.393
	C16,59.004,16.836,58.09,17.962,58.09s1.961,0.914,1.819,2.303c1.235-0.354,2.871,0.242,2.473,2.371
	c1.411-0.479,2.497,0.26,2.566,1.418c-3.125,3.256-6.068,5.061-6.916,5.559c-0.862-0.492-3.749-2.271-6.814-5.451
	c0-1.219,1.124-2.021,2.582-1.525C13.272,60.633,14.911,60.039,16.144,60.393z M13.817,54.188c-0.183,1.309-1.671,1.666-2.361,1.42
	c0.251,1.238-0.471,2.551-2.292,2.338c0.104,0.926-0.096,1.975-1.45,2.225C4.753,55.904,2.28,50.166,2.168,42.773
	c0.012,0,0.023-0.005,0.033-0.005h0.343c0.78,0.086,1.92,0.744,1.751,2.352c1.125-0.072,2.58,0.177,2.363,2.334
	c1.635-0.069,2.582,0.533,2.396,2.378c1.384-0.106,2.549,0.424,2.367,2.268C12.946,52.098,13.999,52.879,13.817,54.188z
	 M10.274,45.931c-0.03,0.233-0.092,0.26-0.339-0.068c-0.245-0.331-0.034-0.372,0.239-0.4C10.43,45.435,10.302,45.701,10.274,45.931z
	 M12.147,45.487c0.273,0.031,0.48,0.076,0.235,0.399c-0.248,0.328-0.308,0.304-0.335,0.071
	C12.019,45.731,11.895,45.462,12.147,45.487z M11.653,45.606c0.074,0.418,0.377,1.021,0.774,1.23
	c0.246,0.133,1.045,0.148,0.881,0.618c-0.111,0.219-0.255,0.651-0.474,0.455c-0.216-0.195-0.588-0.699-0.735-0.728
	c-0.146-0.027-0.123,0.199-0.062,0.265c0.08,0.1,0.333,0.463,0.481,0.632c0.18,0.203,0.236,0.587-0.082,0.736
	c-0.319,0.147-0.644-0.045-0.638-0.212c0.014-0.257-0.146-0.993-0.282-0.993c-0.107,0-0.113,0.188-0.097,0.4
	c-0.047,0.432,0.241,0.776,0.207,1c-0.037,0.221-0.083,0.448-0.464,0.442c-0.38-0.008-0.427-0.221-0.463-0.442
	c-0.035-0.224,0.255-0.568,0.208-1c0.017-0.212,0.009-0.4-0.098-0.4c-0.136,0-0.294,0.736-0.283,0.993
	c0.011,0.167-0.316,0.36-0.633,0.212c-0.317-0.149-0.265-0.533-0.082-0.736c0.144-0.169,0.399-0.532,0.48-0.632
	c0.062-0.065,0.083-0.292-0.062-0.265c-0.147,0.029-0.517,0.532-0.736,0.728c-0.218,0.196-0.363-0.236-0.471-0.455
	c-0.166-0.469,0.633-0.484,0.88-0.618c0.396-0.208,0.698-0.812,0.773-1.23c0.093-0.54,0.21-0.762,0.489-0.774
	C11.449,44.828,11.56,45.067,11.653,45.606L11.653,45.606z"/>
<g>
	<path fill="#070707" d="M52.077,49.642c0,1.524-1.043,2.552-3.354,2.552H44.39v-9.455h4.205c2.006,0,3.081,0.915,3.081,2.472
		c0,1.108-0.642,1.878-1.653,2.135C51.354,47.618,52.077,48.519,52.077,49.642L52.077,49.642z M46.989,46.671H48
		c0.674,0,1.092-0.257,1.092-0.9c0-0.642-0.417-0.899-1.092-0.899h-1.011V46.671z M46.989,50.026h1.364
		c0.657,0,1.027-0.289,1.027-0.833c0-0.546-0.37-0.836-1.027-0.836h-1.364V50.026z M57.197,50.813
		c-0.209,0.98-0.963,1.572-2.231,1.572c-1.349,0-2.295-0.832-2.295-2.583v-5.025h2.6v4.479c0,0.739,0.208,1.188,0.803,1.188
		c0.674,0,1.093-0.61,1.093-1.813v-3.854h2.601v7.417h-2.328L57.197,50.813z M62.412,49.642c0.145,0.61,0.61,0.93,1.173,0.93
		c0.465,0,0.786-0.161,0.786-0.481s-0.272-0.466-0.803-0.578l-0.995-0.209c-1.348-0.289-2.056-0.979-2.056-2.199
		c0-1.797,1.542-2.503,3.194-2.503c1.782,0,2.858,0.738,3.114,2.118l-2.36,0.354c-0.079-0.417-0.335-0.658-0.834-0.658
		c-0.367,0-0.625,0.176-0.625,0.465c0,0.289,0.207,0.433,0.593,0.498l0.996,0.177c1.636,0.273,2.327,1.156,2.327,2.409
		c0,1.75-1.525,2.422-3.354,2.422c-1.686,0-2.809-0.609-3.227-1.926L62.412,49.642z M68.96,41.566c0.771,0,1.429,0.53,1.429,1.364
		c0,0.835-0.657,1.365-1.429,1.365c-0.77,0-1.428-0.53-1.428-1.365C67.532,42.096,68.19,41.566,68.96,41.566z M70.261,44.777v7.417
		h-2.583v-7.417H70.261z M73.952,46.206c0.385-1.108,1.253-1.605,2.359-1.605c1.14,0,2.166,0.673,2.166,2.376v5.217h-2.583v-4.221
		c0-0.755-0.227-1.221-0.883-1.221c-0.562,0-1.043,0.337-1.043,1.477v3.965h-2.586v-7.417h2.328L73.952,46.206z M84.046,49.513
		l2.151,0.674c-0.418,1.588-1.734,2.198-3.211,2.198c-2.198,0-3.803-1.395-3.803-3.82c0-2.504,1.412-3.964,3.738-3.964
		c2.199,0,3.323,1.413,3.323,3.468c0,0.272,0,0.594-0.032,0.931h-4.526c0.049,0.916,0.497,1.412,1.269,1.412
		C83.501,50.411,83.871,50.17,84.046,49.513z M83.79,47.683c0-0.643-0.225-1.205-0.947-1.205c-0.626,0-1.025,0.514-1.091,1.205
		H83.79z M88.621,49.642c0.145,0.61,0.609,0.93,1.17,0.93c0.466,0,0.787-0.161,0.787-0.481s-0.272-0.466-0.802-0.578l-0.996-0.209
		c-1.349-0.289-2.054-0.979-2.054-2.199c0-1.797,1.54-2.503,3.194-2.503c1.782,0,2.857,0.738,3.114,2.118l-2.36,0.354
		c-0.08-0.417-0.337-0.658-0.836-0.658c-0.368,0-0.626,0.176-0.626,0.465c0,0.289,0.21,0.433,0.594,0.498l0.998,0.177
		c1.637,0.273,2.326,1.156,2.326,2.409c0,1.75-1.524,2.422-3.354,2.422c-1.686,0-2.809-0.609-3.228-1.926L88.621,49.642z
		 M95.489,49.642c0.145,0.61,0.611,0.93,1.173,0.93c0.465,0,0.787-0.161,0.787-0.481s-0.273-0.466-0.804-0.578l-0.995-0.209
		c-1.348-0.289-2.056-0.979-2.056-2.199c0-1.797,1.542-2.503,3.195-2.503c1.781,0,2.857,0.738,3.113,2.118l-2.36,0.354
		c-0.079-0.417-0.336-0.658-0.834-0.658c-0.369,0-0.625,0.176-0.625,0.465c0,0.289,0.207,0.433,0.593,0.498l0.995,0.177
		C99.311,47.828,100,48.71,100,49.963c0,1.75-1.525,2.422-3.354,2.422c-1.686,0-2.809-0.609-3.228-1.926L95.489,49.642z
		 M49.685,63.639c-0.304-0.256-0.416-0.609-0.528-1.059l-0.29-1.172c-0.16-0.674-0.433-0.803-1.043-0.803h-0.818v3.033H44.39v-9.451
		h4.044c2.118,0,3.579,0.818,3.579,2.967c0,1.492-0.963,2.23-2.006,2.406c0.866,0.178,1.3,0.563,1.525,1.381l0.448,1.621
		c0.113,0.418,0.241,0.738,0.578,1.076H49.685z M47.005,58.488h1.012c0.914,0,1.315-0.371,1.315-1.045S48.931,56.4,48.017,56.4
		h-1.012V58.488z M57.262,60.959l2.149,0.674c-0.416,1.59-1.734,2.199-3.21,2.199c-2.198,0-3.804-1.396-3.804-3.82
		c0-2.504,1.413-3.965,3.739-3.965c2.199,0,3.321,1.412,3.321,3.467c0,0.273,0,0.594-0.031,0.932h-4.523
		c0.048,0.914,0.496,1.41,1.267,1.41C56.715,61.855,57.084,61.617,57.262,60.959z M57.005,59.129c0-0.641-0.227-1.203-0.947-1.203
		c-0.625,0-1.027,0.512-1.092,1.203H57.005z M59.268,56.225h2.728l0.851,2.984c0.306,1.076,0.481,1.816,0.481,1.816h0.032
		c0,0,0.16-0.74,0.498-1.816l0.964-2.984h2.52l-2.697,7.414h-2.792L59.268,56.225z M69.185,53.016c0.771,0,1.43,0.529,1.43,1.365
		c0,0.834-0.659,1.361-1.43,1.361s-1.428-0.527-1.428-1.361C67.757,53.545,68.414,53.016,69.185,53.016z M70.484,56.225v7.414
		h-2.583v-7.414H70.484z M76.149,60.959l2.15,0.674c-0.417,1.59-1.732,2.199-3.209,2.199c-2.198,0-3.803-1.396-3.803-3.82
		c0-2.504,1.412-3.965,3.739-3.965c2.198,0,3.323,1.412,3.323,3.467c0,0.273,0,0.594-0.034,0.932h-4.524
		c0.047,0.914,0.496,1.41,1.268,1.41C75.605,61.855,75.974,61.617,76.149,60.959z M75.895,59.129c0-0.641-0.226-1.203-0.947-1.203
		c-0.627,0-1.029,0.512-1.092,1.203H75.895z M85.284,56.225l0.528,2.584c0.273,1.332,0.418,2.328,0.418,2.328h0.031
		c0,0,0.16-0.98,0.465-2.297l0.594-2.615h2.519l-2.005,7.414H84.93l-0.45-2.166c-0.224-1.092-0.401-2.375-0.401-2.375h-0.031
		c0,0-0.178,1.283-0.401,2.375l-0.449,2.166h-2.889l-2.007-7.414h2.617l0.594,2.615c0.306,1.316,0.464,2.297,0.464,2.297h0.033
		c0,0,0.145-0.996,0.417-2.328l0.53-2.584H85.284z M60.12,38.303c0,0.353,0.098,0.545,0.369,0.545c0.16,0,0.321-0.063,0.466-0.145
		v1.83c-0.353,0.257-0.688,0.354-1.283,0.354c-0.995,0-1.541-0.45-1.831-1.172c-0.417,0.771-1.074,1.204-2.134,1.204
		c-1.363,0-2.215-0.803-2.215-2.071c0-1.589,1.139-2.392,3.37-2.392h0.755v-0.497c0-0.482-0.16-0.819-0.626-0.819
		c-0.449,0-0.657,0.273-0.689,0.884l-2.473-0.386c0.146-1.525,1.333-2.488,3.243-2.488c2.118,0,3.049,0.931,3.049,2.553
		L60.12,38.303z M57.616,37.773H57.28c-0.932,0-1.253,0.289-1.253,0.771c0,0.353,0.24,0.626,0.69,0.626
		c0.434,0,0.898-0.225,0.898-0.915V37.773z M66.428,36.248c-0.305-0.113-0.481-0.193-0.898-0.193c-0.61,0-1.348,0.241-1.348,1.557
		v3.131h-2.586v-7.417h2.215l0.258,1.831c0.208-1.236,1.252-1.831,2.521-1.831L66.428,36.248z M66.84,33.326h2.73l0.849,2.986
		c0.305,1.075,0.48,1.813,0.48,1.813h0.033c0,0,0.16-0.738,0.497-1.813l0.964-2.986h2.519l-2.696,7.417h-2.792L66.84,33.326z
		 M81.141,38.303c0,0.353,0.097,0.545,0.368,0.545c0.161,0,0.32-0.063,0.467-0.145v1.83c-0.354,0.257-0.69,0.354-1.285,0.354
		c-0.994,0-1.541-0.45-1.829-1.172c-0.417,0.771-1.074,1.204-2.134,1.204c-1.365,0-2.216-0.803-2.216-2.071
		c0-1.589,1.138-2.392,3.369-2.392h0.755v-0.497c0-0.482-0.16-0.819-0.625-0.819c-0.45,0-0.659,0.273-0.69,0.884l-2.473-0.386
		c0.145-1.525,1.333-2.488,3.243-2.488c2.118,0,3.05,0.931,3.05,2.553V38.303z M78.636,37.773h-0.338
		c-0.93,0-1.251,0.289-1.251,0.771c0,0.353,0.241,0.626,0.689,0.626c0.434,0,0.899-0.225,0.899-0.915V37.773z M87.446,36.248
		c-0.305-0.113-0.479-0.193-0.898-0.193c-0.608,0-1.348,0.241-1.348,1.557v3.131h-2.584v-7.417h2.216l0.255,1.831
		c0.209-1.236,1.253-1.831,2.521-1.831L87.446,36.248z M93.08,30.823h2.601v9.92h-2.343l-0.241-1.285
		c-0.273,0.995-1.155,1.477-2.28,1.477c-1.733,0-2.969-1.349-2.969-3.757c0-2.488,1.188-4.029,3.274-4.029
		c0.949,0,1.7,0.434,1.958,1.14V30.823z M93.097,36.504c0-0.946-0.466-1.46-1.221-1.46c-0.754,0-1.396,0.562-1.396,2.039
		c0,1.22,0.515,1.862,1.364,1.862c0.658,0,1.252-0.498,1.252-1.508V36.504z M44.39,40.743v-9.456h2.632v3.515h3.243v-3.515h2.632
		v9.456h-2.632v-3.661h-3.243v3.661H44.39z"/>
</g>
</svg>
