<?xml version="1.0" encoding="utf-8"?>
<!-- Generator: Adobe Illustrator 16.0.0, SVG Export Plug-In . SVG Version: 6.00 Build 0)  -->
<!DOCTYPE svg PUBLIC "-//W3C//DTD SVG 1.1//EN" "http://www.w3.org/Graphics/SVG/1.1/DTD/svg11.dtd">
<svg version="1.1" id="Layer_1" xmlns="http://www.w3.org/2000/svg" xmlns:xlink="http://www.w3.org/1999/xlink" x="0px" y="0px"
	 width="100px" height="100px" viewBox="0 0 100 100" enable-background="new 0 0 100 100" xml:space="preserve">
<path fill-rule="evenodd" clip-rule="evenodd" d="M44.439,70.041c-0.31-0.105-0.619-0.215-0.929-0.316
	c-2.372-0.787-3.637-2.818-3.466-5.568c0.139-2.221,1.936-4.219,4.172-4.639c3.171-0.596,5.821,0.969,6.448,3.779
	c0.711,3.188-1.164,6.031-3.991,6.602c-0.086,0.018-0.159,0.094-0.237,0.143C45.771,70.041,45.104,70.041,44.439,70.041z
	 M49.434,65.133c-0.065-1.326-0.324-2.566-1.044-3.676c-0.811-1.248-2.007-1.81-3.46-1.686c-1.497,0.127-2.592,0.93-3.101,2.358
	c-0.737,2.071-0.502,4.077,0.717,5.909c0.854,1.285,2.143,1.785,3.647,1.572c1.446-0.207,2.401-1.092,2.839-2.473
	C49.237,66.492,49.305,65.803,49.434,65.133z M44.154,29.959c-0.26,0.164-0.518,0.464-0.779,0.468
	c-2.422,0.039-4.844,0.042-7.266,0.006c-0.269-0.004-0.532-0.309-0.799-0.475c-0.095,0-0.19,0-0.285,0
	c-0.167,0.779-0.334,1.557-0.501,2.336c0.258-0.097,0.369-0.238,0.451-0.395c0.342-0.648,0.867-0.981,1.605-0.993
	c0.451-0.007,0.902-0.03,1.352-0.07c0.626-0.055,0.871,0.158,0.858,0.841c-0.043,2.329-0.015,4.659-0.018,6.988
	c-0.002,1.483-0.006,1.482-1.423,1.771c-0.024,0.005-0.037,0.071-0.074,0.148c1.362,0,2.705,0,4.048,0
	c-0.058-0.132-0.13-0.176-0.208-0.194c-1.083-0.245-1.135-0.3-1.137-1.423c-0.005-2.472,0.013-4.944-0.015-7.417
	c-0.006-0.542,0.201-0.732,0.696-0.71c0.593,0.026,1.188,0.039,1.778,0.084c0.712,0.054,1.215,0.368,1.324,1.141
	c0.016,0.105,0.121,0.197,0.271,0.43c0.099-0.956,0.18-1.747,0.262-2.538C44.249,29.959,44.201,29.959,44.154,29.959z
	 M55.565,70.041c0.08-0.049,0.156-0.119,0.243-0.141c1.111-0.27,1.898-0.914,2.122-2.055c0.245-1.242-0.148-2.311-1.174-3.087
	c-0.547-0.415-1.158-0.745-1.709-1.156c-0.433-0.323-0.891-0.655-1.208-1.08c-0.671-0.897-0.315-2.19,0.644-2.599
	c1.146-0.488,2.4-0.004,2.922,1.126c0.075,0.163,0.17,0.318,0.334,0.624c0.203-1.718,0.017-1.98-1.42-2.244
	c-0.07-0.014-0.14-0.028-0.21-0.037c-1.594-0.184-2.987,0.517-3.427,1.721c-0.456,1.248,0.063,2.521,1.431,3.472
	c0.566,0.394,1.166,0.738,1.715,1.153c0.314,0.238,0.626,0.533,0.817,0.871c0.397,0.697,0.444,1.459,0.029,2.172
	c-0.4,0.689-1.074,0.893-1.833,0.865c-1.087-0.037-1.809-0.623-2.294-1.553c-0.123-0.234-0.231-0.477-0.405-0.836
	c-0.313,1.598,0.086,2.283,1.393,2.633c0.111,0.031,0.212,0.1,0.318,0.15C54.424,70.041,54.994,70.041,55.565,70.041z M7.265,45.2
	c0.072,0.041,0.144,0.117,0.217,0.118c0.806,0.009,1.065,0.472,1.053,1.205c-0.015,0.855-0.01,1.71,0.003,2.565
	c0.006,0.383-0.147,0.583-0.538,0.583c-1.663,0-3.326-0.001-4.988,0c-0.382,0-0.557-0.175-0.55-0.568
	c0.014-0.95,0.004-1.9,0.014-2.85c0.006-0.529,0.278-0.834,0.806-0.917c0.139-0.021,0.272-0.078,0.408-0.118
	C3.68,45.179,3.672,45.139,3.663,45.1c-1.221,0-2.441,0-3.663,0c0.649,0.222,1.247,0.396,1.247,1.233
	c0,2.542,0.006,5.083,0.001,7.625c0,0.477-0.204,0.817-0.712,0.923c-0.136,0.029-0.258,0.12-0.518,0.247c1.377,0,2.582,0,3.788,0
	c-1.328-0.416-1.341-0.431-1.344-1.879c-0.001-0.808,0.017-1.616-0.006-2.423c-0.013-0.462,0.182-0.645,0.629-0.643
	c1.615,0.007,3.23,0.005,4.846,0.001c0.405-0.001,0.613,0.156,0.606,0.593c-0.016,1.045-0.011,2.09-0.009,3.135
	c0,0.52-0.216,0.857-0.746,0.971c-0.162,0.034-0.316,0.109-0.474,0.165C7.32,55.074,7.33,55.1,7.341,55.126c1.203,0,2.407,0,3.611,0
	c-0.641-0.206-1.215-0.374-1.212-1.204c0.009-2.541,0.003-5.083,0.006-7.625c0.001-0.598,0.299-0.922,0.902-0.972
	c0.12-0.01,0.236-0.074,0.354-0.113c-0.006-0.044-0.013-0.088-0.019-0.132c-1.232,0-2.465,0-3.698,0
	C7.279,45.121,7.271,45.16,7.265,45.2z M52.396,40.585c1.204,0,2.408,0,3.612,0c-1.457-0.192-1.305-1.282-1.308-2.271
	c-0.004-1.996-0.01-3.991,0.004-5.987c0.009-1.165,0.062-1.215,1.119-1.616c0.049-0.019,0.072-0.104,0.135-0.2
	c-1.229,0-2.413,0-3.597,0c-0.043,0.063-0.087,0.126-0.13,0.19c1.003-0.019,1.342,0.51,1.337,1.337
	c-0.006,0.808,0.002,1.616,0.009,2.423c0.004,0.444-0.21,0.651-0.652,0.65c-1.615-0.003-3.23-0.004-4.847,0
	c-0.496,0.001-0.663-0.264-0.654-0.722c0.011-0.665-0.005-1.331,0.004-1.996c0.017-1.263,0.058-1.315,1.184-1.726
	c0.022-0.008,0.021-0.083,0.04-0.175c-1.235,0-2.458,0-3.68,0c0.094,0.165,0.208,0.261,0.324,0.262
	c0.624,0.009,0.896,0.345,0.933,0.933c0.019,0.308,0.071,0.614,0.072,0.921c0.007,2.02-0.006,4.039,0.007,6.058
	c0.006,0.864-0.124,1.611-1.155,1.796c-0.007,0.001-0.001,0.078-0.001,0.106c1.206,0,2.41,0,3.614,0
	c-0.793-0.183-1.327-0.53-1.32-1.428c0.008-0.974-0.01-1.948-0.016-2.921c-0.003-0.465,0.259-0.602,0.688-0.599
	c1.592,0.011,3.184,0.014,4.775-0.001c0.489-0.005,0.691,0.202,0.686,0.678c-0.01,0.736,0.003,1.473-0.001,2.209
	c-0.004,0.895,0.082,1.848-1.308,1.908C52.312,40.472,52.354,40.528,52.396,40.585z M87.936,50.079
	c0.005,3.085-2.261,5.372-5.328,5.376c-3.154,0.004-5.466-2.213-5.467-5.242c0-3.093,2.349-5.394,5.505-5.392
	C85.814,44.823,87.93,46.926,87.936,50.079z M78.517,49.687c0.095,1.51,0.416,2.899,1.395,4.063
	c1.785,2.123,5.095,1.697,6.145-0.857c0.875-2.127,0.628-4.248-0.646-6.174c-0.823-1.245-2.096-1.692-3.54-1.498
	c-1.4,0.189-2.414,0.985-2.884,2.333C78.749,48.236,78.668,48.974,78.517,49.687z M44.221,45.256
	c0.197,0.049,0.396,0.094,0.593,0.149c0.629,0.175,0.952,0.582,0.95,1.245c-0.007,2.281,0.007,4.562-0.02,6.842
	c-0.013,1.141-0.095,1.205-1.161,1.518c-0.018,0.006-0.016,0.077-0.028,0.143c1.092,0,2.178,0,3.414,0
	c-1.474-0.598-1.521-0.596-1.588-2.145c-0.077-1.755-0.064-3.514-0.077-5.271c-0.002-0.238,0.074-0.478,0.14-0.871
	c2.574,2.946,5.031,5.758,7.487,8.569c0.057-0.015,0.112-0.03,0.168-0.046c0-0.249,0-0.498,0-0.746
	c0.001-2.447-0.006-4.895,0.004-7.342c0.004-0.946-0.122-1.991,1.429-2.023c-0.055-0.062-0.108-0.124-0.162-0.186
	c-1.122,0-2.245,0-3.573,0c1.553,0.657,1.625,0.699,1.652,1.605c0.057,1.851,0.078,3.704,0.104,5.555
	c0.003,0.193-0.06,0.387-0.101,0.628c-0.15-0.085-0.226-0.106-0.268-0.155c-2.101-2.419-4.199-4.842-6.298-7.263
	c-0.12-0.138-0.24-0.383-0.369-0.389c-0.764-0.037-1.529-0.019-2.294-0.019C44.223,45.122,44.222,45.189,44.221,45.256z
	 M91.057,53.825c-0.026-2.042-0.073-4.084-0.1-6.126c-0.003-0.225,0.068-0.45,0.132-0.836c2.567,2.936,5.031,5.754,7.495,8.572
	c0.161-0.304,0.161-0.532,0.161-0.763c0.002-2.566-0.007-5.132,0.01-7.698c0.008-1.26,0.079-1.327,1.222-1.71
	c0.02-0.006,0.014-0.085,0.023-0.157c-1.107,0-2.206,0-3.306,0c1.507,0.563,1.283,0.411,1.359,1.375
	c0.155,1.985,0.11,3.986,0.139,5.979c0.002,0.123-0.081,0.247-0.147,0.434c-0.171-0.152-0.303-0.25-0.409-0.369
	c-1.796-2.026-3.674-3.989-5.344-6.115c-0.76-0.967-1.454-1.58-2.705-1.356c-0.234,0.042-0.482,0.006-0.725,0.006
	c1.527,0.638,1.556,0.677,1.554,2.369c-0.002,1.83,0.004,3.659-0.014,5.489c-0.009,0.938,0.181,2.01-1.209,2.248
	c1.09,0,2.181,0,3.271,0C91.737,54.948,91.068,54.783,91.057,53.825z M65.768,47.37c-0.082-0.661-0.149-1.325-0.263-1.981
	c-0.018-0.106-0.229-0.226-0.37-0.256c-1.399-0.303-2.802-0.426-4.232-0.166c-2.561,0.466-4.366,2.422-4.465,4.899
	c-0.108,2.716,1.352,4.632,4.033,5.341c1.862,0.492,3.659,0.166,5.323-0.288c-0.05-0.733-0.089-1.402-0.142-2.07
	c-0.058-0.75,0.027-1.411,0.921-1.655c-1.268,0-2.535,0-3.802,0c0.112,0.185,0.245,0.249,0.385,0.266
	c1.225,0.148,1.281,0.206,1.3,1.451c0.005,0.356-0.009,0.713-0.006,1.068c0.006,0.569-0.3,0.85-0.829,0.988
	c-2.083,0.541-4.313-0.434-5.159-2.405c-0.356-0.83-0.559-1.774-0.605-2.679c-0.128-2.466,1.177-4.222,3.413-4.62
	c1.761-0.314,3.551,0.009,4.152,1.924c0.028,0.089,0.131,0.154,0.198,0.229C65.67,47.401,65.719,47.385,65.768,47.37z M62.986,33.75
	c0.03,1.546-0.975,1.39-1.893,1.379c-0.19-0.002-0.384-0.023-0.57,0.004c-0.713,0.102-0.916-0.234-0.868-0.896
	c0.045-0.615,0.01-1.235,0.01-1.853c0-1.569,0-1.56,1.593-1.545c1.221,0.012,2.427,0.022,2.815,1.543
	c0.004,0.016,0.08,0.012,0.226,0.031c-0.064-0.662-0.127-1.299-0.185-1.9c-2.338,0-4.559,0-6.926,0
	c1.281,0.693,1.283,0.693,1.284,2.193c0.002,1.877,0.001,3.754,0.001,5.631c-0.001,1.614-0.002,1.614-1.375,2.191
	c0.028,0.031,0.057,0.088,0.085,0.088c2.375,0.013,4.75,0.023,7.125,0.023c0.126,0,0.332-0.058,0.364-0.141
	c0.233-0.613,0.434-1.239,0.644-1.861c-0.088-0.037-0.175-0.074-0.263-0.111c-0.17,0.269-0.296,0.585-0.521,0.794
	c-0.351,0.324-0.744,0.758-1.166,0.818c-0.88,0.125-1.791,0.057-2.688,0.025c-0.672-0.024-0.961-0.491-0.983-1.095
	c-0.037-0.997-0.034-1.996-0.012-2.993c0.003-0.16,0.196-0.45,0.306-0.452c0.803-0.016,1.628-0.069,2.399,0.102
	c0.285,0.063,0.44,0.701,0.661,1.072c0.015,0.024,0.079,0.019,0.154,0.034c0-0.978,0-1.947,0-2.917
	C63.132,33.86,63.059,33.805,62.986,33.75z M19.42,45.204c0.128,0.039,0.255,0.109,0.383,0.111c0.615,0.012,0.95,0.364,0.959,0.928
	c0.031,1.966,0.136,3.941-0.018,5.895c-0.137,1.738-1.312,2.688-2.922,2.73c-1.733,0.047-2.867-0.746-3.095-2.565
	c-0.229-1.826-0.177-3.692-0.171-5.541c0.003-1.201,0.065-1.199,1.205-1.497c0.041-0.011,0.061-0.105,0.095-0.169
	c-1.278,0-2.529,0-3.78,0c1.296,0.523,1.296,0.523,1.298,1.995c0.003,1.52-0.02,3.041,0.015,4.56
	c0.051,2.262,1.032,3.396,3.19,3.762c2.321,0.395,4.19-0.749,4.665-2.895c0.127-0.574,0.171-1.174,0.186-1.764
	c0.033-1.306-0.051-2.619,0.053-3.917c0.103-1.277,0.013-1.341,1.252-1.588c0.024-0.005,0.036-0.075,0.077-0.167
	c-1.145,0-2.262,0-3.38,0C19.428,45.124,19.424,45.164,19.42,45.204z M35.472,69.52c-1.161-0.23-1.211-0.227-1.233-1.408
	c-0.043-2.258-0.027-4.516-0.03-6.773c-0.002-1.424,0.159-1.555,1.566-1.311c0.115,0.02,0.229,0.057,0.341,0.096
	c0.934,0.32,1.477,1.074,1.52,2.104c0.059,1.399-0.386,2.234-1.436,2.682c-0.245,0.104-0.501,0.184-0.752,0.273
	c0.206,0.125,0.385,0.135,0.563,0.123c1.623-0.104,2.87-1.175,2.97-2.549c0.116-1.602-0.788-2.812-2.556-3.02
	c-1.476-0.174-2.986-0.046-4.481-0.047c-0.093,0-0.186,0.043-0.278,0.066c1.392,0.574,1.394,0.574,1.395,1.988
	c0.001,2.068,0.004,4.137-0.003,6.205c-0.004,1.225-0.063,1.295-1.212,1.619c-0.021,0.006-0.022,0.082-0.049,0.191
	c1.301,0,2.584,0,4.068,0C35.614,69.604,35.548,69.535,35.472,69.52z M37.562,48.55c-0.068,0.218-0.083,0.479-0.219,0.642
	c-0.203,0.245-0.472,0.561-0.746,0.598c-0.678,0.091-1.375,0.035-2.064,0.05c-0.395,0.009-0.548-0.17-0.544-0.559
	c0.012-1.093,0.013-2.187,0.002-3.28c-0.004-0.399,0.175-0.557,0.559-0.549c0.688,0.014,1.379-0.004,2.067,0.026
	c0.652,0.028,1.122,0.343,1.34,0.985c0.063,0.189,0.141,0.374,0.212,0.561c0.147-0.424,0.126-0.832,0.153-1.237
	c0.035-0.539-0.143-0.739-0.727-0.733c-1.853,0.021-3.705-0.028-5.559-0.042c-0.131-0.001-0.262,0.07-0.508,0.142
	c1.252,0.453,1.264,0.452,1.27,1.736c0.009,2.187,0.008,4.373-0.001,6.561c-0.006,1.225-0.018,1.225-1.183,1.553
	c-0.021,0.006-0.023,0.074-0.037,0.126c1.285,0,2.565,0,3.846,0C34,54.713,34,54.713,33.993,53.199
	c-0.001-0.404-0.003-0.809-0.003-1.213c0.001-1.672,0.003-1.624,1.642-1.688c1-0.04,1.739,0.137,1.927,1.26
	c0.002,0.012,0.084,0.012,0.193,0.027c0-1.012,0-2.013,0-3.014C37.688,48.564,37.625,48.558,37.562,48.55z M68.517,59.422
	c-0.546,0.081-1.047,0.213-1.55,0.219c-2.02,0.023-4.04,0.03-6.06-0.006c-0.527-0.01-1.05-0.197-1.616-0.311
	c-0.152,0.607-0.338,1.344-0.523,2.08c0.087,0.064,0.173,0.127,0.259,0.191c0.045-0.131,0.08-0.266,0.136-0.391
	c0.416-0.938,1.191-1.224,2.149-1.188c0.355,0.013,0.715,0.025,1.068-0.005c0.495-0.043,0.669,0.15,0.664,0.648
	c-0.02,2.496-0.003,4.992-0.02,7.486c-0.008,1.129-0.105,1.207-1.25,1.371c-0.102,0.014-0.195,0.08-0.294,0.121
	c0.007,0.041,0.013,0.08,0.019,0.121c1.378,0,2.756,0,4.225,0c-0.122-0.133-0.159-0.211-0.212-0.223
	c-1.261-0.305-1.279-0.318-1.281-1.576c-0.003-2.4,0.012-4.801-0.011-7.201c-0.005-0.539,0.129-0.806,0.718-0.749
	c0.424,0.04,0.854,0.003,1.282,0.013c1.179,0.027,1.443,0.227,1.83,1.348c0.025,0.074,0.109,0.129,0.249,0.285
	C68.381,60.811,68.452,60.076,68.517,59.422z M75.176,45.071c-1.9,0.027-3.802,0.035-5.701-0.005
	c-0.594-0.012-1.185-0.2-1.825-0.317c-0.148,0.617-0.324,1.351-0.501,2.085c0.23-0.036,0.337-0.121,0.39-0.231
	c0.391-0.833,1.063-1.168,1.955-1.144c0.403,0.011,0.81,0.022,1.211-0.012c0.561-0.049,0.744,0.169,0.738,0.734
	c-0.026,2.352-0.008,4.705-0.015,7.056c-0.004,1.448-0.058,1.504-1.434,1.768c-0.021,0.004-0.028,0.074-0.047,0.125
	c1.355,0,2.703,0,4.051,0c-1.366-0.405-1.373-0.405-1.379-1.893c-0.008-1.972-0.004-3.944-0.004-5.916c0-1.912,0-1.912,1.921-1.857
	c1.35,0.039,1.514,0.162,1.92,1.415c0.015,0.046,0.102,0.068,0.22,0.144c0.08-0.703,0.154-1.354,0.226-2.005
	c0.01-0.091,0.002-0.183,0.002-0.165C76.31,44.931,75.744,45.063,75.176,45.071z M27.354,55.151
	c-0.082-0.146-0.179-0.196-0.277-0.198c-0.756-0.02-1.125-0.377-1.109-1.157c0.014-0.712-0.043-1.425-0.047-2.138
	c-0.008-1.341-0.002-1.324,1.345-1.348c0.986-0.018,1.996-0.135,2.246,1.203c0.003,0.015,0.079,0.016,0.137,0.025
	c0-0.983,0-1.961,0-3.075c-0.75,1.347-0.75,1.347-1.632,1.366c-2.099,0.045-2.099,0.045-2.098-2.083c0-0.744,0-1.488,0-2.214
	c0.286-0.046,0.379-0.073,0.472-0.073c0.618-0.003,1.236-0.01,1.854,0.004c1.056,0.022,1.342,0.238,1.732,1.239
	c0.041,0.105,0.135,0.19,0.276,0.381c0-0.748,0-1.354,0-1.969c-2.24,0-4.441,0-6.642,0c1.104,0.462,1.166,0.541,1.169,1.768
	c0.006,2.044,0.004,4.088,0.003,6.133c0,0.955,0.158,2.012-1.287,2.136C24.782,55.151,26.068,55.151,27.354,55.151z M42.025,53.143
	c-0.006-2.064-0.04-4.13,0.013-6.193c0.038-1.508,0.14-1.567,1.272-1.676c0.023-0.002,0.04-0.074,0.09-0.171
	c-1.31,0-2.587,0-3.865,0c1.601,0.468,1.314,0.799,1.345,2.095c0.047,1.944,0.038,3.891,0.004,5.836
	c-0.031,1.775,0.003,1.566-1.502,2.115c1.435,0,2.683,0,3.932,0C42.05,54.621,42.029,54.602,42.025,53.143z"/>
</svg>
