<?xml version="1.0" encoding="utf-8"?>
<!-- Generator: Adobe Illustrator 16.0.0, SVG Export Plug-In . SVG Version: 6.00 Build 0)  -->
<!DOCTYPE svg PUBLIC "-//W3C//DTD SVG 1.1//EN" "http://www.w3.org/Graphics/SVG/1.1/DTD/svg11.dtd">
<svg version="1.1" id="Layer_1" xmlns="http://www.w3.org/2000/svg" xmlns:xlink="http://www.w3.org/1999/xlink" x="0px" y="0px"
	 width="100px" height="100px" viewBox="0 0 100 100" enable-background="new 0 0 100 100" xml:space="preserve">
<path fill="#010101" d="M3.912,37.674c-1.397,0.355-2.251,1.638-2.027,3.064c0.195,1.266,1.094,2.102,2.463,2.297
	c1.266,0.177,2.589-0.59,2.984-1.741c0.333-0.979,0.103-2.091-0.584-2.818c-0.344-0.361-0.625-0.544-1.111-0.716
	C5.206,37.611,4.33,37.565,3.912,37.674L3.912,37.674z M11.856,40.143v2.32h2.75l-0.012,7.429l-0.017,7.434l-1.357,0.017
	l-1.363,0.012v4.582h10.081v-4.582l-1.157-0.012l-1.163-0.017L19.6,51.209c-0.006-3.558,0.012-6.112,0.04-6.101
	c0.029,0.006,1.684,2.05,3.677,4.542l3.631,4.524l0.544,0.017l0.544,0.018l3.093-3.648c1.701-2.01,3.408-4.021,3.797-4.479
	l0.699-0.825v12.096H33.22v4.582l4.971-0.012l4.966-0.017l0.018-2.274l0.011-2.279l-1.271-0.012l-1.277-0.017l-0.017-7.434
	l-0.012-7.429h2.635v-4.64H34.79l-0.602,0.813c-2.383,3.225-6.484,8.694-6.512,8.694c-0.023,0-1.638-2.142-3.591-4.754l-3.551-4.748
	l-4.336-0.006h-4.341V40.143z M76.32,44.41c-1.323,0.212-2.411,0.733-3.311,1.592c-0.212,0.206-0.396,0.361-0.406,0.349
	c-0.012-0.011-0.081-0.229-0.149-0.481s-0.16-0.596-0.212-0.762l-0.08-0.298h-6.237v4.124h2.177v8.82h-2.578v4.181h9.68v-4.181
	H72.85l0.017-2.853c0.023-2.761,0.029-2.858,0.155-3.275c0.412-1.364,1.3-2.211,2.605-2.492c0.659-0.143,1.776-0.097,2.457,0.109
	c0.573,0.172,0.974,0.361,1.375,0.647c0.154,0.108,0.286,0.189,0.298,0.177c0.028-0.034,2.205-4.055,2.205-4.078
	c0-0.017-0.188-0.166-0.424-0.338c-0.722-0.527-1.587-0.899-2.611-1.134C78.359,44.387,76.87,44.33,76.32,44.41z M90.554,44.393
	c-1.725,0.177-3.196,0.67-4.405,1.472c-1.786,1.186-2.943,2.956-3.419,5.213c-0.178,0.858-0.246,2.468-0.144,3.476
	c0.401,3.889,2.543,6.529,6.031,7.44c0.911,0.24,1.645,0.344,2.709,0.384c1.519,0.057,3.002-0.155,4.394-0.619
	c1.369-0.452,2.303-0.979,3.362-1.873l0.194-0.166l-1.248-1.397c-0.688-0.768-1.323-1.472-1.409-1.563l-0.16-0.172l-0.247,0.172
	c-0.83,0.584-2.039,1.031-3.293,1.22c-0.584,0.086-1.558,0.08-2.183-0.022c-1.827-0.298-3.007-1.243-3.327-2.669l-0.052-0.224H99.82
	l0.035-0.218c0.223-1.375,0.183-3.315-0.086-4.679c-0.768-3.843-3.614-5.854-8.208-5.802C91.12,44.364,90.662,44.381,90.554,44.393
	L90.554,44.393z M92.295,48.476c1.792,0.178,2.881,0.968,3.121,2.257c0.034,0.189,0.063,0.413,0.063,0.504v0.16h-8.145l0.04-0.188
	c0.022-0.098,0.126-0.367,0.223-0.585c0.55-1.191,1.787-1.97,3.408-2.142C91.619,48.413,91.659,48.413,92.295,48.476L92.295,48.476z
	 M52.603,44.496c-3.511,0.515-6.083,2.784-6.982,6.163c-0.429,1.615-0.435,3.717-0.023,5.378c0.59,2.343,2.114,4.272,4.221,5.327
	c2.549,1.271,6.243,1.271,8.758,0.011c1.563-0.79,2.909-2.131,3.677-3.671c0.717-1.438,1.02-2.944,0.963-4.731
	c-0.086-2.554-0.888-4.593-2.417-6.134c-1.271-1.283-2.864-2.039-4.903-2.336C55.146,44.387,53.353,44.387,52.603,44.496z
	 M55.724,48.906c1.581,0.539,2.652,2.033,2.801,3.912c0.086,1.048-0.086,1.987-0.516,2.875c-0.332,0.67-1.03,1.381-1.655,1.684
	c-0.682,0.327-1.22,0.441-2.056,0.447c-1.123,0-1.953-0.246-2.692-0.808c-1.146-0.859-1.741-2.521-1.546-4.29
	c0.241-2.17,1.324-3.511,3.179-3.935c0.229-0.051,0.624-0.074,1.174-0.063C55.151,48.74,55.294,48.763,55.724,48.906z M0.057,46.873
	v2.062h2.119v8.763H0v4.238l4.456-0.012l4.45-0.017l0.017-2.108l0.012-2.102H6.987V44.811h-6.93V46.873z"/>
</svg>
