<?xml version="1.0" encoding="utf-8"?>
<!-- Generator: Adobe Illustrator 16.0.0, SVG Export Plug-In . SVG Version: 6.00 Build 0)  -->
<!DOCTYPE svg PUBLIC "-//W3C//DTD SVG 1.1//EN" "http://www.w3.org/Graphics/SVG/1.1/DTD/svg11.dtd">
<svg version="1.1" id="Layer_1" xmlns="http://www.w3.org/2000/svg" xmlns:xlink="http://www.w3.org/1999/xlink" x="0px" y="0px"
	 width="100px" height="100px" viewBox="0 0 100 100" style="enable-background:new 0 0 100 100;" xml:space="preserve">
<g id="layer1" transform="translate(339.50518,-421.05231)" inkscape:label="Layer 1" inkscape:groupmode="layer">
	<path id="path6969" style="fill:#D22729;" d="M-303.16,462.771c-1.128-0.124-2.272-0.146-3.404-0.055
		c-1.124,0.092-2.299,0.254-3.344,0.677c-0.511,0.206-1.056,0.455-1.406,0.881c-0.344,0.418-0.553,1.097-0.129,1.548
		c0.758,0.805,2.052,0.983,3.125,1.124c2.365,0.311,4.772,0.191,7.146,0.451c1.148,0.126,2.304,0.338,3.386,0.726
		c1.066,0.38,2.214,1.012,2.793,1.979c1.193,1.998,0.72,4.604-1.156,6.082c-1.835,1.446-4.313,1.949-6.647,2.077
		c-2.345,0.129-4.777,0.051-7.093-0.339c-2.158-0.365-4.158-1.13-5.955-2.317c0.599-0.88,1.199-1.761,1.797-2.64
		c1.77,1.393,4.208,2.04,6.433,2.392c1.164,0.184,2.346,0.248,3.524,0.248c1.143,0,2.335-0.09,3.434-0.404
		c1.042-0.298,2.291-0.785,2.722-1.824c0.193-0.473,0.271-1.058-0.001-1.519c-0.296-0.499-0.8-0.811-1.352-1.017
		c-1.11-0.414-2.302-0.52-3.479-0.615c-1.169-0.094-2.354-0.105-3.526-0.152c-2.26-0.091-4.787-0.24-6.794-1.326
		c-0.999-0.539-1.89-1.447-2.046-2.566c-0.155-1.107-0.009-2.301,0.716-3.222c1.413-1.797,3.917-2.559,6.188-2.806
		c2.371-0.256,4.754-0.195,7.107,0.166c2.2,0.34,4.421,1.127,6.249,2.342c-0.589,0.777-1.18,1.555-1.767,2.332
		C-298.491,463.661-300.881,463.023-303.16,462.771"/>
	<path id="path6967" style="fill:#D22729;" d="M-286.351,478.22c-0.138,0.013-1.007,0.022-1.021,0.086
		c-1.151-0.028-2.323-0.163-3.27-0.835c-0.904-0.639-1.206-1.782-1.265-2.796c-0.063-1.067-0.014-2.146-0.014-3.214v-4.246
		c0-0.105,0.04-0.157-0.078-0.157h-1.097h-1.13c-0.181,0-0.101-0.183-0.101-0.334v-2.21c0-0.198,0.127-0.124,0.326-0.124h1.286
		h0.543h0.25v-0.545v-2.398c0-0.074,0.014-0.546,0-0.545c-0.014,0.003,0.535,0,0.629,0c0.819,0,2.575-0.003,2.706-0.003v0.986v2.292
		v0.212h0.888h2.617h0.913c0.174,0,0.161-0.02,0.161,0.148v2.222c0,0.105,0.068,0.298-0.068,0.298h-0.775h-2.614h-1.121
		c0.01,2.343,0.02,4.688,0.03,7.034c0.003,0.399,0.063,0.819,0.407,1.09c0.341,0.266,0.849,0.289,1.273,0.302
		c1.012,0.028,1.984-0.223,2.938-0.514c0.267,0.899,0.534,1.798,0.8,2.697c-0.695,0.187-1.429,0.308-2.143,0.413
		C-285.635,478.133-285.992,478.183-286.351,478.22"/>
	<path id="path6965" style="fill:#D22729;" d="M-271.967,478.09l-1.838,3.122c-0.149,0.253-0.299,0.506-0.448,0.76
		c-0.115,0.197-0.274,0.121-0.519,0.121h-3.302c0.7-1.119,1.4-2.235,2.099-3.354c0.169-0.27,0.34-0.54,0.509-0.811
		c0.018-0.028,0.197-0.262,0.182-0.292c-0.103-0.176-0.205-0.354-0.308-0.53c-1.495-2.586-2.991-5.171-4.486-7.758
		c-0.956-1.653-1.912-3.304-2.867-4.957h3.939c0.149,0,0.26,0.354,0.319,0.464c0.277,0.503,0.555,1.007,0.832,1.511
		c1.438,2.605,2.873,5.209,4.309,7.815c0.051,0.091,0.103,0.186,0.152,0.274c1.285-2.228,2.571-4.459,3.855-6.689
		c0.612-1.06,1.223-2.119,1.835-3.18c0.036-0.064,0.073-0.128,0.11-0.194c0.021-0.037,0.451-0.001,0.497-0.001h2.531h0.661
		c-0.96,1.631-1.919,3.263-2.88,4.891C-268.512,472.219-270.24,475.154-271.967,478.09"/>
	<path id="path6963" style="fill:#D22729;" d="M-259.58,477.819h-2.365h-0.854c-0.062,0-0.043-0.019-0.043-0.073V475.3v-9.807
		v-5.107c0.334,0,3.397-0.013,3.397,0.014v2.099v9.676v4.168v1.171C-259.446,477.699-259.37,477.819-259.58,477.819"/>
	<path id="path6961" style="fill:#D22729;" d="M-249.018,464.013c-1.199,0.014-2.396,0.185-3.531,0.498
		c-2.213,0.609-4.264,2.113-5.064,4.208c-0.783,2.047-0.578,4.539,0.76,6.348c1.372,1.854,3.684,2.816,6.006,3.087
		c2.328,0.271,4.808,0.129,7.066-0.481c1.124-0.305,2.207-0.783,3.163-1.42c0.066-0.044,0.588-0.378,0.557-0.416
		c-0.175-0.22-0.351-0.435-0.525-0.651c-0.407-0.508-0.816-1.015-1.224-1.523c-0.144,0.113-0.287,0.22-0.438,0.322
		c-1.883,1.264-4.377,1.468-6.616,1.468h-0.135c-2.104,0-4.92-0.802-5.346-3.06h0.003h7.445h7.392
		c-0.035-1.286-0.212-2.548-0.744-3.742c-0.951-2.133-2.914-3.556-5.228-4.192C-246.617,464.144-247.819,464-249.018,464.013z
		 M-249.127,466.813c0.14-0.002,0.279,0,0.416,0.003c2.171,0.063,4.771,0.751,5.364,2.997h-2.712h-8.255
		c0.015-0.063,0.023-0.128,0.044-0.188C-253.556,467.606-251.222,466.848-249.127,466.813z"/>
	<path id="path6957" style="fill:#010101;" d="M-339.505,477.786v-1.996v-9.618v-5.786h3.658v1.864v9.554
		c0,0.371,0.019,5.987-0.017,5.987C-336.21,477.792-339.505,477.795-339.505,477.786"/>
	<path id="path6890" style="fill:#010101;" d="M-320.816,477.772v-3.815v-3.048c0-1.004,0-2.299-0.749-3.104
		c-0.774-0.83-2.074-0.959-3.18-0.959c-1.135,0-2.326,0.104-3.392,0.514c-0.535,0.207-1.06,0.416-1.557,0.702
		c-0.259,0.149-0.506,0.312-0.748,0.485c-0.127,0.089-0.211,0.131-0.211,0.274v8.303c0,0.101,0.067,0.667-0.057,0.667h-2.246h-0.99
		c-0.095,0-0.112,0.022-0.112-0.062v-0.972v-9.367v-2.922c0-0.079-0.014-0.079,0.073-0.079h0.928h2.312
		c0.173,0,0.092,0.198,0.092,0.337v0.841c1.957-1.235,4.285-1.662,6.608-1.551c2.201,0.104,4.912,0.693,5.972,2.76
		c0.493,0.958,0.688,1.971,0.692,3.034c0.004,1.211,0.01,2.423,0.014,3.634c0.004,1.449,0.01,2.897,0.016,4.346
		C-317.697,477.792-320.816,477.81-320.816,477.772"/>
</g>
</svg>
