<?xml version="1.0" encoding="utf-8"?>
<!DOCTYPE svg PUBLIC "-//W3C//DTD SVG 1.1//EN" "http://www.w3.org/Graphics/SVG/1.1/DTD/svg11.dtd">
<svg version="1.1" id="Layer_1" xmlns="http://www.w3.org/2000/svg" xmlns:xlink="http://www.w3.org/1999/xlink" x="0px" y="0px"
	 width="100px" height="100px" viewBox="0 0 100 100" enable-background="new 0 0 100 100" xml:space="preserve">
<path fill-rule="evenodd" clip-rule="evenodd" d="M62.763,59.047c0,0,0.092,6.841,0.011,6.979c-0.082,0.139-0.295,0.111-0.539,0.111
	c-5.521,0.002-11.04,0.002-16.561,0c-0.723,0-0.788-0.064-0.789-0.775c-0.004-1.987-0.004-3.974,0-5.961
	c0.002-0.677,0.073-0.742,0.769-0.748c0.717-0.005,1.434-0.006,2.149-0.003c0.349,0.002,0.565-0.124,0.565-0.507
	c-0.005-2.426,0.061-4.854-0.035-7.277c-0.082-2.068-1.325-3.173-3.402-3.269c-2.954-0.136-5.027,1.745-5.121,4.728
	c-0.061,1.903-0.009,3.811-0.02,5.715c-0.002,0.436,0.179,0.621,0.614,0.613c0.766-0.012,1.531,0.01,2.296-0.002
	c0.433-0.006,0.614,0.172,0.612,0.612c-0.011,2.084-0.013,4.169,0.001,6.253c0.003,0.473-0.205,0.626-0.649,0.625
	c-5.732-0.006-11.464-0.006-17.196,0c-0.451,0.001-0.644-0.162-0.641-0.631c0.015-2.084,0.013-4.168,0.001-6.253
	c-0.002-0.445,0.185-0.614,0.614-0.606c0.7,0.012,1.4-0.01,2.101,0.002c0.428,0.007,0.622-0.168,0.621-0.607
	c-0.007-3.289-0.007-6.579,0-9.868c0.001-0.443-0.199-0.611-0.625-0.605c-0.716,0.011-1.433-0.005-2.149,0
	c-0.385,0.003-0.561-0.162-0.559-0.559c0.007-2.117,0.009-4.233-0.001-6.351c-0.002-0.425,0.19-0.577,0.592-0.577
	c4.462,0.004,8.924,0.005,13.385,0c0.445,0,0.601,0.201,0.597,0.628c-0.013,1.27-0.005,2.54,0,3.81
	c0.001,0.156-0.063,0.373,0.104,0.448c0.22,0.1,0.297-0.15,0.398-0.274c2.432-2.958,5.619-4.272,9.387-4.334
	c2.222-0.037,4.395,0.199,6.429,1.169c2.507,1.196,3.825,3.239,4.189,5.952c0.113,0.844,0.089,1.69,0.09,2.536
	c0.002,2.605,0,5.21,0.002,7.815c0.001,0.758,0.055,0.811,0.802,0.814c0.291,0.002,0.582,0.004,0.873,0.003v0.003h0.775
	c0,0,0.204-0.012,0.266,0.073C62.779,58.814,62.763,59.047,62.763,59.047z M91.656,56.503c-2.768-0.003-5.536-0.002-8.305-0.001
	c-0.771,0.001-0.767,0.016-0.879,0.764c-0.174,1.157-0.721,2.072-1.756,2.678c-2.792,1.633-6.083,0.215-6.714-2.933
	c-0.403-2.012-0.357-4.047-0.154-6.079c0.066-0.666,0.202-1.319,0.452-1.944c0.708-1.762,2.154-2.579,4.378-2.469
	c1.634,0.08,2.769,1.046,3.282,2.799c0.202,0.69,0.3,1.398,0.349,2.116c0.047,0.691,0.129,0.752,0.802,0.68
	c1.327-0.142,2.655-0.282,3.982-0.427c1.537-0.168,3.074-0.338,4.61-0.513c0.329-0.037,0.677-0.065,0.607-0.559
	c-0.385-2.733-1.438-5.127-3.533-6.996c-1.789-1.597-3.933-2.454-6.24-2.958c-2.121-0.464-4.265-0.481-6.416-0.292
	c-2.99,0.263-5.843,1.007-8.416,2.603c-3.84,2.381-5.737,5.877-5.828,10.372c-0.029,1.479,0.186,2.925,0.642,4.328
	c0.263,0.769,0.824,1.935,1.188,2.537c1.085,1.7,2.545,3.027,4.303,4.05c2.098,1.222,4.368,2,6.769,2.266
	c2.12,0.234,5.475,0.268,7.058,0.009c1.567-0.257,3.103-0.607,4.547-1.276c3.375-1.563,5.311-4.244,6.021-7.852
	C92.555,56.635,92.429,56.504,91.656,56.503z M0.489,32.143c-0.371,0-0.493,0.039-0.489,0.461c0.027,2.52,0.013,5.041,0.013,7.561
	c1.27-0.005,2.54-0.004,3.81-0.019c0.446-0.005,0.604,0.208,0.598,0.631c-0.012,0.765-0.001,1.53-0.001,2.295
	c0,4.901,0,9.802-0.001,14.703c0,0.841-0.034,0.875-0.888,0.874c-1.172-0.002-2.344-0.012-3.517-0.018c0,2.508,0,5.016,0,7.524
	c0.293-0.007,0.586-0.018,0.879-0.018c7.197-0.001,14.394-0.001,21.59-0.001c0.195,0,0.391-0.01,0.586-0.001
	c0.412,0.018,0.587-0.167,0.585-0.583c-0.008-2.102-0.01-4.201,0.001-6.302c0.002-0.446-0.189-0.608-0.618-0.604
	c-1.025,0.011-2.051,0.007-3.077-0.001c-0.623-0.004-0.711-0.088-0.712-0.709c-0.003-5.699-0.003-11.398,0-17.097
	c0-0.596,0.093-0.688,0.68-0.692c0.993-0.008,1.986,0,2.979-0.005c0.688-0.003,0.742-0.06,0.743-0.763
	c0.005-2.41,0.007-4.82,0.01-7.229C15.937,32.152,8.212,32.155,0.489,32.143z M99.709,60.264c-1.022-2.287-3.906-3.18-6.028-1.862
	c-1.57,0.976-2.328,2.763-1.927,4.546c0.399,1.777,1.888,3.078,3.748,3.277c1.718,0.184,3.416-0.807,4.199-2.445
	C100.073,63.127,100.122,61.156,99.709,60.264z"/>
</svg>
