<?xml version="1.0" encoding="utf-8"?>
<!-- Generator: Adobe Illustrator 16.0.0, SVG Export Plug-In . SVG Version: 6.00 Build 0)  -->
<!DOCTYPE svg PUBLIC "-//W3C//DTD SVG 1.1//EN" "http://www.w3.org/Graphics/SVG/1.1/DTD/svg11.dtd">
<svg version="1.1" id="Layer_1" xmlns="http://www.w3.org/2000/svg" xmlns:xlink="http://www.w3.org/1999/xlink" x="0px" y="0px"
	 width="100px" height="100px" viewBox="0 0 100 100" enable-background="new 0 0 100 100" xml:space="preserve">
<path fill-rule="evenodd" clip-rule="evenodd" d="M27.336,55.492c-0.673,0-1.347,0.024-2.018-0.007
	c-0.698-0.031-0.975,0.283-0.924,0.956c0.036,0.473-0.044,0.979,0.101,1.413c0.228,0.686,0.757,1.092,1.53,1.09
	c0.953-0.004,1.906,0.018,2.858-0.004c0.502-0.012,0.679,0.176,0.703,0.684c0.109,2.301,0.123,2.303-2.149,2.609
	c-0.582,0.078-1.167,0.17-1.752,0.183c-2.713,0.058-4.715-1.815-4.771-4.548c-0.056-2.746-0.043-5.494-0.006-8.24
	c0.031-2.32,1.923-4.394,4.173-4.668c2.773-0.338,5.319,1.109,5.763,3.591c0.321,1.796,0.231,3.677,0.201,5.518
	c-0.015,0.868-0.705,1.368-1.608,1.408c-0.699,0.031-1.401,0.007-2.102,0.007C27.336,55.485,27.336,55.489,27.336,55.492z
	 M26.002,52.015c1.588,0,1.618-0.023,1.617-1.266c-0.001-1.434-0.606-2.321-1.601-2.344c-1.013-0.023-1.621,0.795-1.623,2.18
	C24.394,52.015,24.394,52.015,26.002,52.015z M12.503,59.888c0,2.325,0,2.325,2.353,2.316c1.138-0.004,1.141-0.004,1.142-1.186
	c0.002-2.608,0.021-5.218-0.011-7.826c-0.01-0.808,0.296-1.133,1.09-1.064c0.39,0.033,0.785-0.008,1.177,0.006
	c0.479,0.016,0.735-0.155,0.719-0.681c-0.024-0.729,0.039-1.464-0.034-2.185c-0.022-0.221-0.347-0.545-0.574-0.584
	c-0.518-0.09-1.074,0.033-1.589-0.063c-0.278-0.052-0.718-0.373-0.722-0.58c-0.033-1.651-0.044-3.308,0.07-4.954
	c0.067-0.979,0.671-1.391,1.657-1.419c0.28-0.008,0.563-0.019,0.842-0.001c0.504,0.031,0.704-0.188,0.693-0.694
	c-0.015-0.701,0.002-1.403,0.043-2.103c0.033-0.56-0.223-0.813-0.748-0.911c-1.402-0.265-2.681,0.025-3.82,0.862
	c-1.651,1.213-2.281,2.922-2.285,4.909c-0.005,2.889-0.001,5.779-0.002,8.668C12.503,54.894,12.503,57.391,12.503,59.888z
	 M36.85,44.467c-0.008-1.768-0.048-3.537,0.015-5.302c0.031-0.857-0.357-0.962-1.058-0.945c-0.651,0.016-1.092,0.006-1.088,0.911
	c0.036,7.379,0.033,14.759,0.002,22.138c-0.003,0.83,0.323,0.971,1.042,0.976c0.749,0.006,1.111-0.134,1.102-1.007
	c-0.042-3.844-0.024-7.688-0.016-11.532c0.005-2.183-0.251-1.987,1.98-1.985c2.172,0.002,3.144,0.975,3.146,3.122
	c0.003,3.536,0.019,7.071-0.011,10.606c-0.008,0.846,0.503,0.783,1.051,0.777c0.533-0.006,1.072,0.101,1.065-0.761
	c-0.028-3.788,0.033-7.576-0.029-11.363c-0.051-3.044-2.402-5.077-5.385-4.78c-0.549,0.055-1.096,0.139-1.731,0.221
	C36.899,45.118,36.852,44.793,36.85,44.467z M0.001,59.88c0,2.354,0,2.354,2.354,2.345c1.13-0.005,1.132-0.005,1.132-1.181
	c0.001-6.814,0-13.629,0-20.444c0-2.344,0-2.344-2.392-2.39c-1.065-0.02-1.092-0.002-1.093,1.058
	c-0.003,3.618-0.001,7.235-0.001,10.854C0.001,53.374,0.001,56.628,0.001,59.88z M80.654,53.933c0.077-1.567,0.047-3.145,0.257-4.69
	c0.297-2.185,2.276-3.867,4.395-3.934c2.188-0.069,4.301,1.455,4.77,3.607c0.205,0.939,0.099,1.948,0.12,2.926
	c0.014,0.617,0.009,1.233,0.001,1.85c-0.013,0.986-0.27,1.256-1.241,1.262c-1.653,0.011-3.307,0.033-4.96-0.008
	c-0.739-0.019-1.016,0.268-0.985,0.979c0.028,0.644-0.011,1.289,0.012,1.934c0.048,1.413,1.063,2.415,2.465,2.439
	c0.784,0.013,1.569,0.015,2.354-0.002c0.433-0.008,0.735,0.107,0.691,0.6c-0.038,0.428,0.27,1.064-0.468,1.149
	c-1.301,0.151-2.619,0.374-3.913,0.293c-1.581-0.099-3.021-1.761-3.239-3.629C80.728,57.128,80.733,55.526,80.654,53.933z
	 M85.54,52.859c2.944-0.062,2.533,0.495,2.543-2.578c0.005-1.575-1.141-2.798-2.535-2.802c-1.46-0.004-2.521,1.195-2.534,2.862
	C82.995,52.859,82.995,52.859,85.54,52.859z M55.588,54.046c0,1.234,0.015,2.469-0.003,3.703c-0.034,2.51-1.877,4.539-4.192,4.639
	c-2.789,0.12-4.967-1.642-5.157-4.291c-0.103-1.414-0.212-2.866,0.545-4.189c0.99-1.732,2.937-2.547,5.237-2.178
	c1.531,0.245,1.559,0.244,1.514-1.301c-0.018-0.605-0.122-1.227-0.306-1.803c-0.255-0.799-0.871-1.234-1.722-1.227
	c-0.98,0.008-1.961,0.088-2.94,0.084c-0.242-0.001-0.681-0.189-0.689-0.316c-0.031-0.447-0.47-1.049,0.216-1.338
	c3.863-1.629,7.273,0.634,7.481,4.18c0.079,1.342,0.013,2.691,0.013,4.037C55.586,54.046,55.587,54.046,55.588,54.046z
	 M53.661,55.962c-0.18-2.965,0.408-2.643-2.755-2.615c-0.027,0-0.056,0.005-0.083,0.009c-1.232,0.171-2.213,0.962-2.369,2.157
	c-0.122,0.926-0.097,1.903,0.055,2.827c0.177,1.083,1.208,1.866,2.259,1.942c1.079,0.077,2.149-0.525,2.482-1.614
	C53.514,57.805,53.533,56.866,53.661,55.962z M64.909,59.14c-0.626,0.969-1.711,1.389-2.861,1.107
	c-0.979-0.238-1.785-1.154-1.806-2.283c-0.049-2.664-0.053-5.329-0.004-7.992c0.021-1.232,1.021-2.273,2.164-2.461
	c1.039-0.172,2.421,0.572,2.698,1.708c0.253,1.033,0.845,1.055,1.653,1.03c0.556-0.018,0.751-0.208,0.696-0.756
	c-0.236-2.374-2.515-4.292-4.992-4.184c-2.351,0.102-4.342,2.131-4.365,4.512c-0.028,2.748-0.031,5.497,0.001,8.246
	c0.027,2.387,1.916,4.293,4.243,4.356c2.869,0.077,4.838-1.53,5.051-4.179C65.908,57.897,65.649,57.993,64.909,59.14z M6.254,61.317
	c-0.009,0.701,0.234,0.961,0.927,0.916c0.642-0.043,1.29-0.027,1.934-0.006c0.526,0.019,0.756-0.168,0.755-0.729
	c-0.014-5.16-0.012-10.32-0.003-15.48c0.001-0.479-0.136-0.723-0.663-0.731c-0.67-0.011-1.342-0.075-2.008-0.15
	c-0.674-0.077-0.952,0.141-0.942,0.869c0.035,2.552,0.014,5.104,0.014,7.655C6.267,56.214,6.286,58.766,6.254,61.317z
	 M69.722,61.229c-0.011,0.861,0.337,1.013,1.094,1.018c0.776,0.004,1.08-0.195,1.077-1.035c-0.028-7.286-0.029-14.572,0-21.859
	c0.004-0.859-0.338-1.014-1.095-1.02c-0.779-0.005-1.085,0.2-1.076,1.037c0.04,3.643,0.018,7.286,0.018,10.93
	C69.739,53.942,69.763,57.586,69.722,61.229z M92.769,55.497c0,1.934,0.04,3.867-0.018,5.799c-0.028,0.954,0.51,0.921,1.177,0.943
	c0.692,0.021,1.003-0.145,0.993-0.927c-0.039-3.249-0.017-6.5-0.017-9.75c0-3.321,0.788-4.115,4.072-4.126
	c0.42-0.002,0.94,0.139,1.008-0.563c0.062-0.644-0.026-1.124-0.754-1.374c-2.996-1.03-6.317,1.186-6.424,4.366
	c-0.063,1.875-0.012,3.754-0.012,5.631C92.786,55.497,92.777,55.497,92.769,55.497z M78.269,45.482
	c-0.85-0.111-1.373,0.192-1.813,0.972c-1.171,2.074-2.437,4.096-3.685,6.127c-0.357,0.582-0.265,1.072,0.067,1.635
	c1.34,2.27,2.65,4.557,3.959,6.846c0.699,1.221,1.493,1.505,2.895,0.965c-0.098-0.199-0.187-0.4-0.293-0.592
	c-1.335-2.4-2.656-4.811-4.021-7.194c-0.344-0.601-0.408-1.071-0.003-1.687c0.74-1.122,1.388-2.306,2.067-3.468
	c0.66-1.128,1.311-2.263,2.083-3.597C78.932,45.489,78.595,45.525,78.269,45.482z M10.043,41.771
	c-0.024-1.026-1.064-2.028-2.081-2.006C6.828,39.79,5.935,40.75,5.96,41.918c0.025,1.134,0.898,1.953,2.07,1.942
	C9.217,43.848,10.072,42.961,10.043,41.771z"/>
</svg>
