<?xml version="1.0" encoding="utf-8"?>
<!-- Generator: Adobe Illustrator 16.0.0, SVG Export Plug-In . SVG Version: 6.00 Build 0)  -->
<!DOCTYPE svg PUBLIC "-//W3C//DTD SVG 1.1//EN" "http://www.w3.org/Graphics/SVG/1.1/DTD/svg11.dtd">
<svg version="1.1" id="Layer_1" xmlns="http://www.w3.org/2000/svg" xmlns:xlink="http://www.w3.org/1999/xlink" x="0px" y="0px"
	 width="100px" height="100px" viewBox="0 0 100 100" enable-background="new 0 0 100 100" xml:space="preserve">
<path fill-rule="evenodd" clip-rule="evenodd" d="M4.557,45.004c-0.025,0.576-0.058,1.152-0.075,1.728
	c-0.067,2.24-0.158,4.479-0.29,6.717c-0.042,0.707-0.064,1.416-0.097,2.123c-0.039,0.836-0.073,1.673-0.123,2.509
	c-0.022,0.371-0.038,0.372-0.415,0.372c-0.979,0.001-1.958,0-2.938-0.004c-0.324-0.001-0.336-0.006-0.318-0.317
	c0.068-1.157,0.145-2.313,0.219-3.47c0.053-0.822,0.108-1.645,0.162-2.468c0.153-2.339,0.308-4.678,0.456-7.017
	c0.07-1.105,0.128-2.211,0.194-3.317c0.011-0.18,0.044-0.359,0.045-0.539c0.001-0.209,0.107-0.255,0.292-0.255
	c1.572,0.003,3.144,0.005,4.716-0.007c0.245-0.002,0.301,0.132,0.354,0.316c0.213,0.742,0.433,1.482,0.646,2.225
	c0.513,1.781,1.064,3.551,1.514,5.351c0.313,1.248,0.611,2.5,0.839,3.768c0.017,0.089,0.038,0.176,0.109,0.244
	c0.094-0.088,0.101-0.207,0.126-0.314c0.485-2.041,1.018-4.071,1.638-6.076c0.536-1.734,1.09-3.462,1.638-5.192
	c0.099-0.312,0.104-0.314,0.43-0.314c1.495-0.001,2.989-0.001,4.484,0c0.362,0,0.363,0.004,0.382,0.358
	c0.081,1.543,0.156,3.087,0.242,4.63c0.112,2.019,0.237,4.037,0.349,6.056c0.074,1.337,0.131,2.676,0.2,4.013
	c0.033,0.656,0.08,1.312,0.114,1.968c0.019,0.351,0.013,0.357-0.32,0.358c-1.069,0.003-2.139,0.003-3.209,0
	c-0.295-0.001-0.3-0.007-0.313-0.297c-0.069-1.545-0.138-3.089-0.203-4.633c-0.086-2.06-0.163-4.119-0.192-6.18
	c-0.011-0.695-0.033-1.391-0.045-2.086c-0.001-0.084,0.028-0.176-0.042-0.257c-0.104,0.06-0.103,0.174-0.126,0.265
	c-0.651,2.585-1.479,5.119-2.268,7.664c-0.503,1.622-1.005,3.245-1.514,4.865c-0.122,0.389-0.047,0.366-0.501,0.367
	c-0.799,0.002-1.598,0.002-2.396,0c-0.321-0.001-0.328-0.002-0.405-0.287c-0.704-2.609-1.464-5.204-2.136-7.822
	c-0.394-1.534-0.738-3.079-1.046-4.632C4.706,45.28,4.695,45.138,4.557,45.004z M72.873,57.172c0.491,0.648,1.137,1.074,1.899,1.332
	c0.787,0.268,1.604,0.299,2.406,0.168c1.994-0.327,3.388-1.469,4.236-3.289c0.356-0.766,0.543-1.576,0.631-2.416
	c0.151-1.444,0.048-2.859-0.511-4.21c-0.576-1.394-1.527-2.428-2.98-2.952c-0.772-0.278-1.568-0.311-2.364-0.224
	c-1.122,0.122-2.11,0.553-2.86,1.437c-0.056,0.065-0.096,0.158-0.236,0.143c-0.051-0.123-0.027-0.263-0.028-0.398
	c-0.003-2.1-0.004-4.199-0.008-6.299c0-0.317-0.004-0.321-0.316-0.323c-0.541-0.003-1.082-0.001-1.623-0.001
	c-0.579,0-1.159,0.004-1.738-0.002c-0.183-0.002-0.265,0.062-0.246,0.247c0.008,0.077,0.002,0.155,0.001,0.232
	c-0.046,5.834,0.084,11.669-0.092,17.503c-0.009,0.321-0.003,0.328,0.311,0.33c0.901,0.004,1.803,0.005,2.705,0.004
	c0.305-0.001,0.305-0.006,0.35-0.32c0.013-0.089,0.019-0.18,0.027-0.27c0.033-0.328,0.065-0.657,0.103-1.026
	C72.742,56.917,72.79,57.063,72.873,57.172z M73.134,50.564c0.194-0.973,1.016-1.809,1.949-1.957
	c1.022-0.163,1.995,0.31,2.508,1.217c0.251,0.443,0.401,0.919,0.458,1.421c0.121,1.063,0.083,2.109-0.438,3.08
	c-0.57,1.063-1.799,1.539-2.935,1.146c-0.902-0.313-1.574-1.248-1.605-2.25c-0.012-0.373-0.002-0.746-0.002-1.119
	C73.087,51.591,73.032,51.076,73.134,50.564z M47.25,46.761c-0.001-2.087-0.002-4.174-0.004-6.262
	c-0.001-0.356-0.003-0.358-0.358-0.359c-0.567-0.002-1.134,0-1.701,0c-0.528,0-1.057-0.003-1.584,0.001
	c-0.271,0.002-0.271,0.008-0.279,0.285c-0.001,0.039,0,0.077,0,0.116c-0.003,5.824-0.006,11.646-0.01,17.471
	c0,0.064,0.005,0.129,0,0.192c-0.014,0.186,0.078,0.248,0.255,0.247c1.146-0.003,2.293-0.004,3.439,0.002
	c0.195,0,0.281-0.065,0.275-0.27c-0.01-0.373-0.003-0.747-0.003-1.12c-0.002-2.049-0.001-4.097-0.009-6.146
	c-0.003-0.643,0.219-1.185,0.675-1.629c0.917-0.892,2.726-0.766,3.192,0.762c0.141,0.46,0.203,0.927,0.203,1.408
	c-0.003,2.217-0.002,4.433,0,6.648c0,0.338,0.004,0.342,0.341,0.342c1.082,0.003,2.164,0.003,3.246,0
	c0.344,0,0.348-0.005,0.348-0.339c0.001-2.46,0.001-4.921-0.001-7.382c0-0.885-0.154-1.744-0.482-2.566
	c-0.338-0.847-0.859-1.552-1.651-2.032c-1.546-0.939-3.946-0.791-5.393,0.674c-0.133,0.135-0.245,0.296-0.499,0.445
	C47.25,47.036,47.25,46.898,47.25,46.761z M64.189,58.04c0.063,0.395,0.07,0.406,0.454,0.407c0.94,0.003,1.881,0.004,2.821,0.002
	c0.364,0,0.376-0.013,0.324-0.37c-0.118-0.805-0.155-1.614-0.155-2.426c0.001-1.585-0.002-3.169-0.001-4.755
	c0.001-0.608-0.069-1.209-0.218-1.797c-0.266-1.055-0.775-1.96-1.683-2.602c-0.812-0.574-1.737-0.842-2.712-0.915
	c-1.055-0.079-2.111-0.045-3.154,0.165c-0.811,0.164-1.597,0.403-2.343,0.765c-0.321,0.156-0.322,0.158-0.228,0.492
	c0.151,0.532,0.301,1.065,0.462,1.594c0.057,0.183,0.035,0.444,0.194,0.527c0.168,0.086,0.341-0.122,0.514-0.195
	c1.181-0.5,2.394-0.779,3.686-0.601c0.847,0.117,1.374,0.564,1.519,1.312c0.067,0.345,0.035,0.392-0.304,0.395
	c-0.541,0.005-1.08,0.022-1.619,0.092c-0.987,0.129-1.954,0.336-2.858,0.767c-1.42,0.676-2.341,1.737-2.557,3.34
	c-0.239,1.786,0.642,3.708,2.679,4.288c1.714,0.488,3.316,0.199,4.7-0.998c0.094-0.081,0.157-0.209,0.351-0.226
	C64.106,57.563,64.151,57.801,64.189,58.04z M63.803,54.045c-0.01,1.209-1.405,2.225-2.71,1.79
	c-0.386-0.128-0.656-0.391-0.795-0.782c-0.284-0.807,0.024-1.62,0.788-2.04c0.563-0.31,1.182-0.422,1.812-0.481
	c0.23-0.021,0.463-0.01,0.694-0.023c0.167-0.009,0.234,0.068,0.234,0.227c-0.001,0.244,0,0.488,0,0.733c0.003,0,0.007,0,0.011,0
	C63.825,53.66,63.804,53.853,63.803,54.045z M22.356,48.982c1.206-0.545,2.456-0.833,3.788-0.649
	c0.873,0.121,1.401,0.589,1.512,1.354c0.043,0.294,0.006,0.347-0.287,0.35c-0.553,0.007-1.104,0.022-1.656,0.094
	c-1.015,0.131-2.003,0.353-2.925,0.807c-1.414,0.697-2.306,1.792-2.482,3.393c-0.181,1.62,0.552,3.25,2.162,4.003
	c1.051,0.491,2.145,0.489,3.247,0.242c0.81-0.181,1.504-0.591,2.102-1.166c0.172-0.166,0.219-0.146,0.264,0.077
	c0.046,0.227,0.085,0.455,0.129,0.683c0.035,0.186,0.117,0.287,0.336,0.285c1.004-0.011,2.009-0.002,3.013-0.007
	c0.25-0.001,0.259-0.02,0.224-0.271c-0.119-0.843-0.166-1.69-0.165-2.541c0.001-1.532-0.003-3.064,0.001-4.598
	c0.002-0.594-0.049-1.183-0.176-1.762c-0.27-1.231-0.861-2.256-1.96-2.933c-0.749-0.461-1.582-0.695-2.449-0.76
	c-1.276-0.095-2.547-0.022-3.794,0.304c-0.624,0.163-1.226,0.385-1.81,0.66c-0.185,0.086-0.234,0.202-0.172,0.396
	c0.105,0.331,0.191,0.667,0.29,1c0.12,0.405,0.244,0.809,0.378,1.251C22.104,49.106,22.229,49.04,22.356,48.982z M27.761,54.324
	c-0.241,1.076-1.401,1.816-2.476,1.571c-1.062-0.241-1.483-1.579-0.768-2.429c0.229-0.271,0.517-0.461,0.844-0.595
	c0.716-0.292,1.467-0.365,2.231-0.364c0.173,0,0.224,0.082,0.22,0.238c-0.005,0.219-0.001,0.438-0.001,0.762
	C27.8,53.71,27.829,54.019,27.761,54.324z M96.094,53.409c1.236,0,2.473-0.001,3.709,0.001c0.367,0.001,0.38-0.066,0.413-0.352
	c0.164-1.402,0.097-2.776-0.408-4.108c-0.58-1.531-1.597-2.634-3.176-3.147c-0.865-0.281-1.76-0.338-2.671-0.249
	c-2.17,0.213-3.792,1.268-4.797,3.188c-1.038,1.982-1.142,4.065-0.411,6.175c0.472,1.363,1.383,2.366,2.668,3.021
	c0.992,0.505,2.058,0.728,3.164,0.767c0.669,0.023,1.337,0,2.005-0.069c0.927-0.097,1.831-0.281,2.705-0.604
	c0.321-0.118,0.322-0.122,0.253-0.481c-0.121-0.632-0.245-1.263-0.368-1.895c-0.085-0.438-0.083-0.43-0.503-0.316
	c-1.29,0.349-2.596,0.54-3.934,0.35c-0.605-0.086-1.179-0.271-1.686-0.625c-0.485-0.338-0.8-0.796-0.932-1.374
	c-0.063-0.277-0.037-0.304,0.258-0.313c0.064-0.002,0.129,0,0.193,0c1.172,0,2.345,0,3.517,0
	C96.094,53.389,96.094,53.398,96.094,53.409z M92.313,50.675c-0.179,0.001-0.265-0.055-0.232-0.25
	c0.145-0.871,0.709-1.966,1.867-2.234c1.232-0.285,2.335,0.426,2.611,1.716c0.163,0.76,0.163,0.76-0.612,0.76
	c-0.271,0-0.541,0-0.812,0c-0.258,0-0.516,0-0.773,0c0,0.002,0,0.004,0,0.005C93.679,50.673,92.996,50.67,92.313,50.675z
	 M39.086,58.451c0.875-0.238,1.657-0.646,2.261-1.338c0.7-0.802,0.932-1.754,0.865-2.801c-0.054-0.859-0.362-1.6-0.965-2.215
	c-0.374-0.381-0.819-0.661-1.294-0.899c-0.543-0.272-1.121-0.454-1.687-0.668c-0.35-0.132-0.691-0.283-1.008-0.483
	c-0.305-0.193-0.487-0.471-0.453-0.837c0.036-0.381,0.27-0.628,0.621-0.769c0.345-0.137,0.705-0.139,1.066-0.127
	c0.798,0.025,1.541,0.267,2.27,0.572c0.236,0.1,0.249,0.098,0.312-0.147c0.178-0.698,0.352-1.397,0.516-2.099
	c0.088-0.38,0.077-0.382-0.297-0.525c-1.134-0.437-2.308-0.61-3.521-0.556c-0.781,0.034-1.537,0.171-2.249,0.491
	c-1.132,0.508-1.981,1.299-2.339,2.521c-0.39,1.332-0.151,2.521,0.883,3.503c0.64,0.607,1.408,0.986,2.222,1.291
	c0.541,0.203,1.103,0.358,1.604,0.659c0.409,0.246,0.595,0.61,0.532,1.029c-0.062,0.406-0.361,0.698-0.835,0.801
	c-0.444,0.097-0.891,0.1-1.344,0.046c-0.904-0.106-1.76-0.366-2.58-0.756c-0.242-0.114-0.274-0.097-0.341,0.165
	c-0.175,0.685-0.344,1.372-0.518,2.058c-0.123,0.486-0.125,0.486,0.33,0.68c0.095,0.041,0.191,0.077,0.288,0.112
	c1.074,0.399,2.184,0.588,3.386,0.56C37.547,58.754,38.323,58.658,39.086,58.451z M87.186,49.304c0-1.597,0.001-3.194,0-4.791
	c0-1.327-0.003-2.653-0.005-3.979c-0.001-0.392-0.002-0.394-0.404-0.394c-0.683-0.001-1.365,0-2.048,0
	c-0.399,0-0.799-0.004-1.198,0.001c-0.269,0.003-0.27,0.009-0.277,0.285c-0.002,0.078,0,0.155,0,0.232
	c-0.007,2.241-0.018,4.482-0.021,6.723c-0.004,3.567-0.004,7.135-0.004,10.703c-0.001,0.362,0.003,0.365,0.359,0.367
	c1.018,0.003,2.035,0.004,3.053,0.004c0.559,0,0.55,0.085,0.55-0.534c0.001-2.872,0.001-5.744,0.001-8.616
	C87.189,49.304,87.188,49.304,87.186,49.304z"/>
</svg>
