<?xml version="1.0" encoding="utf-8"?>
<!DOCTYPE svg PUBLIC "-//W3C//DTD SVG 1.1//EN" "http://www.w3.org/Graphics/SVG/1.1/DTD/svg11.dtd">
<svg version="1.1" id="Layer_1" xmlns="http://www.w3.org/2000/svg" xmlns:xlink="http://www.w3.org/1999/xlink" x="0px" y="0px"
	 width="100px" height="100px" viewBox="0 0 100 100" enable-background="new 0 0 100 100" xml:space="preserve">
<path fill-rule="evenodd" clip-rule="evenodd" d="M43.554,51.595c-0.123-0.06-0.129-0.158-0.161-0.235
	c-4.931-11.593-9.929-23.157-14.762-34.79c-2.874-6.918,1.329-12.87,6.834-14.437c5.943-1.692,12.13,1.761,13.27,8.093
	c0.285,1.589,0.251,3.174,0.022,4.763c-0.288,1.993-0.569,3.986-0.853,5.979c-0.285,2.002-0.569,4.004-0.854,6.006
	c-0.264,1.858-0.527,3.716-0.79,5.574c-0.281,1.984-0.563,3.968-0.845,5.953c-0.265,1.867-0.531,3.733-0.797,5.6
	c-0.284,2.002-0.568,4.004-0.854,6.006C43.697,50.597,43.626,51.088,43.554,51.595z M56.865,51.272
	c1.15-2.734,2.301-5.469,3.453-8.204c1.932-4.588,3.865-9.176,5.797-13.764c1.729-4.102,3.443-8.208,5.188-12.303
	c0.93-2.183,1.365-4.428,0.83-6.769c-0.893-3.903-3.27-6.563-6.979-8.009c-1.805-0.704-3.691-0.716-5.572-0.329
	c-2.518,0.518-4.627,1.745-6.215,3.786c-1.674,2.152-2.262,4.648-2.223,7.33c0.002,0.173,0.08,0.188,0.217,0.187
	c0.676-0.005,1.35,0.001,2.025-0.003c0.475-0.003,0.947-0.004,1.414,0.107c0.277,0.066,0.543,0.158,0.748,0.369
	c0.195,0.2,0.193,0.279-0.047,0.413c-0.389,0.217-0.787,0.419-1.188,0.618c-1.32,0.657-2.102,1.697-2.309,3.171
	c-0.125,0.886-0.076,1.758,0.063,2.637c0.244,1.546,0.463,3.096,0.693,4.644c0.225,1.512,0.453,3.024,0.68,4.536
	c0.248,1.665,0.496,3.331,0.744,4.996c0.225,1.512,0.453,3.023,0.68,4.536c0.248,1.665,0.496,3.33,0.744,4.995
	c0.209,1.404,0.418,2.808,0.627,4.212c0.154,1.034,0.311,2.067,0.477,3.182C56.783,51.454,56.826,51.364,56.865,51.272z
	 M43.354,55.47c0.053-0.12-0.037-0.208-0.078-0.302c-1.066-2.445-2.137-4.889-3.206-7.333c-3.489-7.974-6.975-15.95-10.472-23.921
	c-0.516-1.174-0.939-2.395-1.622-3.49c-2.378-3.814-5.741-5.74-10.3-5.238c-2.284,0.251-4.299,1.222-5.987,2.761
	c-3.114,2.837-4.226,7.61-2.758,11.554c0.868,2.332,2.443,4.096,4.472,5.484c8.854,6.06,17.709,12.118,26.563,18.177
	c1.128,0.771,2.261,1.535,3.392,2.304L43.354,55.47z M59.934,79.825c2.158-1.509,3.459-3.539,3.699-6.186
	c0.152-1.703-0.07-3.367-0.918-4.871c-1.664-2.947-4.334-4.355-7.611-4.438c-4.65-0.116-9.304-0.027-13.958-0.035
	c-0.238,0-0.301,0.053-0.301,0.299c0.007,10.91,0.007,21.822,0.001,32.732c0,0.225,0.054,0.285,0.282,0.285
	c5.282-0.006,10.565-0.004,15.846-0.006c0.68,0,1.342-0.105,1.992-0.299c3.508-1.047,6.93-4.791,6.471-9.512
	c-0.287-2.934-1.594-5.256-3.979-6.979c-0.494-0.357-1.023-0.658-1.568-0.938C59.914,79.851,59.92,79.834,59.934,79.825z
	 M47.823,83.661c-0.002-0.219,0.059-0.271,0.272-0.27c1.887,0.008,3.774,0.002,5.661,0.006c2.086,0.004,3.949,1.818,4.063,3.896
	c0.148,2.744-1.762,4.27-3.689,4.661c-0.15,0.03-0.307,0.038-0.461,0.038c-1.859,0.002-3.72-0.003-5.58,0.007
	c-0.22,0.001-0.268-0.062-0.266-0.271c0.01-1.341,0.005-2.682,0.005-4.021C47.828,86.359,47.833,85.011,47.823,83.661z
	 M47.729,70.153c-0.001-0.183,0.032-0.245,0.232-0.244c1.568,0.01,3.136-0.002,4.707,0.008c1.758,0.009,3.4,1.241,3.744,2.875
	c0.457,2.168-0.699,4.498-3.355,4.942c-0.07,0.012-0.145,0.009-0.217,0.009c-1.625,0.001-3.248-0.002-4.871,0.006
	c-0.188,0-0.242-0.04-0.24-0.236c0.01-1.23,0.005-2.462,0.005-3.693C47.734,72.598,47.738,71.376,47.729,70.153z M57.203,55.202
	C65.49,49.5,73.781,43.799,82.066,38.09c1.768-1.218,3.602-2.351,5.281-3.686c3.445-2.735,5.004-6.26,4.152-10.67
	c-0.502-2.59-1.842-4.721-3.928-6.322c-2.166-1.662-4.658-2.351-7.387-2.167c-1.637,0.11-3.143,0.618-4.516,1.51
	c-1.957,1.27-3.32,3.047-4.262,5.143c-1.238,2.759-2.414,5.546-3.609,8.324c-2.68,6.221-5.354,12.443-8.029,18.665
	c-0.918,2.136-1.838,4.271-2.777,6.456C57.098,55.273,57.15,55.238,57.203,55.202z M44.671,58.886
	c-9.157-6.379-18.313-12.757-27.471-19.135c-0.895-0.624-1.852-1.128-2.875-1.501c-2.871-1.048-5.729-1.077-8.483,0.334
	c-4.068,2.085-6.574,6.515-5.65,11.616c0.937,5.175,5.335,8.863,10.596,8.872c11.303,0.019,22.605,0.007,33.908,0.008
	c0.053,0,0.104,0,0.241,0C44.803,58.981,44.738,58.933,44.671,58.886z M55.65,59.065c11.486,0,22.971,0.002,34.457-0.006
	c1.334-0.001,2.611-0.303,3.83-0.857c4.479-2.041,6.762-7.194,5.873-11.875c-0.449-2.366-1.6-4.341-3.373-5.942
	c-2.303-2.077-5.004-3.031-8.107-2.687c-1.852,0.205-3.525,0.919-5.051,1.979c-6.664,4.64-13.328,9.284-19.992,13.927
	c-2.592,1.807-5.184,3.611-7.838,5.461C55.564,59.065,55.607,59.065,55.65,59.065z M8.947,63.258
	c-0.001,11.358,0,22.717-0.007,34.075c0,0.234,0.068,0.281,0.289,0.279c2.153-0.008,4.307-0.01,6.46,0.002
	c0.266,0.002,0.325-0.064,0.325-0.326c-0.009-6.168-0.007-12.336-0.006-18.502c0-0.098-0.026-0.199,0.041-0.325
	c6.979,6.797,13.949,13.583,20.949,20.399c0.006-0.09,0.01-0.117,0.01-0.145c0-11.394-0.001-22.789,0.005-34.184
	c0-0.2-0.063-0.234-0.247-0.234c-2.171,0.006-4.342,0.008-6.514-0.002c-0.251-0.002-0.311,0.064-0.31,0.313
	c0.007,6.012,0.006,12.023,0.006,18.036c0,0.097,0,0.192,0,0.345C22.939,76.3,15.973,69.651,8.991,62.987
	C8.921,63.096,8.947,63.18,8.947,63.258z M91.367,64.958c0-0.154-0.051-0.221-0.189-0.275c-3.451-1.335-6.988-1.689-10.594-0.803
	c-5.26,1.293-9.197,4.371-11.869,9.064c-1.166,2.049-1.844,4.266-2.049,6.623c-0.123,1.393,0,2.77,0.225,4.141
	c0.572,3.499,1.934,6.649,4.264,9.34c3.17,3.662,7.201,5.635,12.033,5.922c2.748,0.162,5.406-0.33,7.98-1.291
	c0.154-0.059,0.199-0.131,0.199-0.291c-0.006-2.125-0.004-4.25-0.004-6.375c0-0.052,0-0.104,0-0.184
	c-0.098,0.051-0.168,0.086-0.236,0.125c-2.648,1.507-5.471,1.997-8.459,1.398c-2.406-0.48-4.469-1.615-6.066-3.488
	c-2.381-2.791-3.143-6.077-2.668-9.648c0.348-2.623,1.523-4.891,3.502-6.658c3.447-3.081,7.383-3.906,11.77-2.316
	c0.754,0.273,1.447,0.668,2.158,1.117C91.363,69.19,91.361,67.075,91.367,64.958z M43.358,55.465
	c0.011,0.008,0.021,0.017,0.032,0.024c0-0.008,0-0.015-0.001-0.021c-0.012,0-0.023,0.002-0.035,0.002L43.358,55.465z"/>
</svg>
