<?xml version="1.0" encoding="utf-8"?>
<!DOCTYPE svg PUBLIC "-//W3C//DTD SVG 1.1//EN" "http://www.w3.org/Graphics/SVG/1.1/DTD/svg11.dtd">
<svg version="1.1" id="Layer_1" xmlns="http://www.w3.org/2000/svg" xmlns:xlink="http://www.w3.org/1999/xlink" x="0px" y="0px"
	 width="100px" height="100px" viewBox="0 0 100 100" enable-background="new 0 0 100 100" xml:space="preserve">
<path fill-rule="evenodd" clip-rule="evenodd" d="M85.167,70.154C73.429,66.478,67.079,54.42,70.979,43.273
	c3.808-10.88,16.591-17.153,27.544-13.55c1.04,0.342,1.537,0.787,1.471,1.991c0,0,0.006,4.312,0.006,6.707
	c-3.995-2.279-8.023-2.887-12.209-1.435c-2.871,0.997-5.185,2.757-6.896,5.269c-3.52,5.166-3.153,11.857,0.886,16.654
	c4.32,5.132,10.626,6.127,18.22,2.746c0,0.936,0,2.656,0,2.656s0.024,2.259,0,3.391c-0.051,2.312,0.434,1.823-2.11,2.668
	C96.744,70.751,90.458,72.125,85.167,70.154z M38.969,69.874c6.21,0.004,12.424,0.133,18.63-0.041
	c5.036-0.141,9.11-3.78,10.216-8.668c1.138-5.032-0.858-9.424-5.474-12.046c-0.289-0.164-0.563-0.355-0.549-0.347
	c1.208-1.65,2.745-3.078,3.453-4.839c2.552-6.347-1.862-13.231-8.904-13.675c-5.78-0.364-11.597-0.155-17.396-0.193
	c-0.172-0.001-0.344,0.082-0.568,0.141c0,13.187,0,26.351,0,39.551C38.627,69.809,38.798,69.874,38.969,69.874z M46.688,52.54
	c2.923,0,5.781-0.217,8.59,0.063c2.65,0.264,4.58,2.958,4.526,5.641c-0.058,2.819-2.129,5.296-4.999,5.524
	c-2.645,0.212-5.319,0.045-8.117,0.045C46.688,59.965,46.688,56.276,46.688,52.54z M53.343,36.236
	c2.549,0.191,4.473,2.429,4.533,4.956c0.059,2.47-1.698,4.777-4.203,5.085c-2.099,0.258-7.048,0.098-7.048,0.098l0.017-0.555
	c0,0-0.029-6.318-0.029-9.617C49.01,36.203,51.188,36.074,53.343,36.236z M33.509,30.246c-2.789,0-5.477,0-8.316,0
	c0,7.324,0,14.534,0,22.012C16.706,44.526,8.439,36.996,0,29.307c0,13.709,0,27.062,0,40.489c2.74,0,5.385,0,8.188,0
	c0-7.311,0-14.53,0-22.132c8.551,7.79,16.823,15.327,25.32,23.068C33.509,57.017,33.509,43.638,33.509,30.246z"/>
</svg>
