<?xml version="1.0" encoding="utf-8"?>
<!-- Generator: Adobe Illustrator 16.0.0, SVG Export Plug-In . SVG Version: 6.00 Build 0)  -->
<!DOCTYPE svg PUBLIC "-//W3C//DTD SVG 1.1//EN" "http://www.w3.org/Graphics/SVG/1.1/DTD/svg11.dtd">
<svg version="1.1" id="Layer_1" xmlns="http://www.w3.org/2000/svg" xmlns:xlink="http://www.w3.org/1999/xlink" x="0px" y="0px"
	 width="100px" height="100px" viewBox="0 0 100 100" enable-background="new 0 0 100 100" xml:space="preserve">
<path fill-rule="evenodd" clip-rule="evenodd" d="M14.124,42.63c0,0.142,0,0.296,0,0.451c0,5.095,0.002,10.19-0.008,15.285
	c0,0.183-0.072,0.478-0.189,0.524c-0.262,0.104-0.463-0.063-0.609-0.33c-2.578-4.711-5.166-9.417-7.751-14.125
	c-0.263-0.478-0.526-0.955-0.844-1.533c0,3.796,0,7.485,0,11.135c0.632,0.241,1.288,0.421,1.874,0.732
	c0.575,0.307,1.078,0.748,1.64,1.149c0.313-0.221,0.515-0.682,0.912-0.898c0.042,0.045,0.083,0.09,0.124,0.135
	c-1.12,1.24-2.24,2.479-3.387,3.75c-0.542-0.592-1.129-1.06-1.915-1.193c-0.488-0.083-0.948-0.024-1.344,0.3
	c-0.888,0.727-0.766,1.914,0.273,2.494c0.308,0.172,0.659,0.267,0.983,0.395c-1.389,0.299-2.657-0.423-3.268-1.274
	c-0.823-1.15-0.769-2.344-0.148-3.536c0.668-1.283,1.838-1.796,3.207-1.953c0.241-0.028,0.484-0.044,0.76-0.068
	c0-1.086,0-2.148,0-3.212c0-0.375,0-0.749-0.001-1.123c0-0.584-0.125-0.682-0.724-0.567c-0.763,0.146-1.13,0.527-0.988,1.088
	c0.061,0.237,0.233,0.446,0.349,0.655c-1.114,0.041-1.833-1.198-1.962-2.194c-0.203-1.565,0.737-2.4,3.321-2.887
	c0-1.095,0.101-2.212-0.038-3.298c-0.083-0.652-0.599-1.212-1.313-1.419c-0.429-0.124-0.812,0.008-1.045,0.403
	c-0.173,0.292-0.293,0.614-0.485,1.026c-0.105-1.259-0.061-2.376,0.783-3.304c1.232-1.356,3.211-1.365,4.441,0.018
	c0.405,0.456,0.721,1.002,1.019,1.54c1.978,3.569,3.938,7.147,5.904,10.722c0.033,0.06,0.077,0.115,0.161,0.24
	c0-3.092,0-6.11,0-9.172c-1.11-0.02-2.059-0.448-2.888-1.227c-0.329,0.368-0.646,0.722-0.963,1.076
	c-0.038-0.017-0.076-0.034-0.114-0.05c0.02-0.086,0.011-0.196,0.062-0.254c1.075-1.235,2.157-2.465,3.238-3.696
	c1.654,1.561,3.628,1.292,4.063-0.577c0.524,0.712,0.388,2.106-0.309,3.153C16.34,41.92,15.813,42.227,14.124,42.63z M36.739,58.773
	c1.883-1.161,3.769-2.319,5.641-3.499c0.127-0.08,0.212-0.323,0.213-0.491c0.014-2.058,0.002-4.114,0.021-6.172
	c0.002-0.194,0.116-0.438,0.259-0.574c0.573-0.544,1.18-1.054,1.771-1.579c0.096-0.085,0.178-0.186,0.267-0.279
	c-0.04-0.048-0.08-0.096-0.12-0.144c-0.353,0.295-0.704,0.59-1.061,0.889c-0.879-0.724-1.72-1.417-2.584-2.129
	c-0.938,0.857-1.856,1.698-2.751,2.516c0.218,0.234,0.39,0.473,0.613,0.647c0.338,0.264,0.438,0.577,0.434,1
	c-0.019,2.489-0.015,4.978-0.002,7.466c0.002,0.338-0.092,0.543-0.438,0.624c-0.685-0.565-1.383-1.121-2.051-1.71
	c-0.146-0.129-0.265-0.374-0.268-0.567c-0.02-1.784,0.034-3.57-0.03-5.353c-0.032-0.891,0.104-1.634,0.841-2.192
	c0.053-0.039,0.083-0.107,0.139-0.183c-0.854-0.754-1.689-1.493-2.537-2.241c-0.94,0.832-1.854,1.639-2.789,2.466
	c0.249,0.242,0.462,0.479,0.705,0.677c0.292,0.238,0.386,0.517,0.383,0.895c-0.017,2.316-0.021,4.633,0.005,6.948
	c0.005,0.449-0.17,0.685-0.546,0.855c-0.572-0.456-1.146-0.891-1.687-1.362c-0.146-0.128-0.27-0.372-0.271-0.563
	c-0.019-2.288-0.021-4.576-0.007-6.864c0.004-0.666-0.221-1.212-0.71-1.643c-0.28-0.247-0.59-0.458-0.89-0.681
	c-0.345-0.258-0.717-0.485-1.034-0.774c-0.758-0.691-0.762-1.529-0.035-2.253c0.081-0.081,0.201-0.123,0.303-0.183
	c-1.347-0.097-2.782,0.991-3.098,2.239c-0.311,1.23,0.096,2.237,1.104,2.998c0.826,0.623,1.153,1.451,1.136,2.475
	c-0.027,1.684-0.066,3.37,0.016,5.05c0.043,0.89-0.158,1.52-0.975,1.915c-0.109,0.053-0.179,0.19-0.267,0.289
	c0.033,0.036,0.066,0.071,0.101,0.107c0.402-0.282,0.805-0.564,1.227-0.86c0.926,0.768,1.841,1.526,2.777,2.303
	c1.017-0.803,2.018-1.593,3.026-2.391c1.027,0.811,2.031,1.602,3.024,2.385C36.658,58.804,36.703,58.796,36.739,58.773z
	 M86.696,40.75c0.681,0.174,0.927,0.628,1.039,1.171c0.061,0.293,0.095,0.598,0.095,0.897c0.005,4.199,0.005,8.398-0.007,12.598
	c0,0.16-0.091,0.361-0.207,0.474c-0.382,0.369-0.8,0.702-1.193,1.06c-0.086,0.078-0.131,0.202-0.195,0.305
	c0.04,0.03,0.079,0.061,0.119,0.091c0.31-0.267,0.619-0.533,0.95-0.816c0.796,0.745,1.578,1.478,2.371,2.22
	c1.147-0.998,2.266-1.968,3.378-2.944c0.057-0.05,0.063-0.158,0.094-0.239c-0.036-0.022-0.071-0.046-0.107-0.068
	c-0.287,0.243-0.574,0.486-0.794,0.672c-0.351-0.317-0.685-0.576-0.96-0.887c-0.137-0.152-0.235-0.399-0.235-0.604
	c-0.012-4.801-0.008-9.603-0.007-14.404c0-0.828,0-1.657,0-2.571C89.562,38.738,88.161,39.722,86.696,40.75z M78.741,48.616
	c0.091,0.13,0.146,0.313,0.147,0.473c0.009,2.088,0.012,4.175-0.005,6.262c-0.001,0.17-0.113,0.375-0.237,0.502
	c-0.333,0.338-0.703,0.636-1.048,0.963c-0.066,0.062-0.08,0.179-0.118,0.27c0.093-0.023,0.21-0.019,0.275-0.075
	c0.269-0.232,0.522-0.482,0.796-0.739c0.919,0.835,1.811,1.646,2.719,2.47c1.206-1.007,2.396-1.999,3.59-2.996
	c-0.054-0.06-0.104-0.121-0.107-0.118c-0.404,0.274-0.806,0.553-1.211,0.835c-0.323-0.282-0.624-0.574-0.955-0.825
	c-0.278-0.211-0.376-0.455-0.374-0.805c0.015-2.314,0.008-4.63,0.01-6.944c0-0.116,0.017-0.231,0.029-0.401
	c0.647,0.675,1.311,1.158,2.233,1.056c1.455-0.163,2.645-1.928,2.391-3.62c-0.872,1.003-1.769,0.804-2.628,0.11
	c-0.745,0.714-1.47,1.409-2.223,2.131c-0.63-0.757-1.26-1.515-1.908-2.295c-1.138,1.019-2.25,2.013-3.356,3.015
	c-0.05,0.046-0.036,0.163-0.053,0.246c0.03,0.011,0.061,0.021,0.091,0.031c0.313-0.269,0.627-0.537,0.97-0.832
	C78.106,47.771,78.438,48.185,78.741,48.616z M94.894,45.047c-1.173,1.706-2.337,3.419-3.524,5.114
	c-0.188,0.268-0.191,0.448-0.021,0.717c1.225,1.931,2.434,3.87,3.647,5.807c0.418,0.666,0.834,1.332,1.27,2.027
	c1.25-1.092,2.463-2.148,3.668-3.212c0.055-0.049,0.047-0.171,0.067-0.259c-0.03-0.011-0.062-0.021-0.092-0.032
	c-0.358,0.307-0.715,0.613-1.088,0.934c-1.808-2.729-3.597-5.424-5.369-8.129c-0.082-0.126-0.01-0.353-0.01-0.62
	c1.226,0.797,2.401,1.344,3.69,0.59c1.201-0.703,1.564-1.932,1.806-3.26c-1.517,1.238-2.505,1.105-3.797-0.01
	C95.045,44.841,94.966,44.941,94.894,45.047z M38.31,70.086c-0.854,0.784-1.663,1.529-2.495,2.294
	c0.69,0.764,1.349,1.491,2.026,2.241c0.846-0.768,1.662-1.508,2.513-2.279C39.655,71.571,38.987,70.834,38.31,70.086z
	 M57.198,38.814c0,6.454,0,12.908,0,19.382c-0.736-0.148-1.379-0.277-2.071-0.417c0-0.173,0-0.356,0-0.539
	c0-5.151,0.003-10.303-0.002-15.455c-0.002-1.767-0.889-2.816-2.63-3.059c-1.372-0.191-2.385,0.448-3.165,1.522
	c-0.366,0.505-0.544,1.069-0.508,1.736c0.183-0.33,0.305-0.64,0.502-0.893c0.521-0.672,1.478-0.585,1.841,0.184
	c0.16,0.339,0.24,0.743,0.249,1.12c0.029,1.31,0.012,2.62,0.012,3.93c0,0.225,0,0.451,0,0.677c-0.321,0.054-0.591,0.088-0.856,0.144
	c-1.83,0.386-2.74,2.05-1.994,3.64c0.325,0.691,0.998,1.129,1.645,1.068c-0.528-0.512-0.627-0.766-0.416-1.173
	c0.229-0.443,0.666-0.509,1.102-0.552c0.361-0.035,0.534,0.085,0.53,0.506c-0.021,2.231-0.024,4.463,0.001,6.694
	c0.005,0.468-0.105,0.722-0.556,0.94c-0.979,0.478-1.731,1.204-1.883,2.356c-0.3,2.279,1.253,4.022,3.55,4.054
	c1.41,0.02,2.764-0.308,4.135-0.558c1.213-0.221,2.432-0.435,3.657-0.552c0.759-0.072,1.185,0.479,1.018,1.232
	c-0.076,0.344-0.326,0.652-0.516,0.965c-0.055,0.091-0.175,0.142-0.265,0.21c0.861-0.082,1.58-0.392,2.175-0.94
	c1.402-1.297,1.194-3.486-0.404-4.524c-0.763-0.495-1.602-0.673-2.472-0.553c-1.834,0.254-3.656,0.599-5.49,0.852
	c-0.861,0.119-1.748,0.208-2.607,0.135c-0.9-0.077-1.349-1.083-0.962-1.908c0.299-0.64,0.866-0.903,1.511-1.014
	c1.446-0.248,2.865-0.009,4.274,0.296c1.178,0.254,2.34,0.616,3.528,0.77c1.411,0.183,3.115-0.296,3.358-2.334
	c0.045-0.371,0.07-0.745,0.071-1.118c0.005-4.73,0-9.461,0.015-14.191c0.001-0.194,0.13-0.426,0.27-0.572
	c0.294-0.305,0.636-0.564,0.957-0.843c-0.029-0.043-0.06-0.085-0.089-0.128c-0.521,0.153-0.793,0.707-1.283,0.943
	c-0.844-0.747-1.683-1.488-2.533-2.241c-1.152,0.924-2.287,1.833-3.422,2.742c-0.037-0.018-0.075-0.036-0.112-0.053
	c0-0.828,0-1.657,0-2.485C57.307,38.811,57.253,38.813,57.198,38.814z M57.4,52.89c0-0.646,0-1.294-0.001-1.941
	c-0.002-0.788,0.688-1.347,1.479-1.195c0.709,0.136,0.996,0.479,0.996,1.189c0.001,1.813,0.005,3.625-0.001,5.438
	c-0.004,1.333-1.162,2.231-2.474,1.87C57.4,56.454,57.4,54.672,57.4,52.89z M59.77,42.553c0.271,0.582,0.096,1.374,0.104,2.074
	c0.009,0.704,0.001,1.408,0.002,2.111c0.001,0.716-0.572,1.227-1.302,1.158c-0.774-0.072-1.173-0.504-1.173-1.267
	c0.001-1.408,0.022-2.815-0.012-4.223c-0.012-0.493,0.083-0.861,0.536-1.097c0.101-0.052,0.184-0.136,0.291-0.218
	C58.775,41.591,59.497,41.967,59.77,42.553z M59.854,49.87c-0.825-0.577-1.621-0.581-2.431,0.047c0-0.754,0-1.444,0-2.207
	c0.816,0.62,1.61,0.627,2.431,0.014C59.854,48.463,59.854,49.139,59.854,49.87z M32.91,25.011c1.297-0.65,2.59-1.311,3.896-1.942
	c0.28-0.136,0.36-0.298,0.359-0.593c-0.011-2.432-0.006-4.863-0.008-7.294c0-0.123-0.012-0.245-0.021-0.423
	c-1.921,0.854-3.796,1.688-5.742,2.554c0.59-1.526,1.583-2.578,2.872-3.389c-0.199-0.003-0.37,0.021-0.531,0.074
	c-3.552,1.176-6.176,4.596-6.089,8.272c0.104,4.366,3.381,7.925,7.753,8.087c3.361,0.125,6.865-1.844,7.641-6.188
	c0.086-0.485,0.082-0.987,0.119-1.481c-1.002,1.71-2.209,3.127-3.154,3.555c-0.01-0.135-0.023-0.259-0.024-0.384
	c-0.001-1.409,0.008-2.818-0.007-4.228c-0.003-0.303,0.086-0.504,0.328-0.687c0.511-0.384,0.997-0.797,1.517-1.217
	c-0.447-0.365-0.823-0.731-1.256-1.009c-0.482-0.31-0.619-0.705-0.598-1.255c0.038-0.984,0.011-1.971,0.011-2.944
	c1.49-0.152,2.701-0.661,3.227-2.123c0.406-1.13,0.424-2.277-0.528-3.161c-0.895-0.83-1.997-1.121-3.302-0.884
	c0.499,0.136,0.923,0.213,1.313,0.369c0.455,0.181,0.757,0.695,0.715,1.085c-0.044,0.407-0.379,0.816-0.884,0.879
	c-0.472,0.059-0.984,0.053-1.438-0.071c-1.648-0.449-3.276-0.971-4.918-1.441c-0.859-0.247-1.73-0.405-2.638-0.218
	c-2.16,0.446-3.471,2.277-3.073,4.313c0.147,0.751,0.854,1.759,1.672,1.816c-0.552-0.55-0.623-1.162-0.265-1.818
	c0.321-0.587,0.946-0.84,1.75-0.733c0.129,0.017,0.259,0.03,0.384,0.063c2.57,0.659,5.141,1.321,7.758,1.994
	c0,1.056,0.011,2.177-0.012,3.297c-0.004,0.183-0.114,0.412-0.251,0.534c-0.5,0.447-1.032,0.858-1.58,1.307
	c0.547,0.446,1.066,0.852,1.562,1.286c0.133,0.117,0.267,0.318,0.269,0.483c0.021,1.554,0.019,3.108,0.003,4.663
	c-0.002,0.14-0.104,0.345-0.22,0.408c-2.217,1.196-5.069,0.909-6.991-1.357C32.659,25.142,32.784,25.074,32.91,25.011z
	 M30.871,21.67c-0.24-1.253-0.107-2.492,0.275-3.702c0.047-0.148,0.158-0.325,0.288-0.389c0.683-0.332,1.381-0.631,2.155-0.978
	c0,0.333,0,0.611,0,0.89c0,2.186-0.004,4.371,0.003,6.556c0.001,0.241-0.051,0.401-0.295,0.499
	c-0.316,0.127-0.618,0.292-0.954,0.456C31.578,23.995,31.104,22.881,30.871,21.67z M23.396,76.399
	c0.593-1.531,1.586-2.575,2.864-3.392c-0.216,0.002-0.4,0.032-0.574,0.091c-3.589,1.218-6.7,4.888-5.905,9.602
	c0.92,5.453,7.107,8.664,12.099,5.505c1.962-1.242,2.9-3.127,3.217-5.364c0.051-0.354,0.007-0.722,0.007-1.21
	c-0.731,1.6-1.707,2.819-3.126,3.772c0-1.693-0.005-3.303,0.01-4.911c0.002-0.126,0.123-0.28,0.23-0.372
	c0.521-0.441,1.057-0.866,1.603-1.31c-0.24-0.197-0.42-0.399-0.644-0.52c-1.022-0.546-1.361-1.376-1.219-2.511
	c0.091-0.718,0.017-1.456,0.017-2.171c1.554-0.176,2.795-0.719,3.285-2.288c0.358-1.145,0.304-2.26-0.678-3.084
	c-0.897-0.754-1.962-1.053-3.147-0.803c0.473,0.147,0.944,0.239,1.362,0.441c0.407,0.196,0.662,0.571,0.584,1.06
	c-0.074,0.459-0.384,0.747-0.826,0.833c-0.317,0.062-0.664,0.095-0.977,0.033c-0.689-0.135-1.368-0.326-2.045-0.514
	c-1.534-0.426-3.046-0.947-4.601-1.274c-1.981-0.418-4.065,0.992-4.477,2.887c-0.294,1.357,0.233,2.654,1.301,3.192
	c0.085,0.043,0.184,0.059,0.347,0.109c-0.548-0.789-0.594-1.28-0.213-1.905c0.404-0.666,1.048-0.74,1.736-0.678
	c0.171,0.015,0.341,0.056,0.508,0.099c1.653,0.432,3.303,0.875,4.958,1.295c0.871,0.222,1.753,0.405,2.65,0.61
	c0,1.114-0.011,2.222,0.008,3.328c0.005,0.279-0.09,0.448-0.302,0.612c-0.517,0.397-1.016,0.816-1.547,1.247
	c0.56,0.457,1.083,0.862,1.574,1.303c0.137,0.123,0.253,0.35,0.255,0.529c0.021,1.511,0.003,3.022,0.021,4.533
	c0.004,0.296-0.108,0.443-0.353,0.559c-2.39,1.125-4.798,0.698-6.723-1.223c-0.055-0.055-0.085-0.133-0.142-0.226
	c1.431-0.717,2.823-1.43,4.233-2.108c0.314-0.15,0.399-0.329,0.394-0.657c-0.019-1.166-0.007-2.332-0.007-3.498
	c0-1.366,0-2.731,0-4.187C27.215,74.699,25.351,75.529,23.396,76.399z M22.795,78.824c0.225-2.015,0.243-2.014,2.086-2.821
	c0.219-0.097,0.439-0.188,0.717-0.306c0,0.199,0,0.338,0,0.476c0,2.299-0.005,4.599,0.006,6.897c0.002,0.29-0.055,0.477-0.352,0.586
	c-0.306,0.112-0.591,0.278-0.923,0.439C23.226,82.486,22.576,80.776,22.795,78.824z M54.438,86.521
	c-0.139-0.145-0.272-0.316-0.437-0.451c-0.376-0.308-0.473-0.683-0.469-1.168c0.019-2.07,0.015-4.142-0.035-6.211
	c-0.015-0.585,0.271-0.844,0.714-1.08c0.499,0.548,0.972,1.089,1.47,1.607c0.233,0.243,0.335,0.491,0.33,0.837
	c-0.019,1.583-0.029,3.166,0.003,4.749c0.012,0.578-0.043,1.079-0.556,1.431c-0.02,0.013-0.024,0.05-0.042,0.089
	c0.85,0.921,1.702,1.846,2.573,2.791c1.188-1.1,2.325-2.153,3.464-3.207c-0.043-0.054-0.085-0.107-0.127-0.162
	c-0.293,0.239-0.586,0.478-0.893,0.728c-0.364-0.403-0.723-0.777-1.05-1.176c-0.106-0.13-0.188-0.324-0.189-0.49
	c-0.013-2.129-0.014-4.259,0.002-6.388c0.002-0.166,0.12-0.37,0.248-0.487c0.301-0.276,0.641-0.511,0.964-0.763
	c-0.034-0.058-0.068-0.115-0.103-0.173c-0.456,0.237-0.824,0.635-1.284,0.904c-0.787-0.881-1.562-1.745-2.341-2.615
	c-1.134,0.897-2.235,1.769-3.349,2.65c-0.811-0.874-1.587-1.712-2.362-2.55c-1.101,0.858-2.161,1.687-3.235,2.524
	c-0.808-0.854-1.587-1.678-2.381-2.518c-1.116,0.973-2.212,1.922-3.3,2.881c-0.057,0.05-0.048,0.172-0.07,0.261
	c0.028,0.01,0.058,0.019,0.086,0.027c0.349-0.29,0.696-0.581,1.054-0.879c0.461,0.518,0.906,0.987,1.311,1.489
	c0.138,0.172,0.239,0.426,0.242,0.644c0.021,1.583-0.02,3.168,0.025,4.749c0.02,0.704-0.054,1.302-0.71,1.691
	c-0.02,0.013-0.027,0.045-0.051,0.09c0.812,0.917,1.627,1.84,2.486,2.812c0.832-0.888,1.635-1.744,2.455-2.621
	c-0.151-0.161-0.336-0.404-0.566-0.591c-0.348-0.282-0.432-0.62-0.427-1.056c0.021-2.073,0.034-4.146-0.007-6.218
	c-0.011-0.56,0.238-0.824,0.671-1.062c0.541,0.628,1.074,1.229,1.581,1.854c0.104,0.128,0.146,0.339,0.146,0.512
	c0.011,1.627-0.018,3.253,0.018,4.879c0.014,0.614-0.07,1.132-0.606,1.497c-0.019,0.013-0.021,0.048-0.047,0.11
	c0.75,0.845,1.513,1.702,2.277,2.562C52.774,88.177,53.597,87.358,54.438,86.521z M48.746,26.79c-0.104-0.135-0.2-0.321-0.201-0.484
	c-0.013-2.286-0.011-4.573-0.003-6.859c0-0.129,0.04-0.297,0.127-0.381c0.285-0.277,0.6-0.523,0.925-0.8
	c0.506,0.635,0.993,1.238,1.469,1.85c0.063,0.082,0.101,0.208,0.1,0.313c-0.024,2.892-0.002,5.786-0.105,8.675
	c-0.063,1.799-0.909,3.153-2.74,3.715c-0.026,0.008-0.038,0.06-0.06,0.095c2.589,0.601,5.313-1.03,5.909-3.632
	c0.231-1.009,0.24-2.081,0.259-3.125c0.04-2.201,0.027-4.404,0.016-6.606c-0.002-0.325,0.084-0.534,0.355-0.707
	c0.274-0.175,0.521-0.392,0.787-0.596c-0.057-0.063-0.104-0.125-0.109-0.122c-0.384,0.236-0.763,0.477-1.162,0.73
	c-0.832-0.922-1.674-1.855-2.527-2.802c-1.084,0.929-2.128,1.825-3.257,2.793c0-3.214,0-6.33,0-9.54
	c-1.417,1.097-2.747,2.126-4.127,3.193c0.618,0.245,0.811,0.66,0.81,1.221c-0.007,4.275-0.001,8.55-0.015,12.825
	c-0.001,0.176-0.124,0.403-0.263,0.518c-0.47,0.39-0.973,0.741-1.463,1.107c0.021,0.038,0.041,0.075,0.062,0.112
	c0.379,0.016,0.571-0.395,0.93-0.49c0.756,0.697,1.522,1.404,2.303,2.124c1.239-1.007,2.478-1.942,3.662-2.941
	c-0.042-0.054-0.083-0.107-0.124-0.16c-0.286,0.211-0.573,0.422-0.912,0.671C49.169,27.253,48.938,27.037,48.746,26.79z
	 M66.554,47.604c-0.265,0.137-0.366,0.27-0.365,0.571c0.015,2.376,0.003,4.751,0.015,7.127c0.002,0.286-0.075,0.485-0.303,0.657
	c-0.229,0.173-0.432,0.381-0.646,0.573c0.038,0.05,0.075,0.1,0.113,0.149c0.319-0.241,0.638-0.483,0.969-0.733
	c1.125,0.947,2.244,1.89,3.328,2.803c1.873-1.044,3.7-2.072,5.54-3.079c0.269-0.147,0.343-0.311,0.341-0.604
	c-0.013-1.929,0.024-3.858-0.021-5.787c-0.018-0.775,0.048-1.442,0.779-1.881c0.082-0.05,0.11-0.19,0.163-0.288
	c-0.035-0.025-0.071-0.052-0.106-0.077c-0.336,0.296-0.672,0.592-1.01,0.891c-1.215-1.055-2.398-2.082-3.549-3.08
	C70.014,45.791,68.29,46.71,66.554,47.604z M71.762,48.591c0.439,0.369,0.574,0.769,0.566,1.332
	c-0.033,2.185-0.013,4.369-0.012,6.554c0,0.142,0,0.283,0,0.484c-0.122-0.075-0.209-0.112-0.275-0.172
	c-0.789-0.712-1.58-1.422-2.356-2.147c-0.11-0.104-0.208-0.286-0.209-0.433c-0.013-2.486-0.01-4.971-0.009-7.457
	c0-0.051,0.016-0.103,0.035-0.226C70.285,47.248,70.998,47.95,71.762,48.591z M74.053,89.566c-0.424-0.442-0.35-0.976,0.159-1.32
	c0.389-0.263,0.82-0.321,1.225-0.092c0.467,0.265,0.896,0.596,1.312,0.877c1.591-0.963,3.214-1.939,4.826-2.934
	c0.1-0.061,0.163-0.257,0.164-0.39c0.012-1.367,0.015-2.735-0.003-4.103c-0.002-0.155-0.102-0.354-0.222-0.457
	c-0.629-0.538-1.279-1.051-1.935-1.583c0.177-0.221,0.332-0.408,0.481-0.601c0.646-0.834,1.231-1.705,1.463-2.756
	c0.115-0.522,0.122-1.046-0.174-1.572c-0.222,1.463-1.453,1.988-2.639,1.158c-0.258-0.18-0.483-0.405-0.724-0.609
	c-0.027,0.009-0.057,0.013-0.08,0.027c-1.603,0.957-3.206,1.91-4.801,2.881c-0.101,0.062-0.176,0.249-0.178,0.38
	c-0.015,0.964,0.001,1.929-0.016,2.893c-0.005,0.284,0.08,0.479,0.296,0.668c0.588,0.516,1.153,1.057,1.708,1.569
	c-0.61,0.687-1.201,1.314-1.75,1.979c-0.538,0.65-0.845,1.392-0.756,2.269c0.127,1.229,1.199,2.292,2.361,2.291
	C74.515,89.938,74.256,89.779,74.053,89.566z M73.144,86.188c1.09-1.812,2.791-3.05,4.262-4.564c0.427,0.37,0.832,0.708,1.221,1.065
	c0.069,0.063,0.102,0.2,0.103,0.304c0.007,1.379,0.004,2.758,0.004,4.249C77.332,84.574,74.786,84.294,73.144,86.188z
	 M77.196,81.491c-0.389-0.337-0.769-0.661-1.14-0.995c-0.055-0.05-0.094-0.149-0.094-0.227c-0.006-1.113-0.004-2.227-0.004-3.4
	c1.604,2.102,3.105,2.149,4.567,0.984C79.663,79.271,78.477,80.395,77.196,81.491z M22.294,45.049
	c-1.694,0.969-3.386,1.945-5.089,2.899c-0.269,0.15-0.386,0.295-0.383,0.62c0.016,1.967-0.032,3.936,0.019,5.902
	c0.021,0.793-0.081,1.432-0.846,1.822c-0.087,0.045-0.126,0.185-0.187,0.28c0.034,0.029,0.069,0.059,0.104,0.088
	c0.35-0.276,0.699-0.554,1.051-0.831c1.103,0.998,2.167,1.961,3.26,2.949c1.904-1.511,3.798-3.013,5.691-4.515
	c-0.046-0.06-0.092-0.119-0.137-0.18c-1.049,0.814-2.098,1.628-3.154,2.449c-0.82-0.77-1.62-1.514-2.408-2.269
	c-0.081-0.076-0.116-0.216-0.143-0.332c-0.117-0.524,0.153-0.822,0.565-1.116c1.544-1.1,3.061-2.236,4.61-3.376
	c-0.88-1.532-1.749-3.046-2.629-4.576C22.49,44.938,22.393,44.994,22.294,45.049z M20.102,52.913c0-2.076,0-4.101,0-6.23
	c0.876,1.491,1.709,2.909,2.558,4.354C21.805,51.663,20.976,52.271,20.102,52.913z M66.156,84.672
	c-0.251-0.237-0.179-0.979,0.104-1.188c0.473-0.352,0.952-0.696,1.427-1.046c1.169-0.858,2.338-1.719,3.524-2.592
	c-0.885-1.535-1.756-3.048-2.634-4.572c-0.088,0.048-0.138,0.074-0.187,0.102c-1.796,1.024-3.596,2.044-5.383,3.084
	c-0.12,0.069-0.213,0.292-0.215,0.443c-0.015,2.043-0.049,4.086,0.007,6.127c0.021,0.74-0.156,1.266-0.801,1.631
	c-0.105,0.06-0.168,0.198-0.25,0.3c0.033,0.034,0.067,0.069,0.102,0.104c0.354-0.271,0.708-0.541,1.074-0.821
	c1.001,0.904,1.989,1.782,2.957,2.682c0.225,0.209,0.365,0.225,0.608,0.029c1.649-1.323,3.311-2.63,4.966-3.944
	c0.139-0.109,0.266-0.233,0.412-0.362c-0.08-0.06-0.132-0.111-0.142-0.104c-1.042,0.783-2.082,1.57-3.157,2.385
	C67.751,86.164,66.949,85.424,66.156,84.672z M66.052,83.32c0-2.083,0-4.102,0-6.234c0.88,1.489,1.712,2.899,2.572,4.356
	C67.764,82.071,66.933,82.678,66.052,83.32z M66.14,25.458c-1.041,0.784-2.079,1.572-3.151,2.386
	c-0.818-0.767-1.644-1.523-2.446-2.301c-0.257-0.249-0.153-0.927,0.139-1.143c0.949-0.7,1.901-1.396,2.851-2.094
	c0.693-0.51,1.384-1.023,2.091-1.546c-0.888-1.542-1.759-3.054-2.637-4.579c-0.174,0.103-0.296,0.178-0.42,0.25
	c-1.67,0.956-3.336,1.919-5.016,2.857c-0.247,0.138-0.346,0.262-0.345,0.549c0.015,2.159-0.007,4.318,0.02,6.477
	c0.006,0.45-0.099,0.763-0.485,1.001c-0.219,0.135-0.398,0.333-0.596,0.503c0.037,0.052,0.074,0.104,0.111,0.155
	c0.388-0.211,0.692-0.56,1.085-0.813c1.092,0.984,2.176,1.962,3.259,2.939c1.921-1.522,3.801-3.012,5.715-4.528
	C66.207,25.5,66.151,25.449,66.14,25.458z M60.456,24.248c0-2.089,0-4.105,0-6.122c0.021-0.014,0.042-0.028,0.063-0.042
	c0.834,1.418,1.668,2.836,2.515,4.275C62.172,22.99,61.342,23.598,60.456,24.248z M38.146,75.344
	c-1.052,0.92-2.059,1.798-3.06,2.684c-0.074,0.066-0.105,0.182-0.156,0.274c0.035,0.025,0.071,0.05,0.106,0.074
	c0.292-0.245,0.584-0.491,0.891-0.749c0.402,0.473,0.812,0.918,1.176,1.396c0.135,0.177,0.23,0.432,0.232,0.651
	c0.018,2.072,0.004,4.146,0.018,6.218c0.002,0.302-0.073,0.512-0.321,0.691c-0.25,0.183-0.468,0.412-0.7,0.62
	c0.044,0.051,0.089,0.101,0.133,0.151c0.353-0.281,0.705-0.563,1.073-0.856c0.763,0.879,1.505,1.733,2.271,2.615
	c1.113-0.995,2.21-1.976,3.306-2.955c-0.036-0.053-0.072-0.105-0.107-0.157c-0.396,0.172-0.65,0.575-1.029,0.8
	c-0.359-0.414-0.696-0.826-1.06-1.213c-0.2-0.213-0.282-0.43-0.28-0.726c0.014-1.77,0.053-3.542-0.015-5.31
	c-0.032-0.84,0.137-1.479,0.884-1.91c0.085-0.049,0.168-0.124,0.215-0.208c0.025-0.047-0.03-0.137-0.058-0.245
	c-0.386,0.322-0.734,0.615-1.115,0.935C39.739,77.188,38.948,76.272,38.146,75.344z"/>
</svg>
