<?xml version="1.0" encoding="utf-8"?>
<!DOCTYPE svg PUBLIC "-//W3C//DTD SVG 1.1//EN" "http://www.w3.org/Graphics/SVG/1.1/DTD/svg11.dtd">
<svg version="1.1" id="Layer_1" xmlns="http://www.w3.org/2000/svg" xmlns:xlink="http://www.w3.org/1999/xlink" x="0px" y="0px"
	 width="100px" height="100px" viewBox="0 0 100 100" style="enable-background:new 0 0 100 100;" xml:space="preserve">
<g>
	<g>
		<path d="M11.902,36.27h1.903c1.482,0,2.325,1.245,2.325,3.642
			c0,2.635-0.599,3.673-2.325,3.721h-1.903V36.27z M12.859,42.688h0.973c1.064-0.018,1.315-1.128,1.315-2.706
			c0-0.175,0.117-2.744-1.315-2.747h-0.973V42.688z M63.06,53.744c0,1.968,0.485,3.464,1.866,3.464c1.544,0,2.464-2.092,2.464-7.007
			c0-5.396-0.833-7.249-2.283-7.312c-1.402-0.063-2.119,1.131-2.047,3.593V53.744z M64.032,47.243c0-1.662,0.192-3.232,0.955-3.232
			c1.018,0,1.406,2.413,1.406,6.189c0,3.443-0.452,5.885-1.534,5.885c-0.696,0-0.827-1.712-0.827-3.094V47.243z M89.887,43.092
			c1.513-0.008,2.148,1.701,2.245,3.632c0.032,0.656,0.044,0.687,0,1.175h-4.49c-0.044-0.488-0.03-0.52,0-1.175
			C87.739,44.793,88.374,43.084,89.887,43.092 M88.594,46.352c-0.018,0.343-0.022,0.338,0,0.595h2.551
			c0.026-0.258,0.021-0.251,0-0.595c-0.046-1.019-0.478-2.32-1.273-2.315C89.074,44.032,88.644,45.333,88.594,46.352 M30.561,42.949
			c1.515-0.009,2.101,1.843,2.196,3.774c0.033,0.656,0.046,0.687,0,1.176h-4.488c-0.046-0.489-0.033-0.52,0-1.176
			C28.363,44.793,29.047,42.942,30.561,42.949 M29.219,46.308c-0.015,0.344-0.024,0.38,0,0.638h2.554
			c0.024-0.258,0.019-0.292,0-0.638c-0.051-1.015-0.48-2.276-1.276-2.272C29.698,44.032,29.271,45.295,29.219,46.308 M47.565,44.169
			c0.857,0,1.552,2.691,1.552,6.009c0,3.319-0.694,6.009-1.552,6.009c-0.857,0-1.554-2.69-1.554-6.009
			C46.012,46.861,46.708,44.169,47.565,44.169 M45.095,50.179c0,3.916,0.704,7.065,2.47,7.091c1.815,0.024,2.471-3.175,2.471-7.091
			c0-3.915-0.704-7.066-2.471-7.089C45.848,43.067,45.095,46.263,45.095,50.179 M30.6,57.219c1.232,0.006,1.882-1.15,2.136-2.624
			l5.914-0.004c-0.299-1.476-0.333-1.784-0.366-2.935l-9.964,0.003c-0.039,0.447,0.003,1.195,0.037,1.887
			C28.452,55.477,29.087,57.227,30.6,57.219 M37.379,52.614c0.019,0.51,0.019,0.513,0.092,1.014h-5.594
			c-0.002,0.075-0.005,0.16-0.016,0.335c-0.051,1.018-0.479,2.319-1.276,2.313c-0.795,0.007-1.226-1.295-1.276-2.313
			c-0.017-0.344-0.078-1.09-0.054-1.348L37.379,52.614L37.379,52.614z M89.93,57.219c1.232,0.006,1.882-1.165,2.133-2.639h6.745
			c-0.849,10.271-15.05,10.352-16.294,2.21v5.303h-9.791v-5.361c-0.854,5.239-3.853,5.964-5.168,5.961
			c-1.1-0.006-3.806-0.911-4.801-3.676l0.094,3.009c0.02,1.867,1.211,3.049,2.479,3.221v4.342L53.9,69.591v-4.345
			c0.959-0.029,2.497-0.968,2.514-3.064v-7.87c-0.351,1.98-1.816,8.378-8.846,8.378c-6.964,0-8.539-6.756-8.837-7.748
			c-1.3,7.363-6.194,7.769-8.345,7.738c-3.861-0.048-6.173-2.704-6.23-2.762c-2.323-2.361-2.771-5.933-2.676-9.784
			c0-0.777,0.199-2.282,0.269-3.022c-2.5,2.683-4.814,2.35-7.564,2.452l-2.307-0.004v4.4c-0.003,1.771,0.648,2.83,2.624,2.845v5.29
			H0.935v-5.183c1.976-0.015,2.652-1.167,2.649-2.939v-15.69c0-0.372-0.091-2.801-2.64-2.821v-5.216h14.643
			c2.76,0,4.722,0.84,6.043,1.881c2.442,1.924,2.93,5.23,3.128,7.678c3.731-3.246,12.571-3.97,14.05,5.744
			c1.599-7.399,7.052-7.958,8.331-7.965c2.291-0.009,6.207,1.378,7.48,5.121v-4.617h8.02v2.969c0.591-2.242,2.569-3.458,4.577-3.471
			c1.934-0.012,5.897,2.138,6.913,10.317V37.011c-0.006-1.572-0.967-2.383-2.539-2.374l-0.006-4.344h9.337v17.618
			c0.852-7.806,5.205-10.303,8.871-10.303c3.725,0,6.362,2.076,7.716,4.73c1.73,3.399,1.606,6.989,1.503,9.317L87.65,51.659
			c-0.039,0.447,0.004,1.195,0.038,1.887C87.781,55.477,88.418,57.227,89.93,57.219 M91.203,53.628c0,0.075-0.006,0.16-0.015,0.335
			c-0.05,1.018-0.48,2.319-1.273,2.313c-0.798,0.007-1.227-1.295-1.277-2.313c-0.018-0.344-0.079-1.097-0.053-1.353h11.278
			c0.14-1.775,0.579-6.625-1.474-10.629c-1.616-3.153-4.324-5.351-8.572-5.349c-3.752,0-6.392,1.904-7.933,4.283l0.012-11.579
			H70.646v6.385c1.572-0.007,2.53,0.137,2.539,1.708v3.531c-1.068-2.353-3.489-4.491-6.434-4.326
			c-1.243,0.07-2.159,0.605-3.144,1.316v-0.817h-9.938v2.04c-1.711-1.751-3.744-2.542-6.395-2.542c-4.252,0-7.084,2.667-8.404,5.736
			c-0.755-2.191-3.282-5.736-8.204-5.736c-2.017,0-3.892,0.715-5.27,1.566c-0.203-2.521-1.341-5.377-3.207-6.853
			c-1.508-1.192-3.745-2.055-6.731-2.063H0v7.155c1.999,0.015,2.642,0.476,2.641,2.451v14.574C2.642,55.378,2.151,55.902,0,55.919
			v7.304l15.454-0.012v-7.309c-2.129-0.016-2.612-0.539-2.609-2.452v-2.892l2.476,0.015c3.172,0.076,4.264-0.396,5.271-1.183
			c-0.194,1.266-0.097,3.604,0.021,4.499c0.549,4.552,1.926,5.777,3.248,7.12c1.815,1.839,4.305,2.641,6.613,2.655
			c6.35,0.035,8.025-4.917,8.37-5.748c2.124,4.999,6.348,5.763,8.786,5.747c4.82-0.034,6.755-2.296,7.845-4.3v2.481
			c-0.015,1.732-0.404,2.545-2.492,2.583l0.003,6.289h13.313v-6.289c-2.02-0.035-2.426-1.477-2.487-2.406
			c1.231,1.622,3.523,1.719,3.795,1.669c0.969,0.095,3.127-0.184,4.207-2.146v1.657h11.688v-2.221
			c1.692,1.815,4.159,2.691,6.465,2.691c3.841,0,9.332-2.102,9.824-10.043h-8.587V53.628L91.203,53.628z"/>
	</g>
</g>
</svg>
