<?xml version="1.0" encoding="utf-8"?>
<!DOCTYPE svg PUBLIC "-//W3C//DTD SVG 1.1//EN" "http://www.w3.org/Graphics/SVG/1.1/DTD/svg11.dtd">
<svg version="1.1" id="Layer_1" xmlns="http://www.w3.org/2000/svg" xmlns:xlink="http://www.w3.org/1999/xlink" x="0px" y="0px"
	 width="100px" height="100px" viewBox="0 0 100 100" enable-background="new 0 0 100 100" xml:space="preserve">
<path fill-rule="evenodd" clip-rule="evenodd" d="M75.343,38.423C75.278,52.263,64,63.527,50.24,63.43
	c-13.94-0.1-25.096-11.096-25.021-25.156c0.073-14.084,11.233-25.315,25.808-24.943C64.345,13.671,75.207,24.278,75.343,38.423z
	 M45.935,43.505c2.459,0,4.785,0.021,7.109-0.013c0.67-0.01,1.354-0.112,2.003-0.28c5.217-1.341,8.112-7.066,5.999-11.968
	c-1.354-3.141-3.749-5.25-7.194-5.464c-4.128-0.255-8.283-0.071-12.427-0.088c-0.496-0.002-0.696,0.156-0.695,0.688
	c0.015,7.975,0.016,15.95,0,23.925c-0.001,0.617,0.231,0.777,0.802,0.761c1.106-0.031,2.217-0.061,3.319,0.01
	c0.854,0.055,1.133-0.201,1.105-1.084C45.891,47.871,45.935,45.747,45.935,43.505z M64.208,72.576c0,3.727,0,7.37,0,11.012
	c0.711,0,1.347,0,2.057,0c0-1.424,0.016-2.783-0.008-4.141c-0.011-0.577,0.2-0.824,0.791-0.814c1.334,0.022,2.668,0.015,4.002,0.006
	c0.5-0.003,0.729,0.222,0.725,0.719c-0.006,0.852,0.002,1.702,0.001,2.555c-0.001,1.779-0.001,1.78,1.745,1.737
	c0.079-0.002,0.157-0.035,0.275-0.063c0.014-0.198,0.039-0.391,0.039-0.582c0.001-3.065-0.002-6.131-0.004-9.197
	c0-1.367,0-1.339-1.345-1.325c-0.57,0.006-0.736,0.218-0.719,0.755c0.03,0.936-0.021,1.875,0.015,2.81
	c0.025,0.634-0.232,0.865-0.844,0.855c-1.22-0.021-2.441-0.04-3.66,0.005c-0.752,0.027-1.082-0.178-1.031-0.998
	c0.067-1.096,0.017-2.197,0.017-3.332C65.505,72.576,64.85,72.576,64.208,72.576z M2.095,83.607c-0.752,0-1.393,0-2.095,0
	c0-3.691,0-7.333,0-11.113c1.614,0,3.22-0.029,4.823,0.014c0.611,0.016,1.243,0.123,1.824,0.314
	c1.439,0.477,2.178,1.859,2.016,3.627c-0.134,1.459-1.177,2.633-2.617,2.813c-1.009,0.125-2.033,0.152-3.051,0.154
	c-0.66,0.002-0.923,0.25-0.907,0.905C2.113,81.395,2.095,82.469,2.095,83.607z M3.757,77.605c0.505-0.043,1.017-0.049,1.513-0.139
	c0.774-0.143,1.301-0.758,1.269-1.465c-0.036-0.781-0.393-1.391-1.207-1.514c-0.803-0.123-1.624-0.123-2.438-0.167
	c-0.577-0.03-0.822,0.272-0.8,0.831c0.01,0.254,0.003,0.508,0.003,0.763C2.097,77.559,2.097,77.559,3.757,77.605z M33.477,83.619
	c-0.623,0-1.181,0-1.783,0c-0.034-0.354-0.064-0.676-0.114-1.207c-1.939,1.672-3.782,1.762-5.283-0.304
	c-1.155-1.591-0.934-4.286,0.281-5.646c1.158-1.297,2.364-1.311,5.061-0.002c0-0.686,0-1.316,0-1.947c0-0.619,0-1.24,0-1.938
	c0.641,0,1.211,0,1.839,0C33.477,76.236,33.477,79.88,33.477,83.619z M31.77,79.443c-0.152-0.581-0.169-1.256-0.489-1.723
	c-0.517-0.75-1.754-0.888-2.554-0.46c-0.924,0.495-1.443,1.751-1.183,2.858c0.234,1,1.014,1.723,1.91,1.77
	C31.059,81.974,31.638,81.334,31.77,79.443z M15.983,79.4c0.046-2.409,1.722-4.051,4.107-4.025c2.431,0.025,4.155,1.767,4.116,4.135
	c-0.044,2.607-2,4.216-4.311,4.119C17.73,83.538,15.9,81.992,15.983,79.4z M20.054,81.896c1.273,0.001,2.213-1.006,2.23-2.393
	c0.017-1.352-0.953-2.453-2.174-2.466c-1.263-0.013-2.184,0.993-2.206,2.409C17.883,80.842,18.808,81.896,20.054,81.896z
	 M86.409,75.611c-0.781,0.059-0.438,0.739-0.445,1.145c-0.037,1.786-0.016,3.574-0.017,5.361c-0.002,1.722,0.021,1.742,1.773,1.484
	c0.023-0.004,0.043-0.035,0.164-0.137c0-1.494-0.003-3.074,0.001-4.654c0.002-1.074,0.681-1.73,1.821-1.773
	c1.116-0.042,1.646,0.45,1.694,1.637c0.033,0.822,0.013,1.646,0.014,2.469c0.002,0.811,0,1.622,0,2.514
	c0.402,0,0.685-0.033,0.957,0.006c0.777,0.111,1.031-0.182,0.998-0.977c-0.063-1.502-0.015-3.007-0.017-4.51
	c-0.004-2.225-1.259-3.211-3.44-2.633c-0.655,0.174-1.257,0.553-1.947,0.867C87.901,75.218,87.035,75.564,86.409,75.611z
	 M43.28,76.324c0.014-0.818-0.462-0.748-0.988-0.744c-0.521,0.004-1.023-0.082-0.989,0.744c0.054,1.303,0.023,2.609,0.003,3.914
	c-0.005,0.3-0.035,0.645-0.185,0.889c-0.365,0.596-1.556,0.951-2.309,0.734c-0.837-0.24-1.017-0.916-1.03-1.666
	c-0.021-1.275-0.059-2.554-0.015-3.828c0.021-0.6-0.146-0.864-0.747-0.783c-0.49,0.066-1.197-0.29-1.169,0.721
	c0.046,1.645,0.013,3.291,0.014,4.936c0.002,1.998,2.025,2.861,3.472,2.228c0.62-0.272,1.227-0.579,1.904-0.9
	c0.061,0.426,0.103,0.724,0.148,1.052c0.604,0,1.162,0,1.875,0C43.265,81.133,43.237,78.729,43.28,76.324z M83.608,76.135
	c0-0.771-0.589-0.506-0.99-0.546c-0.463-0.047-0.841,0.002-0.83,0.64c0.022,1.388,0.025,2.777-0.007,4.165
	c-0.021,0.885-0.9,1.507-2.02,1.499c-1.017-0.008-1.533-0.48-1.549-1.479c-0.022-1.417-0.03-2.834-0.005-4.251
	c0.011-0.623-0.377-0.63-0.781-0.569c-0.432,0.065-1.15-0.33-1.164,0.541c-0.026,1.729-0.042,3.459,0.017,5.186
	c0.069,2.055,2.135,2.795,3.526,2.1c0.609-0.303,1.241-0.563,1.917-0.866c0.047,0.417,0.084,0.739,0.12,1.065c0.59,0,1.12,0,1.766,0
	C83.608,81.059,83.609,78.597,83.608,76.135z M47.597,81.117c-0.802-1.016-0.782-2.406,0.048-3.354s1.829-0.963,3.504-0.016
	c0.347-0.32,0.709-0.654,1.04-0.961c-0.787-1.393-3.298-1.777-4.881-0.99c-2.046,1.016-2.864,3.565-1.8,5.604
	c0.887,1.701,3.297,2.99,5.597,1.768c1.332-0.709,1.344-0.975-0.016-1.92C49.389,82.152,48.385,82.114,47.597,81.117z
	 M99.032,81.895c-0.751,0.045-1.005-0.42-1.02-1.066c-0.022-0.936,0.004-1.873-0.021-2.809c-0.017-0.61,0.22-0.923,0.851-0.84
	c0.643,0.084,0.818-0.193,0.829-0.818c0.011-0.685-0.283-0.854-0.87-0.777c-0.595,0.076-0.838-0.2-0.805-0.777
	c0.014-0.256-0.018-0.514,0.003-0.767c0.064-0.802-0.509-0.647-0.972-0.661c-0.494-0.014-1.015-0.068-0.93,0.703
	c0.101,0.925,0.085,1.776-1.25,1.525c0,0.576,0,1.041,0,1.498c1.253,0.14,1.253,0.14,1.254,1.389
	c0.001,0.965-0.026,1.93,0.014,2.894c0.049,1.188,0.554,1.936,1.524,2.202c0.828,0.229,1.613,0.043,2.359-0.551
	C99.555,82.742,99.929,81.84,99.032,81.895z M54.405,74.287c0.056,0.699,0.106,1.412-0.977,1.348
	c-0.111-0.007-0.316,0.488-0.365,0.771c-0.064,0.374-0.013,0.784,0.526,0.767c0.712-0.023,0.837,0.385,0.825,0.981
	c-0.022,1.134-0.025,2.268,0,3.401c0.036,1.674,1.678,2.633,3.175,1.836c0.221-0.117,0.485-0.539,0.425-0.713
	c-0.106-0.305-0.438-0.729-0.697-0.745c-0.841-0.052-1.071-0.529-1.093-1.226c-0.022-0.707,0.02-1.418-0.016-2.125
	c-0.042-0.839-0.034-1.528,1.151-1.434c0.668,0.053,0.486-0.595,0.46-0.963c-0.015-0.211-0.324-0.588-0.462-0.572
	c-1.102,0.136-1.239-0.492-1.138-1.336c0.085-0.709-0.195-1.021-0.92-0.879C54.549,73.23,54.352,73.607,54.405,74.287z
	 M12.341,76.225c-0.136-1.102-0.986-0.557-1.521-0.615c-0.604-0.065-0.402,0.484-0.406,0.809c-0.016,1.273-0.005,2.547-0.004,3.821
	c0,1.12,0,2.241,0,3.418c0.374,0,0.658-0.035,0.931,0.007c0.808,0.123,1.022-0.238,0.984-0.998
	c-0.055-1.102-0.016-2.207-0.014-3.311c0-1.483,0.375-1.92,1.865-2.178c0.214-0.037,0.429-0.066,0.632-0.098
	c0-0.576,0-1.096,0-1.845c-0.86,0.435-1.568,0.794-2.347,1.187C12.423,76.361,12.35,76.297,12.341,76.225z M53.163,38.225
	c1.754-0.08,3.131-1.512,3.307-3.138c0.202-1.875-0.756-3.464-2.617-3.921c-1.104-0.272-2.297-0.212-3.452-0.241
	c-1.464-0.036-2.93-0.008-4.43-0.008c0,2.487,0,4.863,0,7.335C48.405,38.251,50.788,38.333,53.163,38.225z"/>
</svg>
