<?xml version="1.0" encoding="utf-8"?>
<!-- Generator: Adobe Illustrator 16.0.0, SVG Export Plug-In . SVG Version: 6.00 Build 0)  -->
<!DOCTYPE svg PUBLIC "-//W3C//DTD SVG 1.1//EN" "http://www.w3.org/Graphics/SVG/1.1/DTD/svg11.dtd">
<svg version="1.1" id="Layer_1" xmlns="http://www.w3.org/2000/svg" xmlns:xlink="http://www.w3.org/1999/xlink" x="0px" y="0px"
	 width="100px" height="100px" viewBox="0 0 100 100" enable-background="new 0 0 100 100" xml:space="preserve">
<path fill-rule="evenodd" clip-rule="evenodd" d="M39.216,73.912c-0.323-0.031-0.646-0.062-0.968-0.093
	c-1.664-0.164-3.269-0.538-4.744-1.359c-0.795-0.443-1.493-1.004-2.036-1.743c-1.717-2.341-0.839-5.623,1.84-6.838
	c0.468-0.212,0.968-0.354,1.446-0.525c-0.209-0.116-0.442-0.234-0.664-0.372c-0.849-0.524-1.505-1.215-1.747-2.21
	c-0.29-1.19,0.088-2.216,0.868-3.113c0.566-0.651,1.282-1.092,2.074-1.417c0.065-0.026,0.13-0.054,0.217-0.09
	c-0.057-0.05-0.094-0.091-0.138-0.119c-1.73-1.11-2.708-2.711-3.014-4.721c-0.334-2.197,0.11-4.222,1.504-5.985
	c1.239-1.57,2.903-2.432,4.856-2.741c2.283-0.361,4.473,0.009,6.59,0.901c0.138,0.058,0.307,0.082,0.457,0.069
	c1.555-0.139,3.109-0.288,4.664-0.434c0.068-0.007,0.139-0.001,0.236-0.001c0.044,1.174,0.087,2.331,0.132,3.527
	c-1.266-0.229-2.491-0.451-3.717-0.674c-0.008,0.03-0.02,0.05-0.015,0.057c1.845,2.701,1.629,6.273-0.546,8.713
	c-1.386,1.556-3.159,2.353-5.21,2.576c-1.188,0.13-2.355,0.021-3.494-0.347c-0.204-0.066-0.379-0.054-0.57,0.041
	c-0.521,0.259-0.985,0.582-1.342,1.051c-0.507,0.666-0.506,1.877,0.641,2.334c0.653,0.261,1.337,0.373,2.03,0.395
	c1.273,0.04,2.549,0.037,3.823,0.06c1.301,0.022,2.596,0.119,3.863,0.435c0.981,0.244,1.916,0.597,2.724,1.228
	c1.054,0.822,1.574,1.922,1.661,3.233c0.143,2.146-0.71,3.881-2.274,5.291c-1.521,1.371-3.344,2.142-5.331,2.532
	c-0.771,0.152-1.562,0.203-2.343,0.302c-0.062,0.008-0.122,0.025-0.184,0.038C40.076,73.912,39.646,73.912,39.216,73.912z
	 M40.451,71.012c0.734-0.084,1.475-0.134,2.202-0.258c1.168-0.198,2.265-0.6,3.202-1.351c0.681-0.546,1.157-1.224,1.277-2.113
	c0.168-1.241-0.362-2.135-1.536-2.564c-0.269-0.099-0.545-0.201-0.825-0.232c-0.979-0.108-1.961-0.213-2.944-0.27
	c-1.295-0.075-2.593-0.104-3.89-0.151c-0.158-0.005-0.327-0.035-0.474,0.008c-0.91,0.27-1.755,0.666-2.459,1.323
	c-1.046,0.977-1.155,2.4-0.273,3.529c0.464,0.594,1.072,0.992,1.75,1.292C37.744,70.782,39.08,70.953,40.451,71.012z M40.533,54.485
	c0.097-0.006,0.288-0.01,0.479-0.031c1.584-0.178,2.726-0.977,3.338-2.459c0.513-1.243,0.558-2.529,0.17-3.814
	c-0.388-1.287-1.237-2.146-2.519-2.571c-0.745-0.247-1.515-0.317-2.289-0.242c-1.408,0.135-2.519,0.784-3.217,2.032
	c-0.737,1.316-0.856,2.722-0.432,4.16c0.347,1.175,1.114,2.002,2.233,2.499C38.978,54.361,39.7,54.468,40.533,54.485z M0,35.844
	c0.095-0.005,0.19-0.015,0.285-0.015c2.733-0.001,5.466-0.012,8.199,0.003c2.341,0.014,4.618,0.387,6.771,1.345
	c3.674,1.635,6.018,4.418,6.932,8.324c0.816,3.49,0.608,6.941-0.854,10.249c-1.313,2.968-3.568,4.976-6.565,6.167
	c-1.925,0.765-3.937,1.12-5.999,1.144c-2.82,0.032-5.641,0.016-8.461,0.021c-0.103,0-0.205,0.015-0.308,0.022
	C0,54.018,0,44.931,0,35.844z M3.712,62.797c0.097-0.121,0.147-0.178,0.191-0.239c0.659-0.91,1.321-1.817,1.972-2.732
	c0.106-0.149,0.219-0.199,0.396-0.196c0.622,0.01,1.243,0.005,1.865,0.002c1.367-0.005,2.72-0.137,4.038-0.516
	c3.091-0.889,5.259-2.779,6.21-5.896c0.762-2.493,0.73-5.022-0.004-7.519c-0.728-2.475-2.293-4.265-4.65-5.337
	c-1.553-0.706-3.201-1.018-4.894-1.063c-1.601-0.043-3.203-0.021-4.805-0.025c-0.318-0.002-0.318,0-0.318,0.324
	c-0.001,7.625-0.001,15.25-0.001,22.876C3.712,62.559,3.712,62.641,3.712,62.797z M100,62.626c-0.018-0.042-0.042-0.082-0.053-0.126
	c-0.178-0.768-0.354-1.536-0.532-2.304c-0.035-0.153-0.081-0.303-0.119-0.444c-0.042-0.005-0.06-0.013-0.073-0.009
	c-0.083,0.026-0.166,0.054-0.249,0.082c-1.223,0.415-2.464,0.712-3.771,0.604c-1.075-0.09-1.82-0.692-2.078-1.739
	c-0.096-0.39-0.134-0.803-0.136-1.206c-0.013-3.602-0.011-7.204-0.014-10.806c0-0.102,0-0.202,0-0.328c0.136,0,0.237,0,0.339,0
	c1.881,0,3.762-0.003,5.643,0.005c0.211,0.001,0.274-0.056,0.268-0.268c-0.012-0.405,0.01-0.813,0.012-1.219
	c0.002-0.579,0-1.159,0-1.768c-0.109,0-0.21,0-0.312,0c-1.881,0-3.761-0.004-5.642,0.005c-0.213,0-0.269-0.06-0.267-0.269
	c0.009-1.339,0.005-2.678,0.005-4.017c0-0.093,0-0.186,0-0.281c-1.167,0-2.302,0-3.415,0c0,1.331-0.006,2.645,0.005,3.958
	c0.002,0.233-0.023,0.364-0.29,0.438c-0.942,0.265-1.876,0.563-2.811,0.855c-0.074,0.023-0.184,0.108-0.185,0.167
	c-0.013,0.714-0.009,1.429-0.009,2.167c1.05,0.071,2.148,0.146,3.256,0.222c0,0.133,0,0.228,0,0.323
	c0,3.618-0.001,7.236,0.001,10.854c0,0.823,0.075,1.638,0.283,2.438c0.437,1.681,1.433,2.854,3.103,3.411
	c0.935,0.312,1.9,0.382,2.878,0.359c1.44-0.034,2.825-0.338,4.162-0.868C100,62.785,100,62.705,100,62.626z M78.575,26.088
	c0,1.727,0,3.453,0,5.18c0.019,0.003,0.037,0.006,0.056,0.009c1.145-1.729,2.29-3.459,3.436-5.188
	C80.902,26.088,79.738,26.088,78.575,26.088z M67.52,58.762c0.213,1.081,0.424,2.135,0.618,3.19
	c0.013,0.069-0.087,0.192-0.164,0.238c-0.9,0.529-1.871,0.886-2.884,1.125c-1.977,0.467-3.978,0.625-5.971,0.184
	c-4.013-0.889-6.501-3.396-7.455-7.364c-0.677-2.813-0.433-5.593,0.846-8.205c1.613-3.298,4.28-5.141,7.962-5.446
	c1.516-0.127,2.997,0.058,4.39,0.701c1.973,0.913,3.145,2.491,3.666,4.57c0.459,1.832,0.374,3.662-0.079,5.485
	c-0.04,0.161-0.108,0.213-0.275,0.213c-1.937,0.006-3.873,0.021-5.81,0.031c-1.816,0.011-3.633,0.02-5.45,0.03
	c-0.582,0.003-1.163,0.012-1.745,0.015c-0.123,0.001-0.219,0.005-0.21,0.173c0.114,2.204,0.85,4.108,2.663,5.481
	c1.058,0.801,2.276,1.183,3.588,1.217c2.06,0.054,4.024-0.347,5.841-1.36C67.201,58.956,67.348,58.864,67.52,58.762z M55.139,50.91
	c3.416-0.031,6.813-0.063,10.228-0.093c0.016-0.957-0.063-1.862-0.409-2.729c-0.488-1.219-1.367-2.011-2.642-2.312
	c-2.599-0.614-5.111,0.359-6.455,2.848C55.479,49.331,55.242,50.085,55.139,50.91z M84.196,47.096
	c0.282-1.004,0.56-2.009,0.849-3.012c0.051-0.178-0.064-0.213-0.172-0.251c-0.875-0.315-1.735-0.69-2.633-0.922
	c-1.796-0.465-3.625-0.643-5.469-0.28c-1.646,0.323-3.074,1.042-4.135,2.381c-1.359,1.716-1.565,4.349-0.483,6.142
	c0.637,1.056,1.592,1.741,2.675,2.276c1.129,0.559,2.344,0.861,3.543,1.213c0.91,0.266,1.816,0.551,2.613,1.091
	c0.509,0.346,0.898,0.784,1.056,1.397c0.274,1.071-0.241,2.172-1.306,2.771c-0.77,0.432-1.613,0.593-2.483,0.595
	c-1.775,0.004-3.456-0.419-5.051-1.188c-0.406-0.196-0.795-0.43-1.201-0.651c-0.017,0.037-0.037,0.07-0.048,0.106
	c-0.277,0.989-0.551,1.979-0.836,2.966c-0.05,0.171,0.031,0.225,0.15,0.293c1.141,0.661,2.367,1.1,3.648,1.39
	c1.863,0.421,3.736,0.553,5.609,0.067c1.715-0.443,3.159-1.304,4.15-2.818c1.791-2.74,1.017-6.205-1.772-7.899
	c-1.086-0.661-2.289-1.027-3.502-1.376c-0.916-0.264-1.826-0.563-2.714-0.91c-0.396-0.155-0.775-0.423-1.086-0.719
	c-1.071-1.021-0.867-2.682,0.395-3.454c0.741-0.453,1.567-0.578,2.411-0.568c1.91,0.022,3.716,0.501,5.438,1.315
	c0.098,0.046,0.194,0.098,0.298,0.149C84.168,47.15,84.188,47.125,84.196,47.096z M29.048,43.101c-0.096,0-0.173,0-0.251,0
	c-1.012,0-2.023,0.007-3.035-0.006c-0.236-0.003-0.287,0.074-0.287,0.298c0.006,6.462,0.004,12.923,0.004,19.384
	c0,0.093,0,0.186,0,0.287c1.209,0,2.384,0,3.569,0C29.048,56.407,29.048,49.768,29.048,43.101z M31.405,35.235
	c1.215,1.885,2.413,3.745,3.646,5.656c-0.127,0-0.201,0-0.276,0c-0.558,0-1.116-0.007-1.673,0.005
	c-0.183,0.004-0.285-0.054-0.381-0.211c-0.997-1.641-2.005-3.274-3.002-4.915c-0.104-0.172-0.206-0.241-0.414-0.223
	c-0.586,0.052-1.176,0.077-1.764,0.114c-0.086,0.006-0.171,0.021-0.274,0.035c0,1.728,0,3.438,0,5.172c-0.618,0-1.217,0-1.832,0
	c0-4.493,0-8.981,0-13.474c0.056-0.009,0.094-0.019,0.133-0.019c1.458,0.002,2.916-0.012,4.374,0.015
	c0.841,0.015,1.662,0.176,2.429,0.55c1.171,0.57,1.867,1.492,2.028,2.787c0.16,1.299-0.112,2.474-1.088,3.415
	c-0.454,0.438-0.993,0.742-1.579,0.968C31.636,35.148,31.539,35.185,31.405,35.235z M27.265,34.034
	c0.105,0.008,0.168,0.018,0.23,0.016c0.74-0.023,1.48-0.035,2.22-0.078c0.693-0.039,1.35-0.222,1.928-0.628
	c1.156-0.813,1.294-2.604,0.262-3.525c-0.469-0.419-1.05-0.621-1.659-0.664c-0.903-0.063-1.813-0.054-2.719-0.088
	c-0.212-0.009-0.268,0.058-0.267,0.268c0.009,1.481,0.005,2.963,0.005,4.444C27.265,33.856,27.265,33.936,27.265,34.034z
	 M61.014,40.865c-0.551,0-1.08,0-1.642,0c0-0.271,0-0.529,0-0.837c-0.227,0.183-0.406,0.333-0.593,0.477
	c-1.588,1.216-4.029,0.745-5.169-0.936c-0.614-0.907-0.878-1.919-0.938-2.994c-0.071-1.265,0.15-2.465,0.873-3.53
	c1.055-1.552,2.551-2.171,4.391-2.005c0.465,0.042,0.925,0.148,1.42,0.231c0-1.695,0-3.4,0-5.125c0.571,0,1.106,0,1.658,0
	C61.014,31.045,61.014,35.941,61.014,40.865z M59.371,35.969c0-0.677,0-1.354,0-2.032c0-0.791-0.037-0.847-0.775-1.146
	c-0.022-0.01-0.045-0.017-0.067-0.024c-1.451-0.553-2.969-0.069-3.634,1.229c-0.726,1.417-0.701,2.875,0.007,4.297
	c0.337,0.677,0.916,1.094,1.667,1.239c0.991,0.192,1.854-0.103,2.631-0.714c0.125-0.098,0.178-0.202,0.176-0.363
	C59.368,37.627,59.372,36.798,59.371,35.969z M44.543,33.651c-0.103-0.491-0.208-0.963-0.289-1.438
	c-0.012-0.065,0.085-0.179,0.159-0.226c1.104-0.69,2.308-1.022,3.612-0.973c0.593,0.022,1.173,0.112,1.717,0.369
	c0.765,0.361,1.206,0.985,1.378,1.788c0.1,0.464,0.147,0.945,0.154,1.42c0.021,1.371,0.007,2.742,0.007,4.112
	c0,0.056,0,0.112,0,0.168c0.009,0.6,0.148,0.747,0.74,0.783c0.046,0.002,0.092,0.008,0.167,0.015
	c-0.033,0.476-0.066,0.941-0.099,1.401c-1.025,0.263-1.885-0.165-2.523-1.291c-0.035,0.081-0.053,0.177-0.107,0.239
	c-0.597,0.665-1.313,1.111-2.229,1.159c-1.606,0.085-2.819-0.854-3.077-2.188c-0.224-1.159,0.211-2.231,1.194-2.89
	c0.842-0.563,1.8-0.795,2.785-0.933c0.418-0.059,0.84-0.095,1.261-0.124c0.159-0.012,0.235-0.054,0.22-0.224
	c-0.026-0.277-0.022-0.559-0.069-0.832c-0.139-0.798-0.618-1.232-1.425-1.35c-1.035-0.15-1.969,0.159-2.872,0.613
	C45.015,33.368,44.794,33.508,44.543,33.651z M49.589,36.103c-0.594,0.121-1.165,0.199-1.711,0.36
	c-0.476,0.141-0.952,0.326-1.374,0.582c-0.563,0.341-0.729,0.905-0.59,1.541c0.134,0.611,0.545,0.966,1.143,1.08
	c1,0.191,1.805-0.204,2.486-0.904c0.052-0.053,0.065-0.159,0.066-0.241c0.004-0.725,0.003-1.449,0.002-2.175
	C49.611,36.284,49.6,36.223,49.589,36.103z M36.681,36.299c-0.054,1.505,0.939,3.383,3.194,3.29c0.916-0.038,1.774-0.27,2.587-0.777
	c0.022,0.091,0.044,0.161,0.059,0.234c0.069,0.359,0.119,0.724,0.211,1.077c0.06,0.227-0.018,0.324-0.207,0.423
	c-0.64,0.333-1.321,0.511-2.031,0.593c-0.989,0.114-1.96,0.047-2.877-0.379c-1.137-0.527-1.913-1.4-2.311-2.579
	c-0.58-1.716-0.46-3.396,0.435-4.983c0.961-1.704,2.935-2.537,4.831-2.072c1.375,0.336,2.133,1.259,2.416,2.607
	c0.161,0.769,0.11,1.536-0.042,2.302c-0.037,0.184-0.116,0.238-0.303,0.238c-1.77,0.003-3.538,0.016-5.307,0.026
	C37.122,36.3,36.909,36.299,36.681,36.299z M41.468,35.014c0.015-0.47-0.026-0.893-0.184-1.3c-0.231-0.603-0.661-0.978-1.291-1.129
	c-1.356-0.325-2.679,0.46-3.12,1.862c-0.059,0.185-0.092,0.378-0.136,0.566C38.334,35.014,39.891,35.014,41.468,35.014z
	 M69.771,38.808c0.099,0.519,0.195,1.002,0.274,1.488c0.009,0.055-0.069,0.151-0.131,0.188c-0.672,0.395-1.411,0.578-2.178,0.66
	c-1.075,0.117-2.122,0.021-3.085-0.514c-1.386-0.771-2.109-1.999-2.319-3.537c-0.202-1.482,0.021-2.891,0.867-4.162
	c1.095-1.646,3.221-2.356,5.078-1.678c1.187,0.434,1.79,1.354,2.015,2.554c0.14,0.745,0.094,1.489-0.06,2.229
	c-0.034,0.168-0.096,0.236-0.281,0.236c-1.712,0.002-3.425,0.015-5.138,0.025c-0.23,0.002-0.462,0.001-0.691,0.022
	c-0.06,0.006-0.161,0.092-0.159,0.138c0.06,1.419,0.827,2.76,2.384,3.062c1.12,0.217,2.182-0.036,3.18-0.573
	C69.597,38.909,69.664,38.868,69.771,38.808z M68.788,35.017c-0.026-0.303-0.036-0.557-0.073-0.807
	c-0.124-0.841-0.636-1.431-1.39-1.615c-1.544-0.379-3.015,0.65-3.259,2.281c-0.008,0.05-0.002,0.103-0.002,0.141
	C65.635,35.017,67.185,35.017,68.788,35.017z M84.968,31.851c0.015-0.058-0.057-0.179-0.116-0.205
	c-0.275-0.124-0.556-0.246-0.845-0.331c-1.079-0.315-2.169-0.456-3.271-0.111c-1.188,0.371-1.952,1.309-2.036,2.48
	c-0.085,1.189,0.441,2.062,1.651,2.613c0.54,0.246,1.129,0.385,1.687,0.594c0.363,0.137,0.739,0.271,1.062,0.479
	c0.668,0.435,0.702,1.294,0.104,1.817c-0.338,0.296-0.751,0.413-1.189,0.435c-1.034,0.05-1.982-0.24-2.87-0.755
	c-0.064-0.037-0.13-0.076-0.211-0.124c-0.125,0.463-0.228,0.897-0.362,1.321c-0.066,0.208-0.009,0.315,0.176,0.386
	c0.482,0.186,0.952,0.417,1.449,0.548c1.108,0.29,2.228,0.343,3.3-0.151c1.083-0.5,1.691-1.349,1.749-2.558
	c0.058-1.224-0.533-2.059-1.616-2.545c-0.527-0.237-1.098-0.376-1.642-0.577c-0.387-0.143-0.778-0.286-1.139-0.481
	c-0.405-0.221-0.59-0.597-0.534-1.064c0.056-0.473,0.349-0.753,0.778-0.909c0.446-0.162,0.907-0.154,1.369-0.096
	c0.732,0.094,1.427,0.316,2.119,0.668C84.717,32.786,84.852,32.321,84.968,31.851z M72.113,31.235
	c-0.189,0.024-0.249,0.093-0.248,0.285c0.01,1.036,0.005,2.072,0.005,3.108c0,1.993,0.004,3.985-0.005,5.978
	c-0.002,0.227,0.069,0.286,0.284,0.277c0.365-0.016,0.733-0.018,1.099,0.001c0.23,0.011,0.295-0.062,0.294-0.292
	c-0.01-1.905-0.007-3.81-0.003-5.715c0.001-0.123,0.01-0.268,0.072-0.365c0.223-0.349,0.438-0.708,0.712-1.015
	c0.812-0.909,1.785-1.073,2.869-0.522c0.073,0.038,0.149,0.07,0.243,0.113c0.133-0.512,0.254-0.989,0.385-1.465
	c0.038-0.138-0.033-0.185-0.132-0.236c-0.62-0.321-1.279-0.439-1.969-0.354c-0.869,0.107-1.483,0.613-1.968,1.308
	c-0.055,0.078-0.11,0.156-0.166,0.234c-0.017-0.009-0.033-0.018-0.049-0.026c0-0.5,0-1.001,0-1.542
	C73.038,31.089,72.577,31.174,72.113,31.235z"/>
</svg>
