<?xml version="1.0" encoding="utf-8"?>
<!DOCTYPE svg PUBLIC "-//W3C//DTD SVG 1.1//EN" "http://www.w3.org/Graphics/SVG/1.1/DTD/svg11.dtd">
<svg version="1.1" id="Layer_1" xmlns="http://www.w3.org/2000/svg" xmlns:xlink="http://www.w3.org/1999/xlink" x="0px" y="0px"
	 width="100px" height="100px" viewBox="0 0 100 100" enable-background="new 0 0 100 100" xml:space="preserve">
<path fill-rule="evenodd" clip-rule="evenodd" d="M1.794,41.982c0-2.525-0.001-5.05,0.002-7.575c0-0.342-0.146-0.6-0.415-0.791
	c-0.074-0.053-0.177-0.083-0.268-0.087c-0.251-0.012-0.503-0.006-0.755-0.004c-0.22,0.001-0.359-0.108-0.362-0.29
	c-0.003-0.187,0.147-0.335,0.352-0.332c0.42,0.007,0.84,0.033,1.26,0.032c0.529-0.001,1.059-0.024,1.588-0.032
	c0.428-0.006,0.856-0.001,1.284-0.001c1.2,0,2.4-0.011,3.599,0.005c0.556,0.008,1.111,0.067,1.666,0.106
	c0.301,0.021,0.604,0.032,0.902,0.077c0.24,0.036,0.473,0.116,0.71,0.176c0.104,0.026,0.208,0.05,0.312,0.076
	c0.098,0.024,0.2,0.04,0.293,0.077c0.204,0.082,0.413,0.159,0.603,0.268c0.237,0.136,0.466,0.289,0.682,0.457
	c0.188,0.146,0.374,0.306,0.523,0.49c0.175,0.216,0.323,0.458,0.46,0.701c0.107,0.19,0.214,0.393,0.263,0.604
	c0.141,0.617,0.278,1.239,0.21,1.878c-0.03,0.285-0.101,0.565-0.162,0.846c-0.124,0.563-0.401,1.048-0.802,1.456
	c-0.277,0.283-0.556,0.579-0.882,0.795c-0.425,0.282-0.906,0.471-1.402,0.609c-0.046,0.013-0.097,0.017-0.137,0.039
	c-0.06,0.033-0.113,0.078-0.169,0.118c0.063,0.033,0.122,0.083,0.188,0.096c0.123,0.025,0.251,0.03,0.377,0.042
	c0.03,0.003,0.065-0.008,0.091,0.004c0.317,0.146,0.638,0.284,0.946,0.448c0.21,0.112,0.412,0.246,0.597,0.396
	c0.193,0.156,0.375,0.33,0.536,0.518c0.197,0.229,0.385,0.471,0.543,0.727c0.164,0.267,0.261,0.574,0.434,0.833
	c0.214,0.321,0.277,0.695,0.427,1.038c0.109,0.249,0.178,0.517,0.26,0.778c0.077,0.242,0.142,0.488,0.224,0.729
	c0.07,0.209,0.158,0.411,0.235,0.617c0.083,0.224,0.163,0.448,0.241,0.673c0.027,0.078,0.044,0.16,0.073,0.237
	c0.051,0.139,0.102,0.277,0.163,0.412c0.113,0.247,0.218,0.5,0.353,0.734c0.217,0.377,0.424,0.768,0.695,1.104
	c0.289,0.358,0.639,0.671,0.978,0.987c0.178,0.166,0.375,0.324,0.59,0.439c0.317,0.168,0.658,0.296,0.989,0.439
	c0.038,0.018,0.085,0.016,0.118,0.039c0.334,0.23,0.732,0.249,1.11,0.323c0.435,0.085,0.878,0.124,1.317,0.192
	c0.129,0.02,0.252,0.08,0.251,0.236c-0.001,0.158-0.124,0.198-0.252,0.199c-0.588,0.003-1.177,0.02-1.765-0.004
	c-0.56-0.023-1.12-0.074-1.675-0.148c-0.456-0.06-0.912-0.145-1.353-0.269c-0.438-0.123-0.865-0.294-1.285-0.474
	c-0.369-0.158-0.723-0.352-1.08-0.536c-0.538-0.276-1.007-0.653-1.438-1.067c-0.298-0.287-0.545-0.627-0.795-0.959
	c-0.187-0.248-0.361-0.51-0.504-0.783c-0.161-0.309-0.286-0.636-0.415-0.959c-0.101-0.254-0.205-0.51-0.269-0.774
	c-0.132-0.552-0.235-1.109-0.358-1.663c-0.025-0.113-0.09-0.219-0.128-0.33c-0.051-0.152-0.077-0.314-0.142-0.459
	c-0.156-0.348-0.333-0.684-0.494-1.029c-0.167-0.357-0.39-0.677-0.666-0.952c-0.269-0.27-0.55-0.532-0.853-0.762
	c-0.249-0.189-0.529-0.344-0.812-0.479c-0.202-0.096-0.434-0.126-0.647-0.201c-0.53-0.185-1.079-0.189-1.629-0.182
	c-0.163,0.002-0.328,0.006-0.486,0.036c-0.314,0.059-0.524,0.328-0.524,0.646c0,2.324,0,4.646,0,6.97
	c0,0.292,0.084,0.567,0.268,0.782c0.09,0.107,0.276,0.162,0.426,0.18c0.306,0.037,0.617,0.026,0.926,0.047
	c0.153,0.01,0.297,0.171,0.288,0.293c-0.012,0.153-0.167,0.291-0.339,0.291c-0.679,0.002-1.357,0-2.036,0
	c-1.376,0-2.752,0-4.127,0.002c-0.107,0-0.216,0.016-0.322,0.033c-0.201,0.034-0.377-0.098-0.396-0.32
	c-0.013-0.151,0.122-0.342,0.324-0.339c0.245,0.004,0.489,0.001,0.734,0.001c0.195,0,0.343-0.062,0.479-0.227
	c0.185-0.225,0.254-0.47,0.254-0.746C1.795,47.021,1.794,44.501,1.794,41.982C1.794,41.982,1.794,41.982,1.794,41.982z
	 M5.316,37.389c0,1.033,0,2.066,0,3.099c0,0.378,0.287,0.673,0.657,0.668c0.701-0.009,1.402,0,2.101-0.043
	c0.583-0.036,1.143-0.185,1.68-0.44c0.452-0.215,0.761-0.553,1.015-0.958c0.093-0.149,0.141-0.326,0.207-0.491
	c0.035-0.087,0.083-0.173,0.097-0.264c0.096-0.592,0.132-1.184,0.085-1.786c-0.038-0.481-0.074-0.947-0.265-1.403
	c-0.107-0.254-0.214-0.502-0.373-0.725c-0.22-0.308-0.496-0.554-0.802-0.783c-0.315-0.236-0.679-0.349-1.031-0.468
	c-0.368-0.125-0.774-0.167-1.167-0.188c-0.574-0.03-1.151-0.014-1.727-0.005c-0.395,0.006-0.56,0.176-0.515,0.494
	c0.019,0.131,0.035,0.264,0.035,0.396C5.317,35.457,5.316,36.423,5.316,37.389z M57.301,39.382c0-0.472,0-0.911-0.001-1.35
	c0-1.54-0.007-3.081,0.004-4.621c0.003-0.456-0.144-0.409-0.439-0.396c-0.344,0.015-0.687,0.051-1.031,0.068
	c-0.125,0.006-0.257,0.002-0.376-0.028c-0.144-0.037-0.212-0.172-0.166-0.299c0.039-0.111,0.137-0.22,0.238-0.286
	c0.076-0.05,0.197-0.033,0.298-0.044c0.399-0.047,0.8-0.094,1.2-0.139c0.258-0.029,0.516-0.056,0.773-0.08
	c0.74-0.071,1.487-0.073,2.217-0.269c0.354-0.096,0.454-0.051,0.508,0.323c0.023,0.167,0.037,0.336,0.037,0.505
	c0.002,5.624,0.004,11.247-0.004,16.872c0,0.428,0.313,0.677,0.652,0.76c0.156,0.038,0.324,0.045,0.486,0.038
	c0.245-0.012,0.355,0.095,0.369,0.316c0.01,0.177-0.195,0.331-0.398,0.331c-0.309-0.001-0.615,0.013-0.924,0.012
	c-0.138,0-0.275-0.029-0.413-0.03c-0.631-0.003-1.262-0.005-1.892,0c-0.183,0.001-0.364,0.022-0.546,0.034
	c-0.306,0.02-0.59-0.1-0.592-0.513c-0.001-0.187,0.02-0.374,0.034-0.56c0.01-0.142-0.082-0.156-0.178-0.132
	c-0.09,0.022-0.18,0.066-0.257,0.12c-0.222,0.15-0.426,0.334-0.659,0.464c-0.301,0.167-0.625,0.294-0.939,0.437
	c-0.106,0.048-0.215,0.098-0.326,0.135c-0.181,0.059-0.363,0.117-0.549,0.154c-0.299,0.061-0.6,0.133-0.903,0.148
	c-0.477,0.023-0.957,0.03-1.433-0.008c-0.391-0.03-0.794-0.086-1.158-0.223c-0.339-0.127-0.709-0.195-1.008-0.436
	c-0.179-0.143-0.413-0.219-0.59-0.363c-0.305-0.248-0.599-0.512-0.87-0.796c-0.197-0.206-0.355-0.451-0.519-0.688
	c-0.074-0.106-0.104-0.242-0.175-0.352c-0.239-0.37-0.377-0.788-0.488-1.201c-0.145-0.534-0.217-1.091-0.286-1.643
	c-0.046-0.366-0.052-0.742-0.038-1.111c0.019-0.491,0.085-0.979,0.222-1.455c0.044-0.155,0.035-0.325,0.082-0.478
	c0.055-0.18,0.159-0.345,0.218-0.524c0.228-0.694,0.619-1.282,1.091-1.834c0.368-0.431,0.809-0.769,1.246-1.112
	c0.212-0.167,0.497-0.239,0.712-0.4c0.273-0.205,0.595-0.273,0.897-0.39c0.259-0.101,0.536-0.155,0.807-0.223
	c0.243-0.061,0.485-0.146,0.733-0.161c0.512-0.031,1.028-0.057,1.539-0.018c0.362,0.028,0.73,0.132,1.072,0.263
	c0.278,0.106,0.535,0.286,0.778,0.465c0.247,0.183,0.46,0.41,0.696,0.609C57.113,39.324,57.2,39.34,57.301,39.382z M57.299,44.439
	c-0.045-0.953,0.084-2.131-0.076-3.302c-0.027-0.205-0.061-0.421-0.151-0.602c-0.201-0.4-0.481-0.753-0.849-1.015
	c-0.201-0.143-0.434-0.246-0.662-0.344c-0.168-0.073-0.354-0.107-0.529-0.163c-0.444-0.138-0.908-0.152-1.342-0.035
	c-0.395,0.105-0.808,0.167-1.166,0.426c-0.408,0.295-0.732,0.658-0.949,1.092c-0.177,0.355-0.305,0.739-0.4,1.138
	c-0.143,0.589-0.237,1.18-0.25,1.779c-0.018,0.786,0.021,1.572,0.027,2.358c0.004,0.454,0.053,0.898,0.183,1.336
	c0.077,0.262,0.11,0.537,0.188,0.8c0.061,0.204,0.157,0.397,0.242,0.593c0.031,0.076,0.066,0.153,0.113,0.221
	c0.146,0.205,0.277,0.426,0.452,0.604c0.204,0.206,0.423,0.432,0.682,0.543c0.449,0.194,0.923,0.303,1.437,0.295
	c0.523-0.01,1.005-0.156,1.497-0.277c0.167-0.041,0.31-0.17,0.471-0.244c0.487-0.222,0.726-0.67,0.917-1.113
	c0.137-0.318,0.152-0.703,0.16-1.061C57.313,46.531,57.299,45.596,57.299,44.439z M26.913,57.363c0-0.264,0-0.508,0-0.752
	c0-0.858-0.004-1.716,0.002-2.574c0.001-0.254-0.08-0.228-0.245-0.221c-0.191,0.009-0.382,0.028-0.574,0.038
	c-0.07,0.004-0.143,0.001-0.209-0.016c-0.08-0.021-0.118-0.096-0.093-0.166c0.022-0.063,0.076-0.123,0.133-0.16
	c0.042-0.028,0.11-0.018,0.166-0.024c0.223-0.026,0.445-0.053,0.668-0.078c0.144-0.016,0.288-0.03,0.431-0.045
	c0.412-0.039,0.828-0.04,1.235-0.149c0.197-0.053,0.253-0.028,0.283,0.181c0.013,0.092,0.021,0.187,0.021,0.28
	c0.001,3.133,0.002,6.266-0.002,9.398c0,0.238,0.174,0.377,0.363,0.424c0.087,0.021,0.181,0.025,0.271,0.021
	c0.136-0.007,0.198,0.053,0.206,0.176c0.005,0.099-0.109,0.185-0.222,0.185c-0.172-0.001-0.342,0.007-0.515,0.007
	c-0.077,0-0.153-0.017-0.23-0.018c-0.352-0.001-0.703-0.002-1.054,0c-0.102,0.001-0.203,0.013-0.304,0.02
	c-0.17,0.011-0.329-0.056-0.33-0.286c0-0.104,0.011-0.208,0.019-0.312c0.005-0.079-0.045-0.087-0.099-0.073
	c-0.05,0.013-0.1,0.037-0.143,0.067c-0.124,0.083-0.237,0.186-0.367,0.258c-0.168,0.093-0.348,0.164-0.523,0.243
	c-0.06,0.026-0.12,0.055-0.182,0.075c-0.101,0.032-0.203,0.065-0.306,0.086c-0.167,0.033-0.334,0.074-0.503,0.083
	c-0.266,0.013-0.533,0.017-0.798-0.005c-0.218-0.017-0.442-0.048-0.645-0.124c-0.189-0.07-0.396-0.108-0.562-0.242
	c-0.1-0.08-0.23-0.122-0.329-0.202c-0.169-0.139-0.333-0.285-0.484-0.443c-0.11-0.115-0.198-0.252-0.289-0.384
	c-0.042-0.059-0.059-0.135-0.098-0.195c-0.133-0.206-0.21-0.439-0.272-0.669c-0.081-0.298-0.121-0.607-0.16-0.915
	c-0.025-0.204-0.029-0.413-0.021-0.619c0.011-0.273,0.048-0.545,0.124-0.811c0.024-0.087,0.019-0.182,0.045-0.267
	c0.031-0.101,0.089-0.192,0.122-0.292c0.127-0.387,0.345-0.714,0.608-1.021c0.205-0.24,0.451-0.429,0.694-0.62
	c0.118-0.093,0.276-0.133,0.396-0.223c0.153-0.113,0.332-0.151,0.5-0.217c0.145-0.057,0.299-0.087,0.449-0.125
	c0.136-0.033,0.271-0.081,0.409-0.09c0.285-0.017,0.573-0.031,0.857-0.01c0.202,0.016,0.407,0.073,0.597,0.146
	c0.155,0.06,0.298,0.159,0.434,0.26c0.138,0.102,0.256,0.229,0.388,0.339C26.808,57.33,26.856,57.339,26.913,57.363z M26.912,60.181
	c-0.025-0.531,0.047-1.188-0.042-1.841c-0.015-0.113-0.034-0.234-0.084-0.335c-0.112-0.223-0.268-0.42-0.473-0.565
	c-0.112-0.08-0.241-0.137-0.369-0.191c-0.094-0.041-0.197-0.06-0.295-0.091c-0.248-0.077-0.506-0.084-0.748-0.019
	c-0.22,0.059-0.45,0.093-0.649,0.236c-0.227,0.165-0.408,0.366-0.529,0.608c-0.098,0.198-0.169,0.412-0.223,0.634
	c-0.08,0.329-0.132,0.657-0.14,0.992c-0.01,0.438,0.012,0.875,0.016,1.313c0.002,0.253,0.029,0.5,0.102,0.744
	c0.043,0.146,0.062,0.299,0.105,0.445c0.034,0.113,0.087,0.222,0.135,0.33c0.018,0.043,0.037,0.086,0.063,0.123
	c0.081,0.114,0.155,0.237,0.252,0.336c0.114,0.115,0.236,0.24,0.38,0.303c0.25,0.108,0.514,0.169,0.8,0.164
	c0.292-0.005,0.56-0.087,0.833-0.154c0.093-0.022,0.173-0.095,0.263-0.136c0.271-0.124,0.404-0.373,0.511-0.62
	c0.076-0.178,0.084-0.392,0.089-0.591C26.919,61.346,26.912,60.824,26.912,60.181z M44.606,45.264c0,1.124-0.003,2.249,0.001,3.373
	c0.002,0.457,0.022,0.912,0.036,1.369c0.005,0.158,0.271,0.454,0.43,0.467c0.288,0.024,0.567,0,0.808-0.188
	c0.066-0.052,0.142-0.09,0.213-0.135c0.136-0.084,0.249-0.037,0.331,0.076c0.084,0.117,0.08,0.235-0.049,0.332
	c-0.345,0.261-0.7,0.502-1.117,0.637c-0.243,0.078-0.477,0.203-0.726,0.244c-0.487,0.082-0.986,0.136-1.465-0.049
	c-0.382-0.147-0.776-0.295-1.073-0.587c-0.181-0.177-0.326-0.401-0.447-0.626c-0.157-0.291-0.262-0.32-0.546-0.117
	c-0.287,0.204-0.58,0.401-0.882,0.584c-0.273,0.164-0.553,0.321-0.844,0.45c-0.199,0.089-0.424,0.114-0.633,0.183
	c-0.482,0.156-0.978,0.192-1.481,0.19c-0.438-0.002-0.848-0.146-1.271-0.221c-0.381-0.067-0.696-0.271-1.045-0.401
	c-0.179-0.065-0.347-0.197-0.483-0.335c-0.302-0.306-0.623-0.605-0.859-0.96c-0.267-0.398-0.418-0.854-0.462-1.354
	c-0.045-0.508-0.032-1.009,0.096-1.49c0.094-0.354,0.266-0.703,0.472-1.008c0.2-0.295,0.458-0.573,0.746-0.782
	c0.306-0.223,0.648-0.417,1.049-0.463c0.224-0.026,0.441-0.104,0.665-0.145c0.313-0.055,0.627-0.096,0.941-0.145
	c0.396-0.063,0.792-0.125,1.189-0.188c0.231-0.036,0.462-0.067,0.692-0.107c0.17-0.03,0.34-0.064,0.506-0.109
	c0.219-0.059,0.452-0.096,0.647-0.201c0.358-0.195,0.707-0.411,0.967-0.743c0.302-0.384,0.357-0.817,0.298-1.285
	c-0.02-0.156,0.006-0.318-0.005-0.476c-0.032-0.445-0.017-0.904-0.125-1.33c-0.094-0.373-0.313-0.702-0.706-0.904
	c-0.671-0.346-1.367-0.269-2.072-0.242c-0.309,0.012-0.578,0.121-0.833,0.255c-0.185,0.097-0.341,0.258-0.491,0.41
	c-0.311,0.317-0.469,0.735-0.557,1.144c-0.086,0.398-0.169,0.792-0.31,1.175c-0.1,0.273-0.303,0.459-0.492,0.668
	c-0.246,0.271-0.572,0.324-0.881,0.336c-0.283,0.012-0.581-0.052-0.827-0.277c-0.374-0.343-0.562-0.756-0.508-1.245
	c0.037-0.346,0.159-0.687,0.389-0.966c0.165-0.201,0.324-0.412,0.517-0.582c0.204-0.18,0.44-0.325,0.672-0.471
	c0.235-0.148,0.478-0.287,0.724-0.417c0.131-0.069,0.274-0.118,0.415-0.166c0.101-0.035,0.218-0.033,0.31-0.081
	c0.471-0.25,1-0.242,1.503-0.313c0.58-0.081,1.175-0.087,1.762-0.078c0.38,0.006,0.76,0.101,1.14,0.154
	c0.185,0.026,0.375,0.03,0.552,0.079c0.252,0.069,0.504,0.15,0.739,0.262c0.31,0.146,0.624,0.298,0.897,0.501
	c0.288,0.214,0.546,0.476,0.785,0.746c0.182,0.206,0.358,0.429,0.415,0.72c0.023,0.121,0.106,0.229,0.131,0.351
	c0.061,0.298,0.142,0.6,0.146,0.9C44.616,42.879,44.606,44.071,44.606,45.264z M41.341,45.939c0-0.588,0-1.174,0-1.761
	c0-0.286-0.067-0.339-0.34-0.241c-0.201,0.071-0.389,0.18-0.59,0.251c-0.397,0.14-0.8,0.263-1.199,0.399
	c-0.274,0.094-0.55,0.189-0.817,0.302c-0.354,0.149-0.705,0.294-1.039,0.5c-0.413,0.256-0.618,0.626-0.789,1.038
	c-0.049,0.118-0.067,0.257-0.066,0.387c0.004,0.474-0.002,0.95,0.043,1.421c0.022,0.229,0.174,0.443,0.229,0.673
	c0.061,0.256,0.232,0.434,0.383,0.619c0.275,0.337,0.678,0.507,1.08,0.604c0.341,0.082,0.719,0.086,1.067,0.035
	c0.317-0.047,0.632-0.184,0.92-0.335c0.21-0.11,0.397-0.29,0.554-0.473c0.174-0.204,0.359-0.43,0.434-0.678
	c0.097-0.323,0.113-0.677,0.124-1.019C41.354,47.088,41.341,46.514,41.341,45.939z M26.873,44.496c-1.363,0-2.727-0.003-4.091,0
	c-0.453,0.002-0.611,0.165-0.616,0.635c-0.005,0.461,0.085,0.922,0.132,1.383c0.025,0.24,0.032,0.482,0.075,0.719
	c0.045,0.245,0.128,0.482,0.188,0.725c0.104,0.428,0.296,0.816,0.512,1.193c0.22,0.383,0.505,0.727,0.875,0.951
	c0.313,0.191,0.633,0.391,1.021,0.452c0.447,0.069,0.888,0.184,1.344,0.14c0.263-0.025,0.524-0.064,0.784-0.105
	c0.271-0.044,0.555-0.061,0.809-0.155c0.492-0.183,0.962-0.419,1.361-0.776c0.498-0.447,0.883-0.977,1.198-1.563
	c0.059-0.11,0.138-0.217,0.229-0.299c0.063-0.056,0.184-0.114,0.245-0.089c0.12,0.05,0.201,0.167,0.176,0.317
	c-0.008,0.053-0.024,0.107-0.051,0.152c-0.302,0.502-0.541,1.045-0.972,1.46c-0.296,0.284-0.572,0.595-0.896,0.843
	c-0.25,0.192-0.571,0.289-0.841,0.46c-0.415,0.263-0.898,0.312-1.35,0.454c-0.27,0.086-0.569,0.094-0.857,0.105
	c-0.391,0.016-0.783-0.003-1.174,0.006c-0.704,0.015-1.396-0.052-2.07-0.267c-0.396-0.126-0.806-0.22-1.185-0.386
	c-0.313-0.136-0.59-0.355-0.883-0.538c-0.475-0.296-0.878-0.683-1.187-1.135c-0.319-0.468-0.583-0.972-0.78-1.521
	c-0.212-0.592-0.268-1.201-0.378-1.803c-0.062-0.338-0.065-0.686-0.077-1.031c-0.019-0.546,0.083-1.078,0.196-1.609
	c0.05-0.233,0.073-0.473,0.135-0.702c0.071-0.264,0.136-0.54,0.266-0.775c0.235-0.426,0.409-0.89,0.749-1.257
	c0.17-0.184,0.298-0.407,0.464-0.595c0.136-0.154,0.29-0.295,0.453-0.42c0.219-0.166,0.451-0.316,0.683-0.463
	c0.24-0.152,0.484-0.299,0.733-0.436c0.092-0.051,0.204-0.063,0.305-0.1c0.235-0.084,0.463-0.201,0.705-0.253
	c0.468-0.102,0.94-0.196,1.416-0.241c0.501-0.047,1.011-0.061,1.514-0.035c0.373,0.02,0.742,0.128,1.113,0.193
	c0.154,0.027,0.323,0.013,0.461,0.072c0.37,0.158,0.757,0.262,1.12,0.449c0.526,0.272,0.969,0.632,1.354,1.066
	c0.237,0.268,0.479,0.551,0.635,0.868c0.179,0.363,0.385,0.725,0.434,1.147c0.025,0.222,0.15,0.433,0.17,0.654
	c0.046,0.495,0.059,0.992,0.078,1.489c0.004,0.106-0.015,0.216-0.036,0.32c-0.042,0.208-0.157,0.3-0.361,0.3
	C29.624,44.496,28.249,44.496,26.873,44.496z M25.406,43.688c0.874,0,1.748,0.001,2.621-0.001c0.245,0,0.5-0.152,0.506-0.317
	c0.012-0.293,0.051-0.597-0.007-0.877c-0.133-0.638-0.184-1.296-0.462-1.904c-0.163-0.356-0.346-0.686-0.586-0.998
	c-0.391-0.508-0.914-0.775-1.51-0.925c-0.402-0.101-0.816-0.123-1.221-0.032c-0.282,0.063-0.565,0.16-0.82,0.294
	c-0.189,0.099-0.327,0.292-0.502,0.424c-0.345,0.26-0.501,0.651-0.693,1.007c-0.145,0.267-0.228,0.58-0.276,0.882
	c-0.098,0.616-0.167,1.238-0.224,1.86c-0.036,0.401,0.156,0.583,0.59,0.586C23.683,43.693,24.545,43.688,25.406,43.688z
	 M71.167,44.495c-1.352,0-2.702-0.001-4.053,0.002c-0.12,0.001-0.241,0.017-0.357,0.042c-0.152,0.033-0.254,0.199-0.246,0.438
	c0.015,0.486,0.053,0.969,0.067,1.454c0.011,0.363,0.028,0.721,0.145,1.068c0.075,0.227,0.104,0.47,0.196,0.688
	c0.138,0.326,0.319,0.636,0.473,0.957c0.139,0.287,0.348,0.516,0.582,0.723c0.314,0.28,0.665,0.518,1.072,0.625
	c0.535,0.141,1.08,0.263,1.643,0.203c0.275-0.029,0.548-0.072,0.821-0.113c0.165-0.023,0.341-0.028,0.493-0.088
	c0.363-0.145,0.73-0.287,1.066-0.482c0.701-0.406,1.193-1.02,1.58-1.721c0.088-0.157,0.176-0.315,0.286-0.455
	c0.065-0.083,0.134-0.225,0.287-0.139c0.169,0.096,0.237,0.275,0.163,0.427c-0.082,0.165-0.173,0.327-0.259,0.49
	c-0.241,0.46-0.549,0.878-0.913,1.241c-0.308,0.307-0.63,0.611-1.033,0.808c-0.319,0.155-0.615,0.372-0.949,0.479
	c-0.75,0.244-1.52,0.418-2.322,0.363c-0.279-0.018-0.562-0.001-0.843-0.002c-0.586-0.004-1.167-0.037-1.726-0.242
	c-0.111-0.04-0.236-0.039-0.352-0.07c-0.473-0.127-0.916-0.317-1.346-0.557c-0.416-0.232-0.813-0.494-1.14-0.836
	c-0.293-0.308-0.551-0.658-0.779-1.019c-0.208-0.329-0.371-0.688-0.527-1.047c-0.105-0.244-0.188-0.503-0.243-0.765
	c-0.062-0.286-0.083-0.581-0.114-0.873c-0.041-0.391-0.088-0.78-0.104-1.172c-0.011-0.258,0.019-0.52,0.043-0.778
	c0.024-0.251,0.069-0.5,0.096-0.75c0.03-0.292,0.042-0.586,0.185-0.855c0.044-0.083,0.061-0.18,0.086-0.271
	c0.128-0.462,0.351-0.879,0.584-1.296c0.329-0.586,0.793-1.049,1.269-1.503c0.188-0.18,0.418-0.32,0.641-0.46
	c0.256-0.161,0.51-0.344,0.791-0.443c0.447-0.156,0.869-0.391,1.361-0.421c0.266-0.017,0.527-0.105,0.794-0.139
	c0.292-0.038,0.589-0.059,0.884-0.074c0.686-0.035,1.354,0.086,2.028,0.198c0.459,0.076,0.876,0.243,1.294,0.401
	c0.35,0.133,0.68,0.355,0.969,0.597c0.337,0.281,0.639,0.61,0.918,0.95c0.175,0.212,0.271,0.485,0.419,0.722
	c0.271,0.433,0.354,0.929,0.497,1.405c0.037,0.125,0.043,0.262,0.047,0.394c0.018,0.487,0.039,0.973,0.035,1.459
	c-0.003,0.277-0.177,0.447-0.455,0.444C73.869,44.487,72.519,44.494,71.167,44.495z M69.706,43.688c0.409,0,0.818,0,1.229,0
	c0.458,0,0.916,0.001,1.375-0.001c0.291-0.001,0.506-0.121,0.505-0.298c-0.003-0.444,0.032-0.898-0.048-1.329
	c-0.105-0.569-0.198-1.154-0.496-1.672c-0.062-0.107-0.08-0.242-0.15-0.341c-0.141-0.201-0.303-0.388-0.459-0.578
	c-0.24-0.292-0.534-0.508-0.891-0.637c-0.096-0.035-0.189-0.07-0.286-0.102c-0.425-0.143-0.862-0.181-1.302-0.115
	c-0.221,0.033-0.429,0.146-0.648,0.19c-0.318,0.063-0.527,0.28-0.758,0.476c-0.386,0.326-0.597,0.769-0.781,1.215
	c-0.152,0.366-0.27,0.757-0.33,1.148c-0.078,0.493-0.094,0.998-0.117,1.498c-0.018,0.38,0.045,0.445,0.409,0.535
	c0.058,0.014,0.12,0.012,0.181,0.012C67.994,43.688,68.85,43.688,69.706,43.688z M46.963,60.34c-0.724,0-1.448-0.001-2.171,0.001
	c-0.064,0.001-0.129,0.009-0.191,0.022c-0.082,0.019-0.136,0.107-0.132,0.234c0.008,0.261,0.028,0.52,0.036,0.779
	c0.006,0.194,0.016,0.386,0.078,0.572c0.04,0.121,0.055,0.252,0.104,0.368c0.074,0.175,0.171,0.341,0.254,0.514
	c0.074,0.153,0.186,0.275,0.312,0.387c0.169,0.15,0.356,0.276,0.575,0.334c0.287,0.076,0.579,0.141,0.88,0.109
	c0.147-0.016,0.294-0.038,0.44-0.061c0.088-0.013,0.183-0.016,0.264-0.048c0.194-0.077,0.391-0.152,0.571-0.258
	c0.375-0.218,0.64-0.546,0.847-0.922c0.047-0.084,0.094-0.169,0.154-0.244c0.035-0.044,0.071-0.12,0.154-0.074
	c0.09,0.051,0.126,0.147,0.086,0.229c-0.044,0.089-0.092,0.176-0.138,0.264c-0.13,0.246-0.294,0.47-0.489,0.664
	c-0.165,0.165-0.338,0.328-0.555,0.433c-0.17,0.084-0.329,0.2-0.508,0.258c-0.402,0.13-0.814,0.224-1.244,0.194
	c-0.15-0.009-0.301-0.001-0.452-0.001c-0.313-0.003-0.625-0.02-0.925-0.13c-0.059-0.021-0.126-0.021-0.188-0.038
	c-0.253-0.067-0.491-0.17-0.721-0.298c-0.223-0.125-0.436-0.265-0.61-0.448c-0.157-0.165-0.295-0.353-0.417-0.545
	c-0.112-0.177-0.199-0.369-0.283-0.562c-0.057-0.131-0.101-0.27-0.13-0.409c-0.033-0.154-0.044-0.312-0.062-0.469
	c-0.021-0.209-0.047-0.418-0.056-0.628c-0.006-0.138,0.01-0.278,0.022-0.417c0.013-0.134,0.038-0.268,0.052-0.402
	c0.017-0.156,0.022-0.313,0.099-0.459c0.023-0.044,0.032-0.097,0.046-0.146c0.068-0.247,0.188-0.471,0.313-0.693
	c0.176-0.314,0.425-0.563,0.679-0.807c0.101-0.097,0.224-0.171,0.343-0.245c0.137-0.087,0.273-0.186,0.424-0.238
	c0.24-0.084,0.466-0.21,0.729-0.226c0.143-0.009,0.283-0.056,0.425-0.074c0.157-0.021,0.315-0.031,0.473-0.04
	c0.368-0.018,0.726,0.047,1.087,0.106c0.246,0.04,0.469,0.13,0.693,0.215c0.188,0.07,0.365,0.19,0.52,0.319
	c0.181,0.15,0.342,0.327,0.492,0.509c0.094,0.113,0.146,0.26,0.225,0.388c0.145,0.231,0.189,0.497,0.266,0.752
	c0.02,0.067,0.023,0.141,0.025,0.212c0.009,0.262,0.021,0.522,0.019,0.782c0,0.148-0.094,0.24-0.243,0.238
	C48.412,60.335,47.687,60.339,46.963,60.34z M46.18,59.907c0.22,0,0.438,0,0.658,0c0.246,0,0.491,0.001,0.737,0
	c0.156-0.001,0.271-0.064,0.271-0.16c-0.002-0.238,0.017-0.481-0.026-0.713c-0.056-0.305-0.105-0.618-0.266-0.896
	c-0.032-0.058-0.043-0.13-0.081-0.184c-0.075-0.107-0.162-0.208-0.246-0.31c-0.129-0.157-0.286-0.272-0.478-0.342
	c-0.051-0.018-0.102-0.037-0.153-0.055c-0.228-0.076-0.462-0.097-0.697-0.062c-0.119,0.018-0.23,0.078-0.348,0.102
	c-0.171,0.034-0.283,0.15-0.406,0.255c-0.207,0.175-0.32,0.412-0.418,0.652c-0.082,0.196-0.145,0.404-0.177,0.614
	c-0.042,0.265-0.05,0.534-0.063,0.804c-0.009,0.204,0.024,0.238,0.22,0.287c0.031,0.007,0.064,0.006,0.097,0.006
	C45.263,59.907,45.722,59.907,46.18,59.907z M99.082,41.727c-0.007-0.401-0.006-1.663,0-1.894c0.007-0.233,0.012-0.467-0.003-0.7
	c-0.006-0.101-0.034-0.247-0.103-0.289c-0.246-0.15-0.842-0.44-0.881-0.455c-0.418-0.153-0.824-0.355-1.255-0.446
	c-0.498-0.105-1.017-0.139-1.526-0.153c-0.453-0.014-1.639,0.087-1.771,0.124c-2.197,0.492-2.615,1.353-2.898,1.716
	c-0.251,0.323-0.648,1.523-0.656,1.748c-0.014,0.41-0.143,1.715,0.781,2.804c0.371,0.437,2.258,1.458,2.551,1.575
	c0.572,0.306,3.416,1.103,3.809,2.142c0.17,0.449,0.104,0.934,0.023,1.397c-0.037,0.216-0.291,0.876-0.779,1.183
	s-2.256,0.354-2.654,0.27c-2.139-0.467-3.123-1.732-3.326-2.645c-0.129-0.408-0.211-0.832-0.336-1.242
	c-0.028-0.094-0.152-0.225-0.23-0.223c-0.133,0.004-0.223,0.125-0.207,0.285c0.037,0.365,0.066,0.731,0.109,1.096
	c0.069,0.579,0.146,1.156,0.223,1.734c0.027,0.213,0.087,0.408,0.296,0.523c0.239,0.133,0.475,0.273,0.711,0.412
	c0.103,0.061,1.731,0.767,3.253,0.767s2.916-0.3,3.738-0.726c1.037-0.574,2.053-1.934,2.047-3.212s-0.205-1.618-0.384-1.938
	c-0.288-0.513-0.71-0.933-1.171-1.3c-0.181-0.145-0.971-0.656-1.827-0.953c-0.375-0.13-1.751-0.55-2.053-0.656
	c-0.313-0.109-1.288-0.548-1.438-0.68c-0.208-0.184-0.394-0.398-0.456-0.684c-0.043-0.192-0.804-2.355,1.551-2.709
	c0.48-0.053,1.93,0.027,2.165,0.067c1.134,0.193,1.662,1.246,1.821,1.458c0.215,0.52,0.249,0.888,0.363,1.279
	c0.068,0.23,0.074,0.665,0.299,0.665S99.085,41.886,99.082,41.727z M55.485,58.89c-0.004-0.217-0.003-0.898,0-1.022
	c0.003-0.126,0.007-0.252-0.002-0.378c-0.003-0.055-0.018-0.134-0.055-0.156c-0.133-0.081-0.455-0.238-0.476-0.245
	c-0.227-0.084-0.445-0.193-0.679-0.241c-0.269-0.057-0.548-0.076-0.823-0.084c-0.245-0.007-0.885,0.048-0.957,0.067
	c-1.187,0.266-1.413,0.73-1.566,0.927c-0.135,0.175-0.35,0.822-0.354,0.944c-0.008,0.222-0.077,0.927,0.422,1.516
	c0.2,0.236,1.22,0.787,1.378,0.85c0.31,0.166,1.845,0.596,2.057,1.156c0.092,0.243,0.057,0.505,0.013,0.756
	c-0.02,0.116-0.157,0.473-0.421,0.639c-0.264,0.165-1.218,0.19-1.434,0.146c-1.155-0.253-1.687-0.936-1.797-1.429
	c-0.068-0.221-0.114-0.449-0.181-0.671c-0.016-0.05-0.083-0.121-0.125-0.12c-0.072,0.002-0.121,0.068-0.112,0.153
	c0.02,0.198,0.036,0.396,0.059,0.593c0.038,0.313,0.079,0.625,0.12,0.937c0.015,0.115,0.048,0.221,0.16,0.282
	c0.13,0.072,0.257,0.147,0.384,0.223c0.056,0.033,0.936,0.415,1.757,0.415c0.822,0,1.575-0.162,2.019-0.393
	c0.562-0.31,1.109-1.044,1.106-1.734c-0.003-0.691-0.111-0.874-0.208-1.046c-0.155-0.277-0.383-0.505-0.631-0.703
	c-0.099-0.077-0.524-0.354-0.988-0.515c-0.203-0.069-0.945-0.297-1.109-0.354c-0.168-0.061-0.694-0.298-0.775-0.369
	c-0.111-0.099-0.212-0.215-0.246-0.369c-0.023-0.104-0.435-1.272,0.838-1.463c0.259-0.028,1.042,0.015,1.169,0.036
	c0.612,0.104,0.897,0.673,0.984,0.788c0.115,0.28,0.134,0.479,0.195,0.69c0.037,0.124,0.04,0.359,0.161,0.359
	C55.491,59.074,55.486,58.976,55.485,58.89z M78.063,48.119c-0.003,0.578-0.01,1.157-0.04,1.734
	c-0.021,0.416-0.271,0.65-0.715,0.625c-0.185-0.01-0.38-0.005-0.556,0.045c-0.103,0.029-0.242,0.158-0.245,0.246
	c-0.002,0.102,0.112,0.225,0.205,0.305c0.059,0.051,0.169,0.059,0.256,0.059c1.902,0.003,3.803,0.002,5.705,0
	c0.076,0,0.159-0.009,0.229-0.039c0.135-0.06,0.225-0.178,0.217-0.324c-0.01-0.139-0.094-0.249-0.254-0.258
	c-0.26-0.014-0.52-0.031-0.779-0.035c-0.432-0.008-0.757-0.327-0.757-0.754c0-2.396,0.001-4.793-0.001-7.19
	c0-0.478,0.043-0.932,0.229-1.394c0.188-0.464,0.428-0.862,0.768-1.219c0.346-0.364,1.063-0.34,1.39,0.006
	c0.109,0.115,0.223,0.227,0.336,0.337c0.311,0.299,0.672,0.467,1.113,0.456c0.364-0.01,0.68-0.08,0.966-0.354
	c0.288-0.277,0.538-0.802,0.444-1.181c-0.021-0.087-0.051-0.171-0.072-0.258c-0.084-0.362-0.357-0.596-0.653-0.726
	c-0.5-0.22-1.035-0.327-1.59-0.128c-0.3,0.107-0.61,0.155-0.898,0.326c-0.316,0.187-0.639,0.36-0.908,0.606
	c-0.313,0.286-0.6,0.599-0.902,0.896c-0.037,0.038-0.098,0.078-0.145,0.074c-0.037-0.003-0.083-0.067-0.098-0.113
	c-0.019-0.056-0.012-0.12-0.01-0.181c0.01-0.444,0.039-0.888,0.024-1.331c-0.009-0.28-0.173-0.363-0.439-0.308
	c-0.234,0.048-0.474,0.077-0.71,0.108c-0.263,0.035-0.529,0.045-0.789,0.097c-0.541,0.109-1.082,0.213-1.638,0.24
	c-0.261,0.013-0.519,0.082-0.774,0.141c-0.159,0.037-0.282,0.209-0.262,0.325c0.025,0.142,0.158,0.229,0.346,0.225
	c0.031,0,0.062,0,0.092-0.003c0.24-0.023,0.479-0.047,0.719-0.07c0.115-0.011,0.195,0.033,0.2,0.156
	c0.007,0.147-0.001,0.294-0.001,0.442c0,1.645,0,3.289,0,4.934C78.063,45.796,78.067,46.957,78.063,48.119z M38.365,67.718
	c-1.256,0-1.732-0.23-1.793-0.262c-0.289-0.152-0.591-0.289-0.855-0.477c-0.324-0.23-0.543-0.561-0.679-0.937
	c-0.118-0.327-0.083-0.569,0.002-0.985s0.906-1.062,1.222-1.087c0.108-0.009,0.13-0.099,0.044-0.165
	c-0.131-0.103-0.275-0.189-0.417-0.279c-0.335-0.211-0.629-0.535-0.629-0.897s0.444-0.901,0.874-1.063
	c0.074-0.027,0.159-0.121,0.168-0.194c0.008-0.062-0.075-0.18-0.139-0.196c-0.285-0.076-0.452-0.302-0.622-0.498
	c-0.386-0.446-0.583-0.99-0.539-1.576c0.053-0.688,0.26-1.317,0.886-1.741c0.507-0.344,1.042-0.545,1.658-0.541
	c0.321,0.003,0.643-0.034,0.964-0.029c0.246,0.003,0.491,0.043,0.736,0.07c0.034,0.004,0.069,0.018,0.101,0.033
	c0.209,0.104,0.471,0.068,0.613-0.111c0.248-0.313,0.557-0.544,0.904-0.73c0.463-0.25,0.958-0.289,1.434-0.092
	c0.239,0.099,0.42,0.37,0.419,0.635c-0.001,0.255-0.133,0.512-0.39,0.65c-0.484,0.259-0.729,0.211-1.136-0.184
	c-0.333-0.323-0.576-0.299-0.878-0.074c-0.177,0.133-0.148,0.307,0.036,0.426c0.329,0.214,0.54,0.527,0.738,0.865
	c0.237,0.404,0.231,0.83,0.208,1.261c-0.01,0.188-0.089,0.379-0.169,0.553c-0.082,0.178-0.195,0.342-0.31,0.499
	c-0.19,0.261-0.448,0.432-0.728,0.597c-0.491,0.291-1.029,0.371-1.569,0.432c-0.359,0.04-0.729-0.004-1.094-0.026
	c-0.245-0.016-0.611,0.181-0.677,0.388c-0.09,0.285,0.059,0.51,0.349,0.568c0.691,0.139,1.391,0.084,2.087,0.114
	c0.412,0.019,0.823,0.093,1.231,0.155c0.566,0.088,1.025,0.385,1.367,0.826c0.218,0.283,0.405,0.611,0.4,0.996
	c-0.003,0.278,0.025,0.571-0.049,0.832c-0.094,0.327-0.249,0.646-0.433,0.935c-0.153,0.238-0.358,0.468-0.591,0.625
	C40.835,67.218,39.621,67.718,38.365,67.718z M38.499,67.084c0.433-0.003,0.832-0.071,1.21-0.306
	c0.349-0.217,0.559-0.504,0.641-0.896c0.023-0.111,0.042-0.223,0.059-0.336c0.051-0.344,0.032-0.705-0.182-0.966
	c-0.161-0.196-0.44-0.331-0.693-0.407c-0.271-0.081-0.572-0.078-0.861-0.083c-0.352-0.005-0.704,0.032-1.055,0.029
	c-0.388-0.003-0.648,0.223-0.893,0.472c-0.087,0.089-0.16,0.215-0.185,0.336c-0.039,0.188-0.039,0.383-0.04,0.576
	c-0.002,0.338,0.17,0.622,0.348,0.885c0.216,0.32,0.561,0.49,0.921,0.596C38.002,67.051,38.255,67.053,38.499,67.084z M39.458,59.35
	c-0.026-0.304-0.045-0.508-0.061-0.713c-0.047-0.616-0.393-1.055-0.968-1.176c-0.279-0.059-0.571-0.029-0.816,0.139
	c-0.471,0.324-0.619,0.82-0.629,1.353c-0.007,0.364,0.063,0.73,0.102,1.096c0.046,0.434,0.306,0.757,0.667,0.916
	c0.253,0.111,0.593,0.08,0.885,0.039c0.419-0.057,0.563-0.438,0.676-0.771C39.418,59.926,39.423,59.585,39.458,59.35z
	 M61.384,57.517c0.183-0.004,0.351-0.139,0.354-0.271c0.004-0.167-0.119-0.343-0.279-0.347c-0.496-0.013-0.992-0.011-1.488-0.005
	c-0.204,0.002-0.373-0.052-0.365-0.303c0.016-0.457,0.008-0.916,0.004-1.375c-0.002-0.236-0.174-0.422-0.365-0.368
	c-0.105,0.03-0.211,0.125-0.274,0.22c-0.331,0.489-0.653,0.986-0.97,1.486c-0.146,0.232-0.373,0.354-0.572,0.339
	c-0.273-0.021-0.553-0.026-0.826,0.006c-0.252,0.029-0.315,0.144-0.293,0.386c0.014,0.145,0.151,0.231,0.373,0.232
	c0.207,0.002,0.416-0.002,0.623,0.002c0.141,0.002,0.226,0.053,0.219,0.218c-0.012,0.233-0.004,0.466-0.004,0.7
	c0,1.364-0.001,2.728,0,4.092c0.001,0.341,0.17,0.634,0.355,0.886c0.241,0.326,0.62,0.52,1.004,0.623
	c0.314,0.085,0.658,0.07,0.988,0.082c0.651,0.023,1.232-0.194,1.775-0.536c0.136-0.085,0.211-0.188,0.145-0.341
	c-0.049-0.114-0.269-0.141-0.409-0.078c-0.151,0.065-0.304,0.134-0.463,0.174c-0.49,0.123-1.134-0.27-1.225-0.756
	c-0.048-0.254-0.075-0.515-0.077-0.772c-0.007-1.277-0.003-2.556-0.003-3.833c0-0.056,0.005-0.11-0.003-0.165
	c-0.031-0.209,0.031-0.291,0.236-0.294c0.25-0.003,0.501-0.001,0.752-0.001C60.857,57.518,61.121,57.522,61.384,57.517z
	 M33.491,57.52c0-0.037,0.001-0.074,0-0.109c-0.016-0.377-0.166-0.485-0.524-0.383c-0.08,0.023-0.163,0.037-0.246,0.05
	c-0.427,0.063-0.855,0.118-1.28,0.188c-0.193,0.032-0.384,0.084-0.571,0.141c-0.112,0.033-0.209,0.124-0.157,0.243
	c0.032,0.073,0.143,0.146,0.227,0.156c0.401,0.053,0.402,0.045,0.387,0.458c-0.001,0.043,0,0.086,0,0.128c0,1.59,0,3.18,0,4.768
	c0,0.227-0.063,0.288-0.286,0.305c-0.095,0.006-0.204,0.004-0.281,0.049c-0.093,0.055-0.21,0.147-0.221,0.236
	c-0.01,0.076,0.104,0.182,0.184,0.25c0.047,0.041,0.135,0.047,0.205,0.048c1.043,0.01,2.087,0.016,3.13,0.022
	c0.165,0.001,0.309-0.129,0.315-0.282c0.009-0.249-0.17-0.374-0.441-0.307c-0.29,0.072-0.517-0.109-0.476-0.376
	c0.018-0.113,0.034-0.227,0.035-0.341c0.003-0.855,0.001-1.711,0.001-2.566C33.491,59.304,33.491,58.412,33.491,57.52z
	 M33.125,54.384c-0.288-0.191-0.598-0.332-0.945-0.2c-0.296,0.113-0.547,0.285-0.714,0.585c-0.227,0.407-0.058,1.038,0.375,1.226
	c0.347,0.148,0.696,0.205,1.073,0.061c0.329-0.127,0.674-0.525,0.615-0.863C33.516,54.702,33.394,54.563,33.125,54.384z
	 M91.467,32.915c-0.119-0.225-0.33-0.414-0.533-0.577c-0.211-0.169-0.9-0.568-1.588-0.568c-1.069,0-1.937,0.867-1.937,1.937
	c0,0.577,0.257,1.089,0.657,1.443c0.137,0.14,0.285,0.262,0.457,0.343c0.32,0.15,0.677,0.238,1.056,0.132
	c0.378-0.105,0.702,0.251,0.595,0.635c-0.098,0.344-0.172,0.864-1.217,1.856c-0.289,0.274-0.648,0.47-0.974,0.703
	c-0.05,0.035-0.101,0.077-0.13,0.128c-0.074,0.131-0.112,0.268,0.01,0.396c0.098,0.102,0.205,0.116,0.324,0.034
	c0.349-0.241,0.706-0.471,1.045-0.725c0.348-0.262,0.69-0.534,1.013-0.826c0.308-0.28,0.567-0.601,0.797-0.956
	c0.241-0.372,0.673-1.346,0.809-1.992S91.638,33.235,91.467,32.915z"/>
</svg>
