<?xml version="1.0" encoding="utf-8"?>
<!-- Generator: Adobe Illustrator 16.0.0, SVG Export Plug-In . SVG Version: 6.00 Build 0)  -->
<!DOCTYPE svg PUBLIC "-//W3C//DTD SVG 1.1//EN" "http://www.w3.org/Graphics/SVG/1.1/DTD/svg11.dtd">
<svg version="1.1" id="Layer_1" xmlns="http://www.w3.org/2000/svg" xmlns:xlink="http://www.w3.org/1999/xlink" x="0px" y="0px"
	 width="100px" height="100px" viewBox="0 0 100 100" enable-background="new 0 0 100 100" xml:space="preserve">
<path fill-rule="evenodd" clip-rule="evenodd" d="M3.882,39.078c0.284,0.142,0.531,0.315,0.629,0.642
	c0.094,0.312,0.021,0.583-0.155,0.844c-0.897,1.329-1.563,2.764-1.969,4.317c-0.4,1.524-0.552,3.07-0.442,4.646
	c0.172,2.479,0.941,4.753,2.297,6.83c0.157,0.242,0.335,0.464,0.317,0.786c-0.021,0.371-0.223,0.699-0.571,0.832
	c-0.368,0.141-0.709,0.086-0.988-0.197c-0.265-0.266-0.438-0.602-0.629-0.918c-1.028-1.704-1.718-3.534-2.066-5.494
	c-0.09-0.504-0.162-1.013-0.189-1.526c-0.002-0.037-0.098-1.074-0.082-2.01c0.016-0.937,0.158-1.424,0.225-1.833
	c0.354-2.159,1.103-4.171,2.274-6.023c0.225-0.354,0.416-0.745,0.856-0.895C3.553,39.078,3.717,39.078,3.882,39.078z M99.881,46.303
	c-0.229-1.645-0.704-3.213-1.419-4.709c-0.324-0.678-0.7-1.324-1.109-1.954c-0.168-0.258-0.367-0.463-0.664-0.562
	c-0.149,0-0.298,0-0.447,0c-0.729,0.337-0.884,0.897-0.438,1.568c0.354,0.535,0.677,1.087,0.955,1.665
	c1.004,2.079,1.483,4.271,1.427,6.583c-0.03,1.211-0.206,2.397-0.536,3.563c-0.416,1.466-1.058,2.824-1.911,4.086
	c-0.193,0.284-0.26,0.581-0.138,0.907c0.127,0.338,0.383,0.539,0.729,0.586c0.384,0.053,0.694-0.096,0.918-0.428
	c0.438-0.648,0.833-1.321,1.175-2.026c0.739-1.522,1.231-3.119,1.454-4.798c0.042-0.315,0.087-0.63,0.13-0.946
	C100.007,48.941,100.116,48.188,99.881,46.303z M75.554,60.466c0.762-0.291,1.119-1.063,0.912-1.845
	c-0.19-0.718-0.845-1.146-1.67-1.069c-0.602,0.055-1.038,0.369-1.253,0.935c-0.221,0.578-0.117,1.111,0.297,1.579
	c0.192,0.217,0.551,0.41,0.701,0.443C74.722,60.548,75.32,60.554,75.554,60.466z M74.124,59.027c0.002-0.5,0.369-0.89,0.842-0.894
	c0.479-0.006,0.883,0.417,0.875,0.917c-0.007,0.492-0.386,0.878-0.86,0.876C74.493,59.925,74.122,59.535,74.124,59.027z
	 M25.373,60.419c0.242-0.115,0.413-0.291,0.477-0.557c0.113-0.474-0.062-0.825-0.518-1.001c-0.256-0.098-0.526-0.16-0.785-0.25
	c-0.126-0.043-0.228-0.129-0.192-0.285c0.034-0.148,0.152-0.187,0.289-0.196c0.176-0.012,0.338,0.029,0.499,0.097
	c0.112,0.047,0.216,0.191,0.326,0.139c0.1-0.047,0.152-0.193,0.226-0.296c0.009-0.012,0.015-0.027,0.024-0.037
	c0.088-0.088,0.056-0.146-0.038-0.209c-0.38-0.248-0.8-0.334-1.239-0.254c-0.497,0.092-0.75,0.422-0.742,0.911
	c0.007,0.352,0.179,0.582,0.564,0.719c0.251,0.09,0.511,0.154,0.764,0.24c0.117,0.039,0.216,0.113,0.197,0.261
	c-0.02,0.154-0.133,0.207-0.266,0.227c-0.244,0.035-0.472-0.012-0.689-0.131c-0.339-0.183-0.334-0.175-0.59,0.121
	c-0.106,0.125-0.068,0.18,0.042,0.262c0.21,0.156,0.583,0.314,0.695,0.33S25.138,60.563,25.373,60.419z M74.153,43.515
	c0.006-0.177-0.029-0.242-0.227-0.24c-1.143,0.01-2.286,0.01-3.429,0c-0.182-0.001-0.218,0.055-0.218,0.224
	c0.005,3.37,0.005,6.741-0.001,10.109c0,0.182,0.04,0.236,0.23,0.236c1.247-0.01,2.494-0.01,3.742,0c0.19,0,0.249-0.037,0.248-0.241
	c-0.01-1.771-0.004-3.541-0.007-5.312c0-0.375,0.019-0.746,0.095-1.113c0.131-0.63,0.487-0.899,1.146-0.883
	c0.638,0.017,0.951,0.293,1.053,0.928c0.068,0.43,0.073,0.862,0.073,1.294c0,1.697,0.003,3.393-0.004,5.089
	c-0.001,0.177,0.03,0.239,0.227,0.237c1.248-0.01,2.496-0.01,3.744,0c0.188,0.002,0.232-0.049,0.231-0.234
	c-0.008-1.695-0.012-3.392,0-5.087c0.004-0.483-0.013-0.971,0.119-1.445c0.102-0.368,0.303-0.645,0.695-0.74
	c0.244-0.059,0.486-0.054,0.732-0.006c0.359,0.068,0.581,0.276,0.684,0.625c0.102,0.347,0.126,0.705,0.127,1.062
	c0.005,1.869,0.005,3.737-0.002,5.604c0,0.17,0.038,0.223,0.218,0.223c1.263-0.01,2.524-0.01,3.787,0
	c0.187,0.002,0.216-0.063,0.215-0.229c-0.005-2.031,0.001-4.063-0.006-6.096c-0.002-0.597-0.064-1.19-0.222-1.771
	c-0.259-0.953-0.737-1.756-1.617-2.266c-0.734-0.427-1.541-0.537-2.373-0.503c-0.688,0.026-1.314,0.228-1.862,0.66
	c-0.437,0.347-0.775,0.783-1.121,1.238c-0.628-1.29-1.703-1.828-3.068-1.902c-1.431-0.076-2.403,0.669-3.215,1.827
	C74.149,44.321,74.141,43.917,74.153,43.515z M12.691,50.541c-0.157-0.002-0.228,0.02-0.203,0.202
	c0.108,0.818,0.413,1.538,1.025,2.104c0.812,0.754,1.817,1.052,2.88,1.202c0.99,0.141,1.981,0.121,2.969-0.004
	c0.862-0.107,1.696-0.322,2.458-0.763c1.284-0.744,1.898-2.122,1.563-3.543c-0.225-0.955-0.897-1.519-1.737-1.919
	c-0.936-0.445-1.95-0.631-2.952-0.851c-0.522-0.115-1.054-0.205-1.532-0.465c-0.211-0.113-0.383-0.275-0.359-0.544
	c0.024-0.279,0.191-0.458,0.448-0.562c0.293-0.116,0.599-0.115,0.905-0.098c0.523,0.031,0.891,0.333,1.027,0.841
	c0.031,0.114,0.066,0.17,0.204,0.17c1.159-0.008,2.317-0.008,3.475,0c0.166,0,0.184-0.068,0.166-0.195
	c-0.072-0.492-0.214-0.958-0.487-1.38c-0.537-0.827-1.345-1.248-2.262-1.485c-1.273-0.33-2.568-0.362-3.865-0.174
	c-0.838,0.122-1.626,0.396-2.344,0.874c-1.656,1.1-1.819,3.992,0.227,5.021c0.858,0.432,1.777,0.629,2.703,0.82
	c0.591,0.119,1.191,0.207,1.745,0.459c0.29,0.131,0.533,0.321,0.516,0.685c-0.017,0.373-0.215,0.627-0.56,0.764
	c-0.341,0.139-0.701,0.148-1.058,0.104c-0.639-0.08-1.083-0.504-1.151-1.098c-0.017-0.142-0.063-0.165-0.188-0.165
	c-0.605,0.006-1.21,0.004-1.815,0.004C13.887,50.545,13.289,50.549,12.691,50.541z M58.119,43.446
	c1.081,1.564,2.161,3.129,3.247,4.689c0.087,0.128,0.102,0.213,0.008,0.352c-0.969,1.398-1.929,2.801-2.891,4.203
	c-0.254,0.373-0.509,0.744-0.771,1.128c0.052,0.012,0.072,0.021,0.093,0.021c1.472,0,2.943-0.002,4.415,0.004
	c0.122,0,0.166-0.059,0.213-0.15c0.381-0.759,0.763-1.517,1.146-2.273c0.093-0.182,0.188-0.361,0.299-0.574
	c0.477,0.967,0.935,1.892,1.387,2.82c0.064,0.133,0.141,0.18,0.29,0.178c1.419-0.006,2.839-0.002,4.258-0.004
	c0.064,0,0.133,0.02,0.194-0.021c0.015-0.08-0.05-0.123-0.084-0.176c-1.134-1.725-2.268-3.45-3.408-5.172
	c-0.09-0.136-0.084-0.219,0.01-0.348c1.02-1.407,2.033-2.819,3.047-4.23c0.138-0.19,0.272-0.383,0.422-0.593
	c-0.062-0.009-0.089-0.017-0.116-0.017c-1.449,0-2.898,0.002-4.348-0.004c-0.137-0.001-0.177,0.076-0.227,0.169
	c-0.388,0.729-0.776,1.458-1.167,2.186c-0.043,0.079-0.071,0.172-0.155,0.234c-0.4-0.798-0.798-1.581-1.183-2.37
	c-0.078-0.158-0.162-0.226-0.35-0.222c-0.755,0.013-1.51,0.005-2.265,0.005c-0.708,0-1.418,0-2.173,0
	C58.064,43.363,58.091,43.405,58.119,43.446z M45.756,53.669c-0.009,0.182,0.037,0.242,0.23,0.24c0.911-0.01,1.822-0.01,2.734-0.002
	c0.176,0.002,0.223-0.045,0.223-0.223c-0.006-2.727-0.006-5.454-0.001-8.18c0.001-0.154-0.033-0.2-0.194-0.199
	c-1.008,0.008-2.018,0.01-3.025,0c-0.176-0.002-0.206,0.051-0.205,0.213c0.007,1.276,0.005,2.555,0.003,3.832
	c0,0.336-0.022,0.67-0.076,1.004c-0.14,0.872-0.686,1.259-1.559,1.103c-0.362-0.064-0.608-0.262-0.735-0.609
	c-0.1-0.27-0.131-0.548-0.131-0.833c0.001-1.487-0.003-2.973,0.005-4.46c0.001-0.184-0.024-0.253-0.236-0.25
	c-0.986,0.014-1.973,0.012-2.958,0.002c-0.186-0.002-0.233,0.044-0.232,0.23c0.008,1.711,0.005,3.421,0.005,5.133
	c0,0.418,0.044,0.834,0.148,1.24c0.276,1.065,0.881,1.824,1.984,2.119c0.416,0.111,0.84,0.129,1.266,0.111
	c0.793-0.033,1.533-0.219,2.138-0.774c0.215-0.197,0.403-0.418,0.62-0.691C45.76,53.045,45.77,53.357,45.756,53.669z M49.453,51.214
	c-0.142-0.004-0.175,0.035-0.158,0.176c0.126,1.065,0.697,1.804,1.651,2.254c0.819,0.385,1.696,0.496,2.592,0.496
	c1.066,0.002,2.114-0.1,3.094-0.569c1.16-0.559,1.728-1.585,1.54-2.847c-0.129-0.868-0.715-1.379-1.466-1.731
	c-0.687-0.322-1.424-0.472-2.158-0.633c-0.494-0.108-0.997-0.185-1.454-0.419c-0.174-0.089-0.309-0.216-0.296-0.435
	c0.013-0.215,0.127-0.363,0.322-0.443c0.329-0.137,0.669-0.145,1.008-0.053c0.314,0.084,0.516,0.3,0.591,0.611
	c0.032,0.138,0.091,0.158,0.212,0.158c0.919-0.004,1.838-0.006,2.757,0c0.153,0.002,0.186-0.038,0.162-0.188
	c-0.169-1.12-0.828-1.815-1.868-2.186c-0.887-0.316-1.81-0.36-2.737-0.326c-0.913,0.034-1.791,0.215-2.572,0.718
	c-0.839,0.542-1.19,1.333-1.128,2.309c0.062,0.968,0.614,1.582,1.471,1.962c0.681,0.301,1.405,0.43,2.127,0.577
	c0.438,0.09,0.881,0.16,1.284,0.365c0.208,0.105,0.366,0.258,0.356,0.521c-0.01,0.271-0.138,0.465-0.377,0.589
	c-0.141,0.074-0.295,0.105-0.45,0.125c-0.617,0.08-1.354-0.181-1.419-0.919c-0.012-0.127-0.088-0.111-0.169-0.111
	c-0.485,0-0.972,0-1.457,0C50.423,51.216,49.938,51.222,49.453,51.214z M31.56,45.479c0.003-0.141-0.039-0.174-0.175-0.173
	c-0.918,0.007-1.838,0.007-2.756-0.001c-0.156-0.001-0.18,0.053-0.18,0.19c0.004,2.741,0.004,5.484-0.001,8.226
	c0,0.148,0.043,0.186,0.188,0.186c1.008-0.006,2.016-0.008,3.025,0.002c0.183,0.002,0.202-0.064,0.201-0.219
	c-0.007-0.89-0.003-1.777-0.004-2.668c0-0.352,0.029-0.698,0.09-1.046c0.15-0.868,0.614-1.341,1.482-1.5
	c0.364-0.065,0.729-0.046,1.088,0.04c0.104,0.023,0.152,0.013,0.152-0.108c-0.002-1.053-0.002-2.107,0-3.16
	c0-0.09-0.026-0.142-0.12-0.151c-0.925-0.096-1.75,0.092-2.381,0.837c-0.257,0.305-0.422,0.664-0.613,1.021
	C31.557,46.462,31.551,45.971,31.56,45.479z M35.352,53.667c-0.002,0.205,0.061,0.244,0.251,0.242c0.986-0.01,1.972-0.01,2.958,0
	c0.185,0,0.238-0.047,0.238-0.234c-0.007-2.719-0.006-5.438-0.001-8.157c0-0.165-0.036-0.215-0.208-0.213
	c-1.001,0.009-2.001,0.01-3.003,0c-0.181-0.002-0.236,0.034-0.235,0.228c0.01,1.352,0.006,2.704,0.006,4.055
	C35.358,50.948,35.363,52.307,35.352,53.667z M24.144,53.696c-0.001,0.164,0.035,0.213,0.207,0.213
	c1.001-0.01,2.001-0.008,3.003-0.002c0.16,0.002,0.218-0.029,0.217-0.207c-0.006-2.732-0.005-5.466,0-8.2
	c0-0.16-0.046-0.195-0.199-0.195c-1.008,0.008-2.017,0.01-3.025,0c-0.177-0.002-0.203,0.055-0.202,0.213
	c0.006,1.358,0.004,2.719,0.004,4.078C24.147,50.962,24.15,52.33,24.144,53.696z M4.781,53.184c0.333,0.726,0.731,1.417,1.232,2.041
	c0.31,0.387,0.795,0.453,1.202,0.197c0.488-0.304,0.559-0.899,0.185-1.419c-1.564-2.178-2.087-4.589-1.597-7.22
	c0.258-1.376,0.836-2.611,1.668-3.733c0.324-0.438,0.253-1.008-0.151-1.316c-0.417-0.32-0.991-0.232-1.322,0.21
	c-1.474,1.966-2.205,4.179-2.216,6.633C3.779,50.186,4.108,51.722,4.781,53.184z M95.453,44.269
	c-0.349-0.82-0.794-1.581-1.322-2.297c-0.239-0.325-0.559-0.49-0.97-0.405c-0.659,0.135-0.966,0.912-0.497,1.551
	c1.671,2.282,2.177,4.817,1.565,7.573c-0.272,1.232-0.811,2.343-1.555,3.355c-0.332,0.453-0.271,1.021,0.145,1.331
	c0.448,0.334,0.989,0.234,1.345-0.246c1.444-1.947,2.136-4.146,2.167-6.562C96.308,47.082,96.039,45.643,95.453,44.269z
	 M10.774,52.838c0.176-0.355,0.124-0.697-0.12-1.003c-0.723-0.91-1.114-1.948-1.156-3.104c-0.045-1.271,0.317-2.422,1.098-3.437
	c0.342-0.445,0.28-1.019-0.131-1.333c-0.435-0.334-0.981-0.254-1.337,0.205c-0.88,1.13-1.377,2.424-1.468,3.841
	c-0.119,1.835,0.395,3.504,1.535,4.964c0.188,0.242,0.433,0.385,0.628,0.377C10.325,53.344,10.607,53.174,10.774,52.838z
	 M92.423,47.845c-0.143-1.345-0.6-2.569-1.427-3.649c-0.356-0.465-0.924-0.576-1.351-0.25c-0.42,0.32-0.476,0.892-0.132,1.349
	c0.914,1.218,1.247,2.586,1.025,4.085C90.4,50.311,90,51.134,89.423,51.878c-0.317,0.407-0.228,0.985,0.175,1.294
	c0.385,0.295,0.968,0.221,1.281-0.174c1.043-1.312,1.558-2.807,1.548-4.482C92.427,48.292,92.446,48.067,92.423,47.845z
	 M35.548,42.977c-0.14-0.002-0.198,0.026-0.194,0.183c0.011,0.432,0.011,0.866,0,1.297c-0.004,0.157,0.057,0.183,0.194,0.182
	c1.015-0.005,2.029-0.005,3.044,0c0.147,0.002,0.211-0.027,0.206-0.193c-0.012-0.423-0.012-0.849,0-1.274
	c0.005-0.166-0.059-0.195-0.207-0.193c-0.5,0.008-1,0.004-1.499,0.004C36.578,42.98,36.063,42.984,35.548,42.977z M27.374,44.638
	c0.134,0.002,0.2-0.017,0.196-0.178c-0.011-0.439-0.008-0.88-0.001-1.321c0.002-0.129-0.04-0.162-0.165-0.162
	c-1.031,0.006-2.061,0.005-3.091,0.001c-0.117-0.001-0.172,0.018-0.17,0.155c0.009,0.447,0.008,0.896,0.001,1.343
	c-0.002,0.127,0.033,0.164,0.162,0.162c0.507-0.006,1.015-0.002,1.522-0.002C26.344,44.636,26.858,44.632,27.374,44.638z
	 M59.119,59.729c0.005-0.054-0.029-0.122,0.041-0.159c0.118-0.064,0.462,0.021,0.538,0.134c0.146,0.217,0.29,0.434,0.434,0.652
	c0.041,0.063,0.077,0.123,0.169,0.121c0.213-0.006,0.426-0.002,0.678-0.002c-0.244-0.361-0.464-0.686-0.687-1.015
	c0.021-0.014,0.037-0.025,0.055-0.035c0.463-0.264,0.634-0.65,0.512-1.166c-0.091-0.384-0.442-0.646-0.929-0.663
	c-0.424-0.016-0.851-0.004-1.275-0.018c-0.159-0.004-0.2,0.047-0.199,0.201c0.007,0.829,0.003,1.659,0.006,2.486
	c0,0.068-0.036,0.152,0.048,0.203c0.188,0.002,0.378,0.004,0.567,0.006C59.167,60.229,59.094,59.978,59.119,59.729z M59.118,58.59
	c0-0.414,0-0.416,0.415-0.414c0.133,0.002,0.267-0.015,0.397,0.021c0.187,0.055,0.291,0.178,0.295,0.371
	c0.004,0.191-0.091,0.318-0.276,0.383c-0.146,0.051-0.294,0.021-0.422,0.033C59.118,58.984,59.118,58.984,59.118,58.59z
	 M66.828,60.319c-0.001,0.104,0.012,0.162,0.142,0.158c0.396-0.01,0.791,0.01,1.186-0.014c0.749-0.043,1.284-0.594,1.35-1.356
	c0.058-0.682-0.41-1.308-1.113-1.47c-0.485-0.111-0.98-0.037-1.472-0.053c-0.127-0.006-0.089,0.096-0.089,0.16
	c-0.003,0.425-0.001,0.851-0.001,1.274C66.83,59.453,66.832,59.886,66.828,60.319z M67.486,58.32
	c-0.004-0.121,0.039-0.155,0.153-0.146c0.126,0.008,0.253-0.002,0.38,0.004c0.418,0.018,0.739,0.311,0.785,0.715
	c0.056,0.492-0.161,0.847-0.594,0.964c-0.212,0.057-0.43,0.018-0.646,0.023c-0.093,0.004-0.075-0.072-0.075-0.127
	c-0.002-0.245-0.001-0.491-0.001-0.739C67.489,58.783,67.495,58.553,67.486,58.32z M37.315,60.044
	c0.018-0.121-0.044-0.154-0.157-0.152c-0.328,0.006-0.656,0.002-0.985,0.002c-0.44,0-0.434,0.002-0.418-0.44
	c0.004-0.125,0.051-0.148,0.16-0.145c0.26,0.006,0.522,0.002,0.784,0.002c0.424,0,0.417,0,0.41-0.428
	c-0.002-0.137-0.054-0.16-0.172-0.156c-0.268,0.006-0.537,0.002-0.805,0.002c-0.378,0-0.372,0-0.376-0.373
	c-0.003-0.146,0.038-0.189,0.185-0.184c0.313,0.012,0.627,0.004,0.94,0.004c0.41,0,0.404,0,0.407-0.407
	c0.001-0.137-0.025-0.191-0.181-0.189c-0.604,0.01-1.208,0.01-1.813,0c-0.162-0.002-0.198,0.053-0.196,0.203
	c0.006,0.829,0.002,1.657,0.005,2.484c0,0.068-0.036,0.152,0.047,0.203c0.705,0,1.41,0,2.116,0
	C37.367,60.339,37.293,60.185,37.315,60.044z M52.344,60.286c-0.005,0.162,0.05,0.195,0.201,0.193
	c0.537-0.01,1.075-0.004,1.611-0.004c0.396,0,0.388,0,0.393-0.4c0.002-0.154-0.05-0.188-0.19-0.184
	c-0.321,0.008-0.642,0.002-0.962,0.002c-0.433,0-0.428,0-0.412-0.431c0.004-0.117,0.038-0.158,0.155-0.154
	c0.276,0.006,0.553,0.002,0.827,0.002c0.393,0,0.384,0,0.39-0.391c0.002-0.164-0.06-0.199-0.208-0.193
	c-0.262,0.01-0.522,0.002-0.783,0.002c-0.393,0-0.387,0-0.382-0.396c0.002-0.133,0.048-0.162,0.169-0.16
	c0.321,0.008,0.643,0.004,0.963,0.004c0.443,0,0.438,0,0.42-0.446c-0.006-0.125-0.052-0.148-0.161-0.148
	c-0.627,0.004-1.254,0.004-1.881,0c-0.121-0.002-0.149,0.039-0.147,0.152c0.005,0.433,0.002,0.866,0.002,1.3
	C52.348,59.451,52.355,59.868,52.344,60.286z M30.159,60.272c-0.326-0.765-0.654-1.532-0.979-2.297
	c-0.182-0.432-0.18-0.43-0.636-0.414c-0.093,0.002-0.148,0.021-0.188,0.115c-0.375,0.892-0.753,1.78-1.135,2.67
	c-0.046,0.105-0.015,0.123,0.087,0.131c0.509,0.039,0.509,0.043,0.706-0.438c0.006-0.014,0.017-0.025,0.02-0.039
	c0.026-0.131,0.101-0.174,0.236-0.168c0.284,0.012,0.568,0.01,0.851,0c0.129-0.004,0.194,0.033,0.245,0.16
	c0.199,0.496,0.205,0.494,0.74,0.482c0.036-0.002,0.073-0.006,0.109-0.01C30.227,60.388,30.186,60.333,30.159,60.272z
	 M29.011,59.127c0.043,0.098,0.025,0.123-0.083,0.131c-0.612,0.045-0.612,0.049-0.388-0.506c0.047-0.117,0.096-0.232,0.159-0.385
	C28.814,58.65,28.908,58.891,29.011,59.127z M65.062,60.476c0.274,0,0.275,0,0.168-0.254c-0.319-0.753-0.639-1.507-0.96-2.258
	c-0.184-0.432-0.186-0.428-0.646-0.402c-0.083,0.004-0.135,0.021-0.171,0.105c-0.377,0.892-0.756,1.782-1.138,2.67
	c-0.05,0.115-0.005,0.135,0.104,0.141c0.501,0.025,0.501,0.029,0.687-0.436c0.006-0.014,0.012-0.027,0.016-0.041
	c0.031-0.127,0.104-0.178,0.241-0.168c0.216,0.012,0.434,0.002,0.65,0.002c0.38,0,0.396-0.004,0.514,0.346
	c0.079,0.234,0.188,0.359,0.408,0.295C65.002,60.476,65.032,60.476,65.062,60.476z M63.749,58.465
	c0.008-0.02,0.028-0.033,0.056-0.063c0.114,0.277,0.225,0.547,0.344,0.836c-0.241,0-0.465,0-0.713,0
	C63.544,58.971,63.646,58.717,63.749,58.465z M32.693,58.385c0-0.166,0.065-0.193,0.241-0.193c0.079,0,0.161-0.002,0.219-0.002
	c0.417-0.002,0.41-0.002,0.414-0.425c0.002-0.148-0.04-0.188-0.187-0.186c-0.597,0.008-1.195,0.004-1.792,0.004
	c-0.476,0-0.473,0-0.435,0.477c0.007,0.094,0.035,0.132,0.131,0.13c0.187-0.004,0.375,0.01,0.56-0.004
	c0.159-0.012,0.2,0.041,0.198,0.197c-0.009,0.621-0.005,1.242-0.002,1.86c0.001,0.078,0.003,0.23,0.003,0.23l0.65-0.008
	C32.696,59.882,32.693,58.816,32.693,58.385z M49.943,58.385c0-0.166,0.066-0.193,0.242-0.193c0.079,0,0.161-0.002,0.219-0.002
	c0.416-0.002,0.409-0.002,0.413-0.425c0.001-0.148-0.039-0.188-0.186-0.186c-0.598,0.008-1.195,0.004-1.793,0.004
	c-0.477,0-0.473,0-0.435,0.477c0.007,0.094,0.035,0.132,0.131,0.13c0.187-0.004,0.375,0.01,0.56-0.004
	c0.158-0.012,0.2,0.041,0.198,0.197c-0.009,0.621-0.006,1.242-0.002,1.86c0,0.078,0.003,0.23,0.003,0.23l0.65-0.008
	C49.947,59.882,49.943,58.816,49.943,58.385z M42.527,60.294c-0.004,0.15,0.046,0.188,0.189,0.186
	c0.507-0.01,1.015-0.004,1.522-0.004c0.401,0,0.393,0,0.399-0.396c0.003-0.158-0.042-0.205-0.2-0.201
	c-0.335,0.012-0.671-0.006-1.007,0.008c-0.18,0.01-0.242-0.029-0.236-0.224c0.016-0.531,0.005-1.061,0.005-1.591
	c0-0.506,0-0.498-0.504-0.492c-0.151,0-0.168,0.059-0.166,0.186c0.006,0.417,0.002,0.835,0.002,1.253
	C42.531,59.443,42.538,59.868,42.527,60.294z M38.925,60.241c-0.01,0.209,0.063,0.244,0.25,0.238
	c0.478-0.012,0.956-0.004,1.433-0.004c0.404,0,0.396,0,0.401-0.416c0.001-0.152-0.051-0.184-0.19-0.18
	c-0.343,0.008-0.687-0.006-1.03,0.006c-0.167,0.006-0.229-0.029-0.224-0.214c0.014-0.545,0.005-1.09,0.005-1.634
	c0-0.467,0-0.461-0.469-0.459c-0.139,0-0.176,0.041-0.173,0.178c0.008,0.417,0.003,0.835,0.003,1.253
	C38.931,59.42,38.945,59.831,38.925,60.241z M71.805,58.065c0-0.492,0-0.486-0.487-0.486c-0.148,0-0.187,0.043-0.186,0.188
	c0.007,0.745,0.004,1.491,0.004,2.236c0,0.486,0,0.48,0.498,0.477c0.139-0.002,0.177-0.041,0.174-0.178
	c-0.009-0.426-0.003-0.849-0.003-1.274C71.805,58.707,71.805,58.387,71.805,58.065z M46.823,60.444
	c0.004-0.923,0.007-1.849,0.011-2.771c0-0.068-0.031-0.094-0.096-0.09c-0.183,0.014-0.371-0.031-0.552,0.027l0.005,0.01h-0.01
	c-0.002,0.905-0.005,1.81-0.006,2.715c0,0.049-0.014,0.107,0.049,0.135c0.188,0.002,0.378,0.004,0.567,0.006
	C46.802,60.464,46.823,60.454,46.823,60.444z M87.475,41.378c-0.603-0.01-1.132,0.493-1.143,1.085
	c-0.011,0.662,0.471,1.178,1.104,1.186c0.641,0.007,1.143-0.48,1.151-1.116C88.596,41.893,88.108,41.388,87.475,41.378z
	 M87.462,41.544c0.522-0.004,0.973,0.451,0.965,0.976c-0.008,0.549-0.436,0.958-0.999,0.952c-0.526-0.004-0.921-0.422-0.918-0.974
	C86.513,41.972,86.937,41.548,87.462,41.544z M46.175,57.612l0.006,0.008h0.01l-0.005-0.01L46.175,57.612z M49.263,58.205
	c0,0.002,0.011-0.008,0.011-0.008l-0.014,0.004L49.263,58.205z M87.858,42.818c-0.069-0.1-0.167-0.183,0.017-0.285
	c0.127-0.071,0.142-0.227,0.1-0.363c-0.048-0.158-0.167-0.251-0.328-0.264c-0.178-0.014-0.357-0.002-0.536-0.006
	c-0.075-0.002-0.107,0.021-0.106,0.102c0.004,0.32,0.003,0.642,0,0.962c0,0.076,0.025,0.109,0.104,0.104
	c0.066-0.004,0.141,0.012,0.134-0.096c-0.003-0.051-0.004-0.104,0.001-0.156c0.006-0.053-0.03-0.134,0.055-0.146
	c0.069-0.011,0.15-0.032,0.204,0.047c0.037,0.057,0.085,0.105,0.114,0.166c0.081,0.162,0.202,0.227,0.406,0.166
	C87.96,42.961,87.909,42.89,87.858,42.818z M87.235,42.278c0.002-0.147,0.06-0.182,0.187-0.166c0.125,0.018,0.3-0.031,0.307,0.168
	c0.007,0.204-0.167,0.163-0.292,0.173C87.299,42.473,87.233,42.44,87.235,42.278z"/>
</svg>
