<?xml version="1.0" encoding="utf-8"?>
<!DOCTYPE svg PUBLIC "-//W3C//DTD SVG 1.1//EN" "http://www.w3.org/Graphics/SVG/1.1/DTD/svg11.dtd">
<svg version="1.1" id="Layer_1" xmlns="http://www.w3.org/2000/svg" xmlns:xlink="http://www.w3.org/1999/xlink" x="0px" y="0px"
	 width="100px" height="100px" viewBox="0 0 100 100" enable-background="new 0 0 100 100" xml:space="preserve">
<path fill-rule="evenodd" clip-rule="evenodd" d="M14.039,46.71c-1.486-0.006-2.972-0.01-4.458-0.019
	c-0.169-0.001-0.25,0.061-0.239,0.235c0.006,0.089,0,0.179,0,0.268c0,2.817,0,5.635,0,8.452c0,0.133,0,0.264,0,0.42
	c-1.554,0-3.08,0-4.664,0c0-0.133,0-0.271,0-0.412c0-2.84,0-5.679,0-8.518c0-0.441,0-0.442-0.429-0.442
	c-1.286-0.001-2.571,0-3.856,0c-0.122,0-0.244,0-0.392,0c0-1.558,0-3.092,0-4.644c4.664,0,9.322,0,14.028,0c0,1.553,0,3.111,0,4.67
	L14.039,46.71z M14.04,46.709c0.013,0.144,0.036,0.286,0.036,0.43c0.002,2.84,0.001,5.679,0.003,8.519
	c0,0.139,0.013,0.279,0.02,0.41c4.699,0,9.356,0,14.024,0c0-1.549,0-3.074,0-4.639c-0.154,0-0.285,0-0.416,0
	c-2.851,0-5.702-0.006-8.553,0.006c-0.314,0.002-0.423-0.072-0.418-0.404c0.019-1.297,0.008-2.594,0.007-3.891
	c0-0.129-0.012-0.258-0.02-0.42c-1.59,0-3.142,0-4.694,0C14.028,46.72,14.039,46.71,14.04,46.709z M18.811,42.055
	c-0.007,0.123-0.019,0.222-0.019,0.321c-0.001,1.319,0.008,2.639-0.008,3.957c-0.003,0.31,0.108,0.366,0.39,0.365
	c2.862-0.009,5.724-0.005,8.586-0.006c0.119,0,0.238-0.01,0.37-0.016c0-1.555,0-3.072,0-4.622
	C25.006,42.055,21.917,42.055,18.811,42.055z M64.324,45.458c-0.387-0.044-0.784-0.062-1.171-0.025
	c-1.373,0.125-2.386,0.812-2.933,2.08c-0.608,1.411-0.595,2.855-0.009,4.274c0.449,1.088,1.271,1.791,2.433,1.994
	c0.562,0.1,1.163,0.105,1.729,0.023c1.223-0.176,2.037-0.93,2.588-2.047c-0.647-0.344-1.274-0.676-1.899-1.008
	c-0.197,0.27-0.354,0.531-0.557,0.75c-0.586,0.639-1.604,0.531-1.978-0.246c-0.506-1.051-0.509-2.156-0.011-3.208
	c0.418-0.88,1.553-0.884,2.055-0.046c0.118,0.196,0.212,0.408,0.326,0.631c0.684-0.268,1.347-0.527,2.037-0.799
	C66.499,46.519,65.737,45.62,64.324,45.458z M96.45,53.365c0-1.006-0.002-2.012,0.002-3.018c0.001-0.178,0.013-0.358,0.045-0.532
	c0.075-0.4,0.274-0.56,0.668-0.56c0.382,0.001,0.601,0.175,0.668,0.565c0.034,0.196,0.035,0.4,0.036,0.601
	c0.003,0.983,0.002,1.967,0.002,2.95c0,0.121,0,0.24,0,0.369c0.729,0,1.415,0,2.095,0c0.015-0.041,0.028-0.061,0.028-0.08
	c0.003-1.096,0.01-2.191,0.004-3.286c-0.004-0.401-0.008-0.807-0.068-1.202c-0.191-1.267-1.089-1.908-2.352-1.667
	c-0.382,0.073-0.743,0.256-1.141,0.398c0-0.879,0-1.767,0-2.701c-0.623,0.247-1.197,0.49-1.781,0.701
	c-0.248,0.089-0.34,0.204-0.339,0.479c0.013,2.336,0.007,4.67,0.008,7.006c0,0.119,0.011,0.236,0.017,0.354c0.717,0,1.395,0,2.108,0
	C96.45,53.605,96.45,53.484,96.45,53.365z M54.905,50.335c0.001-0.178,0.011-0.358,0.049-0.531c0.092-0.426,0.308-0.583,0.734-0.566
	c0.38,0.015,0.594,0.217,0.646,0.633c0.027,0.221,0.037,0.445,0.039,0.668c0.004,0.928,0,1.854,0.002,2.781
	c0,0.131,0.014,0.26,0.021,0.402c0.696,0,1.359,0,2.044,0c0.006-0.129,0.016-0.238,0.016-0.346c0-1.117,0.005-2.236-0.003-3.353
	c-0.002-0.289-0.023-0.581-0.069-0.867c-0.189-1.208-1.037-1.842-2.243-1.639c-0.415,0.07-0.811,0.262-1.239,0.405
	c0-0.87,0-1.758,0-2.692c-0.621,0.246-1.193,0.489-1.779,0.699c-0.232,0.084-0.291,0.208-0.29,0.44
	c0.008,2.336,0.005,4.67,0.006,7.006c0,0.117,0.011,0.234,0.017,0.35c0.697,0,1.354,0,2.049,0
	C54.903,52.57,54.901,51.453,54.905,50.335z M79.309,47.605c-0.707,0-1.386,0-2.106,0c0,0.138,0,0.257,0,0.376
	c0,0.995,0.001,1.99-0.001,2.986c-0.001,0.189-0.002,0.383-0.034,0.568c-0.068,0.387-0.29,0.561-0.673,0.559
	c-0.384-0.002-0.59-0.176-0.654-0.576c-0.032-0.197-0.044-0.4-0.045-0.6c-0.004-0.985-0.001-1.968-0.002-2.953
	c-0.001-0.117-0.012-0.235-0.018-0.363c-0.714,0-1.392,0-2.088,0c-0.009,0.102-0.024,0.188-0.023,0.274
	c0.012,1.375-0.029,2.752,0.055,4.124c0.09,1.451,1.202,2.189,2.59,1.807c0.295-0.082,0.568-0.242,0.869-0.373
	c0.017,0.102,0.033,0.203,0.053,0.314c0.701,0,1.379,0,2.078,0C79.309,51.678,79.309,49.64,79.309,47.605z M86.488,49.395
	c-0.003-0.272-0.093-0.553-0.191-0.812c-0.211-0.559-0.612-0.929-1.205-1.061c-0.66-0.146-1.287-0.056-1.869,0.305
	c-0.068,0.043-0.145,0.073-0.228,0.115c-0.019-0.136-0.031-0.233-0.046-0.34c-0.688,0-1.365,0-2.062,0c0,2.055,0,4.092,0,6.139
	c0.698,0,1.374,0,2.087,0c0-0.137,0-0.256,0-0.377c0-1.006-0.002-2.012,0.002-3.018c0.002-0.189,0.016-0.381,0.053-0.565
	c0.074-0.367,0.287-0.526,0.664-0.526c0.372,0.001,0.586,0.164,0.658,0.536c0.035,0.185,0.039,0.378,0.041,0.566
	c0.003,1.007,0.001,2.013,0.001,3.019c0,0.119,0,0.24,0,0.371c0.726,0,1.404,0,2.104,0C86.498,52.275,86.508,50.834,86.488,49.395z
	 M35.313,53.717c0.763,0,1.48,0,2.224,0c0-0.16,0-0.293,0-0.426c0-1.799,0.006-3.597-0.006-5.396
	c-0.002-0.297,0.065-0.413,0.387-0.4c0.632,0.026,1.266,0.008,1.939,0.008c0-0.551-0.017-1.063,0.007-1.572
	c0.014-0.297-0.08-0.379-0.375-0.377c-2.044,0.012-4.089,0.006-6.133,0.007c-0.117,0-0.233,0.018-0.339,0.026
	c0,0.66,0,1.279,0,1.916c0.396,0,0.763,0,1.131,0c0.367,0,0.734,0,1.165,0C35.313,49.609,35.313,51.658,35.313,53.717z
	 M45.023,49.52c-0.282-1.282-1.167-1.988-2.471-2.043c-1.286-0.055-2.335,0.656-2.707,1.868c-0.265,0.863-0.275,1.747-0.007,2.61
	c0.331,1.066,1.054,1.705,2.175,1.875c0.679,0.102,1.338,0.016,1.979-0.205c0.341-0.115,0.665-0.279,1.021-0.432
	c-0.288-0.479-0.54-0.896-0.797-1.324c-0.141,0.061-0.249,0.127-0.365,0.152c-0.443,0.094-0.888,0.23-1.335,0.248
	c-0.557,0.02-0.91-0.395-0.93-1c1.179,0,2.358,0,3.649,0C45.162,50.641,45.145,50.068,45.023,49.52z M41.588,49.967
	c0.009-0.611,0.333-0.971,0.845-0.964c0.552,0.007,0.888,0.373,0.871,0.964C42.713,49.967,42.15,49.967,41.588,49.967z
	 M90.585,47.461c-1.104,0.042-2.022,0.443-2.483,1.511c-0.502,1.163-0.498,2.362,0.047,3.508c0.506,1.063,1.457,1.41,2.575,1.408
	c1.095,0,1.833-0.57,2.403-1.479c-0.45-0.352-0.885-0.689-1.318-1.029c-0.152,0.182-0.266,0.336-0.398,0.469
	c-0.559,0.561-1.31,0.391-1.445-0.377c-0.095-0.535-0.041-1.106,0.012-1.654c0.027-0.303,0.222-0.565,0.57-0.624
	c0.361-0.061,0.629,0.094,0.829,0.385c0.085,0.124,0.169,0.249,0.261,0.386c0.49-0.371,0.951-0.722,1.434-1.088
	C92.493,47.895,91.682,47.418,90.585,47.461z M49.436,47.494c-1.439-0.097-2.691,0.512-3.035,2.072
	c-0.111,0.505-0.142,1.042-0.117,1.559c0.076,1.578,0.979,2.537,2.506,2.732c1.152,0.146,2.272-0.436,2.758-1.447
	c-0.071-0.061-0.143-0.129-0.221-0.189c-0.341-0.268-0.684-0.531-1.029-0.801c-0.174,0.191-0.315,0.381-0.49,0.531
	c-0.515,0.443-1.149,0.283-1.362-0.359c-0.209-0.631-0.205-1.282,0.024-1.907c0.224-0.609,0.887-0.717,1.309-0.229
	c0.123,0.143,0.22,0.306,0.342,0.479c0.463-0.351,0.915-0.693,1.398-1.061C51.032,48.048,50.371,47.557,49.436,47.494z
	 M72.625,47.945c0.049-0.198-0.02-0.286-0.194-0.349c-0.629-0.224-1.228-0.188-1.789,0.196c-0.084,0.059-0.167,0.117-0.27,0.189
	c-0.021-0.158-0.035-0.266-0.049-0.379c-0.697,0-1.375,0-2.072,0c0,2.055,0,4.092,0,6.131c0.707,0,1.393,0,2.1,0
	c0-0.26,0-0.494,0-0.727c0-0.895-0.005-1.789,0.006-2.682c0.004-0.329,0.055-0.665,0.396-0.829c0.363-0.174,0.721-0.109,1.051,0.104
	c0.119,0.076,0.227,0.172,0.377,0.287C72.335,49.205,72.472,48.573,72.625,47.945z"/>
</svg>
