<?xml version="1.0" encoding="utf-8"?>
<!-- Generator: Adobe Illustrator 16.0.0, SVG Export Plug-In . SVG Version: 6.00 Build 0)  -->
<!DOCTYPE svg PUBLIC "-//W3C//DTD SVG 1.1//EN" "http://www.w3.org/Graphics/SVG/1.1/DTD/svg11.dtd">
<svg version="1.1" id="Layer_1" xmlns="http://www.w3.org/2000/svg" xmlns:xlink="http://www.w3.org/1999/xlink" x="0px" y="0px"
	 width="100px" height="100px" viewBox="0 0 100 100" enable-background="new 0 0 100 100" xml:space="preserve">
<path fill="#1D1D1B" d="M12.906,56.666c1.795-0.17,3.59-0.769,3.59-2.648v-6.069l-0.854-0.854l-0.94,0.854v4.53l0.77,0.684
	l-1.709,1.539h-0.085l-1.709-1.453l0.427-0.428v-9.231c0-0.684-0.598-1.025-0.94-1.111v-0.171c0.171-0.085,0.427-0.171,0.769-0.171
	c0.598,0,1.111,0.342,1.282,0.769h0.085c0.342-0.513,0.94-0.769,1.453-0.769c0.171,0,0.342,0,0.513,0.085v0.171
	c-0.256,0.085-0.77,0.427-0.77,1.367v3.846l2.308-2.137h0.171c0.171,0.171,1.111,1.026,1.367,1.197
	c0.085,0.085,0.171,0.085,0.342,0.085c0.171,0,0.342-0.085,0.513-0.171v0.256c-0.171,0.171-0.427,0.427-0.427,0.854v5.214
	c0,2.307-2.564,3.76-5.983,4.017v-0.257H12.906z M12.051,42.393c0.342,0.256,0.684,0.513,0.684,1.111v9.487l-0.342,0.342
	l1.453,1.196l0.427-0.342l-1.111-0.939l0.171-0.172v-9.487C13.248,42.82,12.564,42.479,12.051,42.393 M16.068,56.068
	c0.684-0.428,1.368-0.94,1.368-1.966v-6.496l-1.026-1.111l-0.513,0.427l0.854,0.94v6.154C16.837,54.871,16.496,55.555,16.068,56.068
	z M20.342,47.606c1.026-0.513,2.479-1.367,3.504-2.137h0.171c0.684,0.684,1.624,1.795,2.479,2.564v0.171l-3.761,2.393v1.539
	c0.342,0.256,1.453,0.77,2.137,1.025l1.539-1.453l0.171,0.171l-2.991,2.906h-0.171c-1.026-0.427-2.308-1.026-3.163-1.453
	c0.085-0.342,0.171-1.11,0.171-2.052v-3.675H20.342z M23.846,54.188c-1.026-0.428-1.88-0.854-2.735-1.281
	c0.085-0.257,0.085-0.684,0.085-1.625v-3.846l-0.599,0.342v3.504c0,0.941,0,1.625-0.085,1.881c0.77,0.428,1.88,0.94,2.906,1.367
	L23.846,54.188L23.846,54.188z M22.735,50.342l1.709-1.111c-0.598-0.684-1.196-1.367-1.709-1.88V50.342z M23.248,46.581
	l-0.428,0.342c0.513,0.598,1.197,1.368,1.88,2.137l0.513-0.342C24.444,47.948,23.761,47.179,23.248,46.581 M93.59,56.666
	c1.795-0.17,3.59-0.769,3.59-2.648v-6.069l-0.855-0.854l-0.939,0.854v4.53l0.77,0.684l-1.71,1.539h-0.171l-1.709-1.453l0.427-0.428
	v-9.231c0-0.684-0.599-1.025-0.94-1.111v-0.171c0.172-0.085,0.428-0.171,0.77-0.171c0.599,0,1.111,0.342,1.282,0.769h0.085
	c0.342-0.513,0.941-0.769,1.453-0.769c0.172,0,0.342,0,0.514,0.085v0.171c-0.257,0.085-0.77,0.427-0.77,1.367v3.846l2.223-2.137
	h0.17c0.172,0.171,1.111,1.026,1.368,1.197c0.085,0.085,0.171,0.085,0.342,0.085s0.342-0.085,0.513-0.171v0.342
	c-0.171,0.171-0.428,0.427-0.428,0.854v5.129c0,2.307-2.563,3.76-5.982,4.017V56.666z M92.734,42.393
	c0.257,0.171,0.685,0.513,0.685,1.111v9.402l-0.342,0.342l1.452,1.196l0.428-0.342l-1.111-0.94l0.172-0.171v-9.402
	C93.932,42.82,93.248,42.479,92.734,42.393 M96.666,55.982c0.685-0.428,1.368-0.939,1.368-1.965v-6.411l-1.025-1.111l-0.428,0.427
	l0.854,0.94v6.154C97.521,54.871,97.18,55.555,96.666,55.982L96.666,55.982z M42.479,47.606c1.026-0.513,2.479-1.367,3.504-2.137
	h0.171c0.684,0.684,1.624,1.795,2.393,2.479v0.171l-3.675,2.393v1.538c0.428,0.257,1.453,0.77,2.137,1.025l1.538-1.453l0.171,0.172
	l-2.991,2.906h-0.171c-1.026-0.428-2.308-1.026-3.163-1.453c0.085-0.342,0.171-1.111,0.171-2.052v-3.59H42.479z M45.897,54.188
	c-1.026-0.428-1.88-0.854-2.735-1.281c0.085-0.257,0.085-0.684,0.085-1.625v-3.846l-0.513,0.256v3.504c0,0.94,0,1.624-0.085,1.88
	c0.77,0.428,1.88,0.941,2.906,1.368L45.897,54.188L45.897,54.188z M44.872,50.256l1.709-1.111c-0.598-0.684-1.196-1.368-1.709-1.88
	V50.256z M45.385,46.581l-0.513,0.342c0.513,0.598,1.197,1.368,1.88,2.137l0.513-0.342C46.581,47.948,45.897,47.179,45.385,46.581
	 M51.966,43.333v8.975c0,0.342,0.342,0.769,0.684,0.854l0.513-0.513l0.172,0.171l-1.881,1.966h-0.171
	c-0.685-0.171-1.709-0.854-1.709-1.966v-8.376l-0.513-0.513l-0.599,0.598l-0.171-0.171l2.137-2.222h0.17L51.966,43.333z
	 M51.709,54.103c-0.684-0.171-1.367-0.599-1.367-1.538v-8.462l-0.769-0.77l-0.427,0.427l0.684,0.599v8.461
	c0,0.939,0.769,1.539,1.453,1.709L51.709,54.103z M54.188,47.606c1.026-0.513,2.479-1.367,3.505-2.137h0.171
	c0.684,0.684,1.624,1.795,2.393,2.479v0.171l-3.675,2.393v1.538c0.342,0.257,1.453,0.77,2.137,1.025l1.538-1.453l0.172,0.172
	l-2.992,2.906h-0.17c-1.026-0.428-2.309-1.026-3.163-1.453c0.085-0.342,0.171-1.111,0.171-2.052v-3.59H54.188z M57.607,54.188
	c-1.026-0.428-1.881-0.854-2.736-1.281c0.086-0.257,0.086-0.684,0.086-1.625v-3.846l-0.513,0.256v3.504c0,0.94,0,1.624-0.085,1.88
	c0.77,0.428,1.88,0.941,2.906,1.368L57.607,54.188z M56.581,50.256l1.71-1.111c-0.599-0.684-1.197-1.368-1.71-1.88V50.256z
	 M57.094,46.581l-0.428,0.342c0.514,0.598,1.197,1.368,1.881,2.137l0.428-0.342C58.291,47.948,57.607,47.179,57.094,46.581
	 M72.308,47.948v4.359c0,0.342,0.342,0.769,0.684,0.769l0.513-0.512l0.172,0.17l-1.881,1.967h-0.086
	C71.025,54.529,70,53.932,70,52.734v-4.957l-0.513-0.513l-0.599,0.513l-0.171-0.171l2.137-2.137h0.171l1.367,1.368v0.769l1.71-2.051
	h0.171c0.342,0.342,0.855,0.855,1.367,1.197l-1.453,1.709c-0.427-0.342-0.939-0.855-1.281-1.111L72.308,47.948z M72.137,54.103
	c-0.684-0.171-1.367-0.599-1.367-1.538v-5.129l-0.684-0.769l-0.428,0.427l0.598,0.598v5.042c0,0.94,0.77,1.539,1.453,1.71
	L72.137,54.103z M73.077,47.179c0.257,0.256,0.684,0.684,1.025,0.94l0.342-0.428c-0.342-0.256-0.854-0.769-1.11-0.94L73.077,47.179z
	 M77.863,54.786l-2.051-1.368v-2.734c0.512-0.342,1.623-1.111,2.137-1.453c-0.855-0.427-1.539-0.94-1.967-1.539v-0.171
	c1.197-0.684,2.137-1.367,2.82-2.051h0.172c0,0,2.564,1.197,2.649,1.282c0.171,0.085,0.257,0.085,0.342,0.085
	c0.171,0,0.342-0.085,0.513-0.171v0.256c-0.171,0.171-0.428,0.427-0.428,0.769v4.531c0,0.512,0.428,0.769,0.77,0.854l0.514-0.512
	l0.17,0.17l-1.88,1.967h-0.085c-0.77-0.172-1.625-0.941-1.71-1.795l-1.795,1.795h-0.171V54.786z M78.291,54.103l-1.71-1.111v-2.563
	l-0.513,0.342v2.479l1.881,1.196L78.291,54.103z M79.744,49.658v-1.367l-2.479-1.282c-0.172,0.171-0.855,0.513-1.026,0.684
	C76.838,48.376,78.376,49.316,79.744,49.658 M81.966,54.103c-0.684-0.257-1.368-0.685-1.368-1.624v-4.701l-2.563-1.282
	c-0.085,0.085-0.342,0.256-0.427,0.342l2.479,1.282v4.615c0,0.855,0.854,1.539,1.453,1.795L81.966,54.103z M79.744,52.649v-2.735
	c-0.514-0.171-1.111-0.342-1.625-0.598v3.418l0.941,0.599L79.744,52.649z M61.197,53.333v-5.727l3.076-2.137h0.171
	c0.599,0.256,2.564,1.111,2.735,1.197c0.086,0,0.171,0.085,0.342,0.085s0.342-0.085,0.598-0.171v0.342
	c-0.17,0.171-0.427,0.513-0.427,0.769v4.873c0,1.11,0.257,1.795,0.684,2.222v0.171c-0.684,0.684-2.222,2.308-2.905,3.077h-0.086
	c-0.684-0.343-1.795-0.685-2.65-0.685c-0.684,0-1.452,0.172-1.965,0.599l-0.172-0.085c0.514-1.197,1.625-2.479,3.078-2.479
	c0.854,0,2.051,0.342,3.076,0.939c-0.684-0.77-1.281-2.222-1.281-3.333l-1.795,1.71h-0.172L61.197,53.333z M62.649,56.666
	c-0.684,0-1.282,0.342-1.624,0.77v0.086c0.428-0.257,0.855-0.342,1.624-0.342c0.854,0,2.052,0.256,2.649,0.598l0.342-0.428
	C64.871,57.008,63.761,56.666,62.649,56.666 M63.334,54.529l0.427-0.342l-1.795-1.281v-5.471l-0.513,0.342v5.471L63.334,54.529z
	 M66.068,47.436l-2.564-1.025v0.513l1.967,0.854v5.129c0,1.111,0.512,2.307,1.281,3.248l0.428-0.428
	c-0.684-0.855-1.111-1.795-1.111-2.906V47.436z M65.299,52.649v-4.701l-1.709-0.769v5.385l1.111,0.684L65.299,52.649z M87.18,47.606
	l2.223-2.137h0.17c0.172,0.171,1.197,1.111,1.367,1.197c0.086,0.085,0.172,0.085,0.258,0.085c0.17,0,0.342-0.085,0.512-0.171v0.342
	c-0.17,0.171-0.427,0.513-0.427,0.854v5.471c-0.94,0.256-1.71,0.77-2.564,1.709h-0.085l-1.453-0.342v1.196l0.77,0.685l-1.795,1.538
	h-0.086l-1.709-1.453l0.427-0.513v-2.051c-0.171,0-0.513-0.086-0.684-0.172V53.59c0.171-0.086,0.769-0.599,0.769-1.025v-4.701
	l-0.512-0.513l-0.599,0.598l-0.171-0.171l2.137-2.137h0.171l1.368,1.368v0.598H87.18z M85.043,56.239l-0.342,0.342l1.367,1.196
	l0.428-0.342l-1.111-0.939l0.171-0.172v-8.889l-0.77-0.769l-0.342,0.342l0.599,0.598V56.239z M88.889,52.906v-4.958l-0.854-0.854
	l-0.94,0.854v4.53C87.521,52.649,88.718,52.82,88.889,52.906 M88.633,54.701c0.085-0.172,0.256-0.342,0.342-0.428l-1.881-0.342
	v0.513L88.633,54.701z M88.205,47.008l0.94,0.94v4.958l0.513-0.257v-5.043l-1.025-1.025L88.205,47.008z M0.684,49.743
	c0-2.222,1.624-3.675,3.163-4.359l0.085,0.171c-0.513,0.599-0.854,1.197-0.854,2.564c0,1.538,0.427,2.564,1.025,3.248
	c0.171-0.256,0.342-0.598,0.342-0.939v-2.223l2.735-1.966l0.085,0.171c-0.171,0.256-0.342,0.598-0.342,1.111v1.453
	c0,1.026-1.624,2.137-2.649,2.479c0.684,0.684,1.624,0.939,2.649,0.939c0.342,0,0.684,0,1.026-0.085v-6.239
	c-0.94-0.085-1.795-0.257-2.564-0.513c-0.855-0.256-1.709-0.513-2.394-0.513c-1.111,0-2.479,0.342-2.479,1.966v0.513l-0.256,0.085
	C0.085,47.094,0,46.581,0,46.154c0-1.966,1.453-3.675,3.761-3.675c0.94,0,1.88,0.256,2.735,0.513
	c0.855,0.256,1.709,0.513,2.564,0.513c0.427,0,0.684-0.256,0.684-0.684s-0.171-0.598-0.513-0.684v-0.171
	c1.025,0.171,2.051,0.769,2.051,2.051c0.085,1.282-1.026,2.051-2.906,2.051H8.205v6.324c1.197-0.256,2.051-0.77,2.649-1.795
	l0.171,0.086c-0.684,2.137-2.308,4.188-5.128,4.188S0.684,53.162,0.684,49.743 M8.376,45.299c-2.051,0-3.932-1.025-5.385-1.025
	c-1.025,0-2.137,0.427-2.479,1.538h0.085c0.427-0.769,1.453-1.025,2.393-1.025c1.539,0,3.333,1.025,5.385,1.025
	c1.624,0,2.649-0.598,2.735-1.88h-0.086C10.854,44.957,10,45.299,8.376,45.299 M2.479,46.581c-0.769,0.769-1.453,1.795-1.453,3.162
	c0,3.248,2.137,4.872,4.958,4.872c1.709,0,2.906-0.94,3.59-1.624l-0.085-0.085c-0.77,0.684-1.88,1.196-3.59,1.196
	c-2.222,0-4.359-1.368-4.359-4.359C1.539,48.547,1.966,47.35,2.479,46.581z M5.214,50.256v-2.393l-0.513,0.427v2.222
	c0,0.257-0.085,0.427-0.085,0.599h0.085C4.957,50.854,5.214,50.598,5.214,50.256 M31.111,49.743c0-2.222,1.624-3.675,3.162-4.359
	l0.085,0.171c-0.598,0.684-0.94,1.282-0.94,2.564c0,1.538,0.427,2.564,1.025,3.248c0.171-0.256,0.342-0.598,0.342-0.939v-2.223
	l2.821-2.051l0.085,0.171c-0.256,0.342-0.342,0.684-0.342,1.196v1.453c0,1.026-1.624,2.137-2.65,2.479
	c0.684,0.684,1.624,0.939,2.65,0.939c0.342,0,0.684,0,1.025-0.085v-6.239c-0.94-0.085-1.795-0.257-2.564-0.513
	c-0.855-0.256-1.709-0.513-2.393-0.513c-1.111,0-2.479,0.342-2.479,1.966v0.513l-0.171,0.085c-0.171-0.513-0.256-1.025-0.256-1.453
	c0-1.966,1.453-3.675,3.761-3.675c0.94,0,1.88,0.256,2.735,0.513c0.854,0.256,1.709,0.513,2.564,0.513
	c0.427,0,0.684-0.256,0.684-0.684s-0.171-0.598-0.513-0.684v-0.171c1.025,0.171,2.051,0.769,2.051,2.051
	c0,1.538-1.111,2.222-2.992,2.222h-0.171v6.325c1.197-0.257,2.051-0.77,2.65-1.795l0.171,0.085
	c-0.684,2.137-2.308,4.188-5.128,4.188C33.504,54.871,31.111,53.162,31.111,49.743 M38.803,45.299c-2.051,0-3.932-1.025-5.384-1.025
	c-0.94,0-2.051,0.427-2.479,1.538h0.085c0.428-0.769,1.453-1.025,2.394-1.025c1.538,0,3.333,1.025,5.384,1.025
	c1.624,0,2.65-0.598,2.735-1.88h-0.085C41.197,44.957,40.427,45.299,38.803,45.299 M32.906,46.581
	c-0.769,0.769-1.453,1.795-1.453,3.162c0,3.248,2.137,4.872,4.957,4.872c1.709,0,2.906-0.94,3.59-1.624l-0.085-0.085
	c-0.769,0.684-1.88,1.196-3.59,1.196c-2.222,0-4.359-1.368-4.359-4.359C31.966,48.547,32.393,47.35,32.906,46.581z M35.641,50.256
	v-2.393l-0.513,0.342v2.223c0,0.256-0.085,0.427-0.085,0.598h0.085C35.385,50.854,35.641,50.598,35.641,50.256"/>
</svg>
