<?xml version="1.0" encoding="utf-8"?>
<!DOCTYPE svg PUBLIC "-//W3C//DTD SVG 1.1//EN" "http://www.w3.org/Graphics/SVG/1.1/DTD/svg11.dtd">
<svg version="1.1" id="Layer_1" xmlns="http://www.w3.org/2000/svg" xmlns:xlink="http://www.w3.org/1999/xlink" x="0px" y="0px"
	 width="100px" height="100px" viewBox="0 0 100 100" enable-background="new 0 0 100 100" xml:space="preserve">
<path fill="#141414" d="M22.714,51.102c0.339-0.169,0.712-0.373,1.051-0.542c0.136-0.067,0.61-0.237,0.678-0.373
	c0.034-0.068,0-0.271,0-0.373V49v-5.797v-5.661v-0.746c0-0.034,0.034-0.271,0-0.305c-0.034-0.034-0.305,0-0.339,0h-0.746
	c-0.271,0-0.237,0.034-0.407,0.237c-0.644,0.848-1.289,1.695-1.933,2.577c-0.305,0.407-0.61,0.78-0.881,1.187
	c-0.203,0.271-0.203,0.305-0.576,0.305l0.102-2.238c0.034-0.542,0.034-1.084,0.068-1.627c0-0.204,0.034-0.407,0.034-0.61
	c0-0.068-0.034-0.271,0-0.305c0.068-0.102,0.678-0.034,0.848-0.034h12.679c0.067,0,0.373-0.034,0.44,0
	c0.068,0.034,0.034,0.237,0.034,0.339c0.034,0.44,0.034,0.915,0.068,1.356c0.034,0.983,0.067,1.933,0.135,2.916v0.204
	c-0.169,0-0.305,0.034-0.441-0.068c-0.135-0.102-0.237-0.305-0.339-0.441c-0.407-0.542-0.813-1.119-1.254-1.661l-1.221-1.627
	c-0.068-0.102-0.169-0.339-0.305-0.407c-0.102-0.067-0.305-0.034-0.441-0.034h-0.542c-0.068,0-0.339-0.034-0.407,0
	c-0.034,0.034,0,0.034-0.034,0.102c-0.068,0.271,0,0.61,0,0.882v11.797c0,0.237-0.068,0.576,0,0.813s0.61,0.407,0.848,0.509
	c0.237,0.135,0.644,0.237,0.847,0.44c0.068,0.067,0.136,0.407,0.068,0.508c-0.034,0.034-0.203,0-0.237,0h-7.458
	c-0.068,0-0.305,0.034-0.339,0C22.68,51.475,22.714,51.203,22.714,51.102L22.714,51.102z M35.291,50.492v-4.95v-8.103v-1.322
	c0-0.203,0.068-0.508,0-0.712c-0.068-0.237-0.475-0.271-0.712-0.373c-0.136-0.034-0.576-0.136-0.644-0.271V34.49h0.102
	c0.136-0.068,0.407-0.068,0.576-0.102c0.305-0.067,0.61-0.102,0.882-0.169c0.678-0.135,1.39-0.271,2.068-0.373
	c0.407-0.067,0.813-0.169,1.22-0.237c0.102,0,0.509-0.068,0.542,0c0.034,0.034,0,0.169,0,0.203v7.018
	c1.289-1.288,3.526-2,5.323-1.56c1.559,0.373,2.068,1.831,2.068,3.323c0.034,1.898,0,3.763,0,5.661v1.525
	c0,0.17-0.068,0.577,0,0.746c0.034,0.068,0.169,0.102,0.237,0.169c0.237,0.136,0.508,0.271,0.746,0.407
	c0.034,0.034,0.136,0.067,0.136,0.102c0.034,0.034,0.034,0.339,0,0.373c-0.034,0.067-0.034,0.033-0.136,0.033
	c-0.373,0.068-0.78,0-1.119,0h-4.882c-0.034,0-0.204,0.034-0.237,0c-0.034-0.033-0.034-0.406,0-0.44
	c0.102-0.136,0.509-0.271,0.644-0.373c0.102-0.068,0.407-0.169,0.475-0.271s0-0.475,0-0.576v-1.39c0-1.966,0.034-3.966,0-5.933
	c0-0.576-0.102-1.254-0.678-1.56c-0.305-0.169-0.712-0.203-1.051-0.203c-0.271,0-0.542,0.068-0.779,0.135
	c-0.204,0.068-0.577,0.204-0.712,0.373c-0.102,0.136-0.034,0.339-0.034,0.508v8.001c0,0.169-0.068,0.508,0,0.644
	c0.034,0.068,0.169,0.136,0.271,0.169c0.237,0.136,0.542,0.271,0.779,0.407c0.034,0.034,0.102,0.034,0.102,0.067
	c0.034,0.034,0.034,0.34,0,0.373c-0.034,0.034-0.068,0.034-0.136,0.034c-0.373,0.033-0.78,0-1.153,0h-4.881
	c-0.034,0-0.204,0.033-0.238,0c-0.034-0.034,0-0.373,0.034-0.44c0.102-0.136,0.475-0.271,0.61-0.339
	C34.952,50.695,35.122,50.593,35.291,50.492z M51.394,45.813c0.068,1.492,0.543,3.153,1.898,3.966
	c0.713,0.407,1.594,0.543,2.407,0.475c0.983-0.102,1.797-0.577,2.645-1.017c0,0.135,0.034,0.373,0,0.508
	c-0.067,0.136-0.237,0.305-0.339,0.407c-0.136,0.136-0.306,0.305-0.475,0.441c-0.576,0.474-1.221,0.813-1.898,1.05
	c-1.288,0.44-2.78,0.407-4.103,0.067c-1.051-0.271-2-0.779-2.712-1.592c-0.712-0.814-1.119-1.865-1.288-2.949
	c-0.373-2.339,0.068-5.018,2-6.577c1.695-1.356,4.407-1.627,6.407-0.813c2.441,0.983,2.848,3.763,2.848,6.068H52.31
	C52.004,45.813,51.699,45.813,51.394,45.813L51.394,45.813z M51.326,45.237c0.678-0.034,1.356-0.068,2.068-0.136
	c0.406-0.034,0.848-0.034,1.254-0.068c0.067,0,0.237,0,0.306-0.034c0.102-0.068,0.033-0.746,0.033-0.881
	c-0.033-1.221-0.067-2.712-0.779-3.763c-0.509-0.746-1.288-0.61-1.763,0.068C51.462,41.745,51.326,43.711,51.326,45.237z M0,57.61
	c0-1.898,0.373-3.865,1.424-5.458c1.017-1.559,2.644-2.576,4.407-3.084c2.136-0.61,4.509-0.542,6.712-0.136
	c0.475,0.102,0.949,0.203,1.39,0.339c0.068,0.034,0.373,0.102,0.407,0.169v0.102c0.102,0.407,0.034,0.915,0.034,1.322
	c0.034,1.051,0.034,2.136,0.068,3.187c-0.136,0-0.373,0.034-0.475,0c-0.068-0.034-0.136-0.204-0.169-0.271
	c-0.271-0.406-0.542-0.813-0.78-1.254c-0.576-0.916-1.187-1.831-1.763-2.746c-0.305-0.508-1.152-0.508-1.695-0.508
	c-0.61,0-1.221,0.102-1.729,0.407c-1.152,0.712-1.695,2.102-2,3.356c-0.475,1.999-0.441,4.102-0.339,6.136
	c0.102,1.559,0.237,3.221,0.848,4.645c0.373,0.881,1.017,1.661,2,1.864c0.305,0.068,0.61,0.068,0.949,0.034
	c0.204-0.034,0.916-0.068,1.017-0.271c0.034-0.068,0-0.237,0-0.306v-0.575v-3.594v-1.391c0-0.237,0.068-0.339-0.135-0.475
	c-0.237-0.135-0.509-0.271-0.746-0.44c-0.169-0.102-0.508-0.203-0.61-0.339c-0.067-0.068-0.102-0.44-0.034-0.509
	c0.034-0.067,0.034-0.033,0.136-0.033c0.305-0.068,0.712,0,1.017,0h5.254c0.339,0,0.712-0.034,1.051,0h0.136
	c0.034,0.033,0.034,0.508,0,0.575c-0.068,0.103-0.407,0.238-0.542,0.306c-0.237,0.136-0.508,0.271-0.746,0.44
	c-0.271,0.136-0.237,0.136-0.237,0.44v5.526c0,0.067,0.034,0.237,0,0.305c-0.068,0.17-0.78,0.271-0.983,0.34
	c-0.576,0.169-1.187,0.305-1.796,0.406c-1.187,0.203-2.373,0.271-3.56,0.237c-1.898-0.067-3.899-0.475-5.458-1.627
	c-1.356-0.983-2.237-2.475-2.644-4.103C0.102,59.678,0,58.627,0,57.61z M15.628,54.525c0-0.068-0.034-0.339,0-0.373
	c0.034-0.034,0.068,0,0.102-0.034c0.204-0.102,0.475-0.102,0.712-0.136c0.78-0.136,1.56-0.271,2.373-0.406
	c0.61-0.102,1.221-0.237,1.797-0.306c0.169-0.033,0.373-0.033,0.542,0.034c0.169,0.034,0.102,0,0.136,0.136
	c0.067,0.406,0,0.882,0,1.288v7.085c0,0.848-0.237,2.407,0.576,2.916c0.407,0.271,0.983,0.271,1.458,0.17
	c0.373-0.068,1.085-0.339,1.221-0.746c0.034-0.102,0-0.237,0-0.339v-0.712V58.39v-2.17v-0.711c0-0.068,0.034-0.271,0-0.34
	c-0.102-0.102-0.441-0.203-0.542-0.237c-0.204-0.067-0.373-0.169-0.576-0.237c-0.068-0.033-0.305-0.067-0.339-0.135
	c-0.034-0.034-0.034-0.339,0-0.373c0.034-0.034,0.034,0,0.068-0.034c0.169-0.102,0.475-0.067,0.644-0.102
	c1.39-0.237,2.814-0.543,4.238-0.746c0.169-0.034,0.339-0.034,0.509,0c0.169,0.034,0.102-0.034,0.135,0.136
	c0.068,0.339,0,0.813,0,1.187v9.764c0,0.102-0.034,0.271,0,0.406c0.034,0.103,0,0.068,0.169,0.136
	c0.339,0.136,0.712,0.306,1.051,0.44c0.102,0.034,0.135,0.034,0.169,0.103c0.034,0.067,0.034,0.305,0,0.305
	c-0.068,0.068-0.407,0.034-0.475,0.068c-0.746,0.102-1.492,0.169-2.271,0.271c-0.678,0.068-1.356,0.17-2,0.237
	c-0.136,0.034-0.271,0.034-0.407,0c-0.067,0-0.271,0-0.305-0.034c-0.034-0.067,0-0.339,0-0.406V65.34c0-0.102,0.068-0.373,0-0.475
	s-0.204,0.034-0.305,0.102c-0.271,0.237-0.577,0.475-0.881,0.645c-1.119,0.678-2.509,0.982-3.797,0.711
	c-0.949-0.203-1.763-0.745-2.169-1.66c-0.305-0.645-0.373-1.356-0.373-2.034v-4.034v-2.306v-0.779c0-0.068,0.034-0.271,0-0.34
	c-0.067-0.102-0.475-0.203-0.576-0.271C16.171,54.763,15.899,54.661,15.628,54.525z M47.597,53.237c0.068,0,0.373,0,0.407,0.067
	c0.034,0.034,0,0.271,0,0.305v2.984c0,0.102-0.034,0.271,0,0.372v0.068c0.136,0.135,0.169-0.306,0.204-0.339
	c0.305-1.255,0.881-2.713,2.169-3.221c0.237-0.102,0.475-0.136,0.712-0.17c0.203,0,0.78-0.067,0.882,0.102
	c0.033,0.068,0,0.237,0,0.306v3.457c-0.814-0.169-1.729-0.135-2.509,0.034c-0.373,0.068-0.711,0.17-1.051,0.34
	c-0.169,0.067-0.203,0.033-0.237,0.169c-0.034,0.136,0,0.373,0,0.509v6.543c0,0.067-0.034,0.169,0,0.237
	c0.068,0.102,0.305,0.169,0.407,0.203c0.17,0.102,0.373,0.203,0.542,0.305c0.068,0.034,0.169,0.068,0.204,0.136
	c0.034,0.034,0.034,0.441,0,0.475c-0.034,0.034-0.237,0-0.305,0h-5.627c-0.17,0-0.475,0.068-0.61,0h-0.102
	c-0.034-0.033,0-0.406,0-0.44c0.068-0.203,0.509-0.339,0.712-0.44c0.135-0.068,0.407-0.17,0.475-0.306c0.034-0.067,0-0.271,0-0.339
	v-0.712v-8.713c0-0.033,0.034-0.203,0-0.237c-0.034-0.033-0.204-0.067-0.271-0.067c-0.203-0.068-0.407-0.136-0.61-0.17
	c-0.204-0.067-0.712-0.102-0.542-0.44c0.034-0.102,0.169-0.067,0.305-0.102c1.492-0.271,2.95-0.543,4.441-0.813
	C47.326,53.271,47.461,53.271,47.597,53.237L47.597,53.237z M60.378,53.542v-2.711v-0.78c0-0.102,0.033-0.305,0-0.407
	c-0.034-0.068-0.17-0.102-0.271-0.136c-0.271-0.102-0.542-0.204-0.848-0.305c-0.203-0.068-0.305-0.034-0.305-0.271
	c0-0.204-0.034-0.136,0.136-0.17c0.373-0.135,0.813-0.135,1.187-0.203c1.118-0.203,2.203-0.407,3.322-0.61
	c0.237-0.034,0.475-0.102,0.712-0.067c0.271,0.034,0.305-0.034,0.305,0.203c0.034,0.542,0,1.119,0,1.661v14.848
	c0,0.136-0.033,0.136,0.068,0.203c0.203,0.136,0.542,0.204,0.746,0.271c0.135,0.034,0.508,0.102,0.575,0.203
	c0.034,0.034,0.034,0.407,0,0.441c-0.033,0.034-0.236,0.034-0.271,0.034c-0.475,0.067-0.916,0.135-1.39,0.169
	c-1.052,0.136-2.103,0.271-3.188,0.406c-0.169,0.034-0.576,0.103-0.644-0.033c-0.068-0.136,0-0.576,0-0.712
	c0-0.102,0.067-0.543,0-0.61c-0.068-0.067-0.813,0.61-0.915,0.678c-0.407,0.271-0.848,0.475-1.322,0.61
	c-0.746,0.203-1.594,0.203-2.34,0.034c-3.254-0.746-3.933-4.61-3.661-7.425c0.136-1.491,0.61-2.983,1.628-4.068
	c0.948-0.982,2.237-1.491,3.56-1.593C58.479,53.102,59.463,53.169,60.378,53.542L60.378,53.542z M60.378,64.356v-8.34v-1.56
	c0-0.203-0.034-0.236-0.271-0.372c-0.475-0.271-1.085-0.373-1.593-0.17c-0.78,0.306-1.153,1.221-1.356,1.966
	c-0.407,1.356-0.44,2.814-0.407,4.238c0.034,1.221,0.068,2.712,0.746,3.797C58.106,64.865,59.496,65.103,60.378,64.356z
	 M71.599,53.237c0.17,0.033,0.373-0.034,0.441,0.136c0.033,0.102,0,0.339,0,0.44v10.611c0,0.136-0.034,0.339,0,0.475
	c0.033,0.135,0.17,0.169,0.305,0.236c0.204,0.103,0.373,0.204,0.576,0.306c0.068,0.034,0.271,0.102,0.306,0.203
	c0,0.034,0.034,0.441,0,0.475h-0.102c-0.204,0.034-0.475,0-0.712,0H67.26c-0.136,0-0.509,0.068-0.61,0
	c-0.067-0.033-0.102-0.44-0.033-0.508c0.067-0.103,0.305-0.17,0.406-0.204c0.203-0.102,0.407-0.237,0.61-0.339
	c0.17-0.102,0.136-0.067,0.136-0.203c0.067-0.509,0-1.085,0-1.594v-2.678v-4.882c0-0.136,0.034-0.373,0-0.509
	S67.565,55.067,67.43,55c-0.238-0.102-0.441-0.17-0.679-0.271c-0.067-0.034-0.339-0.067-0.406-0.169
	c-0.034-0.034-0.034-0.373,0-0.407c0.033-0.034,0.102,0,0.136-0.034c0.271-0.102,0.576-0.102,0.881-0.169
	c0.441-0.068,0.848-0.17,1.288-0.237c0.848-0.136,1.661-0.306,2.509-0.441C71.328,53.305,71.464,53.271,71.599,53.237L71.599,53.237
	z M72.073,50.085c-0.067,2.033-2.813,2.915-4.067,1.321c-0.576-0.745-0.61-1.762-0.102-2.542c0.508-0.78,1.491-1.119,2.406-0.916
	C71.328,48.152,72.073,49.034,72.073,50.085z M86.923,64.967v-8.17v-1.56c0-0.034,0.033-0.204,0-0.237
	c-0.034-0.068-0.238-0.102-0.306-0.102l-0.61-0.204c-0.102-0.033-0.373-0.067-0.44-0.169c-0.068-0.068-0.034-0.237-0.034-0.339
	c0-0.204,0.068-0.17,0.271-0.204l2.237-0.406l2.237-0.407c0.136-0.033,0.237-0.067,0.373-0.067c0.068,0,0.407,0,0.475,0.034
	c0.034,0.033,0,0.237,0,0.305v0.645c0,0.102-0.067,0.406,0,0.508c0.068,0.136,0.203,0,0.305-0.102c0.306-0.237,0.611-0.44,0.95-0.61
	c1.22-0.678,2.678-0.982,4.068-0.779c0.948,0.136,1.729,0.644,2.067,1.56c0.237,0.644,0.271,1.321,0.271,2v7.729
	c0,0.136-0.034,0.373,0,0.509c0.034,0.135,0.136,0.169,0.305,0.236c0.17,0.103,0.373,0.204,0.543,0.306
	c0.067,0.034,0.305,0.102,0.339,0.203c0.034,0.068,0.034,0.407,0,0.441c-0.034,0.067,0.034,0-0.068,0.033
	c-0.135,0.068-0.44,0-0.61,0h-4.848c-0.203,0-0.983,0.102-1.085-0.033c-0.033-0.034-0.033-0.407,0-0.475
	c0.034-0.068,0.237-0.136,0.306-0.17c0.203-0.102,0.373-0.203,0.576-0.306c0.067-0.033,0.271-0.102,0.305-0.169
	c0.034-0.067,0-0.203,0-0.271v-0.746v-2.373V57c0-0.542,0.034-1.152-0.305-1.627c-0.271-0.407-0.746-0.509-1.221-0.543
	c-0.373,0-0.712,0.034-1.051,0.136c-0.169,0.067-0.678,0.203-0.779,0.407c-0.034,0.067,0,0.203,0,0.271v8.781
	c0,0.102-0.034,0.339,0,0.44c0.033,0.136,0.236,0.169,0.339,0.237c0.169,0.102,0.373,0.203,0.542,0.305
	c0.068,0.034,0.203,0.102,0.237,0.136s0.034,0.44,0,0.475c0,0.034-0.034,0-0.067,0c-0.136,0.068-0.475,0-0.61,0h-5.695
	c-0.17,0-0.204,0.034-0.237-0.067c-0.034-0.068-0.034-0.373,0-0.441c0.033-0.067,0.237-0.136,0.305-0.169
	C86.346,65.306,86.617,65.136,86.923,64.967z M79.735,58.729c0-0.882,0.034-1.797-0.034-2.713c-0.102-0.983-0.372-2.067-1.491-2.271
	c-0.339-0.067-0.949-0.169-1.187,0.102c-0.237,0.238-0.407,0.577-0.61,0.848l-1.729,2.34c-0.102,0.135-0.204,0.406-0.34,0.475
	c-0.033,0.034-0.373,0.034-0.373,0c-0.033-0.034,0-0.271,0-0.34v-2.745c0-0.102-0.033-0.271,0-0.373
	c0.068-0.17,0.814-0.271,0.983-0.339c0.949-0.237,1.933-0.407,2.916-0.475c1.39-0.102,2.949-0.068,4.237,0.542
	c1.017,0.475,1.661,1.322,1.831,2.407c0.102,0.542,0.067,1.152,0.067,1.695v6.78c0,0.102-0.067,0.372,0,0.44
	c0.034,0.033,0.203,0.067,0.237,0.067c0.271,0.068,0.509,0.136,0.78,0.203c0.169,0.034,0.203,0.034,0.203,0.204
	s0.034,0.17-0.17,0.237c-0.237,0.102-0.475,0.203-0.712,0.271c-1.254,0.372-3.221,0.475-4.136-0.679
	c-0.067-0.102-0.271-0.542-0.373-0.576c-0.136-0.034-0.542,0.509-0.678,0.61c-0.543,0.475-1.254,0.746-1.967,0.848
	c-1.321,0.169-2.745-0.102-3.56-1.255c-0.678-0.982-0.813-2.508-0.305-3.593c0.915-2.068,3.628-2.271,5.594-2.61
	C79.159,58.831,79.431,58.763,79.735,58.729L79.735,58.729z M79.735,64.356v-5.018c-1.018,0.068-2.068,0.136-2.44,1.255
	c-0.271,0.746-0.271,1.627-0.17,2.406c0.067,0.543,0.203,1.221,0.712,1.561C78.379,64.933,79.295,64.865,79.735,64.356
	L79.735,64.356z M36.816,58.729c0-0.882,0.034-1.797-0.034-2.713c-0.102-0.983-0.373-2.067-1.492-2.271
	c-0.339-0.067-0.949-0.169-1.187,0.102c-0.237,0.238-0.407,0.577-0.61,0.848l-1.729,2.34c-0.102,0.135-0.203,0.406-0.339,0.475
	c-0.034,0.034-0.373,0.034-0.373,0c-0.034-0.034,0-0.271,0-0.34v-2.712c0-0.102-0.034-0.271,0-0.372
	c0.068-0.17,0.78-0.271,0.983-0.34c0.949-0.237,1.932-0.406,2.881-0.475c1.39-0.102,2.95-0.067,4.238,0.543
	c1.017,0.475,1.661,1.322,1.831,2.406c0.102,0.543,0.068,1.153,0.068,1.695v6.78c0,0.102-0.068,0.373,0,0.44
	c0.034,0.034,0.204,0.068,0.237,0.068c0.271,0.067,0.509,0.136,0.78,0.203c0.169,0.034,0.204,0.034,0.204,0.204
	c0,0.169,0.034,0.169-0.17,0.237c-0.237,0.102-0.475,0.203-0.712,0.271c-1.254,0.373-3.221,0.475-4.136-0.678
	c-0.068-0.102-0.271-0.542-0.373-0.576c-0.136-0.034-0.542,0.508-0.644,0.61c-0.542,0.475-1.254,0.745-1.966,0.847
	c-1.322,0.17-2.746-0.102-3.56-1.254c-0.678-0.983-0.813-2.509-0.305-3.594c0.916-2.067,3.627-2.271,5.56-2.61
	C36.24,58.831,36.511,58.763,36.816,58.729z M36.816,64.356v-5.018c-1.017,0.068-2.068,0.136-2.441,1.255
	c-0.271,0.746-0.271,1.627-0.169,2.406c0.068,0.543,0.204,1.221,0.712,1.561C35.46,64.933,36.376,64.865,36.816,64.356z"/>
</svg>
