<?xml version="1.0" encoding="utf-8"?>
<!-- Generator: Adobe Illustrator 16.0.0, SVG Export Plug-In . SVG Version: 6.00 Build 0)  -->
<!DOCTYPE svg PUBLIC "-//W3C//DTD SVG 1.1//EN" "http://www.w3.org/Graphics/SVG/1.1/DTD/svg11.dtd">
<svg version="1.1" id="Layer_1" xmlns="http://www.w3.org/2000/svg" xmlns:xlink="http://www.w3.org/1999/xlink" x="0px" y="0px"
	 width="100px" height="100px" viewBox="0 0 100 100" enable-background="new 0 0 100 100" xml:space="preserve">
<path fill="#010101" d="M82.178,58.336c-2.91-0.509-5.325-2.446-6.42-5.149c-0.564-1.393-0.755-3.78-0.417-5.212
	c0.481-2.04,1.775-3.906,3.46-4.986c1.494-0.959,2.677-1.229,5.804-1.327l2.802-0.088v5.866L86.329,47
	c-0.708-0.288-1.521-0.463-2.37-0.511c-1.207-0.067-1.348-0.037-2.104,0.45c-1.084,0.698-1.584,1.661-1.595,3.068
	c-0.007,0.912,0.066,1.168,0.517,1.809c0.698,0.993,1.649,1.518,2.751,1.518c1.144,0.001,1.329-0.14,1.262-0.96l-0.055-0.671
	l-1.336,0.009l-1.336,0.009v-1.906l-0.001-1.905l3.621,0.05l3.62,0.05v3.502c0,2.127,0.075,3.717,0.191,4.052
	c0.241,0.692,0.016,0.974-1.385,1.72C86.423,58.182,83.879,58.633,82.178,58.336L82.178,58.336z M2.876,57.691
	c0.08-0.166,0.17-2.812,0.2-5.878l0.054-5.577l-1.565,0.061L0,46.358l0.047-2.327l0.048-2.327l4.008-0.046l4.008-0.046v16.382h-2.69
	C2.917,57.993,2.74,57.972,2.876,57.691z M9.145,49.806v-8.188h7.068v4.769l-0.948-0.079l-0.948-0.079v1.767h2.93v-6.378h5.171
	v16.375h-5.507l0.168-0.442c0.093-0.243,0.168-1.601,0.168-3.017v-2.573H14.3l0.053,2.714c0.029,1.493,0.118,2.851,0.199,3.017
	c0.137,0.281-0.044,0.302-2.63,0.302H9.145V49.806z M23.13,57.708c0.359-0.433,0.442-14.36,0.091-15.378l-0.246-0.712h9.958v4.776
	l-0.905-0.238c-0.511-0.134-1.506-0.216-2.284-0.19l-1.379,0.047l-0.052,1.013l-0.053,1.013l1.475-0.077l1.475-0.077v4.034
	l-0.763-0.163c-0.419-0.089-1.06-0.138-1.422-0.108l-0.659,0.055l-0.053,0.923l-0.053,0.924l1.949-0.085
	c1.072-0.047,2.124-0.142,2.337-0.211l0.388-0.127v4.867h-5.02C23.265,57.993,22.911,57.972,23.13,57.708L23.13,57.708z
	 M42.703,57.433c-2.385-5.706-6.49-14.955-6.802-15.326l-0.412-0.489h5.79c3.185,0,5.79,0.058,5.79,0.129
	c0,0.071-0.338,1.021-0.751,2.112l-0.751,1.982l-1.317,0.05c-0.725,0.028-1.317,0.08-1.317,0.115c0,0.163,1.615,4.504,1.72,4.624
	c0.065,0.075,0.88-1.923,1.81-4.438l1.691-4.574h13.396v2.518c0,2.336-0.021,2.508-0.302,2.379
	c-0.166-0.077-1.213-0.169-2.327-0.205l-2.025-0.067v1.796l1.466-0.077l1.465-0.077v4.034l-0.763-0.163
	c-0.42-0.089-1.06-0.138-1.422-0.108l-0.66,0.055l-0.051,0.991l-0.052,0.99h1.538c0.927,0,1.829-0.103,2.271-0.258
	c0.402-0.143,0.762-0.259,0.797-0.259c0.036,0,0.064,1.086,0.064,2.413v2.413h-5.02c-4.113,0-4.986-0.041-4.834-0.226
	c0.206-0.248,0.374-12.186,0.172-12.186c-0.063,0-1.302,2.793-2.753,6.206l-2.64,6.205h-3.538L42.703,57.433L42.703,57.433z"/>
<path fill="#010101" d="M62.214,41.615l0.14,0.388c0.188,0.518,0.183,15.301-0.005,15.686c-0.139,0.281,0.051,0.302,2.806,0.302
	c2.868,0,2.953-0.011,2.78-0.334c-0.099-0.184-0.178-1.274-0.178-2.424c0-2.088,0-2.092,0.388-1.978
	c0.725,0.215,1.674,0.943,2.133,1.638c0.519,0.783,0.729,2.154,0.421,2.731l-0.199,0.366h2.946c1.724,0,2.906-0.064,2.85-0.156
	c-0.054-0.086-0.237-1.008-0.415-2.047c-0.391-2.289-1.09-3.745-2.203-4.595l-0.737-0.565l0.42-0.565
	c1.406-1.906,1.182-5.095-0.474-6.75c-1.348-1.347-2.881-1.689-7.516-1.691L62.214,41.615z M68.134,45.931
	c0.166,0.01,0.406,0.104,0.749,0.248c1.026,0.429,1.234,1.551,0.437,2.349c-0.339,0.339-0.679,0.501-1.035,0.501h-0.527v-1.551
	C67.757,46.292,67.769,45.908,68.134,45.931z M90.103,57.691c0.189-0.386,0.195-15.168,0.006-15.689l-0.142-0.391l4.969,0.046
	l4.968,0.046l0.049,2.383L100,46.47l-0.394-0.125c-0.954-0.307-1.688-0.41-2.935-0.414l-1.336-0.004v2.112l1.465-0.077l1.466-0.077
	v2.056c0,1.888-0.025,2.047-0.302,1.939c-0.166-0.064-0.817-0.161-1.447-0.215l-1.146-0.097l-0.062,0.907
	c-0.043,0.634,0.007,0.933,0.164,0.993c0.293,0.112,3.623-0.067,4.127-0.224l0.389-0.119v4.866h-5.018
	C90.253,57.993,89.964,57.976,90.103,57.691L90.103,57.691z"/>
</svg>
