<?xml version="1.0" encoding="utf-8"?>
<!-- Generator: Adobe Illustrator 16.0.0, SVG Export Plug-In . SVG Version: 6.00 Build 0)  -->
<!DOCTYPE svg PUBLIC "-//W3C//DTD SVG 1.1//EN" "http://www.w3.org/Graphics/SVG/1.1/DTD/svg11.dtd">
<svg version="1.1" id="Layer_1" xmlns="http://www.w3.org/2000/svg" xmlns:xlink="http://www.w3.org/1999/xlink" x="0px" y="0px"
	 width="100px" height="100px" viewBox="0 0 100 100" enable-background="new 0 0 100 100" xml:space="preserve">
<path fill-rule="evenodd" clip-rule="evenodd" d="M57.551,58.424c0.258-0.618,0.469-1.121,0.676-1.626
	c2.805-6.812,5.611-13.622,8.4-20.439c0.178-0.436,0.396-0.575,0.857-0.564c1.289,0.03,1.295,0.008,1.527,1.268
	c1.633,8.869,3.268,17.737,4.879,26.609c0.104,0.575,0.305,0.782,0.883,0.723c0.51-0.052,1.031,0.005,1.545-0.015
	c0.381-0.014,0.371,0.215,0.377,0.482c0.006,0.28-0.066,0.421-0.385,0.42c-3.234-0.008-6.469-0.01-9.703,0.002
	c-0.365,0.002-0.389-0.172-0.395-0.459c-0.006-0.313,0.078-0.457,0.416-0.445c0.586,0.018,1.176-0.025,1.76,0.012
	c0.496,0.033,0.553-0.176,0.475-0.594c-0.408-2.182-0.799-4.366-1.193-6.549c-0.631-3.477-1.262-6.952-1.895-10.428
	c-0.029-0.167-0.078-0.33-0.145-0.604c-0.184,0.404-0.324,0.705-0.457,1.01c-2.523,5.812-5.053,11.622-7.561,17.442
	c-0.195,0.454-0.432,0.577-0.922,0.637c-1.008,0.122-1.422-0.299-1.803-1.199c-2.445-5.789-4.961-11.546-7.456-17.313
	c-0.069-0.159-0.149-0.313-0.287-0.6c-0.189,0.974-0.357,1.816-0.518,2.66c-0.945,5.006-1.884,10.013-2.845,15.017
	c-0.081,0.418-0.005,0.541,0.414,0.52c0.496-0.027,0.995-0.012,1.492-0.004c0.248,0.004,0.548-0.096,0.524,0.368
	c-0.02,0.4-0.137,0.539-0.559,0.534c-1.919-0.023-3.839-0.01-5.758-0.01c-0.302,0-0.604-0.008-0.906,0.002
	c-0.291,0.009-0.512,0.002-0.497-0.41c0.014-0.362,0.115-0.514,0.493-0.492c0.442,0.025,0.89-0.016,1.332,0.012
	c0.401,0.024,0.584-0.082,0.663-0.526c0.644-3.617,1.32-7.229,1.985-10.843c1.032-5.604,2.064-11.208,3.089-16.813
	c0.05-0.272,0.144-0.39,0.438-0.406c1.56-0.087,1.562-0.096,2.153,1.323c2.871,6.88,5.742,13.76,8.613,20.64
	C57.336,57.941,57.416,58.119,57.551,58.424z M89.777,65.262c3.305,0,6.609-0.006,9.914,0.006c0.391,0.002,0.566-0.068,0.559-0.52
	c-0.027-1.652-0.01-3.305-0.016-4.957c0-0.158,0.082-0.396-0.195-0.414c-0.332-0.021-0.236,0.25-0.24,0.42
	c-0.027,1.012-0.057,2.025-0.057,3.037c0,0.375-0.139,0.479-0.5,0.477c-4.691-0.012-9.381-0.016-14.072-0.009
	c-0.357,0.001-0.496-0.093-0.494-0.476c0.012-3.678,0.01-7.355,0-11.033c0-0.33,0.074-0.469,0.441-0.468
	c3.838,0.012,7.676,0.011,11.514-0.001c0.326,0,0.434,0.117,0.463,0.416c0.07,0.672,0.166,1.34,0.238,2.011
	c0.023,0.218,0.051,0.378,0.332,0.362c0.291-0.018,0.23-0.222,0.223-0.385c-0.119-2.166-0.131-4.333-0.004-6.499
	c0.008-0.158,0.086-0.373-0.203-0.401c-0.268-0.025-0.324,0.116-0.348,0.345c-0.066,0.636-0.162,1.268-0.23,1.904
	c-0.033,0.308-0.133,0.45-0.49,0.449c-3.818-0.014-7.639-0.014-11.459-0.001c-0.377,0.001-0.479-0.119-0.477-0.485
	c0.012-3.518,0.012-7.036-0.002-10.554c-0.002-0.413,0.111-0.548,0.539-0.542c4.514,0.065,9.025,0.116,13.537,0.152
	c0.41,0.003,0.508,0.147,0.516,0.523c0.02,0.888,0.076,1.774,0.123,2.662c0.008,0.151-0.029,0.346,0.209,0.36
	c0.271,0.016,0.201-0.199,0.199-0.339c-0.008-1.67-0.031-3.34-0.033-5.01c0-0.368-0.16-0.432-0.482-0.429
	c-1.6,0.013-3.199,0.005-4.797,0.005c-5.455,0-10.91,0-16.365,0.001c-0.289,0-0.602-0.093-0.596,0.417
	c0.008,0.503,0.326,0.412,0.611,0.42c0.586,0.017,1.174,0.055,1.758,0.026c0.5-0.024,0.611,0.169,0.611,0.644
	c-0.016,6.592-0.01,13.183-0.01,19.774c0,2.239-0.012,4.479,0.01,6.717c0.004,0.427-0.135,0.555-0.541,0.544
	c-0.676-0.019-1.352,0.015-2.025,0.005c-0.293-0.004-0.391,0.094-0.41,0.396c-0.031,0.482,0.264,0.448,0.578,0.447
	c3.605-0.002,7.213-0.001,10.82,0C89.209,65.262,89.494,65.262,89.777,65.262z M15.413,46.155c0-2.541,0.002-5.081-0.002-7.622
	c0-0.323-0.011-0.571,0.456-0.568c3.073,0.018,6.146,0.014,9.221,0.004c0.334-0.001,0.422,0.122,0.415,0.438
	c-0.02,0.906-0.02,1.812-0.005,2.718c0.004,0.196-0.162,0.553,0.189,0.557c0.393,0.004,0.213-0.375,0.216-0.579
	c0.016-1.545-0.015-3.092,0.021-4.636c0.013-0.515-0.168-0.603-0.631-0.602c-6.129,0.014-12.259,0.009-18.388,0.009
	c-2.061,0-4.122,0.006-6.183-0.006c-0.333-0.002-0.476,0.081-0.474,0.439c0.014,1.67,0.006,3.34,0.008,5.01
	c0.001,0.173-0.026,0.381,0.242,0.387c0.283,0.006,0.234-0.211,0.235-0.379c0.004-0.924,0.029-1.849-0.01-2.771
	c-0.02-0.476,0.128-0.594,0.593-0.59c3.021,0.021,6.041,0.021,9.061,0c0.486-0.003,0.62,0.128,0.618,0.619
	c-0.018,5.276-0.011,10.553-0.011,15.829c0,3.145-0.008,6.289,0.008,9.434c0.003,0.413-0.106,0.568-0.532,0.544
	c-0.567-0.031-1.137,0.006-1.705-0.012c-0.327-0.009-0.467,0.076-0.474,0.444c-0.008,0.403,0.195,0.425,0.493,0.419
	c0.533-0.009,1.066-0.002,1.599-0.002c2.487,0,4.975-0.003,7.462,0.003c0.316,0.001,0.523-0.01,0.528-0.438
	c0.005-0.457-0.252-0.424-0.545-0.422c-0.568,0.003-1.137,0.002-1.705,0c-0.699-0.001-0.702-0.002-0.702-0.691
	c0-4.174,0-8.35,0-12.524C15.413,49.495,15.413,47.825,15.413,46.155z M30.082,52.021c0,3.943-0.006,7.887,0.009,11.832
	c0.002,0.434-0.105,0.6-0.561,0.572c-0.619-0.037-1.243-0.002-1.864-0.012c-0.297-0.006-0.498,0.012-0.498,0.412
	c-0.001,0.402,0.205,0.414,0.499,0.413c1.386-0.006,2.771-0.003,4.157-0.003c1.67,0,3.34-0.006,5.01,0.004
	c0.336,0.002,0.419-0.137,0.42-0.445c0.001-0.32-0.146-0.387-0.424-0.382c-0.604,0.012-1.212-0.038-1.812,0.015
	c-0.566,0.05-0.67-0.172-0.669-0.691c0.018-6.006,0.011-12.01,0.011-18.015c0-2.79,0.019-5.579-0.015-8.368
	c-0.006-0.565,0.171-0.7,0.691-0.663c0.602,0.042,1.208-0.007,1.812,0.015c0.358,0.013,0.397-0.171,0.404-0.459
	c0.008-0.306-0.111-0.394-0.406-0.393c-3.091,0.008-6.183,0.008-9.273,0c-0.291-0.001-0.417,0.076-0.404,0.388
	c0.011,0.277,0.018,0.479,0.391,0.465c0.638-0.024,1.28,0.026,1.917-0.016c0.496-0.033,0.618,0.137,0.616,0.621
	c-0.019,4.406-0.011,8.812-0.011,13.218C30.082,51.025,30.082,51.523,30.082,52.021z"/>
</svg>
