<?xml version="1.0" encoding="utf-8"?>
<!-- Generator: Adobe Illustrator 16.0.0, SVG Export Plug-In . SVG Version: 6.00 Build 0)  -->
<!DOCTYPE svg PUBLIC "-//W3C//DTD SVG 1.1//EN" "http://www.w3.org/Graphics/SVG/1.1/DTD/svg11.dtd">
<svg version="1.1" id="Layer_1" xmlns="http://www.w3.org/2000/svg" xmlns:xlink="http://www.w3.org/1999/xlink" x="0px" y="0px"
	 width="100px" height="100px" viewBox="0 0 100 100" enable-background="new 0 0 100 100" xml:space="preserve">
<g transform="translate(-17.5 -16.129002)">
	<circle fill="#0C8ECD" cx="43.452" cy="66.129" r="25.952"/>
	<path fill="#010101" d="M81.097,45.937v5.232c0,1.198-0.049,2.383-0.975,3.284c-0.777,0.765-2,1.036-3.086,1.036
		c-1.085,0-2.307-0.271-3.084-1.036c-0.926-0.901-0.976-2.086-0.976-3.284v-5.232h2.419v4.899c0,1.209,0.087,2.53,1.641,2.53
		c1.556,0,1.643-1.319,1.643-2.53v-4.899H81.097z M87.733,48.331c-0.444-0.37-1.013-0.618-1.604-0.618
		c-0.444,0-1.037,0.259-1.037,0.777c0,0.543,0.653,0.753,1.073,0.888l0.618,0.186c1.295,0.382,2.295,1.036,2.295,2.542
		c0,0.925-0.222,1.875-0.962,2.504c-0.729,0.617-1.703,0.876-2.642,0.876c-1.172,0-2.32-0.395-3.271-1.061l1.037-1.95
		c0.604,0.531,1.318,0.963,2.146,0.963c0.567,0,1.173-0.284,1.173-0.939c0-0.678-0.95-0.912-1.469-1.061
		c-1.518-0.432-2.519-0.827-2.519-2.628c0-1.889,1.347-3.123,3.21-3.123c0.938,0,2.085,0.296,2.911,0.766L87.733,48.331z
		 M92.592,53.625l-0.641,1.616h-2.568l3.58-9.304h2.641l3.505,9.304h-2.579l-0.604-1.616H92.592z M94.283,48.812h-0.024l-1,2.961
		h2.012L94.283,48.812z M77.999,66.23H75.58v-7.258h-2v-2.048h6.418v2.048h-1.999V66.23z M90.694,61.403
		c0,3.011-2.159,5.134-5.146,5.134s-5.146-2.123-5.146-5.134c0-2.814,2.469-4.789,5.146-4.789S90.694,58.589,90.694,61.403
		L90.694,61.403z M82.92,61.416c0,1.605,1.185,2.776,2.629,2.776c1.443,0,2.629-1.172,2.629-2.776c0-1.283-1.186-2.456-2.629-2.456
		C84.104,58.96,82.92,60.132,82.92,61.416z M91.813,56.923h3.431c2.592,0,4.726,2.036,4.726,4.652c0,2.616-2.146,4.653-4.726,4.653
		h-3.431V56.923z M94.232,64.18h0.542c1.443,0,2.679-0.79,2.679-2.604c0-1.665-1.099-2.604-2.654-2.604h-0.566V64.18z
		 M103.459,64.612l-0.642,1.616h-2.567l3.579-9.305h2.642l3.504,9.305h-2.578l-0.605-1.616H103.459z M105.15,59.799h-0.024
		l-0.999,2.962h2.011L105.15,59.799z M108.22,56.923h2.9l1.74,2.53l1.741-2.53h2.898l-3.43,4.838v4.468h-2.419v-4.468L108.22,56.923
		L108.22,56.923z"/>
	<g>
		<path fill="#010101" d="M74.253,71.748l0.704-1.561c0.008-0.014,0.02-0.023,0.041-0.023h0.022c0.021,0,0.032,0.011,0.04,0.023
			l0.699,1.561c0.015,0.03-0.004,0.061-0.039,0.061h-0.093c-0.021,0-0.034-0.015-0.04-0.025L75.417,71.4h-0.823l-0.17,0.383
			c-0.005,0.013-0.018,0.025-0.039,0.025h-0.092C74.257,71.809,74.239,71.778,74.253,71.748z M75.354,71.257
			c-0.114-0.252-0.226-0.508-0.339-0.76h-0.018l-0.339,0.76H75.354z M78.05,70.164c0.234,0,0.404,0.079,0.562,0.215
			c0.019,0.019,0.021,0.046,0.002,0.065c-0.021,0.021-0.046,0.042-0.064,0.064c-0.021,0.023-0.035,0.021-0.061-0.002
			c-0.118-0.104-0.285-0.182-0.441-0.182c-0.365,0-0.645,0.306-0.645,0.665c0,0.357,0.279,0.671,0.645,0.671
			c0.256,0,0.418-0.098,0.418-0.098v-0.325h-0.266c-0.026,0-0.045-0.019-0.045-0.042V71.11c0-0.024,0.019-0.043,0.045-0.043h0.399
			c0.023,0,0.042,0.021,0.042,0.043v0.53c0,0.014-0.009,0.031-0.018,0.039c0,0-0.236,0.152-0.572,0.152
			c-0.464,0-0.837-0.369-0.837-0.831C77.213,70.535,77.587,70.164,78.05,70.164L78.05,70.164z M79.207,71.748l0.705-1.561
			c0.007-0.014,0.019-0.023,0.04-0.023h0.022c0.021,0,0.032,0.011,0.04,0.023l0.7,1.561c0.015,0.03-0.006,0.061-0.039,0.061h-0.093
			c-0.021,0-0.036-0.015-0.04-0.025L80.372,71.4h-0.823l-0.17,0.383c-0.004,0.013-0.018,0.025-0.039,0.025h-0.094
			C79.213,71.809,79.193,71.778,79.207,71.748z M80.31,71.257c-0.114-0.252-0.226-0.508-0.34-0.76h-0.018l-0.339,0.76H80.31z
			 M81.368,70.205c0-0.024,0.021-0.042,0.044-0.042h0.059l1.045,1.302h0.005v-1.234c0-0.023,0.018-0.045,0.043-0.045h0.081
			c0.023,0,0.044,0.021,0.044,0.045v1.559c0,0.022-0.021,0.043-0.044,0.043h-0.041l-1.064-1.328h-0.002v1.261
			c0,0.021-0.018,0.043-0.044,0.043h-0.081c-0.022,0-0.044-0.021-0.044-0.043V70.205z M83.563,70.205
			c0-0.024,0.021-0.042,0.044-0.042h0.058l1.046,1.302h0.005v-1.234c0-0.023,0.018-0.045,0.044-0.045h0.081
			c0.023,0,0.044,0.021,0.044,0.045v1.559c0,0.022-0.021,0.043-0.044,0.043h-0.042l-1.064-1.328h-0.002v1.261
			c0,0.021-0.019,0.043-0.045,0.043h-0.08c-0.022,0-0.044-0.021-0.044-0.043V70.205z M85.76,70.231c0-0.023,0.019-0.045,0.043-0.045
			h0.913c0.025,0,0.044,0.021,0.044,0.045v0.066c0,0.023-0.019,0.045-0.044,0.045h-0.778v0.564h0.664
			c0.023,0,0.045,0.02,0.045,0.043v0.068c0,0.025-0.021,0.043-0.045,0.043h-0.664v0.592h0.778c0.025,0,0.044,0.02,0.044,0.043v0.067
			c0,0.023-0.019,0.045-0.044,0.045h-0.913c-0.024,0-0.043-0.021-0.043-0.045V70.231z M87.764,70.342h-0.404
			c-0.025,0-0.043-0.021-0.043-0.045v-0.066c0-0.023,0.018-0.045,0.043-0.045h0.983c0.025,0,0.044,0.021,0.044,0.045v0.066
			c0,0.023-0.019,0.045-0.044,0.045H87.94v1.423c0,0.021-0.022,0.043-0.045,0.043h-0.089c-0.022,0-0.043-0.021-0.043-0.043V70.342
			L87.764,70.342z M89.329,70.342h-0.403c-0.025,0-0.043-0.021-0.043-0.045v-0.066c0-0.023,0.018-0.045,0.043-0.045h0.982
			c0.025,0,0.045,0.021,0.045,0.045v0.066c0,0.023-0.02,0.045-0.045,0.045h-0.403v1.423c0,0.021-0.021,0.043-0.043,0.043h-0.088
			c-0.024,0-0.044-0.021-0.044-0.043L89.329,70.342L89.329,70.342z M92.246,70.164c0.235,0,0.403,0.079,0.562,0.215
			c0.018,0.019,0.021,0.046,0.002,0.065l-0.063,0.063c-0.019,0.022-0.037,0.021-0.06-0.002c-0.121-0.104-0.286-0.175-0.443-0.175
			c-0.367,0-0.647,0.309-0.647,0.668c0,0.356,0.28,0.665,0.647,0.665c0.201,0,0.319-0.082,0.443-0.174
			c0.022-0.018,0.041-0.017,0.056-0.007l0.068,0.063c0.02,0.015,0.016,0.046-0.002,0.063c-0.157,0.153-0.357,0.225-0.563,0.225
			c-0.463,0-0.837-0.369-0.837-0.831C91.409,70.535,91.783,70.164,92.246,70.164L92.246,70.164z M94.274,70.164
			c0.464,0,0.835,0.371,0.835,0.836c0,0.463-0.371,0.832-0.835,0.832S93.442,71.463,93.442,71
			C93.442,70.535,93.811,70.164,94.274,70.164z M94.274,71.67c0.368,0,0.673-0.302,0.673-0.67c0-0.369-0.305-0.675-0.673-0.675
			s-0.67,0.306-0.67,0.675C93.604,71.368,93.906,71.67,94.274,71.67z M96.047,70.195c0.004-0.019,0.023-0.032,0.042-0.032h0.038
			c0.015,0,0.034,0.011,0.038,0.024l0.46,1.277h0.011l0.451-1.277c0.006-0.014,0.024-0.024,0.041-0.024h0.037
			c0.018,0,0.037,0.014,0.041,0.032l0.3,1.557c0.007,0.033-0.007,0.056-0.042,0.056h-0.092c-0.02,0-0.039-0.016-0.043-0.032
			l-0.207-1.193h-0.009l-0.426,1.223c-0.005,0.014-0.025,0.026-0.04,0.026h-0.042c-0.014,0-0.035-0.013-0.039-0.026l-0.432-1.223
			h-0.01l-0.201,1.193c-0.003,0.015-0.023,0.032-0.042,0.032h-0.094c-0.034,0-0.048-0.022-0.042-0.056L96.047,70.195z
			 M98.263,70.231c0-0.023,0.019-0.045,0.044-0.045h0.513c0.284,0,0.518,0.232,0.518,0.513c0,0.287-0.233,0.521-0.517,0.521h-0.382
			v0.546c0,0.021-0.021,0.043-0.044,0.043h-0.088c-0.025,0-0.044-0.021-0.044-0.043V70.231z M98.807,71.048
			c0.19,0,0.353-0.155,0.353-0.354c0-0.188-0.161-0.332-0.353-0.332h-0.368v0.686L98.807,71.048L98.807,71.048z M99.754,71.748
			l0.704-1.561c0.008-0.014,0.019-0.023,0.04-0.023h0.022c0.021,0,0.033,0.011,0.04,0.023l0.7,1.561
			c0.015,0.03-0.004,0.061-0.039,0.061h-0.094c-0.021,0-0.034-0.015-0.04-0.025l-0.171-0.383h-0.823l-0.169,0.383
			c-0.004,0.013-0.018,0.025-0.04,0.025h-0.092C99.759,71.809,99.74,71.778,99.754,71.748L99.754,71.748z M100.855,71.257
			c-0.114-0.252-0.226-0.508-0.34-0.76h-0.018l-0.339,0.76H100.855z M101.916,70.205c0-0.024,0.02-0.042,0.043-0.042h0.058
			l1.046,1.302h0.005v-1.234c0-0.023,0.019-0.045,0.043-0.045h0.082c0.022,0,0.043,0.021,0.043,0.045v1.559
			c0,0.022-0.021,0.043-0.043,0.043h-0.042l-1.063-1.328h-0.003v1.261c0,0.021-0.02,0.043-0.044,0.043h-0.081
			c-0.023,0-0.043-0.021-0.043-0.043V70.205L101.916,70.205z M104.438,71.027l-0.56-0.773c-0.018-0.03,0-0.068,0.037-0.068h0.109
			c0.017,0,0.03,0.013,0.037,0.021l0.469,0.646l0.469-0.646c0.007-0.009,0.02-0.021,0.036-0.021h0.109
			c0.036,0,0.056,0.038,0.036,0.068l-0.564,0.771v0.739c0,0.021-0.021,0.043-0.044,0.043h-0.091c-0.024,0-0.043-0.021-0.043-0.043
			L104.438,71.027L104.438,71.027z"/>
	</g>
</g>
</svg>
