<?xml version="1.0" encoding="utf-8"?>
<!DOCTYPE svg PUBLIC "-//W3C//DTD SVG 1.1//EN" "http://www.w3.org/Graphics/SVG/1.1/DTD/svg11.dtd">
<svg version="1.1" id="Layer_1" xmlns="http://www.w3.org/2000/svg" xmlns:xlink="http://www.w3.org/1999/xlink" x="0px" y="0px"
	 width="100px" height="100px" viewBox="0 0 100 100" enable-background="new 0 0 100 100" xml:space="preserve">
<g>
	<path fill-rule="evenodd" clip-rule="evenodd" d="M64.791,56.31c0-0.82,0-1.609,0-2.455c0.348,0,0.682,0,1.08,0
		c0.012-0.25,0.031-0.447,0.031-0.645c0.002-2.05,0-4.1,0-6.149c0-0.768,0.01-0.694-0.662-0.661
		c-0.135,0.007-0.271-0.015-0.438-0.024c0-0.818,0-1.619,0-2.411c0.043-0.025,0.072-0.058,0.102-0.058
		c2.289,0.026,4.582-0.03,6.865,0.107c2.176,0.131,3.393,1.866,2.93,3.917c-0.154,0.692-0.537,1.222-1.129,1.604
		c-0.227,0.146-0.463,0.276-0.766,0.457c0.154,0.065,0.24,0.104,0.326,0.136c1.355,0.503,2.018,1.512,1.996,3.039
		c-0.021,1.366-0.803,2.479-2.098,2.879c-0.504,0.155-1.047,0.247-1.572,0.253C69.256,56.325,67.055,56.31,64.791,56.31z
		 M69.137,53.812c0.545,0,1.006,0.02,1.465-0.005c0.805-0.044,1.205-0.444,1.211-1.169c0.004-0.756-0.449-1.271-1.205-1.334
		c-0.373-0.031-0.754-0.041-1.129-0.014c-0.119,0.009-0.322,0.164-0.326,0.259C69.125,52.281,69.137,53.015,69.137,53.812z
		 M69.133,47.613c0,1.42,0.131,1.539,1.373,1.263c0.729-0.162,1.115-0.738,1.004-1.494c-0.123-0.82-0.764-1.201-2.027-1.053
		c-0.705,0.082-0.205,0.722-0.346,1.079C69.113,47.468,69.133,47.544,69.133,47.613z"/>
	<path fill-rule="evenodd" clip-rule="evenodd" d="M0,46.443c0-0.886,0-1.688,0-2.527c1.773,0,3.534,0,5.328,0
		c0,0.821,0,1.636,0,2.493c-0.343,0-0.662,0-1.057,0c0.602,2.347,1.189,4.634,1.775,6.92c0.035,0,0.07,0,0.104,0
		c0.63-2.275,1.26-4.55,1.911-6.9c-0.376,0-0.704,0-1.058,0c0-0.869,0-1.673,0-2.513c1.614,0,3.224,0,4.876,0
		c0,0.804,0,1.618,0,2.431c-0.032,0.021-0.063,0.061-0.087,0.057c-0.602-0.11-0.794,0.219-0.954,0.745
		c-0.882,2.913-1.812,5.813-2.705,8.725c-0.115,0.373-0.27,0.515-0.674,0.502c-1.032-0.031-2.066-0.028-3.098-0.001
		C4,56.384,3.864,56.26,3.76,55.924c-0.896-2.874-1.816-5.74-2.719-8.611C0.877,46.792,0.841,46.168,0,46.443z"/>
	<path fill-rule="evenodd" clip-rule="evenodd" d="M20.439,47.216c1.208,0,2.373,0,3.581,0c0.046,0.395,0.09,0.777,0.146,1.25
		c0.147-0.18,0.238-0.295,0.333-0.407c0.895-1.052,2.57-1.427,3.824-0.853c0.931,0.427,1.275,1.212,1.288,2.176
		c0.016,1.274,0.008,2.548,0.01,3.822c0,0.185,0,0.37,0,0.58c0.254,0.019,0.455,0.033,0.705,0.052c0,0.813,0,1.628,0,2.486
		c-1.312,0-2.64,0-4.023,0c0-0.462,0-0.905,0-1.349c0-1.36,0.004-2.721-0.002-4.081c-0.003-0.716-0.247-1.033-0.782-1.059
		c-0.55-0.027-1.009,0.358-1.037,0.992c-0.043,0.976-0.012,1.954-0.012,2.957c0.187,0.019,0.353,0.035,0.56,0.056
		c0,0.815,0,1.632,0,2.487c-1.514,0-3.034,0-4.592,0c0-0.823,0-1.638,0-2.481c0.219-0.019,0.419-0.036,0.664-0.058
		c0-1.317,0-2.63,0-3.99c-0.199-0.021-0.412-0.044-0.662-0.07C20.439,48.901,20.439,48.085,20.439,47.216z"/>
	<path fill-rule="evenodd" clip-rule="evenodd" d="M42.93,56.33c-0.017-0.274-0.032-0.526-0.053-0.854
		c-0.138,0.121-0.233,0.2-0.323,0.285c-0.92,0.865-2.601,1.099-3.719,0.511c-0.83-0.436-1.209-1.166-1.239-2.064
		c-0.042-1.255-0.03-2.512-0.041-3.768c-0.002-0.205,0-0.409,0-0.653c-0.248-0.025-0.462-0.047-0.716-0.072c0-0.816,0-1.632,0-2.483
		c1.323,0,2.639,0,4.04,0c0,0.173,0,0.354,0,0.535c0,1.566-0.001,3.133,0.001,4.699c0,0.205-0.001,0.417,0.043,0.615
		c0.096,0.437,0.37,0.703,0.833,0.693c0.443-0.009,0.715-0.28,0.777-0.693c0.063-0.422,0.061-0.856,0.066-1.286
		c0.01-0.666,0.002-1.332,0.002-2.021c-0.241-0.021-0.424-0.036-0.636-0.055c0-0.838,0-1.652,0-2.495c1.31,0,2.595,0,3.942,0
		c0,2.173,0,4.348,0,6.554c0.273,0.024,0.488,0.044,0.74,0.066c0,0.821,0,1.637,0,2.486C45.427,56.33,44.212,56.33,42.93,56.33z"/>
	<path fill-rule="evenodd" clip-rule="evenodd" d="M93.324,53.794c0.281,0.022,0.484,0.039,0.73,0.06c0,0.805,0,1.604,0,2.45
		c-1.229,0-2.471,0-3.756,0c-0.035-0.282-0.07-0.568-0.119-0.966c-0.568,0.688-1.221,1.081-2.039,1.192
		c-1.396,0.191-2.553-0.377-2.973-1.5c-0.518-1.382-0.086-2.879,1.051-3.631c0.76-0.503,1.625-0.64,2.508-0.688
		c0.428-0.024,0.857-0.004,1.273-0.004c0.273-0.793,0.055-1.487-0.496-1.648c-0.563-0.165-0.939,0.168-1.18,1.068
		c-0.977,0-1.963,0-2.988,0c-0.043-1.092,0.324-1.986,1.273-2.486c1.859-0.981,3.748-0.911,5.561,0.149
		c0.725,0.425,1.105,1.135,1.129,1.982c0.031,1.118,0.02,2.238,0.025,3.357C93.326,53.334,93.324,53.539,93.324,53.794z
		 M90.098,52.164c-0.508,0.134-0.953,0.183-1.332,0.37c-0.457,0.228-0.613,0.915-0.408,1.419c0.156,0.388,0.457,0.541,0.865,0.491
		c0.469-0.058,0.813-0.436,0.867-1.012C90.125,53.077,90.098,52.715,90.098,52.164z"/>
	<path fill-rule="evenodd" clip-rule="evenodd" d="M14.114,52.409c0.075,0.464,0.102,0.825,0.195,1.168
		c0.137,0.505,0.487,0.772,1.024,0.775c0.534,0.003,0.915-0.245,1.039-0.753c0.087-0.358,0.269-0.405,0.581-0.399
		c0.874,0.018,1.749,0.006,2.667,0.006c-0.143,1.224-0.632,2.195-1.681,2.741c-1.792,0.934-3.62,0.89-5.375-0.116
		c-0.898-0.515-1.374-1.385-1.605-2.375c-0.241-1.036-0.26-2.084-0.029-3.126c0.52-2.339,2.511-3.646,5.021-3.309
		c2.273,0.306,3.539,1.632,3.774,3.955c0.145,1.433,0.145,1.433-1.284,1.433c-1.223,0-2.445,0-3.668,0
		C14.589,52.409,14.404,52.409,14.114,52.409z M16.462,50.646c0.014-0.551-0.079-0.99-0.553-1.239
		c-0.392-0.207-0.805-0.211-1.174,0.045c-0.405,0.281-0.479,0.707-0.459,1.194C15.016,50.646,15.711,50.646,16.462,50.646z"/>
	<path fill-rule="evenodd" clip-rule="evenodd" d="M63.924,52.403c-1.912,0-3.732,0-5.543,0c-0.182,0.767,0.068,1.561,0.551,1.825
		c0.623,0.342,1.369,0.063,1.574-0.644c0.096-0.327,0.246-0.389,0.541-0.384c0.889,0.015,1.779,0.005,2.67,0.005
		c-0.049,1.619-1.209,2.94-2.951,3.227c-0.832,0.137-1.727,0.137-2.559-0.006c-1.738-0.299-2.791-1.4-3.15-3.134
		c-0.217-1.041-0.225-2.091,0.043-3.124c0.58-2.236,2.5-3.452,4.941-3.153c2.248,0.275,3.576,1.621,3.803,3.87
		C63.893,51.362,63.896,51.844,63.924,52.403z M58.42,50.629c0.74,0,1.447,0,2.154,0c0.01-0.892-0.363-1.351-1.078-1.363
		C58.801,49.254,58.404,49.739,58.42,50.629z"/>
	<path fill-rule="evenodd" clip-rule="evenodd" d="M78.992,52.384c0.084,0.483,0.121,0.876,0.227,1.249
		c0.137,0.485,0.496,0.729,1.002,0.736c0.525,0.009,0.928-0.218,1.059-0.729c0.098-0.375,0.291-0.432,0.623-0.425
		c0.855,0.02,1.711,0.007,2.568,0.007c-0.055,1.489-1.055,2.698-2.568,3.123c-1.119,0.314-2.25,0.299-3.363-0.031
		c-1.324-0.393-2.184-1.269-2.582-2.587c-0.305-1.009-0.342-2.045-0.166-3.07c0.443-2.569,2.438-3.959,5.07-3.619
		c3.225,0.417,3.848,2.885,3.795,5.053c-0.008,0.359-0.271,0.29-0.482,0.29c-1.48,0.005-2.961,0.003-4.443,0.003
		C79.527,52.384,79.324,52.384,78.992,52.384z M81.393,50.654c0.002-0.541-0.074-1.001-0.572-1.26
		c-0.412-0.215-0.844-0.221-1.217,0.068c-0.379,0.294-0.496,0.705-0.422,1.191C79.932,50.654,80.643,50.654,81.393,50.654z"/>
	<path fill-rule="evenodd" clip-rule="evenodd" d="M34.799,44.337c0,0.976,0,1.883,0,2.847c0.496,0,0.952,0,1.438,0
		c0,0.875,0,1.69,0,2.566c-0.464,0-0.919,0-1.418,0c0,1.222-0.034,2.387,0.014,3.549c0.025,0.608,0.392,0.777,1.337,0.738
		c0,0.685,0.009,1.368-0.011,2.051c-0.003,0.093-0.142,0.244-0.237,0.262c-0.933,0.172-1.871,0.297-2.814,0.056
		c-1.119-0.287-1.582-0.863-1.591-2.027c-0.009-1.325-0.002-2.65-0.002-3.976c0-0.188,0-0.375,0-0.609
		c-0.259-0.021-0.491-0.04-0.762-0.062c0-0.836,0-1.667,0-2.536c0.333,0,0.639,0,1.017,0c0-0.598,0.018-1.161-0.007-1.723
		c-0.015-0.331,0.081-0.491,0.425-0.559C33.044,44.746,33.892,44.54,34.799,44.337z"/>
	<path fill-rule="evenodd" clip-rule="evenodd" d="M95.291,49.772c-0.238-0.019-0.455-0.035-0.711-0.056c0-0.827,0-1.641,0-2.485
		c0.328-0.016,0.633-0.029,0.992-0.046c0-0.718,0-1.416,0-2.147c1.012-0.229,1.977-0.448,3.012-0.684c0,0.979,0,1.884,0,2.841
		c0.496,0,0.936,0,1.416,0c0,0.865,0,1.678,0,2.543c-0.461,0-0.9,0-1.42,0c0,0.681,0,1.313,0,1.943c0,0.396-0.002,0.792,0,1.188
		c0.008,0.979,0.338,1.277,1.379,1.164c0,0.701,0.008,1.396-0.01,2.091c-0.002,0.076-0.152,0.21-0.236,0.213
		c-0.938,0.027-1.893,0.144-2.814,0.02c-1.063-0.144-1.508-0.74-1.541-1.816c-0.045-1.444-0.023-2.892-0.035-4.339
		C95.322,50.067,95.303,49.932,95.291,49.772z"/>
	<path fill-rule="evenodd" clip-rule="evenodd" d="M51.1,48.549c0.791-1.34,1.844-1.762,3.086-1.306c0,0.934,0,1.872,0,2.821
		c-0.354,0-0.678-0.013-1,0.003c-1.133,0.056-1.732,0.669-1.752,1.801c-0.012,0.632-0.002,1.264-0.002,1.943
		c0.336,0,0.654,0,1.008,0c0,0.861,0,1.676,0,2.521c-1.66,0-3.305,0-4.987,0c0-0.819,0-1.634,0-2.484
		c0.215-0.021,0.43-0.041,0.68-0.064c0-1.324,0-2.639,0-3.991c-0.215-0.021-0.43-0.04-0.681-0.063c0-0.823,0-1.64,0-2.495
		c1.154,0,2.314,0,3.531,0C51.018,47.625,51.053,48.027,51.1,48.549z"/>
</g>
</svg>
