<?xml version="1.0" encoding="utf-8"?>
<!-- Generator: Adobe Illustrator 16.0.0, SVG Export Plug-In . SVG Version: 6.00 Build 0)  -->
<!DOCTYPE svg PUBLIC "-//W3C//DTD SVG 1.1//EN" "http://www.w3.org/Graphics/SVG/1.1/DTD/svg11.dtd">
<svg version="1.1" id="Layer_1" xmlns="http://www.w3.org/2000/svg" xmlns:xlink="http://www.w3.org/1999/xlink" x="0px" y="0px"
	 width="100px" height="100px" viewBox="0 0 100 100" enable-background="new 0 0 100 100" xml:space="preserve">
<path fill-rule="evenodd" clip-rule="evenodd" d="M62.573,61.067c-0.719,0.303-1.412,0.604-2.112,0.889
	c-1.58,0.643-3.19,1.192-4.849,1.604c-1.747,0.432-3.514,0.689-5.314,0.734c-1.905,0.047-3.788-0.124-5.637-0.586
	c-1.278-0.318-2.499-0.785-3.577-1.569c-0.787-0.573-1.419-1.274-1.818-2.173c-0.006-0.012-0.024-0.018-0.068-0.05
	c-0.042,0.069-0.089,0.132-0.123,0.202c-0.424,0.866-0.865,1.721-1.509,2.454c-0.767,0.873-1.721,1.415-2.85,1.671
	c-1.165,0.264-2.346,0.355-3.532,0.271c-1.535-0.107-3.003-0.454-4.221-1.477c-0.589-0.495-0.903-1.154-1.004-1.904
	c-0.148-1.107,0.029-2.189,0.317-3.256c0.269-0.998,0.51-2.006,0.833-2.986c0.428-1.303,0.918-2.584,1.392-3.871
	c0.229-0.622,0.48-1.236,0.72-1.854c0.01-0.025,0.001-0.059,0.001-0.154c-0.16,0.132-0.301,0.217-0.402,0.336
	c-0.459,0.542-0.926,1.078-1.355,1.643c-0.992,1.303-2.045,2.551-3.166,3.744c-1.279,1.359-2.645,2.627-4.107,3.789
	c-2.27,1.803-4.725,3.293-7.426,4.359c-1.058,0.418-2.132,0.797-3.259,0.98c-1.386,0.227-2.771,0.301-4.109-0.239
	c-0.66-0.266-1.188-0.688-1.381-1.423c-0.157-0.6,0.014-1.126,0.354-1.609c0.199-0.284,0.431-0.545,0.634-0.826
	c0.229-0.316,0.263-0.665,0.072-1.004c-0.441-0.784-0.9-1.558-1.35-2.338c-1.168-2.027-2.211-4.114-2.953-6.339
	c-0.525-1.575-0.861-3.187-0.753-4.862c0.105-1.621,0.703-3.031,1.804-4.229c1.153-1.256,2.545-2.192,4.025-3.008
	c1.691-0.932,3.477-1.651,5.293-2.297c0.795-0.282,1.592-0.578,2.453-0.583c1.061-0.006,1.711,0.52,1.983,1.542
	c0.227,0.854,0.221,1.713,0.05,2.561c-0.281,1.4-0.61,2.791-0.928,4.184c-0.31,1.355-0.601,2.713-0.657,4.109
	c-0.018,0.434-0.063,0.865-0.092,1.299c-0.009,0.138-0.001,0.276-0.001,0.414c0.023,0.013,0.047,0.025,0.07,0.037
	c0.095-0.093,0.216-0.171,0.281-0.281c0.263-0.449,0.523-0.9,0.757-1.366c0.278-0.557,0.593-1.11,0.645-1.745
	c0.04-0.485,0.027-0.977,0.02-1.465c-0.009-0.488-0.071-0.977-0.059-1.463c0.038-1.476,0.771-2.555,1.984-3.332
	c1.058-0.678,2.236-1.063,3.448-1.342c0.983-0.226,1.974-0.434,2.97-0.594c0.802-0.129,1.616-0.186,2.427-0.253
	c1.417-0.117,2.825,0.027,4.23,0.191c0.134,0.016,0.275-0.005,0.4,0.034c0.591,0.183,1.051-0.045,1.526-0.382
	c0.82-0.581,1.697-1.067,2.698-1.282c0.859-0.184,1.729-0.217,2.593-0.091c1.335,0.194,2.672,0.397,3.99,0.683
	c1.665,0.357,3.324,0.758,4.963,1.223c1.233,0.352,2.429,0.836,3.645,1.255c0.203,0.069,0.195,0.155,0.085,0.306
	c-0.167,0.229-0.317,0.467-0.444,0.748c0.078-0.033,0.159-0.063,0.234-0.103c1.41-0.761,2.806-1.549,4.232-2.276
	c1.379-0.703,2.819-1.264,4.301-1.721c1.501-0.462,3.029-0.77,4.597-0.862c1.21-0.072,2.414-0.002,3.61,0.225
	c0.979,0.186,1.933,0.457,2.869,0.795c0.127,0.045,0.283,0.04,0.42,0.02c1.748-0.249,3.507-0.359,5.27-0.328
	c1.53,0.027,3.063,0.113,4.589,0.236c1.409,0.113,2.814,0.281,4.215,0.478c1.344,0.188,2.681,0.433,4.018,0.669
	c1.182,0.211,2.359,0.438,3.537,0.67c1.199,0.238,2.397,0.484,3.595,0.738c1.196,0.254,2.39,0.521,3.584,0.784
	c0.229,0.05,0.457,0.109,0.749,0.18c-0.958,1.513-2.098,2.806-3.403,3.959s-2.813,1.984-4.437,2.729
	c0.189,0.126,0.313,0.206,0.435,0.29c0.899,0.624,1.222,1.497,1.152,2.566c-0.082,1.251-0.74,2.152-1.673,2.903
	c-0.295,0.237-0.594,0.469-0.939,0.742c0.127,0.007,0.205,0.019,0.283,0.016c0.781-0.03,1.545,0.039,2.274,0.354
	c0.906,0.391,1.421,1.219,1.359,2.206c-0.084,1.32-0.644,2.431-1.526,3.386c-1.071,1.16-2.418,1.916-3.845,2.539
	c-1.48,0.646-3.027,1.088-4.6,1.445c-1.146,0.262-2.291,0.541-3.446,0.758c-1.364,0.256-2.736,0.482-4.112,0.668
	c-1.134,0.152-2.276,0.286-3.418,0.32c-1.507,0.047-3.019,0.02-4.525-0.037c-0.953-0.037-1.905-0.158-2.851-0.294
	c-0.994-0.144-1.965-0.399-2.835-0.937c-0.759-0.467-1.225-1.124-1.288-2.035C62.603,61.151,62.589,61.122,62.573,61.067z
	 M44.354,46.214c-0.016-0.01-0.031-0.02-0.046-0.029c0.021-0.065,0.035-0.133,0.063-0.194c0.218-0.456,0.428-0.917,0.659-1.366
	c0.847-1.645,1.826-3.21,2.893-4.721c0.154-0.22,0.141-0.252-0.121-0.332c-0.52-0.159-1.036-0.334-1.561-0.475
	c-1.196-0.323-2.393-0.645-3.596-0.938c-0.873-0.214-1.758-0.38-2.638-0.568c-1.163-0.249-2.337-0.389-3.528-0.325
	c-0.598,0.032-1.17,0.169-1.718,0.414c-0.73,0.327-1.339,0.832-1.958,1.322c-0.256,0.201-0.531,0.25-0.845,0.202
	c-0.397-0.062-0.797-0.122-1.198-0.153c-0.944-0.073-1.891-0.143-2.837-0.188c-1.201-0.057-2.401-0.011-3.596,0.135
	c-1.067,0.129-2.119,0.34-3.144,0.671c-0.984,0.318-1.962,0.651-2.836,1.229c-0.905,0.6-1.291,1.441-1.197,2.509
	c0.052,0.582,0.125,1.162,0.188,1.743c0.126,1.176-0.282,2.226-0.874,3.186c-0.674,1.094-1.44,2.131-2.195,3.172
	c-0.219,0.301-0.513,0.561-0.812,0.785c-0.306,0.229-0.641,0.15-0.793-0.195c-0.144-0.326-0.264-0.691-0.272-1.041
	c-0.023-1.041-0.053-2.09,0.043-3.125c0.104-1.145,0.326-2.28,0.532-3.414c0.151-0.837,0.378-1.662,0.539-2.498
	c0.189-0.983,0.371-1.971,0.504-2.963c0.072-0.543,0.072-1.103,0.036-1.65c-0.033-0.525-0.416-0.877-0.867-0.862
	c-0.266,0.009-0.543,0.033-0.791,0.12c-1.917,0.671-3.803,1.416-5.57,2.43c-1.205,0.693-2.333,1.49-3.274,2.521
	c-1.685,1.846-2.127,4.029-1.695,6.438c0.209,1.164,0.573,2.282,1.045,3.362c0.827,1.891,1.719,3.744,3.068,5.339
	c0.459,0.541,0.869,1.127,1.126,1.801c0.194,0.51,0.174,0.99-0.2,1.422c-0.124,0.143-0.248,0.286-0.364,0.436
	c-0.271,0.35-0.564,0.684-0.795,1.057c-0.225,0.364-0.122,0.68,0.278,0.822c0.382,0.135,0.793,0.227,1.196,0.253
	c1.683,0.112,3.277-0.284,4.817-0.925c3.231-1.344,6.119-3.237,8.763-5.515c2.124-1.831,4.062-3.846,5.779-6.06
	c1.195-1.541,2.316-3.139,3.473-4.711c0.151-0.205,0.311-0.405,0.487-0.635c0.044,0.09,0.073,0.129,0.083,0.172
	c0.124,0.594,0.27,1.184,0.364,1.781c0.228,1.432,0.036,2.816-0.511,4.156c-0.781,1.913-1.624,3.803-2.234,5.782
	c-0.317,1.027-0.589,2.065-0.685,3.142c-0.054,0.612-0.039,1.219,0.231,1.784c0.39,0.812,1.13,1.121,1.946,1.315
	c0.854,0.203,1.724,0.237,2.592,0.19c0.684-0.036,1.373-0.106,2.043-0.242c0.936-0.189,1.657-0.763,2.249-1.487
	c1.27-1.555,2.218-3.296,2.965-5.152c0.073-0.182,0.159-0.357,0.239-0.537c0.02,0.008,0.04,0.015,0.06,0.021
	c0.022,0.455,0.04,0.911,0.067,1.366c0.095,1.579,0.74,2.87,2.013,3.83c0.868,0.654,1.847,1.087,2.882,1.393
	c1.477,0.437,2.987,0.657,4.527,0.713c1.491,0.054,2.97-0.05,4.438-0.296c1.652-0.279,3.264-0.723,4.832-1.318
	c1.643-0.625,3.226-1.365,4.727-2.279c0.178-0.107,0.36-0.209,0.58-0.336c-0.012,0.116-0.019,0.176-0.022,0.236
	c-0.035,0.488-0.098,0.977-0.096,1.464c0.003,0.673,0.225,1.269,0.751,1.726c0.498,0.434,1.096,0.661,1.726,0.787
	c1.531,0.305,3.086,0.391,4.643,0.442c1.637,0.056,3.27-0.015,4.901-0.153c1.631-0.139,3.253-0.348,4.854-0.676
	c1.336-0.273,2.665-0.595,3.98-0.955c1.76-0.481,3.481-1.08,5.127-1.879c1.027-0.498,2.012-1.063,2.815-1.895
	c0.447-0.462,0.811-0.98,0.877-1.641c0.108-1.074-0.379-1.863-1.572-1.902c-0.518-0.017-1.05,0.003-1.554,0.107
	c-1.591,0.33-3.179,0.682-4.756,1.074c-1.822,0.455-3.632,0.959-5.506,1.164c-1.399,0.152-2.792,0.164-4.162-0.221
	c-0.465-0.13-0.919-0.291-1.295-0.611s-0.43-0.673-0.174-1.093c0.212-0.349,0.529-0.583,0.87-0.788
	c0.742-0.446,1.575-0.594,2.415-0.698c1.704-0.213,3.419-0.258,5.133-0.274c1.392-0.014,2.778-0.038,4.156-0.261
	c1.121-0.181,2.214-0.45,3.219-0.995c0.783-0.426,1.451-0.979,1.719-1.869c0.391-1.299,0.028-2.598-1.608-2.979
	c-0.935-0.217-1.878-0.205-2.803-0.041c-1.468,0.259-2.924,0.586-4.379,0.91c-1.158,0.257-2.315,0.529-3.504,0.561
	c-0.627,0.018-1.262-0.047-1.884-0.139c-0.407-0.061-0.56-0.352-0.427-0.746c0.29-0.859,0.857-1.525,1.59-2.037
	c0.373-0.26,0.841-0.285,1.281-0.266c0.852,0.036,1.701,0.117,2.552,0.178c0.535,0.038,1.071,0.066,1.606,0.107
	c1.441,0.11,2.884,0.215,4.331,0.113c1.275-0.091,2.525-0.313,3.706-0.818c2.076-0.888,3.704-2.352,5.142-4.052
	c0.03-0.036,0.035-0.094,0.055-0.151c-0.059-0.016-0.095-0.028-0.133-0.035c-1.101-0.216-2.201-0.431-3.301-0.645
	c-1.79-0.35-3.575-0.723-5.371-1.038c-1.772-0.312-3.552-0.587-5.335-0.833c-1.485-0.205-2.978-0.378-4.472-0.508
	c-1.739-0.151-3.484-0.245-5.232-0.197c-0.992,0.028-1.966,0.178-2.896,0.543c-0.926,0.361-1.686,0.927-2.164,1.821
	c-0.442,0.827-0.274,1.505,0.508,2.026c0.6,0.399,1.28,0.606,1.965,0.801c0.459,0.131,0.918,0.257,1.377,0.385
	c0.002,0.031,0.004,0.062,0.006,0.093c-1.976,0.414-3.952,0.829-5.985,1.255c0.046-0.131,0.063-0.188,0.087-0.243
	c0.5-1.235,1.036-2.456,1.489-3.708c0.245-0.678,0.37-1.4,0.512-2.111c0.084-0.422-0.129-0.752-0.481-0.981
	c-0.15-0.099-0.315-0.181-0.484-0.243c-0.76-0.283-1.561-0.334-2.356-0.335c-1.401-0.002-2.792,0.146-4.162,0.447
	c-1.638,0.36-3.224,0.888-4.766,1.55c-1.707,0.732-3.347,1.595-4.95,2.53c-2.148,1.254-4.179,2.671-6.072,4.284
	C45.062,45.589,44.709,45.903,44.354,46.214z M84.039,54.165c-0.089-0.011-0.133-0.021-0.176-0.02
	c-1.182,0.056-2.364,0.094-3.544,0.176c-0.951,0.068-1.899,0.186-2.847,0.293c-0.184,0.021-0.361,0.096-0.541,0.146
	C77.997,55.228,83.251,54.763,84.039,54.165z M80.986,46.542c-0.3-0.241-0.788-0.214-0.914,0.043
	C80.374,46.571,80.657,46.558,80.986,46.542z M80.072,46.585c0.302-0.014,0.585-0.027,0.914-0.043
	C80.687,46.301,80.198,46.328,80.072,46.585z M58.062,43.718c-0.868,2.646-1.737,5.292-2.619,7.98c0.117,0,0.199,0.006,0.28-0.001
	c1.47-0.136,2.941-0.267,4.41-0.415c0.919-0.092,1.837-0.195,2.75-0.328c0.679-0.1,1.164-0.475,1.424-1.135
	c0.183-0.462,0.404-0.908,0.611-1.359c0.031-0.068,0.078-0.129,0.147-0.239c0.206,0.601,0.395,1.148,0.582,1.696
	c0.167,0.488,0.283,0.983,0.273,1.506c-0.011,0.589-0.258,1.043-0.73,1.388c-0.762,0.556-1.636,0.876-2.508,1.204
	c-1.469,0.555-2.935,1.114-4.396,1.686c-1.31,0.512-2.634,0.979-4.029,1.192c-1.331,0.203-2.648,0.17-3.894-0.431
	c-0.636-0.306-1.148-0.741-1.316-1.463c-0.141-0.604-0.022-1.191,0.2-1.762c0.431-1.104,1.128-2.04,1.879-2.938
	c1.562-1.866,3.361-3.492,5.179-5.098c0.566-0.502,1.131-1.004,1.696-1.506C58.021,43.704,58.041,43.711,58.062,43.718z
	 M61.984,52.806c-0.005-0.02-0.009-0.04-0.013-0.061c-0.274,0-0.549-0.016-0.821,0.004c-1.071,0.073-2.142,0.158-3.213,0.238
	c-1.433,0.108-2.865,0.215-4.297,0.326c-0.354,0.027-0.396-0.016-0.296-0.36c0.306-1.061,0.615-2.12,0.92-3.181
	c0.024-0.088,0.025-0.183,0.043-0.318c-0.077,0.049-0.106,0.063-0.128,0.082c-0.899,0.809-1.751,1.664-2.487,2.626
	c-0.389,0.509-0.745,1.039-0.929,1.665c-0.225,0.771,0.063,1.314,0.823,1.573c0.698,0.237,1.41,0.237,2.129,0.139
	c1.109-0.151,2.161-0.521,3.21-0.882c1.297-0.447,2.577-0.942,3.865-1.416C61.188,53.095,61.586,52.951,61.984,52.806z"/>
</svg>
