<?xml version="1.0" encoding="utf-8"?>
<!-- Generator: Adobe Illustrator 16.0.0, SVG Export Plug-In . SVG Version: 6.00 Build 0)  -->
<!DOCTYPE svg PUBLIC "-//W3C//DTD SVG 1.1//EN" "http://www.w3.org/Graphics/SVG/1.1/DTD/svg11.dtd">
<svg version="1.1" id="Layer_1" xmlns="http://www.w3.org/2000/svg" xmlns:xlink="http://www.w3.org/1999/xlink" x="0px" y="0px"
	 width="100px" height="100px" viewBox="0 0 100 100" style="enable-background:new 0 0 100 100;" xml:space="preserve">
<g>
	<path d="M30.008,62.611c-2.84,0-5.556-1.59-7.315-3.763c-2.004-2.47-2.98-5.661-2.98-8.817
		c0-3.033,0.897-6.084,2.752-8.501c1.829-2.374,4.58-4.07,7.64-4.07c2.813,0,5.512,1.609,7.244,3.754
		c1.996,2.47,2.989,5.67,2.989,8.827c0,3.024-0.906,6.075-2.752,8.492C35.775,60.888,33.041,62.611,30.008,62.611L30.008,62.611z
		 M1.47,37.978h8.554v0.246H7.923l6.383,17.478l5.389-17.478h-2.119v-0.246h4.616v0.246h-2.04l-7.596,24.159L3.721,38.224H1.47
		V37.978z M59.064,37.556v8.396h-0.193C58.51,44.299,58,42.69,57.112,41.231c-1.055-1.706-2.733-3.622-4.923-3.622
		c-5.029,0-5.486,9.011-5.486,12.448c0,3.078,0.246,6.251,1.362,9.135c0.782,2.022,1.917,3.016,4.018,3.016
		c1.67,0,3.446-0.845,4.334-2.296c0.229-0.378,0.246-0.799,0.246-1.229v-6.489h-2.197v-0.254h8.044v0.254H60.63v9.706h-0.166
		c-0.476-0.791-1.224-1.31-2.181-1.31c-0.695,0-1.372,0.246-1.978,0.58l-0.546,0.299c-1.23,0.545-2.409,0.94-3.771,0.94
		c-6.242,0-9.565-6.655-9.565-12.176c0-4.036,1.539-8.353,4.81-10.875c1.468-1.134,3.244-1.969,5.134-1.969
		c0.738,0,1.468,0.229,2.154,0.501l0.501,0.194c0.572,0.211,1.196,0.413,1.811,0.413c0.766,0,1.451-0.501,2.04-0.94H59.064
		L59.064,37.556z M61.465,37.978h8.58v0.246h-2.277v18.629c0,2.918,3.007,4.694,5.635,4.694c2.831,0,5.214-1.969,5.214-4.861V38.224
		h-2.689v-0.246h22.146v8.642h-0.167c-0.255-2.286-0.694-4.633-2.269-6.418c-1.591-1.802-3.754-1.978-5.978-1.978H87.26v11.113
		c0.491,0.052,0.993,0.088,1.494,0.088c3.016,0,3.798-2.075,3.93-4.642h0.22v9.749h-0.22c-0.378-2.329-1.406-4.826-4.141-4.826
		c-0.431,0-0.853,0.027-1.283,0.062v11.886h3.595c1.865,0,3.719-0.809,5.038-2.109c1.125-1.107,1.908-2.55,2.181-4.106
		c0.148-0.87,0.22-1.758,0.264-2.637h0.193v9.099H81.22v-0.246h2.014v-23.43h-4.256v18.533c0,3.832-3.64,5.529-7.051,5.529
		c-3.858,0-8.115-1.872-8.115-6.286V38.224h-2.347V37.978L61.465,37.978L61.465,37.978z"/>
	<path d="M35.995,50.031c0-3.491-1.248-12.212-5.969-12.212c-4.738,0-5.97,8.712-5.97,12.212
		c0,3.499,1.24,12.22,5.97,12.22C34.747,62.251,35.995,53.521,35.995,50.031z"/>
</g>
</svg>
