<?xml version="1.0" encoding="utf-8"?>
<!-- Generator: Adobe Illustrator 16.0.0, SVG Export Plug-In . SVG Version: 6.00 Build 0)  -->
<!DOCTYPE svg PUBLIC "-//W3C//DTD SVG 1.1//EN" "http://www.w3.org/Graphics/SVG/1.1/DTD/svg11.dtd">
<svg version="1.1" id="Layer_1" xmlns="http://www.w3.org/2000/svg" xmlns:xlink="http://www.w3.org/1999/xlink" x="0px" y="0px"
	 width="100px" height="100px" viewBox="0 0 100 100" enable-background="new 0 0 100 100" xml:space="preserve">
<path fill="#333333" d="M45.904,26.462h1.422l0.162-0.666H29.601l-0.171,0.666h2.593c2.26,0,4.096,1.589,4.096,4.682
	c0,1.755-0.747,4.015-2.007,6.771L22.488,63.59l-2.835-33.364c-0.253-2.592,1.079-3.763,4.005-3.763h1.675l0.171-0.666H0.252
	L0,26.462h1.587c2.004,0,2.761,1.251,2.93,3.593l4.512,43.14h10.624l17.806-37.703C40.214,29.893,43.059,26.462,45.904,26.462z
	 M43.815,73.376c-1.594,0-2.593-0.504-2.593-3.188c0-3.343,1.251-9.948,2.593-15.962c0.162,2.755,2.088,5.51,4.933,5.51
	c0.666,0,1.251-0.081,1.837-0.162C47.912,71.035,46.903,73.376,43.815,73.376z M94.482,50.708c3.339,0,5.518-2.756,5.518-5.934
	c0-2.674-1.917-4.681-4.681-4.681c-4.938,0-7.282,3.925-11.38,11.126c-0.828-4.519-2.926-10.375-8.109-10.375
	c-5.854,0-12.614,8.358-18.808,13.544c-2.846,2.422-5.934,3.935-8.445,3.935c-2.592,0-4.096-2.602-4.096-7.201
	c1.836-7.519,2.76-9.445,5.6-9.445c1.922,0,2.765,1.089,2.765,3.349c0,2.422-0.505,6.437-1.595,11.542
	c2.764-0.847,6.941-4.358,10.452-8.112c-1.837-4.438-5.852-7.446-11.532-7.446c-10.623,0-19.986,9.534-19.986,20.238
	c0,7.354,5.267,12.954,13.459,12.954c13.54,0,19.23-11.703,19.23-19.895c0-1.171-0.082-2.015-0.162-3.089
	c2.083-2.269,4.763-4.438,6.94-4.438c2.503,0,4.518,6.274,6.438,15.718c-1.756,1.917-3.512,5.609-4.357,6.275
	c-0.324-3.35-2.584-5.446-5.51-5.446c-3.349,0-5.608,3.187-5.608,5.86c0,3.016,2.098,5.014,4.861,5.014
	c5.765,0,7.346-5.428,10.94-10.288c1.087,5.185,3.688,10.288,8.108,10.288c5.271,0,10.129-4.52,12.631-7.688l-0.504-0.747
	c-1.583,1.574-3.169,2.583-5.006,2.583c-3.268,0-5.608-7.022-7.363-15.556c1.089-1.413,2.764-5.096,3.934-6.434
	C88.963,47.871,90.637,50.708,94.482,50.708z"/>
</svg>
