<?xml version="1.0" encoding="utf-8"?>
<!-- Generator: Adobe Illustrator 16.0.0, SVG Export Plug-In . SVG Version: 6.00 Build 0)  -->
<!DOCTYPE svg PUBLIC "-//W3C//DTD SVG 1.1//EN" "http://www.w3.org/Graphics/SVG/1.1/DTD/svg11.dtd">
<svg version="1.1" id="Layer_1" xmlns="http://www.w3.org/2000/svg" xmlns:xlink="http://www.w3.org/1999/xlink" x="0px" y="0px"
	 width="100px" height="100px" viewBox="0 0 100 100" enable-background="new 0 0 100 100" xml:space="preserve">
<path fill-rule="evenodd" clip-rule="evenodd" d="M49.599,71.013c0.115,0.047,0.166,0.08,0.219,0.088
	c1.031,0.143,1.735,0.732,2.18,1.637c0.202,0.41,0.28,0.855,0.249,1.33c-0.028,0.418,0.062,0.844,0.083,1.266
	c0.039,0.738,0.074,1.479,0.09,2.219c0.005,0.242,0.031,0.463,0.15,0.678c0.105,0.189,0.244,0.318,0.472,0.305
	c0.166-0.012,0.294-0.195,0.356-0.432c0.115-0.426,0.123-0.857,0.121-1.295c-0.001-0.271,0.068-0.33,0.336-0.316
	c0.205,0.008,0.252,0.045,0.252,0.25c0.003,0.436,0.035,0.877-0.019,1.305c-0.081,0.646-0.414,1.162-0.972,1.514
	c-0.066,0.041-0.156,0.049-0.236,0.064c-0.068,0.014-0.148-0.004-0.208,0.025c-0.293,0.145-0.568,0.084-0.88,0.023
	c-0.563-0.111-0.941-0.42-1.166-0.908c-0.236-0.516-0.434-1.047-0.396-1.646c0.023-0.371-0.072-0.748-0.09-1.125
	c-0.037-0.832-0.061-1.666-0.089-2.5c-0.002-0.047,0.009-0.096,0.003-0.143c-0.073-0.496-0.146-1.004-0.416-1.434
	c-0.244-0.391-0.625-0.629-1.107-0.648c-0.211-0.008-0.424-0.006-0.635,0.006c-0.244,0.014-0.286,0.061-0.303,0.295
	c-0.006,0.07-0.002,0.141-0.002,0.211c-0.001,2.012-0.002,4.023,0,6.037c0,0.164-0.006,0.334,0.035,0.49
	c0.113,0.439,0.462,0.709,0.924,0.738c0.082,0.006,0.165-0.002,0.247,0.004c0.232,0.014,0.295,0.08,0.291,0.299
	c-0.004,0.203-0.054,0.262-0.282,0.266c-0.471,0.008-0.941,0.004-1.412,0.004c-0.988,0-1.978,0-2.966,0
	c-0.095,0-0.188,0.004-0.282-0.006c-0.192-0.02-0.235-0.076-0.238-0.273c-0.002-0.166,0.059-0.262,0.238-0.285
	c0.219-0.027,0.446-0.045,0.651-0.119c0.402-0.146,0.622-0.514,0.608-0.938c-0.007-0.188-0.016-0.375-0.016-0.564
	c-0.001-4.26-0.001-8.52,0-12.779c0-0.141-0.001-0.283,0.012-0.422c0.033-0.35-0.13-0.613-0.368-0.838
	c-0.063-0.061-0.161-0.115-0.244-0.117c-0.479-0.018-0.962-0.033-1.441-0.021c-0.321,0.01-0.493,0.227-0.601,0.516
	c-0.133,0.359-0.175,0.723-0.174,1.105c0.007,3.66,0.004,7.318,0.005,10.979c0,0.293-0.001,0.588,0.002,0.881
	c0.003,0.238-0.036,0.463-0.138,0.686c-0.104,0.23-0.148,0.486-0.246,0.721c-0.127,0.303-0.277,0.602-0.537,0.816
	c-0.179,0.146-0.363,0.303-0.57,0.4c-0.27,0.127-0.544,0.236-0.853,0.293c-0.541,0.098-1.053,0.082-1.598-0.002
	c-0.483-0.074-0.938-0.189-1.362-0.404c-0.701-0.355-1.225-0.898-1.543-1.627c-0.275-0.629-0.392-1.279-0.389-1.973
	c0.017-3.707,0.008-7.414,0.009-11.119c0-0.131,0-0.26,0.003-0.389c0.013-0.48-0.273-0.828-0.748-0.895
	c-0.116-0.018-0.235-0.01-0.352-0.021c-0.188-0.02-0.301-0.148-0.294-0.326c0.007-0.186,0.115-0.301,0.314-0.305
	c0.365-0.006,0.729,0,1.095,0c1.035,0,2.071-0.004,3.106-0.004c0.311,0,0.4,0.088,0.381,0.359c-0.015,0.197-0.072,0.256-0.282,0.281
	c-0.105,0.014-0.211,0.021-0.315,0.039c-0.313,0.057-0.5,0.246-0.538,0.564c-0.024,0.197-0.03,0.398-0.031,0.598
	c-0.001,3.801-0.001,7.604,0.003,11.404c0,0.422-0.029,0.857,0.057,1.266c0.123,0.584,0.354,1.143,0.86,1.527
	c0.483,0.367,1,0.465,1.61,0.338c0.731-0.154,1.15-0.629,1.417-1.24c0.147-0.34,0.231-0.719,0.23-1.123
	c-0.016-3.873-0.006-7.744-0.003-11.615c0-0.307,0.002-0.611-0.001-0.918c-0.004-0.414-0.34-0.783-0.754-0.83
	c-0.082-0.01-0.165-0.006-0.246-0.014c-0.243-0.02-0.308-0.092-0.304-0.33c0.005-0.232,0.07-0.297,0.329-0.305
	c0.188-0.004,0.377,0.002,0.565,0.002c2.342,0,4.684-0.004,7.026,0.006c0.314,0,0.629,0.061,0.943,0.094
	c0.129,0.016,0.256,0.039,0.385,0.043c0.202,0.006,0.392,0.027,0.574,0.139c0.104,0.063,0.254,0.043,0.37,0.094
	c0.474,0.207,0.942,0.434,1.305,0.814c0.476,0.5,0.767,1.088,0.947,1.768c0.144,0.539,0.163,1.063,0.151,1.602
	c-0.005,0.182-0.064,0.367-0.114,0.547c-0.076,0.279-0.141,0.566-0.253,0.832c-0.252,0.59-0.605,1.102-1.151,1.475
	c-0.369,0.254-0.761,0.453-1.165,0.635c-0.221,0.1-0.461,0.152-0.691,0.232C49.735,70.888,49.698,70.937,49.599,71.013z
	 M47.567,66.909c0,1.105-0.002,2.213,0.001,3.318c0.001,0.305,0.026,0.324,0.319,0.318c0.129-0.002,0.258-0.006,0.388-0.002
	c0.358,0.01,0.718,0.047,1.05-0.156c0.248-0.152,0.527-0.264,0.69-0.518c0.302-0.469,0.629-0.932,0.622-1.527
	c-0.002-0.045,0.012-0.098,0.035-0.135c0.141-0.223,0.137-0.471,0.139-0.719c0.002-0.434,0.029-0.871-0.008-1.303
	c-0.035-0.426-0.137-0.848-0.21-1.27c-0.004-0.023-0.018-0.045-0.029-0.064c-0.147-0.262-0.278-0.535-0.448-0.783
	c-0.102-0.148-0.257-0.266-0.397-0.385c-0.196-0.166-0.44-0.244-0.682-0.318c-0.165-0.051-0.334-0.107-0.504-0.117
	c-0.245-0.014-0.493,0.016-0.739,0.021c-0.146,0.002-0.217,0.074-0.223,0.213c-0.004,0.096-0.004,0.189-0.004,0.283
	C47.567,64.813,47.567,65.862,47.567,66.909z M74.249,71.101c0-2.176,0-4.354-0.002-6.529c0-0.225-0.01-0.447-0.025-0.67
	c-0.027-0.377-0.202-0.57-0.584-0.637c-0.149-0.025-0.303-0.027-0.455-0.039c-0.21-0.018-0.279-0.098-0.277-0.32
	c0.002-0.227,0.07-0.314,0.279-0.316c0.518-0.004,1.036,0.002,1.554,0.002c0.93,0,1.859-0.004,2.789,0
	c0.309,0,0.372,0.066,0.365,0.334c-0.006,0.229-0.056,0.277-0.294,0.297c-0.152,0.012-0.307,0.018-0.455,0.047
	c-0.328,0.066-0.549,0.334-0.561,0.672c-0.008,0.246-0.009,0.494-0.01,0.74c0,4.578,0,9.156,0,13.732
	c0,0.072-0.004,0.143,0.001,0.213c0.017,0.217,0.061,0.271,0.28,0.275c0.481,0.01,0.966,0.029,1.445-0.006
	c0.236-0.016,0.48-0.113,0.69-0.229c0.507-0.281,0.864-0.723,1.13-1.227c0.156-0.297,0.334-0.619,0.362-0.941
	c0.042-0.457,0.278-0.869,0.229-1.344c-0.032-0.313,0.013-0.635,0.026-0.951c0.003-0.07,0.007-0.146,0.035-0.207
	c0.059-0.129,0.177-0.217,0.309-0.172c0.073,0.025,0.118,0.152,0.161,0.24c0.02,0.037,0.004,0.092,0.004,0.139
	c-0.001,1.66-0.001,3.318-0.002,4.979c-0.001,0.428-0.01,0.436-0.435,0.436c-4.013,0-8.025,0-12.038,0c-0.07,0-0.142,0-0.212,0
	c-0.148-0.002-0.285-0.012-0.302-0.213c-0.018-0.215,0.033-0.299,0.244-0.352c0.207-0.049,0.412-0.096,0.619-0.143
	c0.263-0.061,0.441-0.252,0.436-0.518c-0.006-0.314-0.028-0.621-0.104-0.938c-0.105-0.449-0.203-0.912-0.257-1.371
	c-0.066-0.576-0.036-0.59-0.608-0.594c-0.67-0.004-1.342,0.012-2.012-0.008c-0.356-0.01-0.57,0.109-0.582,0.574
	c-0.008,0.264-0.08,0.506-0.125,0.758c-0.084,0.471-0.194,0.938-0.258,1.408c-0.053,0.396,0.158,0.625,0.551,0.717
	c0.137,0.031,0.274,0.064,0.41,0.102c0.187,0.055,0.248,0.152,0.234,0.338c-0.014,0.18-0.121,0.24-0.284,0.238
	c-1.001,0-2.001,0.002-3.001-0.002c-0.235-0.002-0.284-0.057-0.292-0.258c-0.008-0.207,0.042-0.264,0.245-0.309
	c0.184-0.039,0.365-0.086,0.547-0.135c0.381-0.102,0.665-0.432,0.721-0.816c0.023-0.16,0.082-0.316,0.111-0.475
	c0.085-0.469,0.164-0.938,0.244-1.408c0.004-0.021-0.004-0.047,0.001-0.07c0.099-0.453,0.197-0.908,0.296-1.361
	c0.003-0.012,0.012-0.021,0.014-0.033c0.086-0.469,0.172-0.938,0.256-1.406c0.006-0.035-0.009-0.072-0.002-0.105
	c0.087-0.434,0.176-0.865,0.267-1.297c0.01-0.047,0.045-0.086,0.053-0.131c0.079-0.459,0.155-0.918,0.231-1.375
	c0.002-0.012-0.002-0.025,0-0.035c0.099-0.467,0.197-0.932,0.296-1.398c0.002-0.012,0.011-0.021,0.013-0.031
	c0.087-0.471,0.173-0.939,0.257-1.408c0.007-0.033-0.007-0.072-0.001-0.105c0.098-0.455,0.196-0.908,0.295-1.363
	c0.005-0.021,0.022-0.041,0.026-0.064c0.078-0.445,0.155-0.893,0.231-1.34c0.002-0.01-0.004-0.023-0.001-0.035
	c0.099-0.477,0.2-0.953,0.298-1.432c0.031-0.148,0.063-0.297,0.079-0.447c0.025-0.234,0.088-0.314,0.321-0.332
	c0.176-0.014,0.354-0.016,0.529-0.006c0.062,0.002,0.15,0.043,0.174,0.09c0.105,0.221,0.235,0.43,0.237,0.693
	c0.001,0.195,0.065,0.389,0.103,0.582c0.002,0.012,0.012,0.021,0.014,0.031c0.082,0.445,0.164,0.891,0.244,1.336
	c0.004,0.021-0.004,0.047,0,0.07c0.102,0.453,0.203,0.906,0.306,1.359c0.003,0.012,0.012,0.021,0.014,0.031
	c0.079,0.445,0.159,0.893,0.237,1.338c0.004,0.023-0.005,0.047,0,0.07c0.099,0.441,0.197,0.883,0.297,1.324
	c0.006,0.021,0.025,0.041,0.029,0.064c0.078,0.434,0.157,0.869,0.234,1.305c0.006,0.033-0.007,0.07,0,0.105
	c0.1,0.453,0.201,0.904,0.303,1.357c0.002,0.012,0.012,0.021,0.014,0.033c0.08,0.434,0.155,0.867,0.24,1.301
	c0.094,0.479,0.197,0.955,0.297,1.432c0.004,0.021,0.023,0.041,0.027,0.064c0.078,0.434,0.154,0.867,0.23,1.301
	c0.004,0.023-0.007,0.049,0,0.07c0.117,0.416,0.148,0.852,0.266,1.262c0.078,0.273,0.117,0.561,0.285,0.822
	c0.239,0.373,0.813,0.664,1.355,0.545c0.137-0.029,0.275-0.068,0.402-0.127c0.207-0.094,0.33-0.264,0.35-0.492
	c0.021-0.234,0.031-0.469,0.031-0.705C74.249,75.503,74.249,73.302,74.249,71.101z M67.589,74.843c0,0,0,0,0-0.002
	c0.354,0,0.706,0.01,1.059-0.002c0.303-0.012,0.385-0.148,0.311-0.445c-0.047-0.182-0.082-0.365-0.11-0.549
	c-0.079-0.508-0.151-1.018-0.228-1.525c-0.008-0.047-0.033-0.088-0.041-0.135c-0.097-0.502-0.201-1.002-0.284-1.506
	c-0.091-0.553-0.159-1.107-0.239-1.662c-0.003-0.021-0.015-0.043-0.02-0.066c-0.035-0.17-0.07-0.34-0.103-0.512
	c-0.062-0.322-0.113-0.645-0.185-0.965c-0.016-0.066-0.098-0.117-0.15-0.174c-0.057,0.051-0.149,0.094-0.162,0.154
	c-0.071,0.318-0.125,0.641-0.178,0.963c-0.016,0.092,0.016,0.201-0.023,0.277c-0.253,0.484-0.175,1.031-0.305,1.543
	c-0.174,0.684-0.22,1.4-0.373,2.098c-0.115,0.523-0.158,1.063-0.237,1.594c-0.021,0.137-0.051,0.275-0.095,0.406
	c-0.113,0.338-0.017,0.494,0.342,0.506C66.907,74.851,67.249,74.843,67.589,74.843z M23.634,49.572c0-2.284,0.006-4.566-0.009-6.849
	c-0.001-0.248-0.096-0.507-0.198-0.738c-0.07-0.159-0.246-0.249-0.436-0.261c-0.2-0.012-0.399-0.023-0.599-0.027
	c-0.164-0.004-0.228-0.089-0.234-0.244c-0.01-0.215,0.044-0.321,0.204-0.356c0.057-0.012,0.117-0.008,0.176-0.008
	c1.424,0,2.848-0.001,4.271,0.001c0.286,0,0.387,0.118,0.346,0.386c-0.02,0.133-0.081,0.218-0.226,0.223
	c-0.106,0.003-0.212,0.008-0.317,0.013c-0.424,0.022-0.767,0.377-0.767,0.794c0.002,4.789,0.005,9.579,0.006,14.368
	c0,0.488-0.001,0.488,0.488,0.488c0.365-0.002,0.73-0.02,1.094-0.002c0.494,0.023,0.877-0.223,1.241-0.496
	c0.483-0.365,0.771-0.869,0.949-1.443c0.103-0.332,0.216-0.662,0.324-0.992c0.011-0.033,0.02-0.068,0.023-0.104
	c0.054-0.549,0.107-1.098,0.159-1.646c0.005-0.059,0.001-0.119,0.008-0.178c0.015-0.121,0.045-0.248,0.191-0.256
	c0.145-0.008,0.242,0.086,0.283,0.221c0.02,0.064,0.016,0.139,0.016,0.209c-0.001,1.66-0.004,3.318-0.006,4.979
	c0,0.047,0.001,0.094-0.002,0.141c-0.017,0.221-0.05,0.266-0.279,0.273c-0.376,0.012-0.753,0.006-1.129,0.006
	c-3.695,0-7.39,0-11.084-0.002c-0.094,0-0.189,0.008-0.282-0.002c-0.186-0.02-0.247-0.094-0.256-0.271
	c-0.008-0.162,0.08-0.227,0.226-0.258c0.205-0.045,0.409-0.102,0.609-0.166c0.293-0.094,0.443-0.295,0.419-0.609
	c-0.031-0.408,0.038-0.828-0.167-1.211c-0.011-0.021-0.019-0.045-0.018-0.068c0.016-0.416-0.121-0.805-0.205-1.203
	c-0.06-0.285-0.052-0.305-0.356-0.311c-0.318-0.008-0.636-0.004-0.953-0.004c-0.447,0-0.895-0.002-1.342,0
	c-0.309,0.004-0.297,0.012-0.391,0.289c-0.101,0.303-0.186,0.602-0.174,0.928c0.004,0.123-0.07,0.246-0.098,0.371
	c-0.033,0.148-0.06,0.297-0.082,0.447c-0.023,0.162-0.041,0.324-0.057,0.486c-0.013,0.129-0.033,0.258-0.027,0.385
	c0.023,0.482,0.433,0.521,0.764,0.645c0.054,0.02,0.117,0.014,0.175,0.021c0.224,0.033,0.268,0.088,0.263,0.287
	c-0.005,0.188-0.115,0.242-0.277,0.242c-0.624,0.002-1.247,0.002-1.871,0.002c-0.412,0.002-0.824,0.008-1.235-0.004
	c-0.24-0.006-0.312-0.111-0.279-0.338c0.026-0.182,0.16-0.176,0.29-0.188c0.335-0.031,0.638-0.141,0.895-0.363
	c0.345-0.301,0.391-0.729,0.478-1.137c0.042-0.191,0.076-0.385,0.115-0.578c0.004-0.023,0.022-0.043,0.026-0.066
	c0.08-0.457,0.158-0.916,0.237-1.375c0.023-0.137,0.052-0.273,0.077-0.41c0.036-0.193,0.072-0.389,0.105-0.584
	c0.016-0.092,0.001-0.195,0.039-0.275c0.117-0.252,0.171-0.51,0.146-0.787c-0.006-0.066,0.015-0.145,0.047-0.205
	c0.121-0.227,0.1-0.477,0.146-0.715c0.078-0.398,0.162-0.796,0.236-1.196c0.042-0.227,0.141-0.441,0.125-0.683
	c-0.007-0.102,0.017-0.216,0.061-0.308c0.105-0.22,0.152-0.444,0.13-0.685c-0.001-0.012-0.002-0.024,0-0.035
	c0.101-0.453,0.208-0.905,0.302-1.36c0.091-0.444,0.168-0.891,0.25-1.337c0.006-0.033-0.008-0.071-0.001-0.105
	c0.102-0.477,0.206-0.953,0.31-1.429c0.005-0.022,0.021-0.043,0.025-0.065c0.077-0.471,0.153-0.941,0.229-1.413
	c0.011-0.069-0.005-0.147,0.021-0.209c0.124-0.284,0.176-0.575,0.174-0.889c-0.001-0.251,0.157-0.371,0.414-0.385
	c0.129-0.006,0.259-0.006,0.388,0.001c0.317,0.015,0.426,0.141,0.453,0.464c0.016,0.194,0.069,0.387,0.105,0.58
	c0.087,0.469,0.174,0.938,0.26,1.406c0.004,0.022-0.005,0.048,0,0.07c0.097,0.43,0.202,0.858,0.292,1.29
	c0.096,0.467,0.178,0.936,0.265,1.404c0.004,0.022-0.006,0.048-0.002,0.07c0.093,0.431,0.186,0.862,0.28,1.293
	c0.007,0.034,0.034,0.064,0.04,0.098c0.08,0.457,0.158,0.913,0.236,1.37c0.004,0.023-0.003,0.048,0.002,0.07
	c0.102,0.442,0.204,0.883,0.307,1.327c0.002,0.01,0.01,0.021,0.012,0.033c0.08,0.458,0.158,0.915,0.237,1.372
	c0.002,0.012-0.002,0.025,0,0.035c0.097,0.432,0.193,0.861,0.291,1.293c0.005,0.021,0.022,0.041,0.026,0.064
	c0.081,0.457,0.161,0.914,0.24,1.373c0.004,0.023-0.004,0.047,0.001,0.07c0.093,0.42,0.186,0.838,0.28,1.258
	c0.023,0.104,0.066,0.203,0.074,0.307c0.042,0.529,0.295,0.926,0.75,1.193c0.775,0.453,1.691-0.066,1.704-0.967
	c0.007-0.494,0-0.988,0-1.482c0-1.789,0-3.578,0-5.366C23.633,49.572,23.633,49.572,23.634,49.572z M16.797,45.786
	c-0.04,0.132-0.09,0.227-0.094,0.324c-0.017,0.456-0.272,0.881-0.173,1.351c0.006,0.03-0.012,0.072-0.031,0.1
	c-0.165,0.238-0.153,0.512-0.163,0.782c-0.003,0.104-0.002,0.219-0.045,0.309c-0.129,0.265-0.138,0.543-0.143,0.826
	c-0.001,0.082,0.013,0.177-0.023,0.242c-0.162,0.293-0.156,0.611-0.169,0.929c-0.003,0.08-0.027,0.16-0.042,0.24
	c-0.046,0.24-0.095,0.479-0.135,0.719c-0.018,0.104,0.016,0.229-0.03,0.313c-0.167,0.305-0.148,0.637-0.171,0.963
	c-0.026,0.367,0.013,0.41,0.38,0.412c0.612,0.004,1.224,0.002,1.835,0c0.475,0,0.562-0.104,0.471-0.568
	c-0.016-0.078-0.057-0.152-0.076-0.232c-0.031-0.123-0.06-0.248-0.078-0.373c-0.08-0.555-0.155-1.109-0.236-1.663
	c-0.008-0.057-0.046-0.109-0.061-0.166c-0.025-0.1-0.049-0.203-0.063-0.307c-0.08-0.554-0.156-1.109-0.235-1.664
	c-0.005-0.034-0.011-0.073-0.03-0.101c-0.127-0.187-0.12-0.398-0.126-0.61c-0.003-0.129,0.018-0.276-0.038-0.383
	c-0.154-0.296-0.139-0.612-0.157-0.925C17.151,46.083,17.052,45.927,16.797,45.786z M0.455,41.711
	c0.475-0.026,0.834,0.415,0.912,0.863c0.022,0.125,0.066,0.247,0.093,0.372c0.092,0.432,0.181,0.864,0.27,1.297
	c0.004,0.022-0.004,0.047,0,0.07c0.075,0.435,0.15,0.869,0.228,1.303c0.006,0.034,0.033,0.063,0.041,0.098
	c0.097,0.442,0.192,0.885,0.288,1.328c0.002,0.011-0.002,0.023,0,0.035c0.081,0.456,0.161,0.913,0.243,1.369
	c0.004,0.022,0.021,0.042,0.026,0.064c0.096,0.432,0.191,0.862,0.286,1.293c0.005,0.023-0.003,0.049,0,0.07
	C2.92,50.334,3,50.79,3.081,51.247c0.004,0.023,0.022,0.043,0.027,0.066c0.097,0.441,0.193,0.883,0.29,1.326
	c0.002,0.012-0.002,0.023,0,0.035c0.08,0.457,0.159,0.916,0.242,1.373c0.008,0.045,0.044,0.084,0.054,0.129
	c0.09,0.408,0.177,0.818,0.263,1.227c0.007,0.033-0.008,0.072-0.002,0.105c0.084,0.457,0.17,0.914,0.256,1.369
	c0.036,0.193,0.06,0.391,0.115,0.578c0.072,0.244,0.169,0.48,0.256,0.721c0.184,0.014,0.368,0.033,0.552,0.041
	c0.068,0.004,0.136-0.02,0.211-0.033c0.042-0.154,0.086-0.299,0.119-0.447c0.044-0.203,0.07-0.41,0.122-0.611
	c0.101-0.395,0.205-0.789,0.235-1.197c0.001-0.01,0.011-0.021,0.014-0.031c0.1-0.43,0.2-0.859,0.297-1.289
	c0.01-0.043-0.008-0.094,0-0.141c0.076-0.422,0.224-0.832,0.242-1.266c0.001-0.023,0.023-0.043,0.028-0.064
	c0.098-0.453,0.196-0.906,0.292-1.359c0.005-0.021-0.005-0.047,0-0.07c0.081-0.422,0.14-0.85,0.255-1.263
	c0.057-0.203,0.146-0.391,0.12-0.611c-0.009-0.078,0.019-0.162,0.034-0.242c0.045-0.241,0.095-0.479,0.138-0.719
	c0.018-0.102,0.011-0.214,0.157-0.254c0.032,0.035,0.075,0.063,0.09,0.101c0.216,0.546,0.224,1.138,0.378,1.699
	c0.003,0.012-0.003,0.023,0,0.035c0.078,0.423,0.156,0.845,0.235,1.267c0.004,0.023,0.025,0.043,0.029,0.064
	c0.099,0.467,0.197,0.934,0.294,1.398c0.002,0.012-0.003,0.025-0.001,0.035c0.076,0.434,0.152,0.867,0.229,1.301
	c0.004,0.023,0.023,0.043,0.028,0.064c0.1,0.467,0.199,0.932,0.298,1.398c0.002,0.012-0.002,0.023,0,0.035
	c0.082,0.445,0.164,0.889,0.247,1.334c0.002,0.012,0.011,0.021,0.014,0.031c0.038,0.17,0.088,0.34,0.108,0.512
	c0.028,0.25,0.066,0.303,0.317,0.33c0.07,0.008,0.141,0.008,0.211,0.01c0.381,0.002,0.503-0.146,0.545-0.527
	c0.047-0.426,0.123-0.854,0.238-1.266c0.063-0.227,0.145-0.439,0.136-0.682c-0.004-0.1,0.048-0.203,0.079-0.303
	c0.031-0.102,0.082-0.199,0.099-0.301c0.069-0.412,0.099-0.834,0.201-1.236c0.081-0.316,0.191-0.623,0.193-0.955
	c0-0.055,0.048-0.107,0.061-0.164c0.1-0.441,0.196-0.885,0.292-1.326c0.002-0.012-0.002-0.023,0-0.035
	c0.08-0.422,0.16-0.844,0.242-1.265c0.004-0.023,0.023-0.043,0.028-0.064c0.095-0.42,0.188-0.838,0.281-1.258
	c0.005-0.022-0.004-0.048,0-0.07c0.037-0.17,0.074-0.34,0.115-0.509c0.022-0.09,0.076-0.181,0.071-0.269
	c-0.014-0.254,0.037-0.487,0.146-0.716c0.043-0.091,0.026-0.208,0.045-0.311c0.08-0.422,0.163-0.843,0.245-1.265
	c0.002-0.011,0.012-0.021,0.015-0.031c0.035-0.159,0.073-0.316,0.104-0.476c0.08-0.411,0.129-0.83,0.245-1.229
	c0.066-0.228,0.142-0.442,0.138-0.683c-0.001-0.09,0.044-0.18,0.07-0.27c0.037-0.122,0.087-0.241,0.112-0.365
	c0.104-0.521,0.542-0.915,1.063-0.946c0.059-0.004,0.118-0.005,0.176-0.012c0.225-0.025,0.292-0.101,0.283-0.313
	c-0.009-0.208-0.088-0.295-0.308-0.296c-1.036-0.004-2.071-0.004-3.106-0.001c-0.227,0-0.299,0.078-0.304,0.29
	c-0.005,0.22,0.06,0.299,0.273,0.324c0.105,0.012,0.217-0.003,0.316,0.026c0.225,0.065,0.465,0.132,0.537,0.397
	c0.07,0.261,0.116,0.525,0.055,0.802c-0.038,0.17-0.032,0.349-0.054,0.522c-0.017,0.127-0.048,0.253-0.072,0.379
	c-0.036,0.193-0.07,0.387-0.106,0.58c-0.09,0.48-0.179,0.961-0.273,1.44c-0.096,0.49-0.199,0.979-0.298,1.469
	c-0.002,0.011,0.001,0.023-0.001,0.035c-0.077,0.482-0.154,0.964-0.233,1.446c-0.003,0.022-0.02,0.043-0.024,0.065
	c-0.1,0.478-0.199,0.957-0.297,1.433c-0.004,0.023,0.002,0.049-0.001,0.07c-0.077,0.483-0.155,0.964-0.234,1.446
	c-0.001,0.012-0.007,0.021-0.013,0.033c-0.111,0.215-0.144,0.443-0.115,0.684c0.016,0.125,0.021,0.262-0.171,0.346
	c-0.066-0.127-0.158-0.238-0.186-0.365c-0.095-0.441-0.168-0.889-0.25-1.334c-0.086-0.469-0.173-0.937-0.26-1.405
	c-0.002-0.012-0.011-0.021-0.013-0.033c-0.099-0.454-0.198-0.908-0.294-1.363c-0.01-0.045,0.008-0.095,0-0.141
	c-0.076-0.422-0.153-0.845-0.232-1.267c-0.004-0.022-0.024-0.042-0.028-0.064c-0.099-0.478-0.197-0.954-0.293-1.432
	c-0.035-0.171-0.055-0.346-0.098-0.514c-0.106-0.417-0.148-0.846-0.256-1.264c-0.062-0.241-0.065-0.503-0.149-0.751
	c-0.096-0.283-0.114-0.579,0.06-0.851c0.17-0.266,0.4-0.404,0.732-0.4c0.247,0.004,0.302-0.088,0.284-0.333
	C9.668,41.14,9.61,41.09,9.329,41.09c-0.824-0.001-1.647,0.003-2.471,0.003c-0.447,0-0.894-0.009-1.341-0.003
	c-0.199,0.002-0.273,0.089-0.286,0.281c-0.015,0.213,0.053,0.324,0.26,0.334C5.727,41.717,5.884,41.837,6.027,42
	c0.118,0.136,0.333,0.751,0.359,0.935c0.063,0.46,0.145,0.916,0.221,1.374c0.003,0.022,0.021,0.043,0.026,0.065
	c0.037,0.193,0.074,0.387,0.107,0.581c0.016,0.093,0.001,0.196,0.039,0.277c0.12,0.264,0.166,0.534,0.153,0.822
	c-0.01,0.233,0.027,0.471-0.005,0.7c-0.072,0.506-0.17,1.008-0.266,1.51c-0.094,0.492-0.198,0.98-0.297,1.471
	c-0.004,0.023,0.004,0.047,0,0.07c-0.079,0.48-0.137,0.968-0.25,1.44c-0.055,0.229-0.14,0.445-0.12,0.686
	C6,52.003,5.99,52.075,5.976,52.144c-0.048,0.24-0.096,0.48-0.156,0.717c-0.016,0.064-0.077,0.117-0.144,0.213
	c-0.052-0.115-0.101-0.176-0.103-0.238c-0.016-0.398-0.232-0.766-0.186-1.176c0.01-0.086-0.062-0.176-0.081-0.268
	c-0.098-0.477-0.191-0.956-0.285-1.435c-0.002-0.012,0.003-0.023,0.001-0.035c-0.028-0.172-0.054-0.344-0.088-0.515
	c-0.094-0.467-0.192-0.934-0.288-1.4c-0.005-0.022,0.002-0.047-0.001-0.07c-0.076-0.471-0.151-0.941-0.229-1.411
	c-0.006-0.034-0.03-0.065-0.037-0.1c-0.098-0.466-0.194-0.933-0.291-1.399c-0.005-0.022,0.002-0.047-0.001-0.07
	c-0.071-0.459-0.084-0.938-0.231-1.372c-0.162-0.478-0.128-0.949-0.133-1.427c-0.002-0.22,0.175-0.395,0.391-0.433
	c0.092-0.017,0.189-0.01,0.281-0.028c0.166-0.033,0.228-0.153,0.23-0.311c0.003-0.153-0.088-0.241-0.226-0.274
	c-0.09-0.021-0.187-0.023-0.28-0.023c-0.4-0.001-0.8,0.004-1.2,0.004c-0.859-0.001-1.718-0.006-2.577-0.005
	c-0.305,0-0.349,0.046-0.342,0.348c0.001,0.067,0.021,0.136,0.036,0.236C0.18,41.685,0.318,41.718,0.455,41.711z M46.64,19.592
	c-0.012,0-0.023,0-0.035,0c-1.4-0.002-2.801-0.003-4.201-0.004c-0.07,0-0.143-0.003-0.211,0.011
	c-0.178,0.035-0.245,0.142-0.233,0.335c0.009,0.165,0.106,0.225,0.254,0.229c0.118,0.004,0.235,0.009,0.353,0.004
	c0.276-0.013,0.451,0.133,0.621,0.336c0.199,0.238,0.158,0.503,0.158,0.771c0,4.308,0,8.615,0.001,12.923
	c0,0.282-0.017,0.568,0.018,0.847c0.054,0.428-0.419,0.928-0.862,0.934c-0.105,0.001-0.212-0.001-0.317,0.006
	c-0.155,0.01-0.232,0.094-0.232,0.252c0,0.177,0.063,0.262,0.245,0.278c0.14,0.013,0.281,0.004,0.423,0.004
	c1.377,0,2.754,0.002,4.132-0.002c0.25-0.001,0.301-0.06,0.297-0.281c-0.004-0.201-0.053-0.245-0.289-0.254
	c-0.095-0.003-0.189,0.008-0.283,0.006c-0.249-0.005-0.682-0.296-0.736-0.522c-0.059-0.238-0.111-0.485-0.112-0.729
	c-0.01-2-0.008-4.001-0.008-6.002c0-0.447,0.091-0.535,0.538-0.535c0.93,0,1.859,0,2.789,0c0.07,0,0.143-0.003,0.212,0.007
	c0.234,0.036,0.317,0.134,0.323,0.38c0.003,0.129-0.003,0.259-0.003,0.388c0.005,1.989,0.007,3.978,0.019,5.967
	c0.002,0.495-0.489,1.114-1.021,1.04c-0.069-0.009-0.142,0.001-0.212,0.009c-0.137,0.016-0.209,0.093-0.212,0.234
	c-0.002,0.145,0.041,0.258,0.201,0.282c0.081,0.012,0.164,0.014,0.246,0.014c1.4,0,2.801,0,4.201-0.001
	c0.071,0,0.143,0.003,0.213-0.006c0.196-0.023,0.24-0.081,0.242-0.271c0.002-0.158-0.068-0.245-0.227-0.254
	c-0.105-0.007-0.215,0.01-0.316-0.013c-0.145-0.032-0.297-0.066-0.421-0.142c-0.394-0.238-0.507-0.618-0.506-1.056
	c0.002-4.496,0.001-8.992,0.001-13.488c0-0.082-0.009-0.168,0.009-0.246c0.122-0.536,0.316-0.907,0.983-0.879
	c0.07,0.003,0.141,0,0.211-0.002c0.164-0.005,0.269-0.065,0.268-0.252c-0.002-0.198-0.057-0.274-0.262-0.305
	c-0.094-0.014-0.188-0.012-0.283-0.012c-1.354-0.001-2.707-0.001-4.06-0.001c-0.094,0-0.189,0.002-0.281,0.018
	c-0.167,0.03-0.231,0.142-0.222,0.307c0.01,0.156,0.094,0.237,0.246,0.245c0.141,0.007,0.283-0.01,0.422,0.008
	c0.281,0.035,0.486,0.158,0.629,0.436c0.169,0.328,0.133,0.658,0.133,0.997c-0.002,1.777-0.001,3.555,0,5.332
	c0,0.382-0.082,0.475-0.478,0.477c-0.989,0.006-1.978,0.005-2.966,0.003c-0.301-0.001-0.393-0.097-0.414-0.402
	c-0.004-0.07-0.002-0.141-0.002-0.212c0-1.8-0.004-3.601,0.004-5.401c0-0.221,0.043-0.444,0.092-0.66
	c0.074-0.326,0.375-0.558,0.713-0.569c0.186-0.007,0.371-0.002,0.539-0.002C47.118,19.687,47.059,19.597,46.64,19.592z
	 M67.526,49.439c0.146,0.063,0.204,0.1,0.268,0.114c0.961,0.205,1.676,0.73,2.121,1.616c0.203,0.402,0.305,0.836,0.329,1.277
	c0.029,0.527,0.005,1.059,0.017,1.588c0.006,0.305,0.039,0.609,0.062,0.914c0.039,0.516,0.083,1.031,0.119,1.547
	c0.021,0.293,0.204,0.479,0.494,0.484c0.269,0.006,0.483-0.242,0.485-0.574c0.003-0.377-0.009-0.752,0.004-1.129
	c0.003-0.104,0.052-0.283,0.107-0.295c0.164-0.035,0.344-0.012,0.514,0.014c0.032,0.004,0.071,0.119,0.069,0.182
	c-0.017,0.488,0.067,0.984-0.134,1.463c-0.089,0.211-0.089,0.447-0.213,0.66c-0.234,0.404-0.516,0.721-1.007,0.791
	c-0.229,0.033-0.46,0.135-0.685,0.121c-0.837-0.047-1.365-0.51-1.637-1.311c-0.346-1.016-0.379-2.061-0.381-3.117
	c-0.002-0.563-0.055-1.127-0.09-1.689c-0.019-0.305-0.03-0.611-0.08-0.912c-0.084-0.514-0.312-0.948-0.775-1.233
	c-0.403-0.25-0.846-0.26-1.296-0.23c-0.129,0.008-0.188,0.084-0.196,0.205c-0.005,0.094-0.002,0.188-0.002,0.281
	c-0.002,2.177,0.007,4.354-0.016,6.53c-0.004,0.418,0.395,0.727,0.834,0.799c0.127,0.02,0.259,0.006,0.388,0.012
	c0.151,0.006,0.239,0.074,0.241,0.238c0.003,0.188-0.045,0.252-0.236,0.279c-0.047,0.008-0.094,0.008-0.141,0.008
	c-1.482,0-2.965,0.002-4.448,0c-0.251,0-0.312-0.061-0.312-0.271c-0.002-0.189,0.053-0.271,0.246-0.256
	c0.277,0.021,0.507-0.084,0.736-0.203c0.206-0.107,0.355-0.258,0.356-0.52c0.001-0.271,0.037-0.541,0.037-0.811
	c0.003-4.33,0.003-8.661,0.001-12.991c0-0.211-0.016-0.423-0.043-0.632c-0.058-0.424-0.323-0.657-0.757-0.68
	c-0.082-0.005-0.165-0.003-0.247-0.007c-0.271-0.016-0.375-0.153-0.32-0.412c0.023-0.117,0.084-0.193,0.211-0.198
	c0.082-0.003,0.164-0.004,0.246-0.004c1.377,0.001,2.754-0.008,4.13,0.007c0.469,0.005,0.946,0.023,1.403,0.115
	c0.404,0.082,0.791,0.26,1.176,0.421c0.429,0.18,0.754,0.503,1.07,0.836c0.313,0.329,0.519,0.711,0.66,1.145
	c0.242,0.738,0.271,1.479,0.195,2.248c-0.049,0.502-0.168,0.966-0.408,1.393c-0.177,0.313-0.383,0.628-0.642,0.873
	c-0.52,0.494-1.103,0.899-1.835,1.041C67.96,49.202,67.788,49.321,67.526,49.439z M66.415,49.023
	c0.484,0.074,0.969-0.084,1.365-0.48c0.188-0.188,0.398-0.384,0.504-0.618c0.211-0.464,0.428-0.938,0.389-1.474
	c-0.004-0.067,0.027-0.137,0.037-0.207c0.037-0.254,0.095-0.508,0.104-0.764c0.028-0.742-0.093-1.463-0.302-2.178
	c-0.177-0.602-0.553-1.027-1.063-1.329c-0.521-0.307-1.113-0.331-1.705-0.275c-0.183,0.018-0.197,0.161-0.197,0.316
	c0.005,1.985,0.007,3.972,0.009,5.957c0,0.224-0.012,0.446-0.009,0.669c0.004,0.309,0.066,0.371,0.369,0.382
	C66.059,49.027,66.2,49.023,66.415,49.023z M55.124,28.054c0,2.201,0.001,4.401-0.002,6.602c0,0.188-0.014,0.376-0.037,0.563
	c-0.06,0.472-0.408,0.77-0.879,0.764c-0.07-0.001-0.142-0.006-0.212-0.001c-0.202,0.014-0.245,0.061-0.247,0.258
	c-0.003,0.202,0.04,0.254,0.232,0.274c0.059,0.006,0.117,0.004,0.176,0.004c2.637,0,5.271,0.001,7.908-0.001
	c0.387,0,0.396-0.016,0.396-0.396c0.001-1.635,0-3.271,0-4.906c0-0.059,0.004-0.118,0-0.177c-0.015-0.203-0.061-0.248-0.255-0.255
	c-0.21-0.008-0.292,0.047-0.271,0.264c0.042,0.454-0.018,0.891-0.152,1.322c-0.014,0.044-0.023,0.095-0.016,0.14
	c0.071,0.405-0.144,0.759-0.25,1.118c-0.119,0.403-0.365,0.78-0.603,1.137c-0.425,0.638-1.028,1.012-1.811,1.045
	c-0.411,0.018-0.823,0.016-1.235,0.016c-0.403,0-0.423-0.022-0.423-0.414c0.001-2.295,0.001-4.59,0.001-6.884
	c0-0.06-0.002-0.118,0-0.177c0.004-0.138,0.076-0.242,0.211-0.23c0.266,0.022,0.557,0.017,0.789,0.126
	c0.631,0.299,0.777,0.928,0.896,1.536c0.087,0.447,0.098,0.909,0.154,1.362c0.026,0.203,0.184,0.263,0.365,0.168
	C60.024,31.226,60,31.081,60,30.941c-0.001-2.142-0.001-4.283-0.001-6.425c0-0.07,0.002-0.142-0.002-0.212
	c-0.013-0.167-0.127-0.21-0.27-0.215c-0.145-0.005-0.214,0.073-0.232,0.21c-0.049,0.385-0.145,0.77-0.139,1.153
	c0.006,0.345-0.109,0.645-0.221,0.944c-0.217,0.582-0.642,0.936-1.273,1.009c-0.328,0.038-0.423-0.054-0.422-0.386
	c0-2.142,0-4.283,0-6.425c0-0.336,0.044-0.392,0.387-0.391c0.586,0.002,1.171-0.035,1.751,0.128
	c0.509,0.144,0.972,0.342,1.308,0.764c0.445,0.561,0.682,1.223,0.853,1.9c0.111,0.44,0.146,0.902,0.193,1.356
	c0.023,0.22-0.003,0.445-0.001,0.668c0.002,0.299,0.043,0.348,0.269,0.341c0.221-0.007,0.257-0.056,0.263-0.355
	c0.001-0.083,0-0.165,0-0.247c-0.001-1.554-0.002-3.107-0.001-4.66c0-0.496-0.01-0.508-0.515-0.509
	c-0.023,0-0.048,0.001-0.071,0.001c-2.565-0.001-5.13-0.001-7.695-0.001c-0.083,0-0.175-0.019-0.243,0.013
	c-0.074,0.034-0.165,0.111-0.176,0.182c-0.039,0.243-0.016,0.396,0.295,0.379c0.082-0.005,0.164-0.001,0.246,0
	c0.438,0.009,0.723,0.258,0.777,0.692c0.025,0.21,0.041,0.422,0.041,0.633c0.004,2.188,0.002,4.377,0.002,6.565
	C55.123,28.054,55.124,28.054,55.124,28.054z M29.482,62.558c0.211,0,0.43-0.035,0.632,0.008c0.247,0.053,0.491,0.145,0.716,0.26
	c0.863,0.436,1.426,1.162,1.862,1.994c0.21,0.402,0.391,0.822,0.546,1.248c0.107,0.291,0.121,0.615,0.226,0.908
	c0.137,0.379,0.14,0.779,0.237,1.16c0.097,0.383,0.147,0.754,0.133,1.146c-0.011,0.291,0.023,0.588,0.061,0.879
	c0.099,0.74,0.036,1.479-0.031,2.217c-0.021,0.232-0.002,0.471-0.024,0.703c-0.026,0.279-0.074,0.555-0.116,0.832
	c-0.009,0.059-0.052,0.115-0.047,0.168c0.043,0.457-0.173,0.865-0.236,1.303c-0.042,0.293-0.17,0.576-0.27,0.859
	c-0.073,0.209-0.167,0.41-0.245,0.617c-0.343,0.912-0.89,1.682-1.663,2.268c-0.348,0.266-0.747,0.438-1.203,0.527
	c-0.417,0.084-0.789,0.076-1.197-0.008c-0.426-0.088-0.796-0.242-1.138-0.506c-0.31-0.238-0.583-0.506-0.829-0.809
	c-0.352-0.432-0.615-0.91-0.827-1.422c-0.106-0.258-0.222-0.512-0.318-0.771c-0.068-0.186-0.119-0.377-0.162-0.568
	c-0.09-0.396-0.173-0.793-0.252-1.191c-0.034-0.172-0.055-0.348-0.08-0.521c-0.043-0.313-0.095-0.623-0.123-0.938
	c-0.023-0.256,0.001-0.518-0.025-0.773c-0.08-0.764-0.07-1.525,0.009-2.289c0.02-0.186,0.015-0.375,0.012-0.563
	c-0.005-0.391-0.001-0.777,0.146-1.148c0.034-0.084,0.055-0.184,0.051-0.275c-0.011-0.262,0.015-0.512,0.142-0.752
	c0.042-0.078,0.036-0.182,0.049-0.273c0.012-0.082,0.008-0.166,0.033-0.244c0.114-0.352,0.215-0.711,0.36-1.051
	c0.224-0.525,0.44-1.061,0.807-1.506c0.245-0.299,0.508-0.584,0.794-0.842C28.069,62.704,28.73,62.476,29.482,62.558z
	 M27.515,71.077c-0.003,0-0.006,0-0.009,0c0,1.283,0.005,2.564-0.002,3.846c-0.005,0.965,0.077,1.92,0.337,2.85
	c0.158,0.563,0.457,0.998,1.043,1.23c0.862,0.338,1.598-0.082,1.989-0.717c0.291-0.469,0.449-1.023,0.447-1.6
	c0-0.092,0.005-0.188,0.015-0.279c0.042-0.432,0.121-0.863,0.123-1.293c0.012-2.518,0-5.033,0.008-7.551
	c0.003-1.059-0.08-2.104-0.342-3.133c-0.186-0.73-0.861-1.336-1.613-1.336c-0.619-0.002-1.143,0.248-1.458,0.807
	c-0.244,0.432-0.392,0.9-0.394,1.406c0,0.139-0.034,0.277-0.052,0.418c-0.031,0.23-0.087,0.463-0.088,0.695
	C27.512,67.974,27.515,69.526,27.515,71.077z M89.823,52.577c-0.047,0.373-0.095,0.744-0.144,1.115
	c-0.014,0.105-0.063,0.215-0.044,0.313c0.076,0.396-0.147,0.73-0.236,1.086c-0.123,0.496-0.388,0.945-0.729,1.344
	c-0.378,0.445-0.835,0.797-1.397,0.885c-0.563,0.088-1.149,0.031-1.727,0.035c-0.162,0-0.229-0.098-0.233-0.25
	c-0.002-0.07-0.001-0.141-0.001-0.211c0.001-2.283,0.001-4.566,0.001-6.849c0-0.072-0.004-0.143,0.002-0.213
	c0.012-0.133,0.08-0.229,0.221-0.225c0.395,0.012,0.787,0.072,1.076,0.363c0.367,0.369,0.529,0.851,0.605,1.353
	c0.066,0.439,0.089,0.887,0.128,1.332c0.015,0.166,0.113,0.221,0.265,0.211c0.189-0.01,0.247-0.094,0.246-0.344
	c-0.003-1.318-0.008-2.636-0.009-3.955c-0.001-0.847,0.003-1.694,0.005-2.541c0-0.284-0.059-0.372-0.25-0.381
	c-0.181-0.009-0.196,0.063-0.262,0.365c-0.128,0.582-0.076,1.184-0.273,1.765c-0.226,0.666-0.641,1.072-1.355,1.133
	c-0.313,0.026-0.398-0.051-0.398-0.373c-0.005-2.166-0.008-4.331-0.01-6.496c0-0.253,0.057-0.317,0.311-0.32
	c0.423-0.004,0.85-0.025,1.27,0.02c0.333,0.035,0.67,0.126,0.983,0.249c0.53,0.21,0.938,0.576,1.186,1.102
	c0.135,0.284,0.311,0.56,0.386,0.86c0.099,0.39,0.252,0.777,0.211,1.196c-0.006,0.067,0.014,0.141,0.034,0.208
	c0.125,0.411,0.147,0.832,0.134,1.257c-0.008,0.229,0.035,0.281,0.206,0.292c0.212,0.015,0.287-0.055,0.302-0.287
	c0.006-0.094,0.002-0.188,0.002-0.282c0-1.554-0.002-3.107,0-4.66c0.001-0.579,0.002-0.582-0.592-0.582
	c-1.906,0.001-3.813,0.001-5.72,0c-0.647,0-1.294-0.002-1.941-0.003c-0.375,0-0.437,0.041-0.444,0.291
	c-0.01,0.261,0.049,0.305,0.413,0.32c0.06,0.002,0.118,0.004,0.177,0.009c0.449,0.031,0.711,0.289,0.734,0.732
	c0.012,0.211,0.015,0.424,0.015,0.635c0.002,4.014,0.003,8.027,0.004,12.041c0,0.482-0.039,0.967,0.001,1.445
	c0.043,0.531-0.238,0.777-0.676,0.928c-0.109,0.037-0.23,0.041-0.346,0.049c-0.275,0.018-0.325,0.053-0.326,0.256
	c-0.002,0.219,0.059,0.27,0.346,0.275c0.164,0.004,0.33,0,0.494,0.002c2.483,0,4.967,0,7.449-0.002c0.404,0,0.414-0.018,0.414-0.416
	c-0.002-1.625-0.001-3.248-0.001-4.873c0-0.07,0.003-0.141,0.003-0.211c0.002-0.143-0.066-0.223-0.211-0.223
	c-0.081,0-0.161,0.014-0.275,0.023C89.835,52.464,89.831,52.521,89.823,52.577z M76.636,58.071c1.271,0,2.542,0,3.813,0
	c0.516,0,0.52-0.004,0.521-0.504c0.001-0.74,0.002-1.482,0.002-2.223c-0.001-0.883-0.001-1.766-0.003-2.648
	c-0.001-0.268-0.053-0.344-0.231-0.354c-0.185-0.012-0.234,0.063-0.256,0.326c-0.042,0.502-0.094,1.004-0.141,1.506
	c-0.004,0.035-0.011,0.07-0.021,0.104c-0.109,0.33-0.228,0.658-0.328,0.99c-0.183,0.604-0.529,1.094-1,1.502
	c-0.438,0.381-0.926,0.627-1.529,0.59c-0.316-0.02-0.635,0-0.953-0.002c-0.51-0.002-0.52-0.014-0.52-0.51c0-0.904,0-1.811,0-2.717
	c0-1.377-0.002-2.754,0.002-4.13c0-0.35,0.107-0.434,0.453-0.391c0.66,0.08,1.073,0.477,1.271,1.069
	c0.13,0.393,0.276,0.795,0.22,1.234c-0.027,0.207,0.012,0.422,0.025,0.633c0.017,0.232,0.098,0.322,0.285,0.324
	c0.166,0.002,0.222-0.076,0.222-0.318c0-2.188-0.001-4.376-0.001-6.565c0-0.047,0.006-0.095,0-0.141
	c-0.019-0.159-0.105-0.225-0.264-0.203c-0.179,0.023-0.225,0.104-0.249,0.36c-0.052,0.555,0.02,1.113-0.19,1.664
	c-0.217,0.567-0.462,1.034-1.112,1.185c-0.571,0.132-0.662,0.081-0.662-0.516c0-1.965,0.001-3.93,0.003-5.895
	c0-0.153-0.006-0.306,0-0.459c0.006-0.165,0.094-0.271,0.266-0.262c0.617,0.034,1.232-0.061,1.853,0.131
	c0.626,0.193,1.134,0.486,1.486,1.041c0.163,0.256,0.345,0.498,0.411,0.804c0.053,0.238,0.087,0.489,0.194,0.702
	c0.13,0.258,0.138,0.515,0.14,0.786c0.002,0.175,0.035,0.351,0.053,0.525c0.031,0.28,0.062,0.561,0.092,0.841
	c0.006,0.059-0.011,0.13,0.018,0.173c0.048,0.069,0.125,0.17,0.186,0.168c0.086-0.004,0.201-0.07,0.245-0.145
	c0.048-0.083,0.038-0.204,0.038-0.309c0-1.624,0-3.248-0.003-4.871c-0.001-0.418-0.071-0.48-0.502-0.479
	c-2.271,0.001-4.542,0.002-6.812,0.003c-0.318,0-0.636-0.002-0.953-0.002c-0.279,0-0.379,0.071-0.383,0.29
	c-0.006,0.273,0.114,0.35,0.385,0.319c0.058-0.007,0.117,0.001,0.176,0.005c0.49,0.029,0.783,0.352,0.771,0.848
	c-0.002,0.094-0.002,0.188-0.002,0.282c0,4.095,0,8.189,0,12.283c0,0.529,0.003,1.059-0.004,1.588
	c-0.006,0.318-0.121,0.576-0.451,0.678c-0.198,0.063-0.4,0.117-0.605,0.154c-0.201,0.035-0.251,0.072-0.253,0.26
	c-0.003,0.193,0.048,0.25,0.241,0.27c0.059,0.006,0.118,0.002,0.177,0.002c1.294,0,2.589,0,3.882,0V58.071z M56.472,66.427
	c0.078,0.082,0.189,0.15,0.23,0.248c0.152,0.35,0.281,0.711,0.418,1.068c0.199,0.521,0.392,1.047,0.599,1.566
	c0.159,0.4,0.343,0.789,0.503,1.189c0.162,0.398,0.304,0.805,0.465,1.205c0.208,0.518,0.434,1.029,0.639,1.547
	c0.16,0.4,0.295,0.811,0.45,1.211c0.235,0.607,0.48,1.211,0.722,1.816c0.068,0.172,0.137,0.346,0.209,0.518
	c0.161,0.387,0.332,0.768,0.486,1.156c0.2,0.508,0.384,1.023,0.586,1.531c0.023,0.061,0.115,0.113,0.186,0.131
	c0.102,0.023,0.211,0.018,0.316,0.016c0.361-0.004,0.367-0.01,0.367-0.383c0-4.777,0-9.555-0.001-14.332
	c0-0.199,0.005-0.4-0.001-0.6c-0.02-0.668,0.298-1.025,0.969-1.088c0.047-0.004,0.094,0,0.141-0.008
	c0.19-0.031,0.297-0.16,0.284-0.336c-0.013-0.168-0.115-0.273-0.294-0.293c-0.059-0.008-0.117-0.002-0.177-0.002
	c-0.858,0-1.718,0.002-2.577,0.002c-0.082,0-0.164,0-0.246,0.008c-0.17,0.014-0.247,0.117-0.257,0.279
	c-0.011,0.182,0.066,0.295,0.244,0.33c0.114,0.023,0.233,0.033,0.351,0.035c0.522,0.01,0.845,0.566,0.85,1.002
	c0.013,0.953-0.004,1.906-0.002,2.859c0.006,2.023,0.016,4.047,0.023,6.07c0,0.105,0.009,0.219-0.181,0.262
	c-0.144-0.342-0.298-0.688-0.435-1.041c-0.207-0.531-0.398-1.068-0.604-1.602c-0.172-0.443-0.354-0.883-0.531-1.324
	c-0.078-0.195-0.156-0.389-0.234-0.582c-0.166-0.41-0.33-0.82-0.495-1.23c-0.16-0.398-0.321-0.797-0.481-1.195
	c-0.148-0.367-0.3-0.73-0.443-1.1c-0.157-0.4-0.306-0.805-0.461-1.205c-0.154-0.402-0.316-0.801-0.467-1.205
	c-0.091-0.242-0.232-0.359-0.492-0.361c-0.282-0.004-0.564,0-0.847,0c-0.565,0-1.13-0.004-1.694,0
	c-0.222,0.002-0.318,0.115-0.313,0.332c0.007,0.195,0.099,0.285,0.31,0.301c0.175,0.014,0.354,0.014,0.525,0.045
	c0.303,0.055,0.472,0.264,0.514,0.553c0.046,0.326,0.081,0.654,0.081,0.982c0.006,4,0.006,8.002,0.002,12.002
	c-0.001,0.434-0.061,0.867-0.055,1.301c0.002,0.281-0.121,0.467-0.314,0.635c-0.221,0.189-0.47,0.299-0.766,0.311
	c-0.226,0.01-0.303,0.1-0.297,0.303c0.005,0.188,0.072,0.262,0.293,0.262c0.988,0.004,1.977,0.004,2.965-0.002
	c0.234,0,0.28-0.055,0.285-0.26c0.004-0.209-0.047-0.271-0.255-0.303c-0.069-0.01-0.144-0.002-0.21-0.02
	c-0.385-0.092-0.727-0.268-0.835-0.67c-0.091-0.336-0.138-0.693-0.139-1.043c-0.012-3.541-0.01-7.082-0.011-10.625
	c0-0.078,0.014-0.156,0.021-0.232C56.419,66.45,56.444,66.438,56.472,66.427z M38.293,21.125c0-0.212-0.009-0.424-0.01-0.635
	c0-0.144,0.05-0.263,0.209-0.28c0.351-0.038,0.703,0.041,0.961,0.252c0.747,0.607,1.135,1.436,1.32,2.368
	c0.018,0.09,0.064,0.175,0.093,0.264c0.029,0.088,0.062,0.177,0.076,0.269c0.05,0.312,0.098,0.623,0.136,0.937
	c0.024,0.197,0.031,0.396,0.041,0.596c0.004,0.094-0.007,0.188-0.005,0.282c0.003,0.13,0.079,0.183,0.204,0.191
	c0.253,0.018,0.322-0.055,0.323-0.368c0.001-1.518,0.002-3.036,0-4.554c0-0.199-0.014-0.399-0.018-0.599
	c-0.003-0.155-0.074-0.244-0.232-0.252c-0.07-0.004-0.141-0.005-0.211-0.005c-2.683,0-5.365-0.001-8.048-0.001
	c-0.407,0-0.451,0.043-0.452,0.438c-0.001,1.4-0.002,2.801-0.004,4.2c0,0.282-0.005,0.565,0,0.848
	c0.003,0.205,0.067,0.278,0.227,0.29c0.165,0.012,0.26-0.061,0.279-0.242c0.041-0.397,0.113-0.799,0.093-1.194
	c-0.023-0.449,0.185-0.841,0.234-1.271c0.036-0.313,0.199-0.617,0.34-0.908c0.199-0.41,0.396-0.823,0.755-1.132
	c0.289-0.248,0.628-0.365,0.994-0.409c0.247-0.03,0.32,0.047,0.341,0.288c0.004,0.047,0,0.095,0,0.142
	c-0.001,4.506-0.001,9.013-0.002,13.519c0,0.354-0.012,0.706-0.002,1.06c0.006,0.223-0.085,0.393-0.253,0.515
	c-0.208,0.151-0.423,0.303-0.708,0.249c-0.068-0.012-0.141-0.002-0.211,0.005c-0.123,0.012-0.186,0.081-0.2,0.205
	c-0.028,0.241,0.062,0.328,0.367,0.328c1.471,0.001,2.941,0,4.412-0.001c0.071,0,0.141-0.004,0.212-0.007
	c0.163-0.01,0.221-0.104,0.222-0.258c0.001-0.151-0.052-0.254-0.215-0.264c-0.153-0.008-0.306-0.003-0.458-0.011
	c-0.472-0.025-0.81-0.38-0.81-0.841c0.001-2.412,0-4.824,0-7.236C38.293,25.642,38.293,23.383,38.293,21.125z M57.899,49.307
	c0-2.318,0-4.637,0-6.954c0.001-0.118,0-0.236,0.014-0.353c0.022-0.174,0.121-0.271,0.305-0.278c0.382-0.016,0.715,0.114,1,0.353
	c0.291,0.242,0.524,0.534,0.686,0.882c0.104,0.223,0.242,0.431,0.323,0.66c0.104,0.294,0.165,0.603,0.245,0.905
	c0.023,0.091,0.052,0.18,0.07,0.271c0.035,0.183,0.074,0.364,0.096,0.548c0.053,0.467,0.096,0.935,0.147,1.401
	c0.014,0.125,0.105,0.198,0.222,0.172c0.09-0.021,0.194-0.082,0.242-0.157c0.043-0.069,0.025-0.182,0.025-0.275
	c0-1.635-0.003-3.271-0.004-4.906c-0.001-0.42-0.065-0.484-0.494-0.484c-0.518,0-1.035,0.001-1.553,0.001
	c-2.154,0-4.307-0.002-6.46-0.001c-0.412,0.001-0.47,0.063-0.47,0.468c-0.001,1.365,0,2.73-0.001,4.096
	c0,0.271-0.001,0.541-0.001,0.812c0,0.385,0.045,0.459,0.275,0.454c0.187-0.004,0.217-0.066,0.232-0.428
	c0.006-0.164,0.009-0.331,0.041-0.491c0.072-0.357,0.171-0.709,0.135-1.081c-0.008-0.076,0.035-0.158,0.057-0.237
	c0.04-0.156,0.082-0.313,0.121-0.47c0.018-0.067,0.02-0.142,0.045-0.205c0.105-0.258,0.229-0.508,0.326-0.769
	c0.191-0.511,0.522-0.918,0.954-1.234c0.254-0.187,0.546-0.318,0.884-0.284c0.168,0.018,0.262,0.098,0.262,0.27
	c0,0.141-0.011,0.281-0.011,0.423c-0.001,4.354,0,8.708,0.001,13.061c0,0.342-0.021,0.684,0.01,1.023
	c0.037,0.422-0.152,0.678-0.5,0.883c-0.238,0.141-0.482,0.164-0.744,0.164c-0.155,0-0.234,0.078-0.234,0.242
	c0,0.193,0.043,0.254,0.236,0.277c0.104,0.012,0.211,0.008,0.316,0.008c1.236,0,2.472,0,3.707,0c0.212,0,0.424,0.006,0.635-0.002
	c0.247-0.006,0.316-0.072,0.315-0.273c-0.002-0.189-0.062-0.24-0.297-0.254c-0.082-0.006-0.168,0.01-0.246-0.008
	c-0.325-0.078-0.655-0.18-0.794-0.514c-0.087-0.209-0.115-0.457-0.116-0.689c-0.009-2.342-0.005-4.684-0.005-7.024H57.899z
	 M96.663,49.345c0-2.388,0-4.776,0-7.165c0-0.353,0.108-0.471,0.459-0.458c0.126,0.005,0.253,0.044,0.374,0.083
	c0.632,0.206,0.987,0.699,1.25,1.263c0.206,0.441,0.36,0.905,0.536,1.36c0.016,0.043,0.016,0.092,0.023,0.139
	c0.041,0.216,0.089,0.432,0.123,0.649c0.025,0.161,0.043,0.325,0.049,0.488c0.014,0.329,0.008,0.658,0.026,0.987
	c0.009,0.168,0.114,0.232,0.292,0.228c0.157-0.004,0.195-0.105,0.201-0.234c0.004-0.083,0.003-0.165,0.003-0.247
	c-0.001-1.589-0.001-3.177-0.001-4.766c0-0.582,0-0.585-0.577-0.584c-2.601,0-5.2,0.003-7.801,0.005
	c-0.095,0-0.188,0.002-0.282,0.005c-0.143,0.004-0.215,0.083-0.225,0.221c-0.006,0.082-0.006,0.164-0.006,0.247
	c0,1.646,0,3.294,0,4.941c0,0.059-0.005,0.118,0,0.177c0.017,0.192,0.068,0.236,0.271,0.235s0.255-0.044,0.268-0.24
	c0.008-0.129,0.001-0.259,0.001-0.388c0-0.235-0.063-0.494,0.016-0.7c0.172-0.455,0.139-0.942,0.3-1.402
	c0.134-0.384,0.249-0.774,0.431-1.138c0.28-0.558,0.66-1.016,1.268-1.261c0.5-0.203,0.789-0.043,0.792,0.484
	c0,0.024-0.001,0.048-0.001,0.071c0,4.354,0,8.708-0.001,13.061c0,0.34,0.017,0.684-0.005,1.023c-0.027,0.447-0.193,0.83-0.647,1
	c-0.182,0.068-0.384,0.084-0.579,0.109c-0.211,0.027-0.268,0.084-0.253,0.291c0.014,0.199,0.06,0.238,0.345,0.238
	c0.918,0.004,1.836,0,2.754,0c0.6,0,1.2,0.004,1.801-0.002c0.234-0.002,0.284-0.057,0.289-0.256c0.005-0.203-0.046-0.256-0.273-0.27
	c-0.082-0.006-0.166,0-0.248-0.006c-0.498-0.033-1.033-0.541-0.983-1.096c0.012-0.129,0.015-0.258,0.015-0.389
	c0-2.234,0-4.471,0-6.707H96.663z M49.818,41.471c-0.38-0.239-0.802-0.44-1.235-0.449c-0.669-0.014-1.346-0.136-2.014,0.15
	c-0.494,0.211-0.979,0.427-1.307,0.846c-0.4,0.513-0.764,1.064-0.797,1.755c-0.002,0.046-0.014,0.094-0.031,0.137
	c-0.346,0.833-0.038,1.646,0.092,2.459c0.043,0.267,0.184,0.528,0.321,0.769c0.237,0.415,0.46,0.854,0.773,1.209
	c0.708,0.802,1.525,1.492,2.384,2.132c1.176,0.876,1.993,2.001,2.39,3.421c0.021,0.078,0.024,0.162,0.024,0.244
	c0.002,0.447,0.031,0.896-0.012,1.34c-0.029,0.307-0.121,0.623-0.256,0.9c-0.173,0.359-0.412,0.689-0.81,0.848
	c-0.159,0.063-0.332,0.09-0.489,0.156c-0.434,0.18-0.846,0.17-1.299,0.012c-0.701-0.246-1.301-0.588-1.668-1.258
	c-0.163-0.297-0.348-0.584-0.49-0.889c-0.102-0.219-0.156-0.461-0.217-0.695c-0.056-0.213-0.097-0.432-0.134-0.65
	c-0.028-0.16-0.052-0.324-0.057-0.486c-0.008-0.283,0.007-0.564-0.001-0.848c-0.006-0.186-0.082-0.248-0.264-0.256
	c-0.181-0.006-0.248,0.055-0.264,0.248c-0.006,0.059,0,0.117,0,0.176c0,1.635,0,3.271,0,4.906c0,0.082-0.006,0.166,0.006,0.248
	c0.021,0.143,0.123,0.215,0.25,0.152c0.096-0.047,0.178-0.143,0.239-0.234c0.071-0.105,0.103-0.236,0.171-0.344
	c0.146-0.229,0.19-0.236,0.423-0.105c0.274,0.154,0.536,0.338,0.823,0.459s0.568,0.291,0.904,0.254
	c0.067-0.008,0.144,0.006,0.207,0.031c0.73,0.283,1.447,0.047,2.148-0.098c0.458-0.094,0.887-0.34,1.257-0.664
	c0.618-0.543,1.033-1.193,1.161-2.014c0.012-0.08,0.05-0.156,0.068-0.236c0.042-0.182,0.102-0.361,0.113-0.545
	c0.02-0.305-0.017-0.615,0.016-0.918c0.061-0.553-0.229-1.053-0.217-1.596c0-0.023-0.014-0.045-0.022-0.066
	c-0.109-0.281-0.221-0.563-0.329-0.846c-0.194-0.508-0.484-0.966-0.823-1.382c-0.771-0.943-1.714-1.704-2.674-2.441
	c-0.61-0.468-1.185-0.961-1.593-1.623c-0.271-0.44-0.523-0.883-0.492-1.432c0.02-0.352,0.002-0.705,0.004-1.059
	c0.001-0.058,0.007-0.118,0.025-0.173c0.137-0.396,0.353-0.734,0.689-0.993c0.238-0.184,0.485-0.325,0.801-0.313
	c0.293,0.011,0.588,0.004,0.881,0.013c0.08,0.003,0.166,0.021,0.236,0.057c0.512,0.25,0.961,0.559,1.267,1.071
	c0.273,0.459,0.445,0.955,0.588,1.454c0.078,0.271,0.09,0.572,0.179,0.853c0.035,0.107,0.018,0.232,0.019,0.35
	c0.003,0.399,0.003,0.8,0.007,1.199c0.001,0.174,0.119,0.209,0.263,0.213c0.147,0.004,0.259-0.033,0.263-0.207
	c0.002-0.06,0-0.118,0-0.177c0-1.659,0-3.318,0-4.978c0-0.059,0.008-0.118,0-0.176c-0.021-0.188-0.166-0.269-0.323-0.166
	c-0.083,0.054-0.141,0.151-0.196,0.238c-0.093,0.146-0.175,0.297-0.27,0.461C50.271,41.754,50.045,41.613,49.818,41.471z
	 M35.234,58.071c1.306,0,2.612,0,3.918-0.002c0.382,0,0.398-0.023,0.398-0.398c0-0.988,0.001-1.977,0.002-2.965
	c0.001-0.684,0.001-1.365,0.004-2.047c0-0.121,0.01-0.242-0.122-0.305c-0.228-0.105-0.366,0.008-0.398,0.26
	c-0.089,0.719-0.102,1.443-0.29,2.154c-0.105,0.396-0.247,0.771-0.404,1.146c-0.173,0.414-0.462,0.742-0.812,1
	c-0.25,0.184-0.547,0.377-0.841,0.412c-0.557,0.068-1.127,0.025-1.692,0.027c-0.142,0-0.216-0.078-0.221-0.219
	c-0.003-0.07-0.001-0.141-0.001-0.213c0-3.742,0-7.483,0-11.225c0-1.024,0.004-2.048-0.003-3.071
	c-0.004-0.577,0.28-0.895,0.848-0.921c0.047-0.002,0.094-0.003,0.141-0.006c0.273-0.021,0.373-0.16,0.308-0.417
	c-0.051-0.201-0.206-0.193-0.362-0.193c-1.071,0-2.142-0.001-3.212-0.001c-0.388,0-0.777-0.006-1.165,0.006
	c-0.191,0.006-0.25,0.094-0.252,0.308c-0.002,0.216,0.048,0.277,0.255,0.293c0.199,0.016,0.4,0.019,0.599,0.034
	c0.189,0.015,0.359,0.111,0.426,0.274c0.096,0.234,0.188,0.493,0.189,0.741c0.011,4.048,0.008,8.096,0.008,12.143
	c0,0.52,0.01,1.037-0.001,1.555c-0.015,0.66-0.489,1.104-1.089,1.098c-0.094-0.002-0.188,0-0.283,0.004
	c-0.149,0.008-0.242,0.072-0.247,0.236c-0.005,0.178,0.056,0.26,0.238,0.281c0.116,0.014,0.235,0.01,0.353,0.01
	C32.763,58.073,33.999,58.071,35.234,58.071L35.234,58.071z M21.413,73.13c0.005,1.213,0.036,2.426,0.01,3.637
	c-0.01,0.475-0.074,0.971-0.234,1.416c-0.235,0.652-0.773,0.869-1.438,0.848c-0.258-0.008-0.539-0.1-0.764-0.23
	c-0.413-0.24-0.725-0.605-0.903-1.051c-0.069-0.172-0.053-0.393-0.029-0.584c0.02-0.162,0.205-0.123,0.32-0.166
	c0.419-0.156,0.736-0.443,0.901-0.846c0.149-0.363,0.162-0.793,0.021-1.143c-0.347-0.859-1.24-0.965-1.809-0.443
	c-0.272,0.252-0.473,0.52-0.567,0.904c-0.085,0.35-0.181,0.689-0.088,1.037c0.116,0.438,0.097,0.91,0.333,1.314
	c0.206,0.354,0.394,0.729,0.659,1.031c0.547,0.629,1.326,0.795,2.104,0.934c0.045,0.008,0.101,0.01,0.139-0.01
	c0.46-0.232,0.982-0.127,1.469-0.305c0.75-0.273,1.318-0.703,1.686-1.396c0.12-0.225,0.194-0.475,0.275-0.717
	c0.055-0.164,0.108-0.334,0.12-0.504c0.019-0.281,0.003-0.564,0.003-0.846c0-1.766,0-3.531,0-5.297c0-2.084,0.004-4.166-0.005-6.25
	c-0.001-0.303,0.065-0.584,0.179-0.854c0.081-0.193,0.226-0.326,0.452-0.344c0.188-0.014,0.375-0.027,0.562-0.055
	c0.178-0.027,0.272-0.146,0.27-0.314c-0.002-0.17-0.098-0.275-0.281-0.303c-0.069-0.01-0.141-0.004-0.212-0.004
	c-1.365,0-2.73,0-4.096,0c-0.035,0-0.071-0.002-0.106,0c-0.243,0.01-0.377,0.125-0.378,0.322c0,0.182,0.122,0.289,0.353,0.311
	c0.129,0.01,0.257,0.031,0.386,0.033c0.183,0.002,0.323,0.096,0.416,0.23c0.159,0.232,0.31,0.473,0.264,0.781
	c-0.019,0.127-0.013,0.258-0.013,0.389c0,1.977,0,3.953,0,5.932C21.412,71.437,21.409,72.282,21.413,73.13z"/>
</svg>
