<?xml version="1.0" encoding="utf-8"?>
<!-- Generator: Adobe Illustrator 16.0.0, SVG Export Plug-In . SVG Version: 6.00 Build 0)  -->
<!DOCTYPE svg PUBLIC "-//W3C//DTD SVG 1.1//EN" "http://www.w3.org/Graphics/SVG/1.1/DTD/svg11.dtd">
<svg version="1.1" id="Layer_1" xmlns="http://www.w3.org/2000/svg" xmlns:xlink="http://www.w3.org/1999/xlink" x="0px" y="0px"
	 width="100px" height="100px" viewBox="0 0 100 100" enable-background="new 0 0 100 100" xml:space="preserve">
<path fill-rule="evenodd" clip-rule="evenodd" d="M47.166,39.146c0.607-0.645,1.21-1.276,1.801-1.918
	c0.128-0.139,0.21-0.112,0.328,0c0.521,0.493,1.049,0.98,1.572,1.472c0.396,0.372,0.392,0.37-0.001,0.771
	c-0.497,0.508-0.992,1.021-1.482,1.536c-0.094,0.1-0.17,0.117-0.271,0.021c-0.64-0.606-1.28-1.212-1.919-1.819
	C47.183,39.198,47.181,39.179,47.166,39.146z M49.637,40.556c-0.027-0.032-0.055-0.063-0.081-0.095
	c-0.017-0.036-0.024-0.081-0.051-0.105c-0.526-0.484-1.053-0.968-1.586-1.445c-0.038-0.035-0.132-0.053-0.176-0.031
	c-0.253,0.124-0.275,0.311-0.069,0.502c0.463,0.43,0.924,0.859,1.393,1.282c0.06,0.054,0.173,0.101,0.24,0.081
	C49.425,40.71,49.527,40.621,49.637,40.556z M38.385,66.857c1.117-1.187,2.233-2.373,3.362-3.572c0.086,0.061,0.158,0.1,0.217,0.154
	c0.753,0.698,1.503,1.398,2.256,2.097c0.055,0.052,0.119,0.094,0.184,0.134c0.329,0.202,0.337,0.527,0.337,0.858
	c0,3.462,0,6.924-0.001,10.386c0,0.208-0.081,0.36-0.257,0.492c-0.84,0.627-1.668,1.27-2.504,1.902
	c-0.532,0.402-1.071,0.796-1.606,1.194c-0.177,0.131-0.288,0.132-0.458-0.07c-0.404-0.48-0.889-0.87-1.582-0.976
	c0,0.111,0,0.203,0,0.294c0,1.446,0.002,2.894-0.003,4.34c-0.001,0.127-0.047,0.254-0.078,0.416
	c-0.302-0.274-0.566-0.505-0.817-0.747c-0.146-0.141-0.266-0.148-0.417-0.006c-0.76,0.715-1.524,1.426-2.29,2.135
	c-0.149,0.139-0.312,0.264-0.482,0.408c-0.238-0.163-0.128-0.428-0.138-0.627c-0.031-0.68-0.012-1.36-0.012-2.041
	c0-1.301,0-2.601,0-3.901c0-0.094,0-0.188,0-0.342c-1.066,0.256-1.926,0.798-2.736,1.59c-0.022-0.178-0.069-0.306-0.049-0.421
	c0.137-0.75,0.346-1.477,0.771-2.121c0.503-0.762,1.174-1.283,2.014-1.579c0-0.777-0.005-1.561,0.001-2.344
	c0.007-0.832,0.024-1.665,0.028-2.497c0.001-0.047-0.075-0.127-0.125-0.136c-0.731-0.131-1.372,0.174-1.769,0.818
	c-0.042,0.068-0.139,0.103-0.21,0.153c-0.032-0.071-0.081-0.139-0.095-0.214c-0.134-0.74-0.137-1.465,0.27-2.139
	c0.286-0.476,0.694-0.797,1.229-0.948c0.209-0.06,0.424-0.097,0.67-0.15c0-0.315-0.005-0.657,0.001-1
	c0.009-0.521,0.03-1.043,0.034-1.564c0-0.074-0.05-0.165-0.104-0.22c-0.263-0.258-0.538-0.502-0.802-0.758
	c-0.132-0.129-0.237-0.102-0.346,0.023c-0.096,0.11-0.194,0.218-0.301,0.337c-0.077-0.063-0.129-0.104-0.196-0.158
	c0.883-0.931,1.758-1.854,2.642-2.785c0.426,0.387,0.821,0.748,1.219,1.107c0.342,0.309,0.682,0.619,1.028,0.923
	c0.166,0.146,0.239,0.317,0.237,0.537c-0.006,0.608-0.002,1.217,0.026,1.838c0.223-0.202,0.512-0.32,0.497-0.719
	c-0.028-0.809-0.012-1.618-0.002-2.428c0.001-0.085,0.084-0.169,0.129-0.254c0.059,0.091,0.166,0.18,0.167,0.271
	c0.014,0.756,0.008,1.513,0.008,2.27C38.35,66.832,38.367,66.845,38.385,66.857z M41.323,77.84c0.02-0.019,0.039-0.036,0.058-0.055
	c0-1.179,0-2.358,0-3.537c0-2.28,0.002-4.562-0.005-6.843c0-0.125-0.035-0.29-0.119-0.368c-0.4-0.38-0.829-0.73-1.236-1.104
	c-0.163-0.149-0.29-0.147-0.436,0.009c-0.31,0.331-0.622,0.661-0.937,0.988c-0.232,0.242-0.328,0.51-0.326,0.862
	c0.018,2.814,0.01,5.629,0.01,8.443c0,0.069-0.016,0.145,0.007,0.205c0.02,0.053,0.076,0.117,0.127,0.128
	c0.214,0.046,0.432,0.071,0.647,0.11c0.624,0.112,1.194,0.349,1.694,0.744C40.98,77.56,41.151,77.701,41.323,77.84z M38.012,67.735
	c-0.267,0.11-0.507,0.443-0.507,0.676c0,4.926,0.005,9.852-0.008,14.777c-0.001,0.396,0.274,0.515,0.515,0.778
	C38.012,78.514,38.012,73.136,38.012,67.735z M34.404,85.714c0.288-0.06,0.466-0.284,0.466-0.562c0-4.59,0-9.181,0-13.771
	c0-0.09,0-0.181,0-0.284c-0.416,0-0.795-0.012-1.172,0.005c-0.234,0.01-0.47,0.049-0.698,0.102c-0.31,0.071-0.712,0.59-0.631,0.855
	c0.199-0.113,0.389-0.276,0.604-0.33c0.316-0.079,0.652-0.098,0.98-0.11c0.45-0.018,0.45-0.005,0.45,0.433c0,4.444,0,8.889,0,13.333
	C34.404,85.486,34.404,85.589,34.404,85.714z M41.656,79.145c0.333-0.119,0.448-0.274,0.448-0.567c0-3.778-0.002-7.557,0.005-11.335
	c0-0.317-0.026-0.564-0.315-0.791c-0.442-0.348-0.82-0.776-1.239-1.156c-0.064-0.058-0.287-0.06-0.293-0.042
	c-0.045,0.14-0.372,0.196-0.152,0.408c0.338,0.325,0.699,0.626,1.036,0.953c0.221,0.213,0.526,0.375,0.544,0.737
	c0.01,0.216,0.002,0.433,0.002,0.648c0,3.237,0,6.475-0.002,9.712c0,0.093-0.031,0.185-0.032,0.277
	C41.653,78.364,41.656,78.738,41.656,79.145z M34.849,69.421c0.006-0.021,0.019-0.045,0.019-0.069
	c0.002-0.954,0.007-1.909-0.004-2.864c-0.001-0.104-0.065-0.232-0.141-0.31c-0.307-0.31-0.621-0.613-0.953-0.896
	c-0.066-0.057-0.251-0.054-0.327,0c-0.112,0.078-0.202,0.229-0.061,0.37c0.225,0.223,0.462,0.432,0.689,0.65
	c0.168,0.161,0.354,0.288,0.343,0.586c-0.028,0.722-0.01,1.444-0.01,2.167C34.405,69.475,34.406,69.477,34.849,69.421z
	 M38.339,79.14c0.684,0.136,1.21,0.515,1.648,1.022c0.199,0.231,0.345,0.056,0.495-0.039c0.156-0.099,0.196-0.256,0.051-0.387
	c-0.324-0.293-0.645-0.596-1.002-0.843c-0.346-0.239-0.75-0.357-1.192-0.349C38.339,78.753,38.339,78.932,38.339,79.14z
	 M32.143,79.961c0.04-0.011,0.085-0.011,0.112-0.033c0.499-0.408,1.07-0.654,1.699-0.782c0.057-0.012,0.122-0.108,0.134-0.175
	c0.022-0.12,0.007-0.248,0.007-0.37C33.45,78.563,32.208,79.416,32.143,79.961z M39.291,17.663c-0.587,0-1.181-0.059-1.757,0.016
	c-0.646,0.084-1.205,0.4-1.638,0.923c-0.317,0.382-0.47,0.811-0.516,1.293c-0.007,0.071-0.077,0.137-0.12,0.208
	c-0.275-0.125-0.185-0.351-0.178-0.528c0.013-0.321,0.067-0.641,0.096-0.961c0.067-0.771,0.341-1.477,0.711-2.144
	c0.304-0.549,0.719-1.016,1.228-1.381c0.413-0.298,0.887-0.472,1.387-0.581c0.965-0.21,1.85,0.022,2.716,0.434
	c0.714,0.34,1.423,0.704,2.166,0.966c1.112,0.394,2.226,0.406,3.236-0.326c0.188-0.137,0.325-0.346,0.483-0.524
	c0.054-0.061,0.098-0.13,0.148-0.199c0.271,0.297-0.07,1.769-0.578,2.491c-0.533,0.759-1.284,1.205-2.182,1.414
	c0,3.148,0,6.287,0,9.458c1.313-0.714,2.1-1.826,2.61-3.179c0.313,0.203,0.128,0.454,0.099,0.643
	c-0.138,0.876-0.388,1.725-0.786,2.519c-0.477,0.948-1.106,1.779-1.933,2.465c-0.502,0.417-1.054,0.728-1.651,0.971
	c-0.83,0.338-1.706,0.346-2.569,0.274c-1.165-0.096-2.218-0.528-3.14-1.269c-1.278-1.027-2.045-2.365-2.34-3.953
	c-0.14-0.748-0.178-1.527-0.159-2.29c0.027-1.088,0.381-2.098,0.953-3.03c0.468-0.763,1.051-1.431,1.72-2.014
	c0.617-0.539,1.286-1.02,1.931-1.526c0.038-0.03,0.067-0.072,0.101-0.109C39.316,17.702,39.304,17.683,39.291,17.663z
	 M42.355,18.733c-0.091-0.043-0.14-0.072-0.191-0.089c-0.239-0.077-0.482-0.144-0.72-0.227c-0.491-0.172-0.977-0.362-1.473-0.522
	c-0.101-0.032-0.271-0.006-0.346,0.063c-0.656,0.601-1.201,1.294-1.602,2.089c-0.409,0.812-0.662,1.667-0.736,2.584
	c-0.065,0.822-0.065,1.633,0.116,2.437c0.214,0.944,0.604,1.807,1.272,2.521c0.344,0.368,0.353,0.356,0.795,0.101
	c0.133-0.076,0.223-0.137,0.179-0.33c-0.047-0.206-0.029-0.429-0.023-0.644c0.009-0.308,0.046-0.615,0.047-0.922
	c0.005-1.573,0.004-3.146-0.001-4.719c0-0.172-0.038-0.345-0.063-0.552c-0.198,0.094-0.355,0.174-0.518,0.239
	c-0.049,0.02-0.114-0.005-0.172-0.009c0.015-0.06,0.011-0.136,0.046-0.177c0.047-0.055,0.123-0.087,0.19-0.122
	c0.472-0.256,0.945-0.51,1.418-0.765C41.151,19.381,41.728,19.071,42.355,18.733z M42.621,18.836c0,0.093,0,0.194,0,0.296
	c0,2.29-0.003,4.581,0.006,6.871c0.001,0.204-0.08,0.34-0.229,0.423c-0.552,0.309-1.113,0.599-1.67,0.897
	c-0.417,0.223-0.831,0.451-1.249,0.672c-0.136,0.071-0.176,0.179-0.037,0.244c0.409,0.193,0.817,0.421,1.252,0.517
	c0.492,0.107,1.014,0.117,1.522,0.113c0.592-0.006,1.168-0.135,1.727-0.353c0.208-0.081,0.231-0.194,0.231-0.381
	c-0.004-2.996-0.003-5.992-0.003-8.989c0-0.092,0-0.184,0-0.311C43.648,18.836,43.155,18.836,42.621,18.836z M36.897,20.15
	c-0.057,0.006-0.085,0.001-0.101,0.013c-0.041,0.031-0.08,0.066-0.112,0.105c-0.483,0.578-0.938,1.174-1.242,1.871
	c-0.353,0.806-0.55,1.65-0.567,2.528c-0.019,0.91,0.099,1.811,0.36,2.686c0.396,1.325,1.101,2.44,2.253,3.244
	c0.969,0.675,2.065,0.979,3.223,1.063c0.91,0.066,1.786-0.117,2.61-0.521c0.816-0.4,1.487-0.979,2.051-1.687
	c0.158-0.198,0.287-0.419,0.43-0.629c-0.028-0.023-0.057-0.047-0.085-0.07c-0.148,0.164-0.288,0.337-0.445,0.492
	c-0.648,0.64-1.35,1.217-2.198,1.566c-0.425,0.175-0.877,0.315-1.33,0.376c-0.671,0.09-1.345-0.03-1.991-0.214
	c-1.194-0.34-2.188-1.002-2.977-1.972c-1.009-1.239-1.426-2.688-1.479-4.248c-0.019-0.56,0.112-1.126,0.193-1.687
	c0.108-0.739,0.438-1.395,0.822-2.023C36.493,20.75,36.691,20.464,36.897,20.15z M46.861,16.281
	c-0.036,0.055-0.073,0.108-0.11,0.162c-0.348,0.514-0.778,0.96-1.344,1.207c-0.946,0.414-1.949,0.46-2.938,0.185
	c-0.824-0.229-1.627-0.535-2.434-0.823c-0.642-0.229-1.301-0.35-1.976-0.271c-0.7,0.08-1.295,0.415-1.796,0.906
	c-0.129,0.126-0.218,0.294-0.324,0.442c0.018,0.014,0.036,0.028,0.054,0.042c0.213-0.148,0.412-0.322,0.64-0.44
	c0.731-0.381,1.527-0.487,2.318-0.319c0.751,0.16,1.481,0.429,2.212,0.677c0.734,0.249,1.468,0.502,2.25,0.543
	c0.948,0.05,1.816-0.201,2.555-0.799C46.441,17.408,46.75,16.897,46.861,16.281z M40.348,20.153
	c-0.339,0.06-0.425,0.227-0.423,0.536c0.017,2.134,0.009,4.267,0.01,6.4c0,0.093,0,0.185,0,0.277
	c0.32-0.007,0.413-0.094,0.413-0.369c0-1.91,0-3.82,0-5.729C40.348,20.899,40.348,20.531,40.348,20.153z M40.673,43.58
	c0.114-0.107,0.233-0.211,0.342-0.324c0.556-0.582,1.113-1.164,1.662-1.753c0.131-0.14,0.214-0.135,0.354-0.003
	c0.604,0.568,1.222,1.12,1.829,1.684c0.307,0.283,0.329,0.283,0.618-0.023c0.055-0.058,0.166-0.061,0.251-0.089
	c-0.021,0.085-0.015,0.206-0.069,0.249c-0.256,0.203-0.306,0.457-0.305,0.771c0.01,2.945,0.02,5.891-0.003,8.836
	c-0.007,0.878-0.372,1.647-0.921,2.336c-0.469,0.589-1.04,1.055-1.707,1.38c-0.54,0.264-1.119,0.446-1.685,0.655
	c-0.132,0.048-0.287,0.23-0.42-0.042c0.161-0.109,0.334-0.223,0.503-0.343c0.748-0.535,1.16-1.271,1.292-2.173
	c0.027-0.185,0.05-0.371,0.05-0.558c0.003-3.014,0.001-6.028,0.005-9.042c0-0.216-0.044-0.372-0.235-0.519
	c-0.312-0.238-0.584-0.527-0.867-0.801c-0.286-0.278-0.554-0.227-0.704,0.154c-0.039,0.099-0.054,0.214-0.054,0.321
	c-0.003,2.282-0.002,4.564-0.003,6.847c0,0.226,0.066,0.399,0.271,0.534c0.17,0.11,0.311,0.272,0.441,0.431
	c0.036,0.043,0.022,0.181-0.021,0.228c-0.436,0.468-0.882,0.924-1.322,1.386c-0.188,0.197-0.378,0.396-0.553,0.605
	c-0.124,0.148-0.229,0.134-0.356,0.013c-0.267-0.253-0.534-0.505-0.806-0.754c-0.496-0.457-0.995-0.912-1.532-1.403
	c0.273-0.264,0.519-0.515,0.779-0.747c0.154-0.136,0.21-0.281,0.209-0.489c-0.007-3.496,0.007-6.993-0.019-10.489
	c-0.004-0.493,0.16-0.841,0.479-1.171c0.679-0.702,1.349-1.413,2.021-2.123c0.092-0.098,0.17-0.208,0.314-0.387
	c0.042,0.177,0.09,0.286,0.09,0.395c0.005,2.024,0.003,4.048,0.003,6.072c0,0.094,0,0.188,0,0.282
	C40.628,43.544,40.65,43.562,40.673,43.58z M38.488,39.437c-0.028-0.013-0.057-0.024-0.084-0.037
	c-0.126,0.215-0.39,0.302-0.389,0.64c0.011,3.635,0.004,7.27,0.012,10.903c0,0.245-0.073,0.422-0.248,0.586
	c-0.187,0.174-0.356,0.368-0.514,0.569c-0.04,0.052-0.039,0.199,0.003,0.24c0.58,0.557,1.167,1.107,1.765,1.646
	c0.072,0.065,0.254,0.107,0.32,0.063c0.203-0.135,0.229-0.333,0.084-0.471c-0.416-0.393-0.834-0.785-1.267-1.159
	c-0.265-0.229-0.294-0.25-0.026-0.477c0.276-0.233,0.352-0.502,0.35-0.854c-0.012-3.006-0.007-6.012-0.006-9.018
	C38.488,41.19,38.488,40.313,38.488,39.437z M42.519,55.505c0.015,0.011,0.029,0.021,0.044,0.032
	c0.068-0.06,0.153-0.108,0.204-0.181c0.303-0.434,0.465-0.932,0.468-1.447c0.015-3.064,0.01-6.13-0.001-9.194
	c-0.001-0.149-0.085-0.335-0.191-0.443c-0.386-0.396-0.791-0.773-1.207-1.138c-0.073-0.064-0.291-0.086-0.337-0.034
	c-0.096,0.107-0.374,0.213-0.109,0.439c0.356,0.305,0.701,0.623,1.046,0.941c0.172,0.159,0.355,0.311,0.296,0.598
	c-0.029,0.142-0.006,0.294-0.006,0.441c0,1.928,0,3.856,0,5.785c0,0.268-0.003,0.535,0.003,0.804
	c0.004,0.194,0.029,0.389,0.027,0.582c-0.004,0.447-0.016,0.894-0.028,1.34c-0.007,0.249-0.004,0.5-0.038,0.746
	C42.653,55.022,42.576,55.262,42.519,55.505z M50.652,34.576c0.232-0.166,0.472-0.324,0.695-0.501
	c0.574-0.453,0.893-1.058,1.042-1.766c0.21-0.995,0.085-2.001,0.096-3.001c0.022-2.229,0.003-4.461,0.011-6.691
	c0.001-0.289-0.043-0.505-0.305-0.698c-0.349-0.259-0.648-0.583-0.956-0.894c-0.132-0.132-0.216-0.123-0.335,0.008
	c-0.17,0.187-0.278,0.372-0.276,0.649c0.013,2.273,0.01,4.547,0.003,6.821c0,0.179,0.047,0.306,0.179,0.424
	c0.21,0.19,0.405,0.396,0.615,0.604c-0.2,0.228-0.386,0.448-0.581,0.659c-0.47,0.509-0.94,1.018-1.425,1.513
	c-0.044,0.046-0.215,0.035-0.276-0.014c-0.299-0.24-0.583-0.498-0.866-0.755c-0.431-0.391-0.854-0.788-1.286-1.178
	c-0.132-0.119-0.164-0.205-0.017-0.354c0.251-0.253,0.484-0.526,0.702-0.809c0.063-0.082,0.054-0.225,0.067-0.34
	c0.009-0.077-0.002-0.155-0.002-0.232c0-3.324-0.001-6.648,0.002-9.973c0-0.281,0.019-0.563,0.052-0.843
	c0.012-0.099,0.075-0.204,0.145-0.279c0.768-0.828,1.543-1.65,2.313-2.476c0.085-0.092,0.156-0.197,0.311-0.294
	c0.023,0.112,0.068,0.225,0.068,0.337c0.004,2.041,0.003,4.082,0.003,6.123c0,0.093,0,0.186,0,0.278
	c0.019,0.015,0.037,0.029,0.056,0.044c0.164-0.165,0.33-0.327,0.491-0.495c0.081-0.086,0.146-0.188,0.228-0.272
	c0.433-0.454,0.87-0.902,1.3-1.357c0.114-0.121,0.192-0.15,0.334-0.017c0.652,0.616,1.316,1.22,1.977,1.827
	c0.156,0.144,0.289,0.122,0.42-0.062c0.099-0.138,0.194-0.309,0.363-0.07c-0.011,0.026-0.013,0.048-0.023,0.056
	c-0.345,0.245-0.399,0.585-0.397,0.989c0.015,2.799,0.007,5.598,0.008,8.396c0.001,1.508-0.688,2.646-1.859,3.544
	c-0.778,0.597-1.655,0.966-2.593,1.21c-0.088,0.022-0.193-0.025-0.29-0.04C50.646,34.625,50.649,34.601,50.652,34.576z
	 M49.203,31.462c0.445-0.192,0.48-0.415,0.143-0.695c-0.405-0.337-0.791-0.698-1.197-1.034c-0.194-0.161-0.179-0.286,0.01-0.424
	c0.288-0.21,0.363-0.488,0.362-0.846c-0.013-3.66-0.008-7.319-0.008-10.979c0-0.246,0-0.492,0-0.81
	c-0.3,0.271-0.523,0.475-0.522,0.863c0.01,3.444-0.003,6.889,0.015,10.333c0.002,0.531-0.022,1.005-0.509,1.331
	c-0.06,0.039-0.08,0.135-0.138,0.179c-0.199,0.151-0.137,0.267,0.02,0.407C47.992,30.343,48.599,30.906,49.203,31.462z
	 M52.526,32.896c0.012,0.009,0.022,0.018,0.033,0.026c0.084-0.101,0.17-0.199,0.25-0.302c0.387-0.497,0.447-1.095,0.45-1.684
	c0.015-2.96,0.009-5.92,0.002-8.88c-0.001-0.104-0.055-0.235-0.128-0.309c-0.431-0.43-0.872-0.849-1.314-1.268
	c-0.063-0.06-0.146-0.099-0.235-0.157c-0.045,0.058-0.067,0.096-0.098,0.126c-0.235,0.235-0.239,0.238,0.006,0.475
	c0.356,0.346,0.715,0.689,1.08,1.026c0.13,0.118,0.183,0.242,0.182,0.422c-0.006,3.133-0.004,6.265-0.006,9.396
	c0,0.093-0.016,0.186-0.034,0.276C52.654,32.33,52.589,32.613,52.526,32.896z M63.565,52.935c-0.068-0.063-0.111-0.103-0.165-0.151
	c0.03-0.033,0.052-0.068,0.083-0.092c0.305-0.232,0.389-0.534,0.386-0.915c-0.017-2.11,0.006-4.221-0.021-6.33
	c-0.005-0.444,0.118-0.715,0.492-0.961c0.753-0.495,1.47-1.048,2.204-1.573c0.707-0.505,1.415-1.01,2.132-1.501
	c0.069-0.048,0.235-0.042,0.305,0.01c0.481,0.358,0.95,0.733,1.422,1.105c0.34,0.267,0.674,0.541,1.018,0.802
	c0.174,0.131,0.317,0.043,0.436-0.104c0.042-0.053,0.069-0.124,0.123-0.157c0.037-0.023,0.124-0.017,0.154,0.013
	c0.03,0.03,0.031,0.106,0.02,0.157c-0.007,0.035-0.056,0.063-0.086,0.093c-0.217,0.22-0.312,0.463-0.31,0.792
	c0.016,2.919,0.008,5.839,0.012,8.759c0,0.379,0.13,0.721,0.354,1.033c0.581,0.811,0.481,1.442-0.162,2.175
	c-0.718,0.816-1.598,1.45-2.469,2.09c-0.341,0.251-0.678,0.508-1.004,0.775c-0.188,0.153-0.31,0.168-0.507-0.022
	c-0.32-0.311-0.671-0.604-1.051-0.837c-0.458-0.279-0.979-0.257-1.507-0.189c-0.774,0.1-1.48,0.373-2.165,0.729
	c-0.053,0.027-0.133,0.006-0.199,0.007c0.015-0.067,0.009-0.152,0.049-0.198c0.514-0.592,1.036-1.176,1.553-1.766
	c0.571-0.652,1.138-1.31,1.708-1.964c0.132-0.15,0.1-0.281-0.041-0.396c-0.473-0.385-0.948-0.768-1.424-1.149
	c-0.211-0.17-0.438-0.321-0.635-0.506c-0.183-0.172-0.322-0.155-0.474,0.022C63.73,52.764,63.656,52.836,63.565,52.935z
	 M66.755,43.134c0,0.173,0,0.259,0,0.345c0,2.453,0.003,4.906-0.006,7.36c-0.001,0.21,0.084,0.337,0.229,0.451
	c0.393,0.31,0.781,0.623,1.181,0.922c0.069,0.052,0.227,0.092,0.273,0.054c0.205-0.173,0.437-0.354,0.438-0.654
	c0.006-2.204,0.005-4.408-0.004-6.612c0-0.111-0.069-0.256-0.154-0.328c-0.382-0.32-0.781-0.62-1.174-0.928
	C67.295,43.554,67.052,43.364,66.755,43.134z M68.848,52.313c-0.018-0.018-0.035-0.035-0.053-0.054
	c-1.384,1.601-2.767,3.2-4.163,4.815c0.054,0.01,0.071,0.018,0.087,0.016c0.023-0.004,0.049-0.011,0.07-0.023
	c0.632-0.37,1.301-0.619,2.035-0.712c0.665-0.084,1.31-0.051,1.913,0.236c0.348,0.165,0.663,0.4,0.986,0.613
	c0.282,0.188,0.328,0.187,0.549-0.076c0.033-0.04,0.067-0.077,0.102-0.116c0.438-0.492,0.491-1.196,0.195-1.567
	c-0.214-0.268-0.491-0.494-0.771-0.698c-0.435-0.316-0.833-0.645-0.874-1.233C68.896,53.113,68.873,52.713,68.848,52.313z
	 M71.023,56.16c0.264-0.249,0.194-0.55,0.14-0.828c-0.083-0.429-0.41-0.683-0.739-0.928c-0.44-0.328-0.745-0.749-0.771-1.313
	c-0.023-0.5-0.005-1.001-0.005-1.502c0-1.979,0-3.96,0-5.939c0-0.328,0.019-0.658-0.009-0.984c-0.012-0.138-0.086-0.308-0.188-0.393
	c-0.56-0.465-1.134-0.913-1.712-1.354c-0.119-0.091-0.277-0.17-0.422-0.178c-0.096-0.006-0.205,0.117-0.295,0.197
	c-0.012,0.01,0.04,0.126,0.087,0.162c0.512,0.401,1.02,0.81,1.548,1.189c0.335,0.241,0.492,0.503,0.487,0.948
	c-0.027,2.53-0.016,5.062-0.009,7.592c0,0.27,0.038,0.542,0.083,0.809c0.084,0.495,0.47,0.747,0.833,1.028
	C70.54,55.043,71.094,55.394,71.023,56.16z M64.637,44.702c-0.286,0.045-0.517,0.249-0.517,0.455
	c-0.002,2.306-0.003,4.612,0.006,6.918c0,0.097,0.074,0.219,0.151,0.285c0.396,0.345,0.804,0.678,1.211,1.01
	c0.335,0.272,0.672,0.542,1.014,0.805c0.277,0.213,0.334-0.09,0.46-0.214c0.127-0.125,0.01-0.202-0.076-0.268
	c-0.618-0.47-1.229-0.95-1.863-1.397c-0.298-0.209-0.405-0.429-0.4-0.809c0.029-1.979,0.014-3.958,0.015-5.937
	C64.637,45.269,64.637,44.987,64.637,44.702z M64.697,57.695c0.008,0.026,0.016,0.054,0.023,0.08
	c0.232-0.049,0.463-0.116,0.697-0.142c0.536-0.058,1.089-0.121,1.568,0.186c0.389,0.248,0.766,0.531,1.09,0.856
	c0.229,0.229,0.332,0.022,0.463-0.052c0.171-0.098,0.037-0.198-0.045-0.282c-0.114-0.117-0.226-0.237-0.347-0.346
	c-0.485-0.434-1.028-0.74-1.706-0.694c-0.319,0.022-0.642,0.052-0.954,0.121C65.218,57.482,64.96,57.602,64.697,57.695z
	 M51.814,43.898c0.343-0.379,0.685-0.759,1.029-1.136c0.38-0.417,0.765-0.829,1.142-1.249c0.147-0.166,0.258-0.157,0.423-0.006
	c0.584,0.535,1.188,1.049,1.773,1.582c0.207,0.188,0.479,0.353,0.389,0.725c0.021,0.005,0.041,0.01,0.061,0.015
	c0.185-0.184,0.375-0.362,0.554-0.553c0.391-0.418,0.775-0.842,1.162-1.264c0.155-0.17,0.311-0.34,0.461-0.514
	c0.128-0.148,0.234-0.148,0.385-0.01c0.672,0.617,1.354,1.224,2.033,1.832c0.143,0.127,0.292,0.067,0.464-0.178
	c0.142-0.203,0.162-0.206,0.345-0.04c-0.006,0.015-0.008,0.034-0.02,0.043c-0.455,0.337-0.552,0.787-0.544,1.342
	c0.031,2.118,0.015,4.237,0.009,6.355c0,0.208,0.039,0.361,0.215,0.502c0.28,0.224,0.536,0.479,0.79,0.732
	c0.116,0.115,0.204,0.144,0.314,0.005c0.089-0.113,0.176-0.231,0.282-0.327c0.05-0.044,0.143-0.039,0.215-0.058
	c-0.007,0.073,0.014,0.171-0.026,0.216c-0.38,0.428-0.771,0.846-1.157,1.269c-0.334,0.365-0.667,0.73-0.996,1.101
	c-0.136,0.152-0.231,0.228-0.428,0.037c-0.521-0.505-1.069-0.979-1.608-1.464c-0.05-0.045-0.111-0.077-0.163-0.12
	c-0.203-0.168-0.337-0.35-0.335-0.648c0.014-2.213-0.005-4.426,0.019-6.639c0.005-0.438-0.12-0.752-0.448-1.021
	c-0.258-0.211-0.496-0.445-0.734-0.68c-0.126-0.123-0.231-0.128-0.345,0.005c-0.006,0.007-0.013,0.013-0.02,0.018
	c-0.387,0.28-0.497,0.649-0.491,1.131c0.027,2.074,0.015,4.15,0.007,6.226c0,0.188,0.049,0.322,0.189,0.445
	c0.175,0.153,0.326,0.332,0.497,0.489c0.117,0.107,0.11,0.185,0,0.296c-0.451,0.459-0.896,0.924-1.34,1.39
	c-0.188,0.197-0.373,0.398-0.553,0.604c-0.109,0.126-0.191,0.128-0.314,0.006c-0.45-0.446-0.911-0.884-1.37-1.322
	c-0.235-0.224-0.473-0.445-0.715-0.662c-0.119-0.105-0.145-0.188-0.016-0.315c0.219-0.216,0.426-0.444,0.624-0.679
	c0.06-0.069,0.104-0.178,0.104-0.268c0.006-2.093,0.007-4.186-0.002-6.277c-0.001-0.109-0.074-0.243-0.155-0.322
	c-0.289-0.277-0.604-0.526-0.892-0.805c-0.139-0.135-0.225-0.112-0.334,0.017c-0.072,0.085-0.148,0.172-0.239,0.233
	c-0.058,0.037-0.146,0.027-0.22,0.039C51.827,43.963,51.82,43.931,51.814,43.898z M53.885,52.19
	c0.125-0.116,0.205-0.194,0.289-0.268c0.217-0.187,0.308-0.418,0.283-0.703c-0.012-0.148-0.002-0.299-0.002-0.448
	c0-2.058,0.004-4.115-0.008-6.173c-0.001-0.143-0.08-0.317-0.18-0.421c-0.338-0.353-0.701-0.681-1.057-1.015
	c-0.042-0.04-0.109-0.103-0.145-0.091c-0.115,0.038-0.245,0.084-0.321,0.17c-0.046,0.051-0.043,0.221,0.006,0.269
	c0.222,0.222,0.468,0.419,0.705,0.625c0.293,0.255,0.506,0.505,0.498,0.965c-0.035,2.005-0.014,4.012-0.021,6.018
	c0,0.107-0.042,0.234-0.108,0.317c-0.176,0.219-0.369,0.426-0.568,0.624c-0.11,0.11-0.12,0.191,0,0.296
	c0.199,0.174,0.395,0.353,0.587,0.535c0.392,0.371,0.783,0.743,1.17,1.119c0.116,0.113,0.21,0.113,0.329,0.003
	c0.258-0.241,0.262-0.242,0.007-0.496c-0.116-0.115-0.229-0.232-0.352-0.342C54.64,52.854,54.278,52.538,53.885,52.19z
	 M58.848,48.542c0,1.188-0.005,2.375,0.006,3.563c0.001,0.119,0.065,0.264,0.148,0.35c0.26,0.271,0.54,0.524,0.818,0.777
	c0.283,0.257,0.573,0.508,0.862,0.758c0.12,0.104,0.244,0.166,0.366-0.002c0.097-0.133,0.213-0.263,0.036-0.419
	c-0.407-0.36-0.812-0.725-1.226-1.078c-0.334-0.286-0.572-0.562-0.563-1.079c0.04-2.236,0.015-4.474,0.021-6.711
	c0.001-0.18-0.049-0.306-0.18-0.423c-0.414-0.369-0.821-0.746-1.229-1.123c-0.144-0.132-0.239-0.052-0.347,0.054
	c-0.115,0.112-0.171,0.22-0.031,0.346c0.309,0.28,0.619,0.559,0.932,0.836c0.225,0.199,0.406,0.386,0.396,0.746
	C58.828,46.271,58.848,47.406,58.848,48.542z M89.445,52.23c0.26-0.286,0.515-0.551,0.748-0.834c0.073-0.089,0.12-0.229,0.121-0.345
	c0.007-2.066-0.001-4.133,0.013-6.199c0.001-0.228-0.167-0.297-0.272-0.413c-0.199-0.22-0.44-0.401-0.663-0.6
	c-0.307-0.274-0.337-0.269-0.588,0.058c-0.098,0.126-0.212,0.247-0.351,0.012c0.297-0.336,0.591-0.677,0.894-1.01
	c0.432-0.474,0.871-0.94,1.306-1.411c0.101-0.109,0.198-0.158,0.327-0.041c0.665,0.599,1.33,1.199,2.001,1.791
	c0.172,0.152,0.29,0.313,0.223,0.564c0.021,0.011,0.041,0.021,0.063,0.032c0.17-0.171,0.347-0.335,0.511-0.512
	c0.3-0.326,0.591-0.661,0.89-0.988c0.248-0.272,0.508-0.533,0.751-0.809c0.152-0.172,0.265-0.178,0.442-0.013
	c0.661,0.614,1.337,1.216,2.019,1.808c0.057,0.049,0.218,0.024,0.303-0.02c0.102-0.053,0.165-0.176,0.263-0.243
	c0.061-0.041,0.153-0.035,0.231-0.051c0.021,0.04,0.043,0.081,0.064,0.121c-0.172,0.151-0.359,0.291-0.512,0.461
	c-0.082,0.092-0.15,0.235-0.15,0.356c-0.009,2.153-0.007,4.307-0.006,6.461c0,0.198-0.006,0.397,0.01,0.595
	c0.005,0.071,0.046,0.154,0.098,0.203c0.334,0.316,0.672,0.629,1.019,0.93c0.036,0.032,0.167,0.006,0.215-0.037
	c0.113-0.101,0.194-0.237,0.307-0.34c0.049-0.045,0.142-0.042,0.214-0.062c0,0.076,0.01,0.155-0.006,0.228
	c-0.01,0.045-0.056,0.084-0.091,0.12c-0.439,0.458-0.884,0.911-1.318,1.374c-0.285,0.305-0.559,0.62-0.834,0.935
	c-0.096,0.109-0.171,0.137-0.295,0.022c-0.538-0.499-1.085-0.988-1.63-1.479c-0.044-0.039-0.1-0.064-0.144-0.103
	c-0.229-0.195-0.401-0.387-0.397-0.744c0.021-2.178-0.009-4.357,0.025-6.535c0.008-0.514-0.162-0.862-0.534-1.167
	c-0.225-0.184-0.437-0.384-0.642-0.589c-0.133-0.133-0.223-0.115-0.368-0.002c-0.38,0.299-0.507,0.655-0.499,1.149
	c0.031,2.065,0.015,4.132,0.01,6.198c-0.001,0.192,0.035,0.342,0.189,0.472c0.177,0.149,0.326,0.331,0.498,0.487
	c0.118,0.109,0.104,0.187-0.004,0.297c-0.467,0.474-0.927,0.954-1.386,1.435c-0.183,0.191-0.349,0.399-0.541,0.58
	c-0.046,0.043-0.2,0.045-0.246,0.002C90.955,53.665,90.198,52.944,89.445,52.23z M90.528,52.17c0.085-0.068,0.137-0.114,0.192-0.154
	c0.315-0.229,0.384-0.54,0.381-0.918c-0.015-2.101-0.012-4.201-0.003-6.302c0.002-0.305-0.049-0.544-0.304-0.753
	c-0.351-0.286-0.665-0.616-0.992-0.931c-0.121-0.117-0.24-0.109-0.322,0.021c-0.064,0.104-0.154,0.296-0.112,0.344
	c0.2,0.231,0.431,0.44,0.67,0.633c0.333,0.269,0.576,0.508,0.561,1.031c-0.055,1.797-0.021,3.598-0.021,5.396
	c0,0.069-0.004,0.139,0.007,0.206c0.058,0.341,0.008,0.646-0.261,0.894c-0.146,0.134-0.274,0.286-0.423,0.417
	c-0.131,0.116-0.119,0.207,0.007,0.313c0.169,0.144,0.335,0.291,0.495,0.443c0.417,0.396,0.834,0.791,1.244,1.193
	c0.146,0.144,0.266,0.113,0.379-0.028c0.062-0.078,0.11-0.166,0.172-0.261C91.646,53.205,91.108,52.706,90.528,52.17z
	 M95.952,48.177c0-1.188,0.002-2.375-0.004-3.563c0-0.093-0.021-0.215-0.081-0.272c-0.365-0.354-0.744-0.692-1.12-1.035
	c-0.068-0.063-0.154-0.107-0.215-0.176c-0.123-0.14-0.236-0.08-0.314,0.026c-0.09,0.12-0.227,0.254-0.033,0.415
	c0.19,0.158,0.37,0.328,0.551,0.498c0.149,0.142,0.273,0.322,0.444,0.429c0.244,0.151,0.313,0.344,0.312,0.616
	c-0.008,2.324-0.007,4.648,0.002,6.973c0.001,0.126,0.067,0.278,0.154,0.373c0.194,0.214,0.42,0.4,0.635,0.596
	c0.348,0.314,0.694,0.631,1.048,0.938c0.055,0.047,0.164,0.093,0.218,0.069c0.29-0.122,0.333-0.36,0.097-0.571
	c-0.471-0.417-0.952-0.82-1.431-1.229c-0.169-0.145-0.271-0.304-0.268-0.548C95.959,50.535,95.952,49.356,95.952,48.177z
	 M28.448,51.854c-0.016,0.068-0.01,0.155-0.05,0.204c-0.15,0.185-0.313,0.36-0.477,0.534c-0.538,0.575-1.082,1.145-1.614,1.724
	c-0.144,0.155-0.232,0.162-0.391,0.007c-0.606-0.593-1.228-1.169-1.846-1.749c-0.055-0.052-0.133-0.08-0.182-0.135
	c-0.143-0.162-0.256-0.113-0.385,0.021c-0.577,0.601-1.157,1.197-1.739,1.793c-0.251,0.258-0.243,0.242-0.513,0.002
	c-0.661-0.589-1.332-1.165-1.999-1.747c-0.058-0.051-0.114-0.105-0.165-0.164c-0.155-0.179-0.293-0.26-0.451,0.011
	c-0.035,0.061-0.184,0.055-0.319,0.09c0.024-0.103,0.021-0.138,0.037-0.148c0.315-0.229,0.342-0.559,0.341-0.909
	c-0.003-2.092,0.003-4.184-0.008-6.275c-0.001-0.21,0.073-0.346,0.226-0.453c1.212-0.857,2.426-1.711,3.638-2.566
	c0.311-0.219,0.627-0.431,0.92-0.671c0.144-0.117,0.241-0.084,0.356,0.007c0.812,0.638,1.62,1.279,2.438,1.907
	c0.058,0.044,0.211,0.025,0.279-0.022c0.108-0.076,0.182-0.202,0.3-0.342c0.083,0.097,0.131,0.151,0.173,0.2
	c-0.015,0.036-0.017,0.058-0.027,0.066c-0.371,0.275-0.457,0.641-0.451,1.096c0.022,2.109,0.013,4.218,0.005,6.327
	c0,0.188,0.05,0.32,0.188,0.446c0.355,0.322,0.702,0.654,1.044,0.991c0.118,0.116,0.196,0.096,0.296-0.015
	c0.089-0.1,0.192-0.187,0.289-0.278C28.391,51.821,28.42,51.838,28.448,51.854z M21.57,43.138c-0.013,0.284-0.032,0.505-0.032,0.727
	c-0.002,2.135-0.001,4.271-0.001,6.406c-0.001,0.342,0.15,0.595,0.414,0.807c0.378,0.304,0.733,0.634,1.107,0.941
	c0.1,0.082,0.243,0.185,0.35,0.168c0.197-0.031,0.253-0.203,0.252-0.41c-0.007-2.195-0.009-4.392,0.001-6.587
	c0.001-0.281-0.038-0.487-0.291-0.669C22.779,44.099,22.216,43.639,21.57,43.138z M21.769,42.969
	c0.644,0.506,1.247,1.008,1.881,1.468c0.25,0.182,0.319,0.387,0.318,0.667c-0.004,2.281-0.004,4.563,0.005,6.844
	c0,0.119,0.063,0.264,0.146,0.351c0.223,0.236,0.473,0.446,0.708,0.669c0.367,0.348,0.734,0.695,1.097,1.047
	c0.118,0.114,0.223,0.115,0.327-0.008c0.074-0.088,0.142-0.182,0.216-0.276c-0.331-0.314-0.641-0.609-0.952-0.902
	c-0.249-0.234-0.478-0.499-0.757-0.689c-0.274-0.187-0.332-0.409-0.331-0.714c0.01-2.117-0.002-4.235,0.012-6.353
	c0.002-0.436-0.026-0.79-0.446-1.073c-0.566-0.383-1.073-0.853-1.615-1.272c-0.062-0.048-0.201-0.044-0.278-0.008
	C21.98,42.772,21.886,42.876,21.769,42.969z M19.419,44.699c-0.341,0.054-0.466,0.186-0.466,0.467c0,2.169,0.003,4.338-0.005,6.507
	c0,0.184,0.063,0.304,0.194,0.417c0.452,0.395,0.899,0.795,1.35,1.192c0.287,0.254,0.566,0.517,0.869,0.75
	c0.064,0.05,0.254,0.027,0.318-0.033c0.087-0.082,0.213-0.217,0.037-0.365c-0.286-0.241-0.564-0.493-0.842-0.744
	c-0.399-0.361-0.779-0.745-1.2-1.078c-0.193-0.153-0.26-0.305-0.259-0.534c0.004-2.092,0.003-4.184,0.003-6.274
	C19.419,44.902,19.419,44.803,19.419,44.699z M54.126,69.41c0.074,0.069,0.116,0.108,0.164,0.153
	c-0.054,0.078-0.089,0.176-0.159,0.223c-0.302,0.203-0.302,0.495-0.301,0.814c0.01,1.989,0.007,3.978,0.003,5.966
	c-0.001,0.264,0.012,0.541-0.065,0.785c-0.051,0.16-0.236,0.293-0.387,0.405c-0.756,0.567-1.521,1.124-2.282,1.684
	c-0.517,0.38-1.029,0.765-1.555,1.133c-0.069,0.049-0.232,0.053-0.3,0.004c-0.728-0.521-1.445-1.055-2.162-1.591
	c-0.217-0.163-0.416-0.349-0.629-0.517c-0.394-0.311-0.377-0.224-0.602,0.017c-0.091,0.097-0.181,0.173-0.28,0.014
	c0.005-0.021,0.005-0.043,0.015-0.052c0.284-0.228,0.353-0.519,0.351-0.879c-0.016-2.126,0-4.253-0.017-6.379
	c-0.002-0.307,0.106-0.49,0.34-0.651c0.852-0.591,1.702-1.185,2.547-1.785c0.536-0.382,1.057-0.786,1.599-1.161
	c0.072-0.051,0.256-0.026,0.334,0.033c0.893,0.685,1.78,1.376,2.654,2.084c0.201,0.162,0.334,0.153,0.488-0.027
	C53.954,69.598,54.031,69.516,54.126,69.41z M48.87,69.435c-0.025,0.036-0.042,0.049-0.042,0.062
	c-0.002,2.472-0.006,4.943,0.001,7.414c0,0.095,0.065,0.218,0.141,0.277c0.458,0.36,0.926,0.707,1.394,1.055
	c0.174,0.129,0.356,0.247,0.564,0.391c0.008-0.103,0.013-0.137,0.013-0.171c0.001-2.395,0.004-4.788-0.008-7.183
	c-0.001-0.139-0.099-0.312-0.206-0.408c-0.276-0.247-0.584-0.46-0.879-0.687C49.522,69.935,49.196,69.685,48.87,69.435z
	 M51.199,79.056c0.199-0.181,0.467-0.185,0.467-0.48c-0.002-2.608,0-5.217-0.006-7.825c0-0.075-0.055-0.172-0.114-0.223
	c-0.296-0.253-0.602-0.496-0.906-0.738c-0.403-0.321-0.808-0.643-1.217-0.957c-0.134-0.102-0.5-0.022-0.523,0.128
	c-0.015,0.098,0.083,0.247,0.174,0.321c0.599,0.483,1.209,0.952,1.814,1.427c0.228,0.178,0.324,0.389,0.321,0.701
	c-0.019,1.824-0.01,3.649-0.01,5.475C51.199,77.581,51.199,78.278,51.199,79.056z M46.649,70.573
	c-0.235,0.194-0.469,0.259-0.468,0.57c0.01,2.211,0.003,4.422,0.013,6.634c0.001,0.101,0.085,0.229,0.169,0.298
	c0.474,0.382,0.957,0.753,1.44,1.122c0.489,0.375,0.979,0.751,1.482,1.104c0.064,0.045,0.222-0.041,0.335-0.065
	c-0.022-0.092-0.018-0.211-0.075-0.268c-0.156-0.153-0.338-0.281-0.511-0.416c-0.705-0.553-1.415-1.1-2.113-1.661
	c-0.101-0.081-0.188-0.224-0.21-0.35c-0.046-0.259-0.057-0.526-0.058-0.79c-0.004-1.687-0.003-3.373,0-5.06
	c0-0.159,0.041-0.318,0.041-0.478C46.694,71.022,46.669,70.83,46.649,70.573z M88.199,43.32c-0.116,0.166-0.16,0.283-0.245,0.34
	c-0.289,0.196-0.274,0.478-0.273,0.774c0.006,2.058-0.014,4.116,0.016,6.174c0.007,0.486-0.158,0.776-0.541,1.051
	c-1.263,0.903-2.504,1.84-3.753,2.762c-0.047,0.035-0.104,0.058-0.169,0.093c-1.007-0.761-2.021-1.521-3.024-2.293
	c-0.168-0.129-0.287-0.123-0.416,0.025c-0.063,0.071-0.118,0.148-0.178,0.223c-0.035-0.012-0.07-0.023-0.106-0.035
	c0.01-0.081-0.012-0.2,0.033-0.236c0.225-0.178,0.239-0.409,0.238-0.667c-0.006-2.162,0.006-4.323-0.013-6.484
	c-0.003-0.305,0.122-0.492,0.331-0.643c1.22-0.875,2.446-1.741,3.671-2.61c0.138-0.098,0.294-0.178,0.407-0.299
	c0.159-0.168,0.28-0.147,0.447-0.014c0.613,0.493,1.235,0.976,1.854,1.461c0.26,0.204,0.521,0.405,0.78,0.609
	c0.183,0.144,0.35,0.154,0.501-0.047c0.041-0.055,0.089-0.116,0.147-0.142C87.975,43.332,88.058,43.338,88.199,43.32z M84.79,52.457
	c0-2.539,0.001-4.982-0.006-7.426c0-0.084-0.063-0.19-0.131-0.246c-0.535-0.441-1.078-0.875-1.622-1.307
	c-0.099-0.078-0.215-0.134-0.348-0.215c-0.007,0.102-0.013,0.152-0.013,0.203c0,2.41,0.003,4.819-0.005,7.229
	c-0.001,0.201,0.116,0.297,0.241,0.392c0.455,0.349,0.917,0.689,1.379,1.029C84.431,52.224,84.584,52.318,84.79,52.457z
	 M80.553,44.49c-0.339,0.061-0.516,0.234-0.516,0.511c-0.003,2.187-0.005,4.372,0.006,6.559c0.001,0.127,0.092,0.288,0.192,0.372
	c0.349,0.293,0.72,0.56,1.083,0.836c0.571,0.435,1.144,0.867,1.714,1.304c0.143,0.109,0.391,0.114,0.468-0.039
	c0.031-0.062-0.056-0.229-0.135-0.293c-0.841-0.668-1.691-1.323-2.536-1.985c-0.179-0.14-0.287-0.296-0.285-0.558
	c0.016-1.713,0.009-3.426,0.009-5.139C80.553,45.542,80.553,45.026,80.553,44.49z M82.675,42.919c0.109,0.089,0.209,0.17,0.31,0.249
	c0.626,0.489,1.252,0.979,1.879,1.466c0.14,0.108,0.189,0.238,0.188,0.419c-0.006,2.504-0.004,5.008-0.004,7.513
	c0,0.091,0,0.182,0,0.331c0.233-0.17,0.507-0.236,0.511-0.53c0.005-0.418-0.042-0.837-0.043-1.256
	c-0.005-2.136-0.007-4.271,0.004-6.405c0.001-0.221-0.083-0.355-0.24-0.473c-0.054-0.04-0.109-0.078-0.162-0.12
	c-0.563-0.445-1.121-0.9-1.692-1.336C83.059,42.498,83.05,42.511,82.675,42.919z M31.08,49.237c-0.602,0-1.203,0.001-1.805,0
	c-0.287,0-0.347-0.055-0.348-0.34c-0.002-1.43-0.003-2.858,0.004-4.288c0.001-0.089,0.048-0.208,0.114-0.262
	c0.294-0.24,0.6-0.467,0.908-0.688c0.686-0.491,1.374-0.979,2.064-1.464c0.372-0.262,0.757-0.506,1.121-0.778
	c0.117-0.088,0.2-0.08,0.285-0.002c0.607,0.558,1.322,0.606,2.095,0.494c0.378-0.055,0.713-0.175,1.034-0.369
	c0.057-0.034,0.146-0.017,0.285-0.029c-0.543,0.781-1.036,1.484-1.522,2.192c-0.41,0.598-0.813,1.201-1.22,1.801
	c-0.076,0.111-0.164,0.215-0.234,0.33c-0.021,0.034-0.019,0.104,0.004,0.139c0.019,0.027,0.082,0.034,0.125,0.033
	c0.739-0.006,1.478-0.019,2.216-0.021c0.179,0,0.215,0.129,0.215,0.284c-0.003,0.784-0.002,1.567-0.002,2.351
	c0,0.827-0.024,1.654,0.012,2.479c0.016,0.37-0.124,0.579-0.404,0.773c-1.169,0.814-2.33,1.642-3.495,2.462
	c-0.132,0.094-0.231,0.154-0.412,0.005c-0.327-0.271-0.682-0.553-1.074-0.691c-0.859-0.304-1.73-0.3-2.533,0.222
	c-0.184,0.119-0.341,0.278-0.521,0.403c-0.056,0.038-0.146,0.024-0.221,0.034c0.014-0.068,0.007-0.149,0.043-0.202
	c0.905-1.322,1.813-2.643,2.724-3.961c0.193-0.281,0.393-0.56,0.59-0.839C31.112,49.282,31.096,49.26,31.08,49.237z M33.542,48.359
	c-0.438,0-0.824-0.014-1.21,0.008c-0.117,0.007-0.269,0.079-0.337,0.171c-0.3,0.406-0.573,0.833-0.86,1.249
	c-0.436,0.632-0.877,1.261-1.312,1.894c-0.187,0.272-0.363,0.551-0.544,0.827c0.01,0.029,0.02,0.058,0.03,0.087
	c1.441-1.03,2.861-1.181,4.232,0.105C33.542,51.221,33.542,49.807,33.542,48.359z M31.834,46.86c0.132,0,0.235,0,0.338,0
	c0.675,0,0.668-0.004,1.037-0.542c0.621-0.903,1.252-1.8,1.876-2.701c0.028-0.04,0.027-0.101,0.053-0.2
	c-1.177,0.649-2.267,0.646-3.304-0.285C31.834,44.417,31.834,45.625,31.834,46.86z M31.68,48.434
	c-0.212,0.011-0.391,0.029-0.568,0.026c-0.341-0.006-0.681-0.038-1.02-0.032c-0.313,0.005-0.39-0.047-0.39-0.354
	c0-1.205,0-2.409,0-3.614c0-0.091,0-0.182,0-0.278c-0.33,0.069-0.516,0.277-0.517,0.552c-0.001,0.199,0,0.398,0,0.598
	c-0.001,1.102-0.001,2.203-0.001,3.305c0,0.091,0,0.183,0,0.293c0.633,0,1.235-0.025,1.834,0.01
	C31.375,48.958,31.558,48.817,31.68,48.434z M32.449,48.049c0.319,0,0.634-0.001,0.949,0c0.341,0.001,0.438,0.099,0.438,0.442
	c0.001,1.412,0,2.824,0,4.237c0,0.09,0,0.18,0,0.277c0.348-0.083,0.466-0.222,0.466-0.521c0-1.541,0-3.083,0-4.624
	c0-0.084,0-0.167,0-0.276c-0.47,0-0.916,0-1.36,0C32.601,47.584,32.514,47.662,32.449,48.049z M32.289,42.358
	c-0.126,0.07-0.274,0.126-0.38,0.226c-0.052,0.049-0.063,0.239-0.023,0.269c0.299,0.214,0.597,0.443,0.929,0.593
	c0.846,0.38,1.614,0.063,2.361-0.333c0.058-0.03,0.095-0.102,0.167-0.182C33.664,43.416,33.027,43.014,32.289,42.358z M29.376,53.14
	c0.005,0.025,0.009,0.052,0.014,0.077c0.042,0,0.085,0,0.128,0c0.025,0,0.052,0.001,0.077-0.003c0.965-0.18,1.782,0.137,2.49,0.77
	c0.181,0.161,0.32,0.146,0.506-0.027c0.147-0.137,0.04-0.274-0.082-0.389c-0.654-0.609-1.447-0.745-2.295-0.648
	C29.93,52.951,29.655,53.063,29.376,53.14z M74.145,43.347c-0.418,0-0.798,0.007-1.177-0.005c-0.1-0.004-0.197-0.066-0.296-0.103
	c0.034-0.085,0.056-0.178,0.104-0.254c0.206-0.318,0.427-0.628,0.628-0.949c0.118-0.189,0.254-0.264,0.479-0.196
	c0.171,0.051,0.272-0.017,0.265-0.226c-0.013-0.344,0.022-0.691-0.011-1.032c-0.03-0.313,0.093-0.539,0.29-0.748
	c0.323-0.343,0.651-0.682,0.973-1.025c0.443-0.475,0.882-0.954,1.329-1.426c0.058-0.061,0.153-0.085,0.231-0.126
	c0.025,0.084,0.074,0.169,0.074,0.253c0.005,1.344,0.011,2.687-0.002,4.029c-0.002,0.258,0.082,0.321,0.324,0.313
	c0.499-0.017,0.999-0.008,1.498-0.002c0.079,0.001,0.157,0.041,0.235,0.063c-0.031,0.074-0.053,0.155-0.096,0.223
	c-0.195,0.305-0.415,0.596-0.59,0.911c-0.146,0.264-0.38,0.282-0.622,0.296c-0.238,0.014-0.478,0.003-0.744,0.003
	c0,0.113,0,0.206,0,0.298c0,2.394,0.004,4.787-0.006,7.181c-0.001,0.22,0.062,0.358,0.236,0.483c0.364,0.26,0.721,0.532,1.07,0.812
	c0.132,0.105,0.214,0.048,0.3-0.041c0.13-0.136,0.255-0.276,0.393-0.427c0.062,0.046,0.114,0.085,0.169,0.125
	c-0.112,0.14-0.209,0.277-0.323,0.399c-0.561,0.601-1.127,1.196-1.688,1.796c-0.104,0.111-0.201,0.23-0.298,0.349
	c-0.138,0.17-0.248,0.161-0.423,0.016c-0.65-0.542-1.32-1.059-1.979-1.591c-0.158-0.128-0.278-0.159-0.377,0.06
	c-0.02,0.044-0.063,0.09-0.107,0.107c-0.074,0.029-0.157,0.037-0.236,0.055c0.021-0.079,0.016-0.191,0.067-0.231
	c0.262-0.207,0.317-0.468,0.315-0.791c-0.011-2.756-0.006-5.511-0.006-8.267C74.145,43.577,74.145,43.476,74.145,43.347z
	 M74.92,47.749c0-0.163,0-0.326,0-0.49c0-1.23-0.003-2.462,0.003-3.692c0-0.161-0.033-0.258-0.213-0.273
	c-0.266-0.021-0.307,0.012-0.307,0.295c-0.001,2.763,0.003,5.525-0.006,8.288c-0.001,0.322,0.035,0.567,0.334,0.781
	c0.611,0.437,1.184,0.93,1.777,1.394c0.131,0.102,0.267,0.064,0.351-0.071c0.067-0.108,0.141-0.211-0.03-0.338
	c-0.51-0.378-1.014-0.766-1.49-1.184c-0.184-0.161-0.44-0.268-0.432-0.629C74.938,50.47,74.919,49.109,74.92,47.749z M74.906,41.765
	c0-0.655,0-1.313,0-1.972c-0.258,0.047-0.499,0.318-0.503,0.563c-0.004,0.344-0.001,0.687-0.001,1.03
	C74.402,41.89,74.402,41.89,74.906,41.765z M64.171,69.511c-0.514-0.059-1.02,0.053-1.552-0.085
	c0.301-0.457,0.551-0.845,0.811-1.227c0.101-0.147,0.237-0.24,0.436-0.205c0.091,0.016,0.186,0.002,0.306,0.002
	c0-0.475,0.008-0.929-0.004-1.382c-0.005-0.204,0.06-0.354,0.201-0.5c0.686-0.708,1.363-1.424,2.04-2.14
	c0.175-0.186,0.337-0.383,0.56-0.637c0.044,0.172,0.093,0.275,0.094,0.379c0.005,1.326,0.003,2.652,0.003,3.979
	c0,0.093,0,0.186,0,0.301c0.6,0,1.175-0.004,1.749,0.004c0.107,0.002,0.214,0.052,0.364,0.091c-0.295,0.438-0.553,0.832-0.819,1.218
	c-0.091,0.131-0.21,0.204-0.392,0.191c-0.289-0.02-0.581-0.005-0.89-0.005c-0.005,0.103-0.012,0.186-0.012,0.269
	c-0.001,2.429,0,4.857-0.003,7.285c0,0.153,0.025,0.256,0.173,0.356c0.342,0.233,0.657,0.505,0.982,0.762
	c0.31,0.245,0.393,0.229,0.655-0.152c0.104-0.149,0.209-0.219,0.383-0.045c-0.838,0.897-1.668,1.787-2.521,2.701
	c-0.809-0.642-1.604-1.272-2.394-1.898c-0.443,0.396-0.443,0.396-0.593,0.285c0.044-0.051,0.086-0.103,0.131-0.15
	c0.206-0.216,0.302-0.45,0.3-0.77c-0.016-2.747-0.009-5.494-0.009-8.241C64.171,69.776,64.171,69.656,64.171,69.511z M64.945,69.509
	c-0.517-0.036-0.517-0.036-0.517,0.439c0,2.688,0.008,5.374-0.009,8.061c-0.002,0.388,0.094,0.646,0.419,0.876
	c0.587,0.416,1.136,0.883,1.703,1.325c0.159,0.124,0.282,0.08,0.381-0.103c0.132-0.244-0.085-0.332-0.205-0.433
	c-0.512-0.431-1.031-0.854-1.566-1.254c-0.163-0.121-0.206-0.246-0.206-0.426c0.001-2.722,0.001-5.442,0-8.164
	C64.945,69.729,64.945,69.628,64.945,69.509z M64.931,67.978c0-0.688,0-1.36,0-2.086c-0.276,0.241-0.53,0.424-0.506,0.807
	c0.02,0.291,0.004,0.584,0.004,0.876c0,0.44,0,0.441,0.436,0.42C64.88,67.993,64.896,67.986,64.931,67.978z M61.617,18.664
	c0.265,0.42,0.516,0.818,0.768,1.216c0.36,0.569,0.725,1.136,1.082,1.707c0.215,0.343,0.431,0.687,0.616,1.045
	c0.035,0.069-0.039,0.251-0.117,0.313c-0.37,0.294-0.76,0.563-1.141,0.843c-0.979,0.721-1.958,1.442-2.937,2.163
	c-0.082,0.061-0.179,0.108-0.241,0.184c-0.075,0.09-0.164,0.2-0.171,0.307c-0.022,0.317-0.013,0.637-0.007,0.955
	c0.006,0.332,0.308,0.432,0.507,0.596c0.602,0.494,1.23,0.954,1.828,1.451c0.196,0.163,0.305,0.08,0.426-0.051
	c0.366-0.394,0.725-0.796,1.095-1.185c0.049-0.051,0.154-0.048,0.232-0.069c-0.021,0.085-0.018,0.194-0.07,0.251
	c-0.544,0.593-1.1,1.175-1.648,1.763c-0.521,0.56-1.039,1.123-1.578,1.705c-0.275-0.219-0.534-0.42-0.789-0.625
	c-0.806-0.648-1.609-1.298-2.414-1.946c-0.141-0.112-0.283-0.157-0.419,0.017c-0.048,0.061-0.103,0.122-0.167,0.16
	c-0.04,0.023-0.138,0.023-0.153-0.002c-0.029-0.045-0.041-0.154-0.016-0.172c0.492-0.334,0.372-0.841,0.373-1.309
	c0.004-1.739,0.019-3.479-0.011-5.218c-0.007-0.41,0.148-0.64,0.452-0.858c1.268-0.911,2.525-1.837,3.788-2.755
	C61.129,18.985,61.362,18.837,61.617,18.664z M59.544,20.706c-0.015,0.008-0.029,0.015-0.045,0.022c0,1.71,0,3.421,0,5.164
	c0.096-0.057,0.157-0.086,0.21-0.126c0.604-0.446,1.196-0.908,1.814-1.334c0.218-0.15,0.171-0.259,0.063-0.427
	c-0.313-0.489-0.622-0.981-0.927-1.476C60.284,21.924,59.916,21.314,59.544,20.706z M57.401,22.067
	c-0.245,0.01-0.465,0.229-0.466,0.484c0,2.021,0.004,4.043-0.006,6.065c-0.001,0.209,0.084,0.335,0.229,0.451
	c0.595,0.476,1.189,0.95,1.782,1.428c0.376,0.303,0.747,0.611,1.124,0.913c0.188,0.15,0.281-0.008,0.384-0.129
	c0.109-0.13,0.032-0.185-0.081-0.251c-0.087-0.051-0.146-0.145-0.227-0.21c-0.838-0.687-1.681-1.368-2.516-2.06
	c-0.093-0.077-0.2-0.197-0.208-0.305c-0.027-0.379-0.017-0.761-0.017-1.142c-0.001-0.93,0-1.858,0-2.787
	C57.401,23.712,57.401,22.898,57.401,22.067z M62.341,23.839c-0.733-1.198-1.448-2.358-2.153-3.524
	c-0.103-0.169-0.174-0.213-0.351-0.077c-0.16,0.124-0.2,0.2-0.08,0.39c0.688,1.088,1.367,2.182,2.027,3.287
	c0.13,0.218,0.231,0.161,0.376,0.071C62.218,23.948,62.268,23.898,62.341,23.839z M50.415,43.165
	c0.131-0.155,0.259-0.307,0.396-0.471c0.079,0.072,0.133,0.122,0.182,0.166c-0.01,0.032-0.011,0.055-0.021,0.063
	c-0.392,0.277-0.458,0.66-0.454,1.121c0.022,2.239,0.014,4.479,0.006,6.718c-0.001,0.224,0.054,0.388,0.224,0.535
	c0.277,0.24,0.539,0.501,0.809,0.751c0.203,0.188,0.285,0.179,0.463-0.034c0.072-0.085,0.148-0.171,0.239-0.233
	c0.048-0.033,0.13-0.015,0.196-0.02c-0.008,0.066-0.003,0.14-0.029,0.199c-0.022,0.051-0.082,0.086-0.123,0.129
	c-0.637,0.672-1.274,1.343-1.91,2.015c-0.11,0.115-0.203,0.298-0.332,0.328c-0.092,0.022-0.234-0.157-0.351-0.251
	c-0.197-0.16-0.4-0.315-0.587-0.487c-0.359-0.331-0.712-0.67-1.063-1.009c-0.259-0.25-0.286-0.255-0.531-0.005
	c-0.06,0.061-0.104,0.136-0.167,0.218c-0.09-0.084-0.144-0.133-0.192-0.178c0.011-0.031,0.012-0.054,0.022-0.062
	c0.393-0.278,0.458-0.66,0.453-1.122c-0.021-2.213-0.012-4.427-0.006-6.64c0-0.168-0.042-0.291-0.169-0.401
	c-0.238-0.208-0.489-0.408-0.691-0.648c-0.21-0.249-0.348-0.191-0.524,0.019c-0.049,0.057-0.159,0.062-0.241,0.091
	c-0.014-0.026-0.026-0.052-0.039-0.078c0.079-0.107,0.148-0.223,0.237-0.319c0.309-0.334,0.623-0.661,0.936-0.99
	c0.337-0.354,0.676-0.706,1.009-1.063c0.11-0.118,0.191-0.163,0.335-0.024c0.312,0.303,0.646,0.582,0.968,0.874
	c0.247,0.224,0.487,0.455,0.735,0.679C50.247,43.082,50.32,43.109,50.415,43.165z M48.409,48.146c0-1.196,0.006-2.394-0.007-3.591
	c-0.002-0.155-0.058-0.35-0.161-0.456c-0.321-0.329-0.68-0.62-1.018-0.934c-0.138-0.128-0.235-0.083-0.348,0.032
	c-0.105,0.107-0.193,0.21-0.053,0.346c0.229,0.219,0.459,0.436,0.694,0.646c0.229,0.204,0.387,0.409,0.384,0.76
	c-0.018,2.272,0.005,4.547-0.021,6.819c-0.005,0.427,0.183,0.664,0.482,0.882c0.055,0.04,0.105,0.087,0.155,0.133
	c0.435,0.398,0.87,0.796,1.3,1.198c0.18,0.168,0.309,0.108,0.444-0.056c0.14-0.17,0.021-0.264-0.089-0.362
	c-0.043-0.04-0.103-0.061-0.146-0.101c-0.468-0.431-0.931-0.867-1.403-1.293c-0.148-0.135-0.223-0.273-0.221-0.485
	C48.415,50.505,48.409,49.325,48.409,48.146z M5.057,33.192c-0.196,0.16-0.396,0.317-0.589,0.481
	c-0.519,0.441-0.738,1.031-0.748,1.686c-0.006,0.358,0.109,0.712,0.364,1.001c0.486,0.551,1.031,1.066,1.179,1.835
	c0.038,0.198,0.089,0.396,0.095,0.597c0.015,0.445,0.005,0.891,0.005,1.428c0.145-0.12,0.235-0.184,0.312-0.263
	c0.153-0.16,0.292-0.333,0.446-0.493c0.56-0.581,1.124-1.158,1.684-1.739c0.143-0.147,0.277-0.301,0.407-0.459
	c0.123-0.152,0.218-0.138,0.352-0.001c0.518,0.53,1.042,1.054,1.569,1.573c0.416,0.409,0.846,0.804,1.26,1.214
	c0.16,0.159,0.264,0.084,0.384-0.042c0.854-0.892,1.71-1.783,2.567-2.672c0.24-0.248,0.244-0.244,0.493,0.005
	c0.844,0.844,1.689,1.685,2.526,2.535c0.078,0.079,0.138,0.218,0.138,0.329c0.008,3.04,0.008,6.08,0.001,9.12
	c0,0.105-0.046,0.242-0.119,0.312c-0.806,0.768-1.619,1.526-2.434,2.284c-0.369,0.343-0.747,0.676-1.117,1.018
	c-0.503,0.464-1.002,0.932-1.503,1.398c-0.139,0.129-0.247,0.14-0.409-0.007c-0.569-0.511-1.16-0.997-1.739-1.496
	c-0.432-0.373-0.858-0.752-1.287-1.128c-0.052-0.046-0.102-0.093-0.152-0.14c-0.147-0.138-0.267-0.119-0.401,0.037
	c-0.788,0.915-1.584,1.824-2.375,2.737c-0.119,0.138-0.216,0.149-0.363,0.021c-0.975-0.848-1.958-1.687-2.937-2.53
	c-0.175-0.15-0.362-0.291-0.508-0.467c-0.088-0.107-0.146-0.271-0.146-0.411c-0.011-1.464-0.007-2.928-0.007-4.392
	c0-0.095,0-0.189,0-0.323c-0.376,0.037-0.732-0.039-1.111,0.077c-0.408,0.126-0.486,0.516-0.785,0.808
	c-0.035-0.153-0.058-0.251-0.081-0.35c-0.199-0.85-0.071-1.643,0.42-2.369c0.315-0.466,0.775-0.694,1.321-0.745
	c0.175-0.016,0.24-0.058,0.239-0.24c-0.005-1.395,0.008-2.79-0.009-4.185c-0.005-0.427-0.253-0.779-0.493-1.118
	c-0.264-0.37-0.481-0.768-0.476-1.229c0.009-0.651,0.254-1.226,0.664-1.737c0.798-0.993,1.896-1.529,3.024-2.022
	c0.096-0.042,0.214-0.028,0.322-0.041C5.045,33.123,5.051,33.158,5.057,33.192z M8.308,46.451c0-1.54,0.004-3.081-0.006-4.622
	c-0.001-0.138-0.057-0.311-0.149-0.408c-0.535-0.56-1.091-1.1-1.636-1.65c-0.123-0.124-0.225-0.126-0.346,0.001
	c-0.196,0.205-0.395,0.409-0.603,0.602c-0.149,0.137-0.21,0.29-0.21,0.495c0.006,2.892,0.006,5.784-0.002,8.676
	c-0.001,0.243,0.098,0.405,0.268,0.548c0.208,0.175,0.417,0.348,0.624,0.523c0.454,0.383,0.905,0.771,1.363,1.148
	c0.049,0.04,0.175,0.067,0.204,0.039c0.217-0.215,0.497-0.384,0.495-0.756C8.304,49.516,8.308,47.983,8.308,46.451z M14.135,51.966
	c0.008-0.104,0.012-0.138,0.012-0.172c0.001-3.46,0.003-6.92-0.007-10.38c0-0.128-0.077-0.28-0.166-0.377
	c-0.31-0.334-0.639-0.65-0.963-0.972c-0.546-0.539-0.398-0.548-0.954,0.044c-0.153,0.162-0.395,0.293-0.394,0.593
	c0.006,2.97,0.001,5.939,0.012,8.909c0,0.134,0.079,0.305,0.179,0.396c0.681,0.616,1.377,1.217,2.07,1.82
	C13.976,51.872,14.04,51.903,14.135,51.966z M9.031,45.957c0-1.532,0.003-3.064-0.006-4.597c-0.001-0.119-0.063-0.268-0.146-0.352
	c-0.607-0.607-1.23-1.197-1.84-1.802c-0.154-0.153-0.253-0.1-0.386,0.024c-0.142,0.132-0.106,0.216,0.014,0.335
	c0.583,0.574,1.155,1.158,1.739,1.73c0.152,0.149,0.215,0.306,0.215,0.52c-0.006,3.014-0.002,6.026-0.009,9.039
	c0,0.198,0.053,0.339,0.2,0.467c0.604,0.526,1.197,1.063,1.801,1.588c0.436,0.379,0.881,0.747,1.322,1.119
	c0.169,0.144,0.286,0.05,0.417-0.072c0.139-0.13,0.084-0.217-0.027-0.314c-0.448-0.394-0.892-0.792-1.343-1.182
	c-0.572-0.494-1.149-0.982-1.726-1.472c-0.169-0.143-0.232-0.313-0.23-0.538C9.035,48.953,9.031,47.455,9.031,45.957z
	 M14.457,52.021c0.272-0.233,0.478-0.39,0.476-0.756c-0.017-3.365-0.013-6.729-0.005-10.094c0-0.235-0.078-0.407-0.235-0.563
	c-0.436-0.434-0.869-0.869-1.304-1.303c-0.3-0.299-0.455-0.268-0.632,0.128c0.494,0.517,0.984,1.038,1.486,1.547
	c0.148,0.151,0.219,0.304,0.218,0.519c-0.005,3.382-0.004,6.764-0.004,10.146C14.457,51.748,14.457,51.851,14.457,52.021z
	 M0.524,46.178c0.188-0.069,0.354-0.163,0.53-0.189c0.285-0.042,0.576-0.049,0.865-0.056c0.309-0.008,0.394,0.083,0.394,0.392
	c0,1.54,0.002,3.081-0.004,4.621c-0.001,0.169,0.041,0.294,0.171,0.4c0.315,0.257,0.63,0.516,0.938,0.782
	c0.56,0.483,1.115,0.974,1.671,1.461c0.16,0.141,0.315,0.287,0.479,0.424c0.135,0.113,0.267,0.104,0.364-0.051
	c0.077-0.123,0.182-0.22-0.007-0.378c-0.614-0.513-1.202-1.057-1.805-1.582c-0.288-0.25-0.591-0.482-0.881-0.73
	c-0.289-0.247-0.488-0.502-0.476-0.948c0.04-1.437,0.015-2.876,0.015-4.313c0-0.411,0.001-0.425-0.391-0.438
	c-0.414-0.016-0.829-0.015-1.242,0.001C0.794,45.586,0.513,45.873,0.524,46.178z M2.313,43.629c0.457,0.064,0.466,0.059,0.466-0.356
	c0-1.258-0.016-2.515,0.005-3.771c0.012-0.662-0.167-1.239-0.535-1.788C2.014,37.361,1.743,37,1.798,36.529
	c0.053-0.455,0.152-0.896,0.422-1.282c0.139-0.199,0.268-0.405,0.4-0.608c-0.021-0.017-0.04-0.033-0.061-0.05
	c-0.171,0.174-0.349,0.342-0.511,0.523c-0.386,0.432-0.624,0.937-0.717,1.509c-0.098,0.61,0.221,1.088,0.543,1.541
	c0.299,0.42,0.444,0.859,0.441,1.37c-0.009,1.274-0.003,2.548-0.003,3.822C2.313,43.447,2.313,43.54,2.313,43.629z M59.766,72.183
	c0.847,0,1.604,0.008,2.361-0.006c0.229-0.004,0.292,0.068,0.291,0.294c-0.009,1.627-0.015,3.255,0.005,4.882
	c0.004,0.303-0.088,0.488-0.326,0.651c-0.981,0.672-1.956,1.353-2.932,2.032c-0.229,0.159-0.45,0.329-0.679,0.488
	c-0.139,0.097-0.262,0.116-0.402-0.031c-0.677-0.708-1.534-0.946-2.479-0.861c-0.584,0.053-1.087,0.34-1.535,0.715
	c-0.026,0.021-0.045,0.057-0.074,0.07c-0.074,0.035-0.152,0.061-0.229,0.091c0.018-0.074,0.018-0.161,0.058-0.221
	c0.25-0.381,0.506-0.757,0.765-1.132c0.815-1.179,1.633-2.356,2.446-3.537c0.039-0.057,0.045-0.136,0.075-0.232
	c-0.636,0-1.237,0.001-1.839,0c-0.326,0-0.351-0.024-0.351-0.355c-0.001-1.386,0.002-2.772-0.003-4.158
	c-0.001-0.229,0.087-0.374,0.273-0.505c1.271-0.893,2.537-1.79,3.796-2.697c0.196-0.142,0.342-0.152,0.535-0.01
	c1,0.737,2.021,0.588,3.047,0.053c0.049-0.025,0.11-0.025,0.167-0.038c-0.006,0.061,0.01,0.136-0.02,0.18
	c-0.497,0.732-0.999,1.462-1.501,2.192c-0.392,0.569-0.785,1.139-1.176,1.709C59.957,71.876,59.881,72.002,59.766,72.183z
	 M59.535,74.56c-0.474,0-0.896-0.004-1.315,0.004c-0.065,0.001-0.153,0.037-0.189,0.088c-0.283,0.389-0.558,0.784-0.83,1.181
	c-0.51,0.743-1.016,1.489-1.523,2.235c-0.146,0.216-0.292,0.433-0.438,0.649c0.015,0.021,0.029,0.04,0.043,0.061
	c0.643-0.464,1.327-0.787,2.136-0.814c0.838-0.028,1.496,0.353,2.117,0.875C59.535,77.383,59.535,75.986,59.535,74.56z
	 M57.824,73.009c0.315,0,0.614,0.006,0.913-0.005c0.064-0.003,0.145-0.054,0.188-0.107c0.104-0.13,0.191-0.276,0.287-0.414
	c0.607-0.872,1.216-1.744,1.82-2.618c0.048-0.068,0.066-0.157,0.074-0.178c-0.41,0.107-0.826,0.231-1.25,0.323
	c-0.682,0.148-1.257-0.095-1.773-0.526c-0.064-0.053-0.152-0.077-0.259-0.129C57.824,70.593,57.824,71.779,57.824,73.009z
	 M55.695,70.288c-0.113,0.071-0.187,0.121-0.262,0.165c-0.318,0.188-0.247,0.511-0.25,0.788c-0.012,1.213-0.001,2.426-0.008,3.639
	c-0.001,0.193,0.062,0.255,0.253,0.251c0.567-0.01,1.135-0.002,1.703-0.003c0.272-0.001,0.472-0.196,0.514-0.517
	c-0.543,0-1.084-0.009-1.625,0.003c-0.247,0.006-0.33-0.09-0.328-0.333c0.008-1.152,0.003-2.305,0.003-3.458
	C55.695,70.662,55.695,70.502,55.695,70.288z M59.83,79.192c0.261-0.024,0.465-0.231,0.465-0.462c0-1.609,0-3.219,0-4.827
	c0-0.05-0.006-0.099-0.011-0.171c-0.478,0-0.94-0.002-1.402,0.001c-0.272,0.001-0.449,0.216-0.42,0.516
	c0.316,0,0.634,0.013,0.951-0.003c0.329-0.017,0.418,0.024,0.418,0.43C59.828,76.173,59.83,77.67,59.83,79.192z M61.345,69.082
	c-0.211,0.052-0.419,0.138-0.631,0.149c-0.421,0.023-0.862,0.081-1.261-0.017c-0.358-0.088-0.68-0.35-1-0.562
	c-0.187-0.124-0.318-0.112-0.55,0.102c-0.179,0.165-0.04,0.252,0.064,0.35c0.646,0.603,1.401,0.796,2.254,0.58
	C60.638,69.578,61.03,69.408,61.345,69.082z M58.698,79.994c-0.854-1.169-2.655-1.105-3.291-0.629c0.319,0,0.69-0.03,1.054,0.007
	c0.556,0.057,1.062,0.267,1.473,0.658C58.288,80.368,58.353,80.372,58.698,79.994z"/>
</svg>
