<?xml version="1.0" encoding="utf-8"?>
<!-- Generator: Adobe Illustrator 16.0.0, SVG Export Plug-In . SVG Version: 6.00 Build 0)  -->
<!DOCTYPE svg PUBLIC "-//W3C//DTD SVG 1.1//EN" "http://www.w3.org/Graphics/SVG/1.1/DTD/svg11.dtd">
<svg version="1.1" id="Layer_1" xmlns="http://www.w3.org/2000/svg" xmlns:xlink="http://www.w3.org/1999/xlink" x="0px" y="0px"
	 width="100px" height="100px" viewBox="0 0 100 100" enable-background="new 0 0 100 100" xml:space="preserve">
<path fill="#010101" d="M100,19.404c0,0.357-0.115,0.687-0.339,0.982c-0.221,0.293-0.465,0.439-0.734,0.439
	c-2.194,0.211-3.991,0.918-5.384,2.121c-1.402,1.199-2.832,3.494-4.321,6.867L66.539,80.948c-0.156,0.475-0.572,0.717-1.256,0.717
	c-0.534,0-0.95-0.242-1.25-0.717L51.316,54.341l-14.64,26.607c-0.3,0.475-0.714,0.717-1.251,0.717c-0.648,0-1.078-0.242-1.291-0.717
	L11.841,29.813c-1.393-3.175-2.861-5.388-4.408-6.644c-1.542-1.262-3.698-2.045-6.447-2.344c-0.236,0-0.469-0.122-0.668-0.378
	C0.106,20.201,0,19.911,0,19.587c0-0.836,0.237-1.252,0.71-1.252c1.992,0,4.065,0.092,6.24,0.266
	c2.01,0.184,3.915,0.271,5.688,0.271c1.812,0,3.948-0.087,6.414-0.271c2.576-0.173,4.861-0.266,6.852-0.266
	c0.475,0,0.711,0.416,0.711,1.252c0,0.826-0.15,1.238-0.44,1.238c-1.986,0.149-3.552,0.662-4.698,1.514
	c-1.14,0.863-1.715,1.99-1.715,3.386c0,0.716,0.237,1.6,0.716,2.669l18.421,41.604l10.458-19.752l-9.742-20.433
	c-1.749-3.639-3.195-5.998-4.321-7.051c-1.126-1.049-2.832-1.695-5.118-1.937c-0.212,0-0.406-0.122-0.6-0.378
	c-0.193-0.246-0.29-0.536-0.29-0.86c0-0.836,0.203-1.252,0.624-1.252c1.991,0,3.808,0.092,5.47,0.266
	c1.606,0.184,3.312,0.271,5.123,0.271c1.774,0,3.66-0.087,5.646-0.271c2.049-0.173,4.065-0.266,6.049-0.266
	c0.481,0,0.712,0.416,0.712,1.252c0,0.826-0.134,1.238-0.434,1.238c-3.978,0.275-5.967,1.401-5.967,3.387
	c0,0.889,0.456,2.271,1.379,4.132l6.453,13.086l6.408-11.965c0.89-1.692,1.332-3.118,1.332-4.277c0-2.726-1.979-4.175-5.964-4.363
	c-0.356,0-0.53-0.412-0.53-1.238c0-0.3,0.087-0.58,0.261-0.846c0.183-0.27,0.357-0.406,0.542-0.406c1.42,0,3.169,0.092,5.249,0.266
	c1.984,0.184,3.624,0.271,4.9,0.271c0.906,0,2.26-0.078,4.039-0.228c2.251-0.203,4.146-0.309,5.653-0.309
	c0.36,0,0.532,0.353,0.532,1.068c0,0.947-0.328,1.421-0.976,1.421c-2.31,0.242-4.175,0.879-5.587,1.917
	c-1.402,1.04-3.16,3.398-5.268,7.07L56.39,45.622l11.568,23.572l17.089-39.729c0.59-1.455,0.89-2.789,0.89-4.002
	c0-2.915-1.992-4.451-5.964-4.639c-0.356,0-0.53-0.412-0.53-1.238c0-0.836,0.26-1.252,0.79-1.252c1.457,0,3.183,0.092,5.168,0.266
	c1.842,0.184,3.388,0.271,4.624,0.271c1.315,0,2.823-0.087,4.544-0.271c1.777-0.173,3.382-0.266,4.803-0.266
	C99.786,18.335,100,18.688,100,19.404L100,19.404z"/>
</svg>
