<?xml version="1.0" encoding="utf-8"?>
<!-- Generator: Adobe Illustrator 16.0.0, SVG Export Plug-In . SVG Version: 6.00 Build 0)  -->
<!DOCTYPE svg PUBLIC "-//W3C//DTD SVG 1.1//EN" "http://www.w3.org/Graphics/SVG/1.1/DTD/svg11.dtd">
<svg version="1.1" id="Layer_1" xmlns="http://www.w3.org/2000/svg" xmlns:xlink="http://www.w3.org/1999/xlink" x="0px" y="0px"
	 width="100px" height="100px" viewBox="0 0 100 100" enable-background="new 0 0 100 100" xml:space="preserve">
<path fill="#231F20" d="M0,39.775h20.013v20.449H0V39.775 M1.474,42.985c0.893,4.157,1.693,8.336,2.554,12.501
	c0.157,0.499,0.06,1.157,0.544,1.491c0.873,0.14,1.768,0.104,2.648,0.045c0.479,0.015,0.593-0.549,0.681-0.91
	c0.601-2.965,1.254-5.92,1.853-8.885c0.047-0.274,0.132-0.542,0.262-0.788c0.746,3.182,1.361,6.391,2.055,9.583
	c0.095,0.339,0.115,0.758,0.449,0.965c0.953,0.115,1.93,0.125,2.88-0.007c0.342-0.202,0.359-0.619,0.446-0.963
	c0.88-4.342,1.701-8.701,2.631-13.033c-0.84,0.005-1.678,0.002-2.516,0.002c-0.668,3.778-1.205,7.581-1.942,11.347
	c-0.831-3.194-1.387-6.466-2.11-9.69c-0.165-0.551-0.09-1.354-0.693-1.633c-0.738-0.045-1.481-0.048-2.219,0
	c-0.419,0.035-0.514,0.531-0.596,0.86c-0.668,3.197-1.369,6.387-2.022,9.584c-0.067,0.297-0.167,0.581-0.279,0.862
	c-0.671-3.768-1.307-7.546-1.885-11.329C3.299,42.985,2.387,42.99,1.474,42.985z"/>
<path fill="#231F20" d="M39.838,39.775h20.013v20.449H39.838V39.775 M44.359,42.987v14.025h2.773v-5.486
	c1.503,0.005,3.007-0.008,4.511,0.002c0.549-0.052,1.202,0.34,1.189,0.943c0.07,1.516,0.199,3.027,0.294,4.541
	c0.881,0,1.758,0,2.639,0.002c-0.249-1.716,0.058-3.488-0.427-5.169c-0.249-0.881-1.222-1.077-1.979-1.297
	c0.563-0.3,1.286-0.327,1.695-0.875c0.594-0.753,0.636-1.758,0.639-2.676c-0.01-1.072,0.015-2.252-0.666-3.152
	c-0.543-0.748-1.561-0.858-2.414-0.858C49.863,42.985,47.11,42.987,44.359,42.987L44.359,42.987z"/>
<path fill="#231F20" d="M79.738,39.775H100v20.449H79.738V39.775 M84.26,42.987v14.025c2.331-0.005,4.66,0.01,6.992-0.008
	c1.437-0.027,3.109-0.294,3.975-1.581c1.011-1.616,0.858-3.594,1.035-5.417c-0.18-1.825-0.02-3.81-1.035-5.431
	c-0.805-1.205-2.347-1.521-3.7-1.571C89.104,42.965,86.681,42.998,84.26,42.987z M25.09,42.851c3.225-0.008,6.446-0.008,9.668,0
	c0.012,0.835,0.012,1.673,0.002,2.511c-1.14,0.008-2.279,0.003-3.419,0.003c0.005,3.089,0.005,6.182,0,9.271
	c1.14,0,2.279-0.005,3.421,0.005c0.005,0.836,0.007,1.674-0.005,2.509c-3.222,0.008-6.444,0.008-9.666,0
	c-0.013-0.838-0.013-1.673-0.002-2.511c1.14-0.008,2.279-0.003,3.419-0.003c-0.005-3.09-0.005-6.182,0-9.271
	c-1.14,0-2.279,0.005-3.419-0.003C25.08,44.524,25.08,43.688,25.09,42.851L25.09,42.851z M63.427,42.853
	c3.95-0.013,7.899-0.013,11.853,0c0.005,1.551,0,3.102,0.003,4.653h-2.566c-0.003-0.716-0.003-1.429,0.002-2.142
	c-1.546,0.002-3.089,0.002-4.636,0c-0.005,1.072-0.002,2.145-0.002,3.217h3.74v2.387h-3.74c0.005,1.225-0.013,2.451,0.012,3.676
	c1.587-0.018,3.173-0.005,4.759-0.008c-0.003-0.815-0.003-1.631,0-2.446c0.87-0.01,1.74-0.01,2.61-0.003
	c0,1.654,0.013,3.307-0.007,4.961c-4.01,0.012-8.018,0.012-12.027,0c-0.013-0.836-0.011-1.671-0.003-2.507
	c0.636-0.007,1.27-0.007,1.905-0.002c0.013-3.093,0.013-6.185,0-9.277c-0.636,0.005-1.271,0.005-1.907-0.007
	C63.416,44.521,63.416,43.686,63.427,42.853L63.427,42.853z"/>
<path fill="#231F20" d="M47.132,45.292c1.78,0.027,3.563-0.055,5.339,0.037c0.686,0.486,0.548,1.464,0.576,2.2
	c-0.035,0.668-0.048,1.738-0.938,1.791c-1.655,0.084-3.319,0.012-4.977,0.035V45.292z M87.032,45.292
	c1.504,0.007,3.008-0.01,4.512,0.005c0.671-0.008,1.436,0.319,1.648,1.007c0.471,1.347,0.271,2.808,0.324,4.209
	c-0.04,1.12,0.077,2.302-0.399,3.352c-0.319,0.679-1.145,0.857-1.825,0.846c-1.422,0-2.841-0.005-4.26-0.003V45.292L87.032,45.292z"
	/>
</svg>
